<svg xmlns="http://www.w3.org/2000/svg" xmlns:xlink="http://www.w3.org/1999/xlink" width="700" height="500">
<defs>
<style type="text/css"><![CDATA[
  .borderLine {
	   stroke: none;
	   fill-opacity:  0.2 ;
  }
  .outLine {
	   stroke-width:  2 ;
	   fill: none;
  }
  .circle {
	   stroke: #888888;
	   stroke-width: 0.5;
	   fill: none;
    pointer-events: all;
  }
  .nLabel {
	   font-family: Arial;
    pointer-events: none;
	   font-size: 20px;
	   text-anchor: middle;
	   alignment-baseline: central;
  }
  .belong { 
 display: none;
	   font-family: Arial;
    pointer-events: none;
	   font-size: 10px;
	   text-anchor: middle;
	   alignment-baseline: central;
  }
  .legend {
    font-family: Arial;
    font-size: 15px;
  }
  #legendBox {
    display:  inline ;
  }
  .p0{
    stroke: none;
    fill:  #f3f3f3 ;
  }
  .q0{
    fill: none;
    stroke:  #f3f3f3 ;
  }
  .p1{
    stroke: none;
    fill:  #279989 ;
  }
  .q1{
    fill: none;
    stroke:  #279989 ;
  }
  .p2{
    stroke: none;
    fill:  #beca50 ;
  }
  .q2{
    fill: none;
    stroke:  #beca50 ;
  }
  .p3{
    stroke: none;
    fill:  #e8ac44 ;
  }
  .q3{
    fill: none;
    stroke:  #e8ac44 ;
  }
  .p4{
    stroke: none;
    fill:  #cc453c ;
  }
  .q4{
    fill: none;
    stroke:  #cc453c ;
  }
]]>
</style>
<symbol id="bl0">
<path d="M 446.29 296.36 L 443.52 298.76 L 440.69 301.09 L 437.80 303.36 L 434.87 305.57 L 431.90 307.75 L 428.92 309.90 L 425.92 312.04 L 422.92 314.18 L 419.93 316.33 L 416.93 318.49 L 413.94 320.66 L 410.95 322.84 L 407.96 325.02 L 404.97 327.20 L 401.98 329.38 L 398.98 331.56 L 395.98 333.74 L 392.98 335.92 L 389.98 338.10 L 386.98 340.28 L 383.96 342.46 L 380.94 344.62 L 377.92 346.78 L 374.89 348.93 L 371.85 351.08 L 368.82 353.23 L 365.77 355.37 L 362.71 357.51 L 359.66 359.64 L 356.60 361.77 L 353.54 363.88 L 350.49 366.00 L 347.43 368.11 L 344.38 370.22 L 341.33 372.32 L 338.27 374.41 L 335.22 376.49 L 332.16 378.59 L 329.12 380.68 L 326.08 382.80 L 323.06 384.92 L 320.03 387.04 L 317.02 389.18 L 314.00 391.31 L 310.98 393.44 L 307.96 395.57 L 304.94 397.69 L 301.92 399.81 L 298.90 401.93 L 295.89 404.04 L 292.89 406.14 L 289.90 408.24 L 286.91 410.33 L 283.92 412.42 L 280.93 414.50 L 277.93 416.55 L 274.91 418.57 L 271.85 420.52 L 268.74 422.38 L 265.56 424.10 L 262.30 425.64 L 258.96 426.97 L 255.54 428.07 L 252.04 428.91 L 248.49 429.49 L 244.91 429.81 L 241.31 429.86 L 237.71 429.66 L 234.12 429.23 L 230.55 428.60 L 227.00 427.80 L 223.47 426.88 L 219.96 425.88 L 216.46 424.82 L 212.96 423.73 L 209.46 422.62 L 205.96 421.51 L 202.46 420.40 L 198.95 419.27 L 195.43 418.15 L 191.92 417.02 L 188.41 415.90 L 184.91 414.78 L 181.40 413.67 L 177.89 412.58 L 174.39 411.49 L 170.89 410.41 L 167.40 409.32 L 163.90 408.24 L 160.41 407.15 L 156.93 406.05 L 153.45 404.93 L 149.98 403.81 L 146.52 402.68 L 143.06 401.52 L 139.60 400.35 L 136.14 399.17 L 132.67 397.97 L 129.20 396.77 L 125.72 395.58 L 122.23 394.39 L 118.72 393.22 L 115.19 392.05 L 111.66 390.88 L 108.11 389.71 L 104.57 388.52 L 101.02 387.31 L 97.49 386.04 L 93.99 384.71 L 90.54 383.28 L 87.16 381.70 L 83.88 379.95 L 80.76 377.98 L 77.81 375.77 L 75.06 373.33 L 72.50 370.68 L 70.14 367.84 L 67.93 364.86 L 65.84 361.78 L 63.84 358.64 L 61.90 355.46 L 60.00 352.26 L 58.12 349.05 L 56.25 345.84 L 54.39 342.63 L 52.54 339.42 L 50.70 336.21 L 48.86 333.00 L 47.02 329.81 L 45.17 326.62 L 43.32 323.44 L 41.46 320.26 L 39.58 317.08 L 37.71 313.90 L 35.83 310.72 L 33.94 307.54 L 32.04 304.36 L 30.14 301.19 L 28.23 298.01 L 26.33 294.83 L 24.45 291.64 L 22.61 288.43 L 20.84 285.19 L 19.16 281.91 L 17.60 278.57 L 16.16 275.19 L 14.88 271.75 L 13.75 268.25 L 12.78 264.72 L 11.97 261.14 L 11.33 257.53 L 10.86 253.89 L 10.56 250.23 L 10.43 246.56 L 10.46 242.89 L 10.66 239.21 L 11.04 235.56 L 11.58 231.92 L 12.30 228.32 L 13.19 224.74 L 14.23 221.20 L 15.44 217.71 L 16.79 214.27 L 18.28 210.88 L 19.88 207.53 L 21.60 204.22 L 23.39 200.96 L 25.24 197.71 L 27.13 194.49 L 29.06 191.28 L 31.00 188.08 L 32.96 184.89 L 34.93 181.71 L 36.91 178.54 L 38.89 175.37 L 40.88 172.21 L 42.86 169.05 L 44.84 165.89 L 46.83 162.73 L 48.82 159.58 L 50.82 156.43 L 52.82 153.29 L 54.83 150.15 L 56.84 147.02 L 58.85 143.91 L 60.86 140.80 L 62.89 137.71 L 64.95 134.64 L 67.06 131.63 L 69.25 128.69 L 71.55 125.85 L 73.99 123.16 L 76.59 120.65 L 79.36 118.32 L 82.29 116.19 L 85.35 114.25 L 88.52 112.47 L 91.77 110.82 L 95.07 109.26 L 98.42 107.77 L 101.78 106.33 L 105.17 104.91 L 108.57 103.51 L 111.97 102.10 L 115.37 100.70 L 118.77 99.28 L 122.17 97.86 L 125.57 96.42 L 128.97 94.98 L 132.36 93.53 L 135.75 92.08 L 139.14 90.65 L 142.54 89.24 L 145.96 87.88 L 149.40 86.61 L 152.88 85.46 L 156.40 84.45 L 159.97 83.61 L 163.58 82.94 L 167.22 82.43 L 170.88 82.05 L 174.56 81.76 L 178.26 81.53 L 181.95 81.33 L 185.65 81.13 L 189.34 80.93 L 193.04 80.71 L 196.73 80.48 L 200.43 80.24 L 204.13 80.00 L 207.82 79.77 L 211.52 79.54 L 215.21 79.33 L 218.90 79.11 L 222.59 78.90 L 226.28 78.69 L 229.96 78.46 L 233.65 78.24 L 237.33 78.01 L 241.02 77.79 L 244.71 77.58 L 248.40 77.37 L 252.10 77.17 L 255.80 76.96 L 259.50 76.76 L 263.21 76.54 L 266.91 76.32 L 270.61 76.08 L 274.31 75.84 L 278.01 75.59 L 281.70 75.33 L 285.39 75.06 L 289.07 74.78 L 292.76 74.48 L 296.44 74.18 L 300.12 73.88 L 303.80 73.58 L 307.48 73.29 L 311.17 73.00 L 314.85 72.71 L 318.54 72.42 L 322.22 72.12 L 325.92 71.81 L 329.62 71.50 L 333.32 71.18 L 337.03 70.88 L 340.75 70.59 L 344.47 70.33 L 348.19 70.12 L 351.91 69.95 L 355.64 69.85 L 359.37 69.82 L 363.09 69.87 L 366.81 70.02 L 370.52 70.26 L 374.22 70.60 L 377.92 71.04 L 381.59 71.59 L 385.26 72.24 L 388.90 73.00 L 392.52 73.86 L 396.11 74.82 L 399.68 75.88 L 403.21 77.05 L 406.69 78.33 L 410.14 79.71 L 413.55 81.19 L 416.91 82.77 L 420.22 84.45 L 423.48 86.21 L 426.69 88.07 L 429.85 90.01 L 432.94 92.05 L 435.98 94.16 L 438.96 96.36 L 441.86 98.64 L 444.70 101.01 L 447.47 103.45 L 450.18 105.97 L 452.80 108.57 L 455.35 111.24 L 457.83 113.99 L 460.23 116.80 L 462.54 119.69 L 464.77 122.63 L 466.91 125.63 L 468.97 128.69 L 470.94 131.80 L 472.82 134.96 L 474.61 138.18 L 476.30 141.44 L 477.90 144.75 L 479.40 148.10 L 480.79 151.50 L 482.10 154.94 L 483.31 158.41 L 484.42 161.92 L 485.44 165.45 L 486.37 169.01 L 487.19 172.60 L 487.92 176.20 L 488.53 179.83 L 489.05 183.48 L 489.45 187.15 L 489.74 190.84 L 489.92 194.53 L 490.00 198.24 L 489.97 201.95 L 489.84 205.67 L 489.59 209.37 L 489.24 213.07 L 488.79 216.75 L 488.22 220.41 L 487.56 224.05 L 486.80 227.68 L 485.94 231.28 L 484.97 234.85 L 483.91 238.40 L 482.75 241.91 L 481.50 245.39 L 480.14 248.83 L 478.68 252.23 L 477.13 255.58 L 475.48 258.88 L 473.73 262.13 L 471.90 265.33 L 469.98 268.48 L 467.97 271.57 L 465.88 274.60 L 463.70 277.57 L 461.44 280.47 L 459.11 283.30 L 456.69 286.06 L 454.20 288.74 L 451.63 291.36 L 449.00 293.90 Z" />
</symbol>
<symbol id="bl1">
<path d="M 201.50 326.89 L 202.14 328.18 L 202.70 329.50 L 203.18 330.85 L 203.58 332.22 L 203.91 333.63 L 204.15 335.07 L 204.31 336.54 L 204.40 338.03 L 204.40 339.53 L 204.33 341.02 L 204.19 342.49 L 204.00 343.94 L 203.75 345.37 L 203.48 346.76 L 203.17 348.13 L 202.85 349.48 L 202.50 350.81 L 202.13 352.14 L 201.72 353.46 L 201.28 354.77 L 200.82 356.07 L 200.34 357.36 L 199.86 358.65 L 199.40 359.95 L 198.96 361.26 L 198.56 362.59 L 198.19 363.95 L 197.87 365.31 L 197.58 366.69 L 197.33 368.09 L 197.11 369.50 L 196.91 370.93 L 196.72 372.38 L 196.54 373.82 L 196.38 375.27 L 196.23 376.72 L 196.09 378.16 L 195.97 379.60 L 195.86 381.04 L 195.74 382.48 L 195.61 383.92 L 195.45 385.33 L 195.24 386.71 L 194.96 388.05 L 194.61 389.36 L 194.19 390.63 L 193.68 391.86 L 193.09 393.05 L 192.43 394.21 L 191.68 395.33 L 190.87 396.42 L 189.99 397.45 L 189.05 398.43 L 188.05 399.34 L 187.01 400.18 L 185.91 400.95 L 184.77 401.65 L 183.59 402.28 L 182.37 402.84 L 181.11 403.31 L 179.79 403.70 L 178.43 403.99 L 177.02 404.20 L 175.59 404.32 L 174.14 404.35 L 172.71 404.29 L 171.31 404.14 L 169.94 403.90 L 168.61 403.58 L 167.31 403.18 L 166.04 402.71 L 164.80 402.19 L 163.59 401.63 L 162.40 401.05 L 161.23 400.46 L 160.07 399.85 L 158.91 399.23 L 157.72 398.59 L 156.50 397.94 L 155.26 397.26 L 153.99 396.57 L 152.71 395.88 L 151.43 395.19 L 150.18 394.51 L 148.94 393.84 L 147.72 393.18 L 146.51 392.52 L 145.32 391.85 L 144.13 391.16 L 142.96 390.47 L 141.80 389.77 L 140.63 389.05 L 139.47 388.34 L 138.30 387.63 L 137.12 386.92 L 135.93 386.20 L 134.73 385.47 L 133.52 384.73 L 132.32 383.96 L 131.12 383.16 L 129.95 382.33 L 128.83 381.45 L 127.78 380.51 L 126.80 379.53 L 125.91 378.48 L 125.11 377.36 L 124.42 376.18 L 123.81 374.94 L 123.31 373.64 L 122.90 372.29 L 122.60 370.92 L 122.40 369.53 L 122.30 368.15 L 122.29 366.78 L 122.37 365.44 L 122.51 364.13 L 122.70 362.83 L 122.90 361.53 L 123.09 360.24 L 123.25 358.93 L 123.37 357.60 L 123.45 356.27 L 123.47 354.93 L 123.44 353.59 L 123.35 352.25 L 123.20 350.91 L 123.00 349.56 L 122.74 348.17 L 122.45 346.74 L 122.12 345.25 L 121.77 343.72 L 121.40 342.17 L 121.03 340.63 L 120.67 339.12 L 120.34 337.66 L 120.06 336.24 L 119.85 334.87 L 119.71 333.51 L 119.65 332.18 L 119.68 330.85 L 119.79 329.55 L 119.99 328.26 L 120.28 327.01 L 120.66 325.77 L 121.13 324.56 L 121.69 323.39 L 122.34 322.25 L 123.09 321.15 L 123.91 320.12 L 124.81 319.13 L 125.78 318.21 L 126.82 317.34 L 127.91 316.51 L 129.05 315.72 L 130.22 314.94 L 131.40 314.19 L 132.59 313.45 L 133.77 312.71 L 134.93 311.96 L 136.07 311.21 L 137.20 310.45 L 138.30 309.67 L 139.39 308.86 L 140.46 308.03 L 141.51 307.17 L 142.54 306.27 L 143.56 305.36 L 144.57 304.42 L 145.57 303.46 L 146.56 302.47 L 147.55 301.46 L 148.52 300.41 L 149.47 299.33 L 150.40 298.22 L 151.31 297.09 L 152.20 295.93 L 153.08 294.75 L 153.95 293.54 L 154.81 292.30 L 155.66 291.03 L 156.50 289.75 L 157.33 288.46 L 158.14 287.16 L 158.94 285.86 L 159.75 284.57 L 160.55 283.27 L 161.35 281.99 L 162.14 280.73 L 162.92 279.49 L 163.68 278.27 L 164.43 277.07 L 165.17 275.88 L 165.91 274.69 L 166.64 273.50 L 167.36 272.32 L 168.07 271.14 L 168.79 269.98 L 169.50 268.83 L 170.23 267.69 L 170.97 266.55 L 171.73 265.42 L 172.50 264.30 L 173.29 263.17 L 174.11 262.04 L 174.94 260.91 L 175.80 259.77 L 176.66 258.62 L 177.54 257.46 L 178.42 256.29 L 179.33 255.13 L 180.25 253.99 L 181.21 252.89 L 182.23 251.84 L 183.30 250.87 L 184.43 249.98 L 185.63 249.17 L 186.89 248.44 L 188.20 247.79 L 189.55 247.21 L 190.93 246.67 L 192.32 246.17 L 193.70 245.70 L 195.09 245.24 L 196.47 244.81 L 197.85 244.39 L 199.21 243.99 L 200.56 243.61 L 201.90 243.24 L 203.22 242.87 L 204.53 242.51 L 205.81 242.13 L 207.08 241.73 L 208.32 241.30 L 209.55 240.83 L 210.76 240.32 L 211.96 239.77 L 213.16 239.18 L 214.36 238.57 L 215.55 237.94 L 216.75 237.32 L 217.96 236.74 L 219.18 236.20 L 220.42 235.75 L 221.67 235.39 L 222.93 235.13 L 224.20 234.97 L 225.47 234.93 L 226.74 234.99 L 228.00 235.17 L 229.25 235.46 L 230.47 235.86 L 231.66 236.37 L 232.81 237.00 L 233.91 237.74 L 234.95 238.59 L 235.91 239.54 L 236.78 240.58 L 237.55 241.71 L 238.23 242.92 L 238.81 244.20 L 239.30 245.54 L 239.67 246.94 L 239.93 248.37 L 240.06 249.82 L 240.05 251.27 L 239.90 252.69 L 239.60 254.08 L 239.17 255.40 L 238.61 256.67 L 237.93 257.86 L 237.14 258.98 L 236.24 260.03 L 235.24 261.00 L 234.15 261.88 L 232.97 262.66 L 231.70 263.34 L 230.37 263.92 L 228.97 264.40 L 227.53 264.79 L 226.06 265.12 L 224.60 265.43 L 223.15 265.72 L 221.72 266.04 L 220.31 266.40 L 218.93 266.80 L 217.56 267.25 L 216.22 267.77 L 214.90 268.33 L 213.61 268.95 L 212.35 269.62 L 211.12 270.32 L 209.93 271.06 L 208.78 271.83 L 207.67 272.64 L 206.60 273.48 L 205.58 274.36 L 204.59 275.26 L 203.64 276.20 L 202.72 277.17 L 201.83 278.18 L 200.98 279.22 L 200.16 280.30 L 199.37 281.42 L 198.61 282.60 L 197.88 283.84 L 197.18 285.12 L 196.54 286.44 L 195.94 287.77 L 195.41 289.11 L 194.93 290.43 L 194.50 291.76 L 194.12 293.10 L 193.79 294.45 L 193.52 295.81 L 193.31 297.18 L 193.14 298.56 L 193.02 299.93 L 192.96 301.29 L 192.94 302.64 L 192.99 303.98 L 193.09 305.32 L 193.26 306.67 L 193.47 308.03 L 193.75 309.41 L 194.07 310.80 L 194.44 312.21 L 194.86 313.62 L 195.32 315.04 L 195.85 316.45 L 196.42 317.83 L 197.06 319.18 L 197.75 320.50 L 198.49 321.79 L 199.25 323.07 L 200.03 324.34 L 200.79 325.61 Z" />
</symbol>
<symbol id="bl2">
<path d="M 207.26 265.54 L 206.44 267.84 L 205.48 270.07 L 204.40 272.25 L 203.22 274.38 L 202.00 276.50 L 200.77 278.60 L 199.58 280.72 L 198.44 282.85 L 197.39 285.02 L 196.45 287.22 L 195.63 289.47 L 194.94 291.76 L 194.38 294.07 L 193.96 296.42 L 193.68 298.78 L 193.56 301.16 L 193.59 303.56 L 193.78 305.98 L 194.13 308.41 L 194.65 310.85 L 195.31 313.29 L 196.11 315.70 L 197.03 318.10 L 198.04 320.47 L 199.09 322.83 L 200.13 325.19 L 201.10 327.57 L 201.95 329.99 L 202.63 332.46 L 203.10 334.96 L 203.33 337.49 L 203.30 340.03 L 203.00 342.55 L 202.43 345.03 L 201.59 347.43 L 200.48 349.74 L 199.13 351.92 L 197.54 353.95 L 195.73 355.80 L 193.73 357.44 L 191.58 358.85 L 189.30 360.01 L 186.95 360.92 L 184.55 361.55 L 182.14 361.93 L 179.73 362.06 L 177.36 361.97 L 175.04 361.69 L 172.76 361.25 L 170.52 360.68 L 168.32 359.99 L 166.13 359.24 L 163.95 358.44 L 161.76 357.63 L 159.55 356.81 L 157.32 356.01 L 155.08 355.23 L 152.82 354.48 L 150.56 353.77 L 148.28 353.09 L 145.99 352.47 L 143.70 351.90 L 141.40 351.36 L 139.12 350.83 L 136.86 350.27 L 134.65 349.63 L 132.50 348.88 L 130.43 347.97 L 128.44 346.89 L 126.55 345.64 L 124.76 344.24 L 123.03 342.73 L 121.37 341.13 L 119.73 339.49 L 118.09 337.85 L 116.43 336.24 L 114.72 334.69 L 112.94 333.23 L 111.09 331.88 L 109.15 330.66 L 107.12 329.59 L 105.03 328.67 L 102.86 327.90 L 100.65 327.29 L 98.39 326.81 L 96.09 326.44 L 93.77 326.17 L 91.43 325.96 L 89.07 325.78 L 86.70 325.59 L 84.32 325.38 L 81.92 325.12 L 79.51 324.81 L 77.07 324.43 L 74.62 323.98 L 72.16 323.46 L 69.70 322.86 L 67.25 322.19 L 64.83 321.43 L 62.45 320.61 L 60.11 319.71 L 57.83 318.75 L 55.60 317.73 L 53.44 316.66 L 51.33 315.55 L 49.27 314.38 L 47.25 313.16 L 45.27 311.87 L 43.32 310.52 L 41.41 309.10 L 39.53 307.63 L 37.70 306.10 L 35.92 304.51 L 34.19 302.87 L 32.52 301.18 L 30.89 299.45 L 29.32 297.66 L 27.80 295.83 L 26.32 293.95 L 24.90 292.03 L 23.53 290.06 L 22.21 288.04 L 20.94 285.97 L 19.73 283.85 L 18.59 281.69 L 17.50 279.47 L 16.48 277.21 L 15.53 274.91 L 14.65 272.56 L 13.84 270.18 L 13.11 267.77 L 12.46 265.34 L 11.88 262.89 L 11.39 260.43 L 10.97 257.97 L 10.62 255.51 L 10.36 253.04 L 10.16 250.58 L 10.04 248.11 L 10.00 245.65 L 10.03 243.19 L 10.12 240.73 L 10.29 238.29 L 10.54 235.85 L 10.86 233.42 L 11.26 231.01 L 11.75 228.61 L 12.31 226.24 L 12.95 223.88 L 13.66 221.54 L 14.44 219.23 L 15.28 216.95 L 16.19 214.69 L 17.16 212.46 L 18.19 210.26 L 19.27 208.09 L 20.42 205.94 L 21.61 203.80 L 22.83 201.69 L 24.09 199.61 L 25.36 197.54 L 26.65 195.49 L 27.93 193.46 L 29.22 191.43 L 30.49 189.41 L 31.76 187.38 L 33.03 185.36 L 34.30 183.34 L 35.56 181.33 L 36.83 179.31 L 38.10 177.30 L 39.37 175.29 L 40.64 173.29 L 41.92 171.30 L 43.20 169.30 L 44.47 167.31 L 45.74 165.31 L 47.00 163.32 L 48.25 161.32 L 49.49 159.33 L 50.73 157.33 L 51.96 155.34 L 53.19 153.35 L 54.44 151.36 L 55.69 149.38 L 56.95 147.40 L 58.22 145.43 L 59.50 143.46 L 60.78 141.48 L 62.05 139.49 L 63.31 137.50 L 64.57 135.49 L 65.82 133.48 L 67.09 131.47 L 68.38 129.48 L 69.70 127.51 L 71.08 125.59 L 72.54 123.74 L 74.10 121.98 L 75.76 120.33 L 77.53 118.79 L 79.41 117.37 L 81.40 116.08 L 83.49 114.89 L 85.66 113.80 L 87.89 112.78 L 90.16 111.81 L 92.47 110.86 L 94.80 109.91 L 97.14 108.95 L 99.48 107.98 L 101.81 107.00 L 104.13 106.01 L 106.43 105.00 L 108.71 104.00 L 110.95 102.98 L 113.17 101.96 L 115.37 100.94 L 117.54 99.92 L 119.70 98.89 L 121.86 97.87 L 124.03 96.86 L 126.20 95.85 L 128.39 94.85 L 130.58 93.86 L 132.78 92.89 L 134.99 91.92 L 137.19 90.97 L 139.39 90.03 L 141.60 89.11 L 143.82 88.21 L 146.06 87.33 L 148.31 86.48 L 150.59 85.67 L 152.88 84.92 L 155.20 84.23 L 157.53 83.62 L 159.87 83.10 L 162.23 82.68 L 164.60 82.37 L 166.98 82.17 L 169.37 82.08 L 171.75 82.11 L 174.12 82.26 L 176.49 82.53 L 178.84 82.90 L 181.18 83.39 L 183.50 84.00 L 185.79 84.71 L 188.05 85.54 L 190.26 86.48 L 192.43 87.53 L 194.55 88.69 L 196.62 89.97 L 198.63 91.35 L 200.57 92.83 L 202.44 94.42 L 204.25 96.11 L 205.97 97.90 L 207.61 99.79 L 209.16 101.75 L 210.61 103.80 L 211.95 105.91 L 213.18 108.07 L 214.31 110.28 L 215.32 112.54 L 216.21 114.83 L 217.00 117.17 L 217.69 119.53 L 218.29 121.93 L 218.82 124.34 L 219.29 126.76 L 219.72 129.19 L 220.13 131.62 L 220.52 134.05 L 220.90 136.48 L 221.27 138.90 L 221.64 141.32 L 222.01 143.73 L 222.36 146.12 L 222.71 148.49 L 223.06 150.84 L 223.42 153.17 L 223.77 155.50 L 224.14 157.83 L 224.51 160.16 L 224.88 162.52 L 225.26 164.89 L 225.64 167.29 L 226.02 169.70 L 226.40 172.12 L 226.77 174.55 L 227.14 176.98 L 227.51 179.39 L 227.88 181.80 L 228.23 184.19 L 228.57 186.57 L 228.92 188.95 L 229.26 191.32 L 229.59 193.68 L 229.92 196.05 L 230.22 198.43 L 230.48 200.82 L 230.69 203.24 L 230.82 205.67 L 230.85 208.11 L 230.74 210.56 L 230.50 213.00 L 230.10 215.41 L 229.53 217.78 L 228.79 220.11 L 227.89 222.39 L 226.82 224.60 L 225.58 226.74 L 224.20 228.83 L 222.68 230.85 L 221.07 232.84 L 219.39 234.81 L 217.70 236.80 L 216.08 238.85 L 214.57 240.99 L 213.23 243.23 L 212.10 245.58 L 211.18 248.03 L 210.46 250.55 L 209.88 253.11 L 209.40 255.68 L 208.95 258.22 L 208.48 260.73 L 207.93 263.17 Z" />
</symbol>
<symbol id="bl3">
<path d="M 484.27 237.44 L 483.09 241.09 L 481.80 244.71 L 480.40 248.29 L 478.88 251.83 L 477.25 255.34 L 475.52 258.80 L 473.69 262.21 L 471.75 265.56 L 469.72 268.85 L 467.60 272.07 L 465.39 275.21 L 463.09 278.29 L 460.71 281.29 L 458.24 284.22 L 455.69 287.07 L 453.07 289.84 L 450.36 292.53 L 447.58 295.14 L 444.72 297.66 L 441.78 300.10 L 438.76 302.46 L 435.67 304.74 L 432.50 306.93 L 429.25 309.03 L 425.95 311.03 L 422.58 312.94 L 419.15 314.74 L 415.66 316.44 L 412.12 318.02 L 408.52 319.50 L 404.87 320.88 L 401.16 322.15 L 397.41 323.32 L 393.61 324.38 L 389.77 325.33 L 385.89 326.16 L 381.99 326.88 L 378.08 327.48 L 374.16 327.97 L 370.23 328.37 L 366.29 328.68 L 362.35 328.92 L 358.40 329.11 L 354.45 329.27 L 350.49 329.41 L 346.53 329.53 L 342.56 329.64 L 338.59 329.76 L 334.61 329.90 L 330.63 330.06 L 326.62 330.25 L 322.61 330.46 L 318.60 330.69 L 314.58 330.93 L 310.56 331.19 L 306.56 331.47 L 302.58 331.76 L 298.61 332.07 L 294.66 332.40 L 290.72 332.74 L 286.79 333.10 L 282.86 333.46 L 278.93 333.82 L 275.00 334.17 L 271.07 334.51 L 267.14 334.84 L 263.21 335.19 L 259.29 335.53 L 255.39 335.88 L 251.50 336.24 L 247.64 336.62 L 243.80 336.99 L 240.00 337.33 L 236.23 337.61 L 232.52 337.75 L 228.87 337.69 L 225.31 337.37 L 221.84 336.77 L 218.47 335.85 L 215.22 334.62 L 212.09 333.11 L 209.09 331.35 L 206.18 329.39 L 203.35 327.30 L 200.54 325.16 L 197.71 323.07 L 194.82 321.11 L 191.82 319.38 L 188.70 317.92 L 185.45 316.78 L 182.10 315.96 L 178.65 315.41 L 175.16 315.08 L 171.63 314.87 L 168.10 314.74 L 164.57 314.63 L 161.06 314.50 L 157.55 314.37 L 154.05 314.24 L 150.56 314.15 L 147.06 314.12 L 143.56 314.21 L 140.06 314.46 L 136.58 314.90 L 133.13 315.55 L 129.71 316.38 L 126.32 317.37 L 122.96 318.46 L 119.62 319.58 L 116.27 320.67 L 112.90 321.69 L 109.52 322.61 L 106.12 323.39 L 102.70 324.03 L 99.28 324.52 L 95.85 324.87 L 92.42 325.05 L 88.99 325.08 L 85.56 324.96 L 82.12 324.68 L 78.68 324.26 L 75.25 323.70 L 71.85 322.98 L 68.49 322.13 L 65.18 321.13 L 61.92 320.00 L 58.73 318.73 L 55.61 317.33 L 52.55 315.79 L 49.55 314.12 L 46.63 312.32 L 43.79 310.39 L 41.03 308.34 L 38.36 306.16 L 35.78 303.88 L 33.30 301.48 L 30.92 298.97 L 28.64 296.33 L 26.46 293.56 L 24.38 290.64 L 22.39 287.55 L 20.51 284.31 L 18.75 280.95 L 17.15 277.51 L 15.71 274.05 L 14.46 270.60 L 13.39 267.19 L 12.49 263.80 L 11.76 260.42 L 11.18 257.04 L 10.75 253.65 L 10.47 250.26 L 10.33 246.86 L 10.34 243.47 L 10.49 240.08 L 10.80 236.70 L 11.25 233.33 L 11.85 229.97 L 12.60 226.63 L 13.49 223.33 L 14.52 220.05 L 15.70 216.83 L 17.01 213.66 L 18.45 210.55 L 20.03 207.50 L 21.74 204.53 L 23.57 201.63 L 25.52 198.80 L 27.60 196.07 L 29.78 193.43 L 32.07 190.90 L 34.46 188.47 L 36.95 186.16 L 39.55 183.95 L 42.25 181.85 L 45.06 179.86 L 47.98 177.97 L 50.99 176.20 L 54.08 174.55 L 57.25 173.04 L 60.47 171.66 L 63.73 170.43 L 67.03 169.35 L 70.36 168.42 L 73.72 167.65 L 77.11 167.04 L 80.55 166.58 L 84.05 166.27 L 87.61 166.12 L 91.20 166.11 L 94.81 166.24 L 98.41 166.50 L 101.97 166.88 L 105.49 167.37 L 108.94 167.95 L 112.36 168.61 L 115.74 169.33 L 119.11 170.08 L 122.45 170.86 L 125.80 171.65 L 129.14 172.45 L 132.48 173.26 L 135.82 174.06 L 139.17 174.85 L 142.51 175.64 L 145.84 176.40 L 149.16 177.13 L 152.48 177.83 L 155.79 178.46 L 159.12 178.99 L 162.47 179.39 L 165.84 179.62 L 169.23 179.67 L 172.63 179.51 L 176.04 179.11 L 179.43 178.49 L 182.79 177.65 L 186.11 176.57 L 189.40 175.26 L 192.65 173.73 L 195.85 171.98 L 198.98 170.01 L 202.06 167.87 L 205.06 165.57 L 208.01 163.17 L 210.90 160.69 L 213.76 158.17 L 216.58 155.63 L 219.39 153.08 L 222.18 150.52 L 224.96 147.96 L 227.74 145.41 L 230.52 142.86 L 233.31 140.32 L 236.10 137.79 L 238.89 135.27 L 241.68 132.74 L 244.46 130.22 L 247.24 127.69 L 250.00 125.16 L 252.76 122.62 L 255.51 120.07 L 258.24 117.52 L 260.97 114.96 L 263.70 112.40 L 266.44 109.86 L 269.19 107.32 L 271.98 104.82 L 274.80 102.36 L 277.68 99.95 L 280.61 97.60 L 283.61 95.33 L 286.67 93.13 L 289.80 91.02 L 292.99 88.99 L 296.25 87.06 L 299.56 85.22 L 302.93 83.47 L 306.35 81.83 L 309.81 80.29 L 313.31 78.85 L 316.84 77.52 L 320.41 76.30 L 324.00 75.19 L 327.63 74.17 L 331.29 73.27 L 335.00 72.47 L 338.74 71.77 L 342.51 71.19 L 346.30 70.71 L 350.11 70.34 L 353.92 70.08 L 357.74 69.94 L 361.55 69.92 L 365.37 70.00 L 369.18 70.20 L 372.99 70.51 L 376.80 70.94 L 380.59 71.48 L 384.38 72.13 L 388.14 72.90 L 391.87 73.77 L 395.58 74.76 L 399.25 75.85 L 402.89 77.05 L 406.49 78.36 L 410.04 79.77 L 413.55 81.29 L 417.02 82.91 L 420.44 84.64 L 423.82 86.46 L 427.14 88.39 L 430.41 90.42 L 433.63 92.55 L 436.79 94.77 L 439.88 97.10 L 442.90 99.51 L 445.83 102.00 L 448.69 104.59 L 451.46 107.25 L 454.14 109.98 L 456.74 112.78 L 459.25 115.66 L 461.68 118.61 L 464.01 121.62 L 466.25 124.70 L 468.41 127.84 L 470.46 131.05 L 472.43 134.31 L 474.30 137.64 L 476.07 141.03 L 477.75 144.48 L 479.32 147.98 L 480.80 151.53 L 482.16 155.12 L 483.41 158.74 L 484.56 162.39 L 485.60 166.07 L 486.53 169.78 L 487.34 173.51 L 488.05 177.27 L 488.64 181.05 L 489.13 184.85 L 489.50 188.66 L 489.76 192.47 L 489.91 196.28 L 489.95 200.08 L 489.88 203.88 L 489.70 207.66 L 489.41 211.42 L 489.01 215.18 L 488.50 218.92 L 487.88 222.65 L 487.14 226.37 L 486.29 230.08 L 485.34 233.77 Z" />
</symbol>
<symbol id="bl4">
<path d="M 270.28 308.52 L 270.97 311.05 L 271.66 313.57 L 272.36 316.12 L 273.08 318.75 L 273.85 321.48 L 274.65 324.35 L 275.51 327.35 L 276.41 330.46 L 277.35 333.66 L 278.31 336.90 L 279.27 340.16 L 280.22 343.42 L 281.17 346.67 L 282.11 349.90 L 283.05 353.14 L 284.00 356.38 L 284.94 359.61 L 285.86 362.86 L 286.74 366.10 L 287.55 369.35 L 288.25 372.57 L 288.82 375.74 L 289.22 378.83 L 289.46 381.81 L 289.52 384.66 L 289.42 387.38 L 289.16 389.99 L 288.76 392.50 L 288.23 394.96 L 287.56 397.36 L 286.77 399.73 L 285.84 402.06 L 284.79 404.36 L 283.60 406.61 L 282.28 408.81 L 280.82 410.96 L 279.19 413.06 L 277.39 415.12 L 275.38 417.13 L 273.18 419.09 L 270.77 420.97 L 268.18 422.74 L 265.43 424.36 L 262.53 425.81 L 259.51 427.07 L 256.38 428.13 L 253.16 428.98 L 249.88 429.60 L 246.56 430.01 L 243.24 430.18 L 239.95 430.13 L 236.69 429.87 L 233.48 429.39 L 230.30 428.73 L 227.15 427.90 L 224.01 426.93 L 220.88 425.86 L 217.77 424.71 L 214.66 423.49 L 211.55 422.23 L 208.44 420.95 L 205.33 419.64 L 202.21 418.32 L 199.09 416.99 L 195.97 415.65 L 192.87 414.32 L 189.78 412.99 L 186.71 411.67 L 183.64 410.36 L 180.57 409.03 L 177.50 407.67 L 174.43 406.25 L 171.39 404.74 L 168.44 403.09 L 165.62 401.27 L 163.01 399.23 L 160.69 396.96 L 158.71 394.45 L 157.12 391.71 L 155.95 388.76 L 155.20 385.66 L 154.83 382.44 L 154.79 379.16 L 154.96 375.84 L 155.24 372.51 L 155.53 369.16 L 155.75 365.82 L 155.88 362.47 L 155.92 359.14 L 155.89 355.82 L 155.84 352.51 L 155.81 349.22 L 155.83 345.97 L 155.95 342.77 L 156.20 339.67 L 156.60 336.68 L 157.18 333.85 L 157.95 331.19 L 158.93 328.71 L 160.13 326.42 L 161.54 324.33 L 163.14 322.42 L 164.94 320.71 L 166.90 319.20 L 169.01 317.88 L 171.24 316.73 L 173.56 315.69 L 175.93 314.72 L 178.30 313.72 L 180.62 312.64 L 182.81 311.39 L 184.84 309.93 L 186.66 308.23 L 188.23 306.32 L 189.51 304.20 L 190.47 301.91 L 191.11 299.50 L 191.40 297.00 L 191.37 294.45 L 191.01 291.89 L 190.37 289.32 L 189.49 286.78 L 188.41 284.26 L 187.19 281.79 L 185.89 279.35 L 184.56 276.93 L 183.24 274.55 L 181.95 272.17 L 180.74 269.79 L 179.60 267.39 L 178.54 264.97 L 177.56 262.51 L 176.66 260.00 L 175.83 257.45 L 175.03 254.86 L 174.27 252.23 L 173.52 249.58 L 172.79 246.90 L 172.06 244.21 L 171.33 241.51 L 170.61 238.81 L 169.90 236.11 L 169.19 233.39 L 168.46 230.65 L 167.70 227.89 L 166.88 225.10 L 165.99 222.29 L 165.02 219.46 L 163.96 216.62 L 162.81 213.79 L 161.57 210.98 L 160.23 208.22 L 158.81 205.52 L 157.31 202.88 L 155.75 200.30 L 154.15 197.77 L 152.50 195.28 L 150.82 192.81 L 149.13 190.33 L 147.43 187.85 L 145.72 185.34 L 144.01 182.81 L 142.29 180.24 L 140.58 177.65 L 138.87 175.02 L 137.18 172.38 L 135.51 169.73 L 133.86 167.07 L 132.24 164.40 L 130.66 161.72 L 129.13 159.02 L 127.68 156.29 L 126.32 153.51 L 125.08 150.70 L 123.98 147.88 L 123.06 145.06 L 122.31 142.28 L 121.74 139.54 L 121.33 136.85 L 121.08 134.19 L 120.97 131.54 L 121.00 128.90 L 121.18 126.27 L 121.50 123.64 L 121.96 121.04 L 122.55 118.48 L 123.29 115.97 L 124.15 113.52 L 125.13 111.13 L 126.24 108.81 L 127.46 106.57 L 128.79 104.39 L 130.24 102.30 L 131.80 100.27 L 133.48 98.33 L 135.27 96.46 L 137.17 94.68 L 139.18 93.00 L 141.30 91.40 L 143.51 89.92 L 145.80 88.55 L 148.16 87.30 L 150.59 86.18 L 153.07 85.19 L 155.60 84.34 L 158.18 83.63 L 160.80 83.06 L 163.47 82.64 L 166.17 82.37 L 168.89 82.24 L 171.61 82.27 L 174.32 82.44 L 177.00 82.76 L 179.65 83.23 L 182.26 83.84 L 184.83 84.58 L 187.36 85.47 L 189.85 86.50 L 192.30 87.68 L 194.69 89.00 L 197.02 90.46 L 199.27 92.06 L 201.45 93.78 L 203.52 95.63 L 205.49 97.59 L 207.35 99.66 L 209.07 101.80 L 210.67 104.03 L 212.12 106.31 L 213.43 108.63 L 214.59 110.99 L 215.63 113.39 L 216.52 115.81 L 217.30 118.27 L 217.96 120.76 L 218.53 123.27 L 219.01 125.79 L 219.44 128.33 L 219.82 130.87 L 220.19 133.41 L 220.55 135.95 L 220.92 138.49 L 221.29 141.03 L 221.68 143.59 L 222.08 146.16 L 222.50 148.77 L 222.93 151.40 L 223.38 154.07 L 223.82 156.76 L 224.26 159.47 L 224.70 162.19 L 225.14 164.90 L 225.59 167.61 L 226.03 170.32 L 226.48 173.01 L 226.92 175.71 L 227.37 178.42 L 227.80 181.16 L 228.23 183.92 L 228.64 186.71 L 229.04 189.54 L 229.42 192.37 L 229.78 195.22 L 230.11 198.05 L 230.40 200.86 L 230.61 203.64 L 230.73 206.37 L 230.72 209.04 L 230.58 211.65 L 230.28 214.20 L 229.80 216.68 L 229.14 219.10 L 228.30 221.45 L 227.28 223.74 L 226.08 225.96 L 224.72 228.12 L 223.21 230.23 L 221.58 232.29 L 219.88 234.34 L 218.16 236.41 L 216.51 238.54 L 215.01 240.76 L 213.76 243.07 L 212.82 245.50 L 212.28 247.99 L 212.16 250.50 L 212.50 252.97 L 213.28 255.31 L 214.49 257.46 L 216.09 259.37 L 218.04 260.99 L 220.31 262.31 L 222.84 263.35 L 225.59 264.15 L 228.51 264.80 L 231.54 265.38 L 234.60 265.97 L 237.63 266.64 L 240.54 267.43 L 243.29 268.36 L 245.87 269.46 L 248.29 270.72 L 250.56 272.16 L 252.71 273.78 L 254.75 275.58 L 256.69 277.58 L 258.52 279.74 L 260.23 282.06 L 261.79 284.51 L 263.19 287.06 L 264.42 289.69 L 265.50 292.38 L 266.45 295.11 L 267.31 297.87 L 268.11 300.62 L 268.85 303.32 L 269.58 305.95 Z" />
</symbol>
</defs>
<!-- isDone: 0 -->
<rect width="700" height="500" style="fill:#fff;stroke-width:0" />
<use class="p0 borderLine" xlink:href="#bl0"/>
<use class="p1 borderLine" xlink:href="#bl1"/>
<use class="p2 borderLine" xlink:href="#bl2"/>
<use class="p3 borderLine" xlink:href="#bl3"/>
<use class="p4 borderLine" xlink:href="#bl4"/>
<use class="q0 outLine" xlink:href="#bl0"/>
<use class="q1 outLine" xlink:href="#bl1"/>
<use class="q2 outLine" xlink:href="#bl2"/>
<use class="q3 outLine" xlink:href="#bl3"/>
<use class="q4 outLine" xlink:href="#bl4"/>
<circle onclick="fromCircle(16)" class="circle" cx="94.6565" cy="354.8913" r="21.5981" />
<text class="nLabel" x="94.66" y="349.89">14</text>
<text class="belong" x="94.66" y="359.89">(1)</text>
<circle onclick="fromCircle(24)" class="circle" cx="139.1064" cy="368.2274" r="9.9980" />
<text class="nLabel" x="139.11" y="363.23">3</text>
<text class="belong" x="139.11" y="373.23">(1, 2)</text>
<circle onclick="fromCircle(28)" class="circle" cx="138.0744" cy="332.1072" r="11.5447" />
<text class="nLabel" x="138.07" y="327.11">4</text>
<text class="belong" x="138.07" y="337.11">(1, 2, 3)</text>
<circle onclick="fromCircle(30)" class="circle" cx="174.2129" cy="296.3434" r="11.5447" />
<text class="nLabel" x="174.21" y="291.34">4</text>
<text class="belong" x="174.21" y="301.34">(1, 2, 3, 4)</text>
<circle onclick="fromCircle(31)" class="circle" cx="193.2680" cy="261.9925" r="8.1633" />
<text class="nLabel" x="193.27" y="256.99">2</text>
<text class="belong" x="193.27" y="266.99">(1, 2, 3, 4, 5)</text>
<circle onclick="fromCircle(20)" class="circle" cx="94.0483" cy="138.9385" r="19.9960" />
<text class="nLabel" x="94.05" y="133.94">12</text>
<text class="belong" x="94.05" y="143.94">(1, 3)</text>
<circle onclick="fromCircle(22)" class="circle" cx="89.7116" cy="245.4620" r="73.0151" />
<text class="nLabel" x="89.71" y="240.46">160</text>
<text class="belong" x="89.71" y="250.46">(1, 3, 4)</text>
<circle onclick="fromCircle(23)" class="circle" cx="197.2303" cy="208.7829" r="27.0747" />
<text class="nLabel" x="197.23" y="203.78">22</text>
<text class="belong" x="197.23" y="213.78">(1, 3, 4, 5)</text>
<circle onclick="fromCircle(21)" class="circle" cx="169.8638" cy="130.8974" r="42.4179" />
<text class="nLabel" x="169.86" y="125.90">54</text>
<text class="belong" x="169.86" y="135.90">(1, 3, 5)</text>
<circle onclick="fromCircle(18)" class="circle" cx="361.2081" cy="199.0342" r="122.8575" />
<text class="nLabel" x="361.21" y="194.03">453</text>
<text class="belong" x="361.21" y="204.03">(1, 4)</text>
<circle onclick="fromCircle(26)" class="circle" cx="225.3400" cy="249.8911" r="8.1633" />
<text class="nLabel" x="225.34" y="244.89">2</text>
<text class="belong" x="225.34" y="254.89">(1, 2, 4)</text>
<circle onclick="fromCircle(19)" class="circle" cx="230.1745" cy="302.2406" r="29.9940" />
<text class="nLabel" x="230.17" y="297.24">27</text>
<text class="belong" x="230.17" y="307.24">(1, 4, 5)</text>
<circle onclick="fromCircle(17)" class="circle" cx="243.0376" cy="384.0699" r="39.9920" />
<text class="nLabel" x="243.04" y="379.07">48</text>
<text class="belong" x="243.04" y="389.07">(1, 5)</text>
<circle onclick="fromCircle(25)" class="circle" cx="174.4462" cy="383.3758" r="14.1393" />
<text class="nLabel" x="174.45" y="378.38">6</text>
<text class="belong" x="174.45" y="388.38">(1, 2, 5)</text>
<circle onclick="fromCircle(29)" class="circle" cx="179.9872" cy="338.7477" r="17.3170" />
<text class="nLabel" x="179.99" y="333.75">9</text>
<text class="belong" x="179.99" y="343.75">(1, 2, 3, 5)</text>
<g id="legendBox">
<rect class="p0 borderLine" x="500.00" y="50.00" width="30.00" height="15.00" />
<rect class="q0" x="500.00" y="50.00" width="30.00" height="15.00" />
<text class="legend" x="540.00" y="65.00">All Sig Genes</text>
<rect class="p1 borderLine" x="500.00" y="90.00" width="30.00" height="15.00" />
<rect class="q1" x="500.00" y="90.00" width="30.00" height="15.00" />
<text class="legend" x="540.00" y="105.00">Multimapping Diff</text>
<rect class="p2 borderLine" x="500.00" y="130.00" width="30.00" height="15.00" />
<rect class="q2" x="500.00" y="130.00" width="30.00" height="15.00" />
<text class="legend" x="540.00" y="145.00">Build Issue</text>
<rect class="p3 borderLine" x="500.00" y="170.00" width="30.00" height="15.00" />
<rect class="q3" x="500.00" y="170.00" width="30.00" height="15.00" />
<text class="legend" x="540.00" y="185.00">Annotation Change</text>
<rect class="p4 borderLine" x="500.00" y="210.00" width="30.00" height="15.00" />
<rect class="q4" x="500.00" y="210.00" width="30.00" height="15.00" />
<text class="legend" x="540.00" y="225.00">Build Change</text>
</g>
</svg>
