<svg xmlns="http://www.w3.org/2000/svg" xmlns:xlink="http://www.w3.org/1999/xlink" width="700" height="500">
<defs>
<style type="text/css"><![CDATA[
  .borderLine {
	   stroke: none;
	   fill-opacity:  0.2 ;
  }
  .outLine {
	   stroke-width:  2 ;
	   fill: none;
  }
  .circle {
	   stroke: #888888;
	   stroke-width: 0.5;
	   fill: none;
    pointer-events: all;
  }
  .nLabel {
	   font-family: Arial;
    pointer-events: none;
	   font-size: 20px;
	   text-anchor: middle;
	   alignment-baseline: central;
  }
  .belong { 
 display: none;
	   font-family: Arial;
    pointer-events: none;
	   font-size: 10px;
	   text-anchor: middle;
	   alignment-baseline: central;
  }
  .legend {
    font-family: Arial;
    font-size: 15px;
  }
  #legendBox {
    display:  inline ;
  }
  .p0{
    stroke: none;
    fill:  #f3f3f3 ;
  }
  .q0{
    fill: none;
    stroke:  #f3f3f3 ;
  }
  .p1{
    stroke: none;
    fill:  #279989 ;
  }
  .q1{
    fill: none;
    stroke:  #279989 ;
  }
  .p2{
    stroke: none;
    fill:  #beca50 ;
  }
  .q2{
    fill: none;
    stroke:  #beca50 ;
  }
  .p3{
    stroke: none;
    fill:  #e8ac44 ;
  }
  .q3{
    fill: none;
    stroke:  #e8ac44 ;
  }
  .p4{
    stroke: none;
    fill:  #cc453c ;
  }
  .q4{
    fill: none;
    stroke:  #cc453c ;
  }
]]>
</style>
<symbol id="bl0">
<path d="M 453.67 332.66 L 453.12 336.64 L 452.54 340.61 L 451.90 344.56 L 451.16 348.48 L 450.26 352.35 L 449.14 356.15 L 447.76 359.84 L 446.08 363.39 L 444.09 366.76 L 441.79 369.93 L 439.20 372.86 L 436.37 375.56 L 433.33 378.04 L 430.14 380.34 L 426.85 382.50 L 423.49 384.57 L 420.09 386.57 L 416.66 388.52 L 413.22 390.40 L 409.75 392.23 L 406.25 394.00 L 402.73 395.72 L 399.16 397.41 L 395.53 399.07 L 391.77 400.75 L 387.82 402.48 L 383.64 404.27 L 379.21 406.15 L 374.56 408.09 L 369.79 410.06 L 365.02 412.01 L 360.38 413.90 L 355.95 415.71 L 351.79 417.41 L 347.89 419.05 L 344.20 420.63 L 340.65 422.20 L 337.18 423.78 L 333.77 425.39 L 330.39 427.02 L 327.02 428.68 L 323.65 430.33 L 320.27 431.97 L 316.89 433.58 L 313.48 435.12 L 310.03 436.56 L 306.50 437.84 L 302.84 438.91 L 299.00 439.73 L 294.90 440.31 L 290.50 440.67 L 285.78 440.87 L 280.80 440.96 L 275.62 441.03 L 270.32 441.16 L 264.97 441.40 L 259.64 441.80 L 254.37 442.39 L 249.22 443.18 L 244.27 444.14 L 239.54 445.26 L 235.04 446.53 L 230.72 447.92 L 226.51 449.44 L 222.37 451.03 L 218.29 452.65 L 214.29 454.21 L 210.38 455.66 L 206.51 456.95 L 202.66 458.02 L 198.79 458.82 L 194.89 459.27 L 190.98 459.33 L 187.10 458.97 L 183.29 458.17 L 179.61 456.93 L 176.08 455.28 L 172.73 453.26 L 169.56 450.92 L 166.53 448.34 L 163.61 445.60 L 160.77 442.75 L 157.97 439.87 L 155.20 436.98 L 152.44 434.13 L 149.69 431.33 L 146.92 428.60 L 144.12 425.96 L 141.28 423.38 L 138.42 420.87 L 135.54 418.42 L 132.64 416.00 L 129.72 413.59 L 126.79 411.18 L 123.85 408.78 L 120.90 406.37 L 117.93 403.95 L 114.94 401.53 L 111.93 399.10 L 108.90 396.68 L 105.87 394.25 L 102.85 391.83 L 99.83 389.39 L 96.83 386.94 L 93.83 384.47 L 90.84 381.99 L 87.85 379.50 L 84.86 377.02 L 81.85 374.54 L 78.82 372.07 L 75.77 369.62 L 72.70 367.20 L 69.61 364.80 L 66.51 362.40 L 63.40 360.01 L 60.29 357.63 L 57.18 355.24 L 54.09 352.84 L 51.00 350.42 L 47.92 347.99 L 44.84 345.55 L 41.76 343.10 L 38.70 340.64 L 35.66 338.15 L 32.68 335.61 L 29.77 333.00 L 26.97 330.28 L 24.32 327.44 L 21.84 324.47 L 19.56 321.35 L 17.50 318.09 L 15.68 314.71 L 14.09 311.20 L 12.76 307.60 L 11.68 303.91 L 10.86 300.15 L 10.30 296.35 L 10.02 292.51 L 10.00 288.67 L 10.25 284.84 L 10.77 281.03 L 11.54 277.26 L 12.56 273.54 L 13.80 269.88 L 15.23 266.28 L 16.82 262.73 L 18.53 259.23 L 20.34 255.76 L 22.21 252.32 L 24.13 248.88 L 26.09 245.46 L 28.06 242.05 L 30.06 238.63 L 32.07 235.22 L 34.10 231.82 L 36.13 228.42 L 38.19 225.03 L 40.24 221.64 L 42.29 218.26 L 44.34 214.88 L 46.39 211.51 L 48.44 208.14 L 50.51 204.78 L 52.59 201.44 L 54.70 198.11 L 56.84 194.79 L 58.99 191.49 L 61.17 188.19 L 63.36 184.90 L 65.56 181.60 L 67.78 178.30 L 69.99 175.01 L 72.21 171.71 L 74.43 168.40 L 76.66 165.10 L 78.87 161.78 L 81.09 158.45 L 83.30 155.11 L 85.51 151.75 L 87.71 148.39 L 89.92 145.02 L 92.12 141.65 L 94.34 138.27 L 96.56 134.91 L 98.82 131.55 L 101.12 128.22 L 103.48 124.93 L 105.91 121.68 L 108.42 118.49 L 111.03 115.38 L 113.73 112.36 L 116.54 109.44 L 119.45 106.62 L 122.46 103.90 L 125.57 101.30 L 128.76 98.81 L 132.04 96.44 L 135.40 94.19 L 138.84 92.06 L 142.35 90.06 L 145.93 88.18 L 149.58 86.42 L 153.28 84.77 L 157.02 83.23 L 160.80 81.78 L 164.59 80.39 L 168.39 79.05 L 172.21 77.74 L 176.02 76.44 L 179.82 75.13 L 183.61 73.80 L 187.40 72.45 L 191.16 71.08 L 194.91 69.69 L 198.66 68.28 L 202.39 66.86 L 206.12 65.42 L 209.84 63.98 L 213.56 62.52 L 217.28 61.06 L 221.00 59.60 L 224.73 58.14 L 228.47 56.70 L 232.22 55.27 L 235.97 53.85 L 239.72 52.43 L 243.47 51.01 L 247.21 49.58 L 250.93 48.15 L 254.66 46.73 L 258.38 45.35 L 262.12 44.05 L 265.89 42.89 L 269.71 41.94 L 273.56 41.25 L 277.45 40.88 L 281.36 40.81 L 285.28 41.05 L 289.20 41.52 L 293.12 42.15 L 297.03 42.88 L 300.93 43.65 L 304.84 44.42 L 308.75 45.19 L 312.66 45.94 L 316.57 46.67 L 320.50 47.40 L 324.42 48.11 L 328.36 48.81 L 332.29 49.51 L 336.23 50.21 L 340.17 50.92 L 344.10 51.63 L 348.03 52.35 L 351.96 53.07 L 355.89 53.78 L 359.82 54.47 L 363.76 55.15 L 367.70 55.82 L 371.64 56.48 L 375.59 57.12 L 379.55 57.76 L 383.50 58.39 L 387.46 59.02 L 391.43 59.66 L 395.40 60.31 L 399.39 60.97 L 403.37 61.65 L 407.36 62.38 L 411.33 63.17 L 415.29 64.05 L 419.23 65.03 L 423.13 66.15 L 426.98 67.41 L 430.78 68.82 L 434.52 70.39 L 438.20 72.13 L 441.81 74.03 L 445.32 76.08 L 448.74 78.27 L 452.06 80.62 L 455.28 83.10 L 458.38 85.73 L 461.36 88.49 L 464.23 91.38 L 466.96 94.39 L 469.56 97.51 L 472.03 100.74 L 474.34 104.08 L 476.51 107.50 L 478.53 111.02 L 480.39 114.61 L 482.08 118.27 L 483.61 122.00 L 484.97 125.78 L 486.17 129.61 L 487.20 133.48 L 488.05 137.38 L 488.75 141.31 L 489.27 145.27 L 489.63 149.23 L 489.81 153.21 L 489.83 157.19 L 489.69 161.17 L 489.39 165.14 L 488.93 169.10 L 488.35 173.05 L 487.65 176.98 L 486.88 180.91 L 486.05 184.83 L 485.19 188.75 L 484.31 192.66 L 483.41 196.58 L 482.49 200.49 L 481.56 204.40 L 480.61 208.30 L 479.64 212.20 L 478.66 216.10 L 477.67 219.99 L 476.68 223.88 L 475.71 227.77 L 474.75 231.67 L 473.82 235.57 L 472.89 239.46 L 471.96 243.36 L 471.04 247.24 L 470.12 251.11 L 469.20 254.98 L 468.28 258.84 L 467.36 262.70 L 466.43 266.55 L 465.50 270.41 L 464.57 274.26 L 463.64 278.10 L 462.73 281.95 L 461.82 285.79 L 460.94 289.63 L 460.09 293.47 L 459.27 297.32 L 458.49 301.18 L 457.76 305.06 L 457.07 308.96 L 456.44 312.87 L 455.84 316.80 L 455.27 320.75 L 454.73 324.72 L 454.20 328.69 Z" />
</symbol>
<symbol id="bl1">
<path d="M 345.82 332.16 L 342.95 333.06 L 340.11 333.90 L 337.34 334.70 L 334.67 335.49 L 332.09 336.31 L 329.60 337.20 L 327.16 338.19 L 324.74 339.34 L 322.35 340.66 L 320.02 342.17 L 317.79 343.85 L 315.69 345.70 L 313.72 347.70 L 311.89 349.83 L 310.20 352.07 L 308.64 354.35 L 307.20 356.65 L 305.86 358.96 L 304.58 361.28 L 303.30 363.65 L 302.00 366.10 L 300.64 368.63 L 299.22 371.22 L 297.74 373.83 L 296.19 376.42 L 294.59 378.97 L 292.95 381.46 L 291.29 383.85 L 289.62 386.13 L 287.95 388.26 L 286.30 390.22 L 284.66 392.02 L 283.01 393.68 L 281.33 395.23 L 279.61 396.70 L 277.82 398.11 L 275.94 399.47 L 273.95 400.80 L 271.84 402.09 L 269.65 403.32 L 267.41 404.47 L 265.17 405.49 L 262.94 406.39 L 260.75 407.17 L 258.56 407.84 L 256.36 408.43 L 254.11 408.94 L 251.82 409.37 L 249.48 409.72 L 247.11 409.97 L 244.71 410.12 L 242.30 410.16 L 239.87 410.09 L 237.44 409.91 L 235.00 409.64 L 232.56 409.26 L 230.11 408.79 L 227.65 408.22 L 225.20 407.54 L 222.76 406.74 L 220.34 405.84 L 217.94 404.84 L 215.57 403.78 L 213.23 402.68 L 210.89 401.59 L 208.56 400.54 L 206.21 399.54 L 203.83 398.62 L 201.40 397.80 L 198.93 397.10 L 196.43 396.55 L 193.90 396.13 L 191.37 395.83 L 188.83 395.59 L 186.31 395.38 L 183.79 395.17 L 181.27 394.97 L 178.78 394.78 L 176.32 394.61 L 173.91 394.47 L 171.55 394.37 L 169.25 394.32 L 166.98 394.33 L 164.73 394.42 L 162.48 394.59 L 160.22 394.81 L 157.95 395.08 L 155.69 395.35 L 153.44 395.61 L 151.20 395.84 L 148.96 396.03 L 146.72 396.19 L 144.48 396.28 L 142.19 396.30 L 139.85 396.24 L 137.43 396.05 L 134.94 395.73 L 132.40 395.27 L 129.84 394.65 L 127.33 393.90 L 124.90 393.01 L 122.59 392.02 L 120.41 390.93 L 118.36 389.76 L 116.43 388.50 L 114.59 387.16 L 112.85 385.73 L 111.18 384.22 L 109.60 382.63 L 108.10 380.96 L 106.70 379.23 L 105.40 377.43 L 104.20 375.59 L 103.10 373.70 L 102.11 371.76 L 101.23 369.79 L 100.44 367.79 L 99.77 365.74 L 99.20 363.63 L 98.73 361.44 L 98.38 359.15 L 98.14 356.75 L 98.04 354.23 L 98.07 351.61 L 98.26 348.93 L 98.62 346.23 L 99.14 343.55 L 99.82 340.90 L 100.67 338.33 L 101.69 335.81 L 102.86 333.38 L 104.18 331.03 L 105.64 328.77 L 107.22 326.63 L 108.92 324.59 L 110.72 322.67 L 112.63 320.87 L 114.62 319.20 L 116.70 317.66 L 118.85 316.27 L 121.05 315.01 L 123.30 313.91 L 125.58 312.94 L 127.91 312.10 L 130.26 311.38 L 132.63 310.78 L 135.01 310.26 L 137.41 309.81 L 139.82 309.41 L 142.23 309.03 L 144.66 308.67 L 147.10 308.32 L 149.54 307.98 L 151.99 307.64 L 154.44 307.32 L 156.89 307.02 L 159.34 306.72 L 161.80 306.43 L 164.25 306.15 L 166.72 305.86 L 169.19 305.56 L 171.67 305.25 L 174.14 304.93 L 176.60 304.58 L 179.05 304.21 L 181.47 303.82 L 183.88 303.41 L 186.29 302.99 L 188.69 302.56 L 191.11 302.12 L 193.54 301.68 L 195.97 301.25 L 198.41 300.80 L 200.84 300.35 L 203.26 299.89 L 205.68 299.43 L 208.10 298.97 L 210.52 298.49 L 212.96 298.00 L 215.40 297.48 L 217.86 296.92 L 220.33 296.32 L 222.78 295.68 L 225.22 295.01 L 227.61 294.30 L 229.94 293.58 L 232.22 292.84 L 234.43 292.07 L 236.59 291.25 L 238.70 290.39 L 240.79 289.49 L 242.86 288.54 L 244.90 287.55 L 246.92 286.52 L 248.92 285.45 L 250.88 284.36 L 252.81 283.23 L 254.70 282.07 L 256.57 280.88 L 258.41 279.65 L 260.22 278.38 L 262.02 277.08 L 263.80 275.73 L 265.56 274.35 L 267.30 272.92 L 269.03 271.44 L 270.75 269.90 L 272.45 268.29 L 274.15 266.62 L 275.84 264.90 L 277.50 263.12 L 279.14 261.31 L 280.74 259.49 L 282.29 257.65 L 283.82 255.80 L 285.34 253.96 L 286.87 252.11 L 288.44 250.29 L 290.08 248.50 L 291.80 246.75 L 293.63 245.05 L 295.54 243.42 L 297.52 241.87 L 299.55 240.43 L 301.61 239.10 L 303.69 237.90 L 305.78 236.82 L 307.91 235.85 L 310.07 234.99 L 312.28 234.22 L 314.54 233.56 L 316.87 233.01 L 319.24 232.55 L 321.65 232.21 L 324.09 231.97 L 326.54 231.84 L 328.99 231.82 L 331.43 231.92 L 333.86 232.13 L 336.27 232.45 L 338.64 232.89 L 340.97 233.43 L 343.25 234.08 L 345.52 234.83 L 347.77 235.70 L 350.03 236.66 L 352.33 237.72 L 354.67 238.84 L 357.04 239.98 L 359.42 241.13 L 361.81 242.24 L 364.23 243.33 L 366.71 244.40 L 369.26 245.47 L 371.86 246.54 L 374.47 247.61 L 377.02 248.65 L 379.50 249.67 L 381.93 250.68 L 384.33 251.66 L 386.72 252.62 L 389.09 253.53 L 391.41 254.38 L 393.67 255.15 L 395.88 255.86 L 398.05 256.53 L 400.20 257.17 L 402.34 257.83 L 404.48 258.51 L 406.63 259.23 L 408.77 260.02 L 410.89 260.87 L 412.99 261.82 L 415.04 262.89 L 417.02 264.09 L 418.90 265.44 L 420.65 266.92 L 422.25 268.54 L 423.69 270.27 L 424.95 272.12 L 426.02 274.05 L 426.90 276.07 L 427.58 278.16 L 428.07 280.32 L 428.35 282.52 L 428.41 284.79 L 428.24 287.10 L 427.82 289.47 L 427.13 291.89 L 426.13 294.33 L 424.82 296.75 L 423.20 299.06 L 421.28 301.22 L 419.11 303.15 L 416.72 304.82 L 414.19 306.20 L 411.58 307.32 L 408.96 308.22 L 406.37 308.98 L 403.85 309.67 L 401.41 310.35 L 399.07 311.07 L 396.80 311.84 L 394.59 312.65 L 392.42 313.51 L 390.26 314.40 L 388.07 315.32 L 385.81 316.26 L 383.47 317.25 L 381.04 318.28 L 378.52 319.34 L 375.94 320.43 L 373.33 321.51 L 370.70 322.59 L 368.04 323.66 L 365.37 324.73 L 362.67 325.81 L 359.94 326.90 L 357.17 328.00 L 354.36 329.10 L 351.54 330.17 L 348.68 331.20 Z" />
</symbol>
<symbol id="bl2">
<path d="M 426.75 245.41 L 423.28 247.22 L 419.80 249.02 L 416.33 250.80 L 412.87 252.57 L 409.42 254.35 L 405.99 256.14 L 402.60 257.98 L 399.27 259.89 L 396.04 261.93 L 392.95 264.15 L 390.08 266.61 L 387.50 269.33 L 385.27 272.35 L 383.42 275.65 L 381.94 279.19 L 380.75 282.91 L 379.76 286.76 L 378.81 290.67 L 377.78 294.59 L 376.57 298.49 L 375.13 302.31 L 373.41 306.02 L 371.42 309.60 L 369.17 313.01 L 366.68 316.22 L 363.97 319.20 L 361.09 321.93 L 358.06 324.40 L 354.89 326.61 L 351.60 328.56 L 348.20 330.29 L 344.70 331.84 L 341.13 333.26 L 337.53 334.62 L 333.93 335.97 L 330.39 337.41 L 326.96 338.99 L 323.65 340.77 L 320.52 342.80 L 317.57 345.08 L 314.82 347.62 L 312.27 350.39 L 309.91 353.34 L 307.73 356.41 L 305.70 359.53 L 303.77 362.68 L 301.92 365.81 L 300.10 368.92 L 298.29 372.03 L 296.46 375.12 L 294.57 378.19 L 292.59 381.24 L 290.49 384.22 L 288.25 387.12 L 285.85 389.92 L 283.26 392.58 L 280.48 395.12 L 277.52 397.51 L 274.37 399.74 L 271.07 401.78 L 267.64 403.60 L 264.08 405.19 L 260.42 406.54 L 256.67 407.64 L 252.86 408.48 L 249.00 409.07 L 245.13 409.40 L 241.24 409.47 L 237.35 409.27 L 233.47 408.81 L 229.62 408.11 L 225.81 407.17 L 222.06 406.03 L 218.39 404.74 L 214.77 403.35 L 211.20 401.92 L 207.64 400.54 L 204.07 399.29 L 200.45 398.23 L 196.79 397.41 L 193.06 396.83 L 189.30 396.47 L 185.49 396.30 L 181.66 396.24 L 177.80 396.25 L 173.91 396.26 L 169.99 396.28 L 166.04 396.28 L 162.07 396.28 L 158.08 396.28 L 154.09 396.28 L 150.10 396.26 L 146.13 396.17 L 142.17 395.98 L 138.24 395.61 L 134.35 395.01 L 130.50 394.16 L 126.71 393.03 L 122.98 391.64 L 119.31 390.01 L 115.71 388.18 L 112.16 386.22 L 108.65 384.15 L 105.17 382.02 L 101.71 379.85 L 98.27 377.66 L 94.84 375.47 L 91.42 373.29 L 88.00 371.13 L 84.59 368.98 L 81.19 366.83 L 77.80 364.69 L 74.41 362.54 L 71.01 360.39 L 67.61 358.21 L 64.20 356.01 L 60.76 353.79 L 57.30 351.55 L 53.82 349.30 L 50.32 347.02 L 46.81 344.72 L 43.31 342.39 L 39.82 340.02 L 36.38 337.58 L 33.03 335.05 L 29.80 332.38 L 26.75 329.56 L 23.90 326.55 L 21.28 323.35 L 18.91 319.98 L 16.80 316.44 L 14.96 312.76 L 13.42 308.97 L 12.16 305.07 L 11.20 301.10 L 10.55 297.07 L 10.20 293.00 L 10.15 288.92 L 10.40 284.85 L 10.94 280.82 L 11.77 276.83 L 12.87 272.90 L 14.21 269.03 L 15.76 265.22 L 17.49 261.46 L 19.35 257.76 L 21.31 254.09 L 23.34 250.43 L 25.41 246.80 L 27.52 243.17 L 29.65 239.54 L 31.81 235.91 L 33.99 232.30 L 36.18 228.68 L 38.39 225.07 L 40.60 221.46 L 42.82 217.85 L 45.04 214.25 L 47.27 210.65 L 49.50 207.07 L 51.73 203.50 L 53.97 199.95 L 56.21 196.41 L 58.47 192.89 L 60.74 189.37 L 63.03 185.86 L 65.33 182.35 L 67.63 178.84 L 69.95 175.33 L 72.26 171.82 L 74.57 168.30 L 76.89 164.79 L 79.20 161.28 L 81.51 157.77 L 83.82 154.26 L 86.13 150.74 L 88.43 147.23 L 90.73 143.72 L 93.02 140.22 L 95.32 136.74 L 97.63 133.28 L 99.97 129.85 L 102.36 126.47 L 104.80 123.13 L 107.33 119.86 L 109.96 116.66 L 112.68 113.54 L 115.51 110.52 L 118.45 107.60 L 121.50 104.78 L 124.64 102.08 L 127.87 99.50 L 131.20 97.04 L 134.62 94.70 L 138.12 92.50 L 141.70 90.42 L 145.35 88.47 L 149.05 86.65 L 152.81 84.95 L 156.61 83.35 L 160.43 81.85 L 164.27 80.43 L 168.12 79.06 L 171.97 77.72 L 175.82 76.40 L 179.65 75.09 L 183.47 73.75 L 187.26 72.38 L 191.05 70.98 L 194.82 69.53 L 198.58 68.05 L 202.35 66.54 L 206.12 65.02 L 209.90 63.49 L 213.70 61.97 L 217.51 60.47 L 221.34 58.99 L 225.17 57.53 L 229.01 56.09 L 232.84 54.67 L 236.67 53.26 L 240.50 51.86 L 244.32 50.45 L 248.15 49.03 L 251.98 47.63 L 255.84 46.24 L 259.72 44.90 L 263.65 43.67 L 267.62 42.59 L 271.63 41.74 L 275.67 41.19 L 279.73 40.95 L 283.79 41.02 L 287.81 41.35 L 291.80 41.90 L 295.74 42.58 L 299.64 43.35 L 303.51 44.15 L 307.36 44.94 L 311.20 45.72 L 315.04 46.45 L 318.88 47.15 L 322.73 47.81 L 326.58 48.47 L 330.43 49.12 L 334.28 49.80 L 338.13 50.50 L 341.98 51.22 L 345.82 51.96 L 349.66 52.71 L 353.49 53.45 L 357.33 54.18 L 361.18 54.89 L 365.05 55.57 L 368.92 56.24 L 372.82 56.89 L 376.73 57.52 L 380.65 58.13 L 384.59 58.74 L 388.52 59.35 L 392.45 59.97 L 396.35 60.60 L 400.24 61.25 L 404.11 61.91 L 407.95 62.59 L 411.77 63.33 L 415.56 64.14 L 419.31 65.05 L 423.02 66.08 L 426.68 67.26 L 430.29 68.57 L 433.83 70.02 L 437.31 71.62 L 440.72 73.35 L 444.05 75.22 L 447.30 77.23 L 450.46 79.36 L 453.53 81.62 L 456.50 83.99 L 459.36 86.49 L 462.13 89.11 L 464.79 91.84 L 467.34 94.69 L 469.78 97.64 L 472.10 100.71 L 474.30 103.88 L 476.37 107.15 L 478.31 110.51 L 480.11 113.95 L 481.77 117.47 L 483.28 121.05 L 484.65 124.70 L 485.86 128.41 L 486.92 132.16 L 487.82 135.97 L 488.56 139.81 L 489.13 143.68 L 489.54 147.58 L 489.79 151.50 L 489.87 155.42 L 489.78 159.33 L 489.53 163.25 L 489.12 167.15 L 488.53 171.03 L 487.79 174.90 L 486.89 178.72 L 485.82 182.50 L 484.60 186.24 L 483.23 189.91 L 481.71 193.52 L 480.04 197.06 L 478.22 200.52 L 476.27 203.89 L 474.19 207.17 L 471.98 210.34 L 469.63 213.41 L 467.17 216.37 L 464.58 219.22 L 461.88 221.96 L 459.08 224.59 L 456.17 227.10 L 453.18 229.49 L 450.10 231.76 L 446.93 233.92 L 443.69 235.98 L 440.39 237.95 L 437.03 239.87 L 433.64 241.75 L 430.20 243.59 Z" />
</symbol>
<symbol id="bl3">
<path d="M 413.34 387.59 L 409.95 388.86 L 406.57 390.11 L 403.23 391.33 L 399.91 392.55 L 396.62 393.76 L 393.36 394.98 L 390.12 396.21 L 386.90 397.46 L 383.67 398.75 L 380.41 400.06 L 377.07 401.42 L 373.65 402.79 L 370.13 404.16 L 366.55 405.50 L 362.96 406.74 L 359.43 407.88 L 355.96 408.86 L 352.57 409.67 L 349.24 410.28 L 345.97 410.67 L 342.72 410.83 L 339.49 410.75 L 336.29 410.42 L 333.11 409.81 L 329.97 408.93 L 326.89 407.77 L 323.90 406.34 L 321.03 404.65 L 318.33 402.70 L 315.83 400.48 L 313.53 397.99 L 311.44 395.22 L 309.56 392.17 L 307.90 388.87 L 306.48 385.35 L 305.31 381.66 L 304.37 377.85 L 303.64 374.00 L 303.09 370.16 L 302.65 366.37 L 302.29 362.64 L 301.97 358.98 L 301.65 355.39 L 301.30 351.86 L 300.90 348.39 L 300.41 344.96 L 299.80 341.56 L 299.02 338.20 L 298.05 334.84 L 296.86 331.49 L 295.43 328.17 L 293.78 324.88 L 291.91 321.67 L 289.85 318.56 L 287.63 315.58 L 285.27 312.73 L 282.77 310.04 L 280.15 307.53 L 277.42 305.22 L 274.59 303.11 L 271.67 301.23 L 268.67 299.56 L 265.58 298.08 L 262.39 296.80 L 259.10 295.71 L 255.70 294.81 L 252.22 294.11 L 248.65 293.61 L 245.03 293.33 L 241.38 293.27 L 237.72 293.42 L 234.08 293.77 L 230.47 294.28 L 226.91 294.91 L 223.39 295.60 L 219.92 296.29 L 216.48 296.95 L 213.06 297.54 L 209.65 298.03 L 206.25 298.42 L 202.86 298.71 L 199.46 298.89 L 196.06 298.95 L 192.65 298.92 L 189.22 298.77 L 185.79 298.53 L 182.35 298.18 L 178.92 297.74 L 175.49 297.18 L 172.09 296.52 L 168.71 295.75 L 165.36 294.86 L 162.03 293.86 L 158.73 292.75 L 155.46 291.55 L 152.24 290.24 L 149.05 288.84 L 145.92 287.35 L 142.84 285.76 L 139.83 284.09 L 136.88 282.33 L 133.99 280.49 L 131.16 278.55 L 128.40 276.52 L 125.70 274.40 L 123.06 272.18 L 120.49 269.87 L 117.98 267.47 L 115.52 264.95 L 113.11 262.33 L 110.73 259.57 L 108.39 256.71 L 106.10 253.74 L 103.89 250.69 L 101.79 247.59 L 99.81 244.44 L 97.96 241.25 L 96.23 238.01 L 94.62 234.74 L 93.14 231.42 L 91.77 228.06 L 90.51 224.65 L 89.36 221.21 L 88.31 217.71 L 87.38 214.17 L 86.55 210.58 L 85.85 206.94 L 85.27 203.28 L 84.82 199.60 L 84.49 195.92 L 84.28 192.24 L 84.19 188.57 L 84.23 184.91 L 84.38 181.25 L 84.66 177.60 L 85.06 173.96 L 85.57 170.33 L 86.21 166.71 L 86.97 163.12 L 87.83 159.56 L 88.82 156.04 L 89.91 152.56 L 91.11 149.13 L 92.42 145.74 L 93.84 142.40 L 95.36 139.12 L 96.97 135.89 L 98.69 132.72 L 100.50 129.63 L 102.40 126.61 L 104.38 123.67 L 106.45 120.81 L 108.60 118.03 L 110.84 115.33 L 113.15 112.72 L 115.54 110.20 L 117.98 107.77 L 120.48 105.42 L 123.03 103.17 L 125.63 101.01 L 128.28 98.94 L 130.98 96.94 L 133.76 95.03 L 136.61 93.20 L 139.52 91.44 L 142.52 89.76 L 145.57 88.17 L 148.68 86.66 L 151.82 85.23 L 154.99 83.89 L 158.19 82.62 L 161.40 81.41 L 164.63 80.24 L 167.87 79.09 L 171.12 77.96 L 174.37 76.81 L 177.63 75.65 L 180.89 74.47 L 184.15 73.27 L 187.41 72.06 L 190.68 70.82 L 193.94 69.56 L 197.20 68.29 L 200.46 67.01 L 203.71 65.71 L 206.96 64.42 L 210.21 63.15 L 213.44 61.89 L 216.67 60.66 L 219.90 59.45 L 223.10 58.27 L 226.28 57.09 L 229.45 55.92 L 232.59 54.74 L 235.72 53.56 L 238.84 52.37 L 241.96 51.18 L 245.09 49.98 L 248.23 48.79 L 251.37 47.61 L 254.52 46.44 L 257.68 45.30 L 260.85 44.20 L 264.04 43.17 L 267.27 42.25 L 270.54 41.49 L 273.85 40.94 L 277.19 40.67 L 280.54 40.70 L 283.88 41.07 L 287.17 41.79 L 290.36 42.85 L 293.43 44.25 L 296.33 45.98 L 299.03 48.01 L 301.50 50.34 L 303.71 52.92 L 305.63 55.72 L 307.24 58.72 L 308.53 61.86 L 309.49 65.11 L 310.13 68.44 L 310.49 71.82 L 310.60 75.22 L 310.53 78.63 L 310.33 82.05 L 310.05 85.47 L 309.72 88.89 L 309.37 92.32 L 309.00 95.75 L 308.63 99.18 L 308.26 102.62 L 307.89 106.05 L 307.53 109.49 L 307.16 112.93 L 306.80 116.38 L 306.44 119.84 L 306.07 123.33 L 305.70 126.84 L 305.33 130.36 L 304.97 133.89 L 304.62 137.42 L 304.30 140.92 L 304.04 144.39 L 303.84 147.82 L 303.74 151.21 L 303.75 154.55 L 303.87 157.86 L 304.10 161.15 L 304.44 164.42 L 304.87 167.69 L 305.39 170.97 L 305.99 174.26 L 306.69 177.56 L 307.50 180.87 L 308.44 184.18 L 309.52 187.47 L 310.76 190.74 L 312.15 193.98 L 313.67 197.18 L 315.33 200.33 L 317.11 203.41 L 319.00 206.42 L 321.01 209.35 L 323.12 212.21 L 325.36 214.99 L 327.70 217.68 L 330.16 220.29 L 332.71 222.81 L 335.37 225.23 L 338.11 227.54 L 340.93 229.74 L 343.84 231.84 L 346.82 233.83 L 349.86 235.71 L 352.94 237.47 L 356.03 239.12 L 359.12 240.65 L 362.21 242.10 L 365.30 243.49 L 368.40 244.83 L 371.51 246.14 L 374.64 247.43 L 377.78 248.68 L 380.93 249.90 L 384.09 251.09 L 387.28 252.26 L 390.49 253.42 L 393.72 254.58 L 396.98 255.75 L 400.27 256.96 L 403.56 258.22 L 406.85 259.57 L 410.08 261.06 L 413.23 262.74 L 416.21 264.65 L 418.99 266.83 L 421.49 269.28 L 423.71 271.98 L 425.64 274.90 L 427.30 277.98 L 428.75 281.19 L 430.04 284.47 L 431.25 287.79 L 432.44 291.13 L 433.65 294.48 L 434.89 297.83 L 436.19 301.19 L 437.54 304.57 L 438.92 307.93 L 440.32 311.31 L 441.71 314.71 L 443.08 318.12 L 444.41 321.57 L 445.68 325.05 L 446.88 328.55 L 447.98 332.07 L 448.91 335.63 L 449.64 339.23 L 450.09 342.86 L 450.23 346.52 L 450.03 350.18 L 449.49 353.81 L 448.59 357.38 L 447.33 360.85 L 445.74 364.19 L 443.81 367.36 L 441.57 370.34 L 439.05 373.10 L 436.28 375.62 L 433.30 377.88 L 430.15 379.90 L 426.88 381.72 L 423.54 383.35 L 420.15 384.86 L 416.74 386.26 Z" />
</symbol>
<symbol id="bl4">
<path d="M 379.78 289.25 L 379.30 293.02 L 378.87 296.86 L 378.45 300.77 L 378.06 304.71 L 377.68 308.63 L 377.32 312.49 L 376.98 316.29 L 376.65 320.05 L 376.34 323.81 L 376.04 327.58 L 375.76 331.37 L 375.53 335.16 L 375.38 338.95 L 375.34 342.73 L 375.46 346.50 L 375.77 350.26 L 376.28 354.03 L 376.92 357.84 L 377.62 361.71 L 378.24 365.64 L 378.66 369.61 L 378.78 373.58 L 378.54 377.51 L 377.89 381.39 L 376.81 385.21 L 375.31 388.96 L 373.40 392.60 L 371.13 396.04 L 368.56 399.24 L 365.76 402.18 L 362.78 404.86 L 359.67 407.33 L 356.47 409.60 L 353.22 411.70 L 349.95 413.65 L 346.67 415.48 L 343.42 417.22 L 340.19 418.92 L 336.98 420.62 L 333.80 422.37 L 330.60 424.20 L 327.38 426.10 L 324.09 428.06 L 320.72 430.05 L 317.24 432.02 L 313.66 433.91 L 309.95 435.62 L 306.12 437.06 L 302.16 438.12 L 298.09 438.70 L 293.94 438.74 L 289.77 438.22 L 285.62 437.15 L 281.52 435.63 L 277.51 433.75 L 273.59 431.63 L 269.78 429.36 L 266.08 427.01 L 262.49 424.64 L 258.98 422.30 L 255.52 420.05 L 252.03 417.94 L 248.48 416.01 L 244.82 414.29 L 241.05 412.75 L 237.19 411.36 L 233.26 410.05 L 229.30 408.74 L 225.33 407.33 L 221.38 405.73 L 217.46 403.87 L 213.60 401.73 L 209.83 399.30 L 206.19 396.56 L 202.72 393.51 L 199.44 390.14 L 196.41 386.49 L 193.68 382.61 L 191.29 378.57 L 189.26 374.47 L 187.61 370.39 L 186.32 366.37 L 185.34 362.42 L 184.60 358.53 L 184.01 354.67 L 183.46 350.85 L 182.84 347.10 L 182.06 343.44 L 181.04 339.89 L 179.75 336.45 L 178.16 333.12 L 176.28 329.90 L 174.13 326.79 L 171.75 323.77 L 169.20 320.84 L 166.52 317.95 L 163.76 315.08 L 160.95 312.21 L 158.10 309.31 L 155.23 306.37 L 152.32 303.40 L 149.38 300.39 L 146.41 297.34 L 143.42 294.28 L 140.42 291.22 L 137.46 288.18 L 134.55 285.20 L 131.72 282.31 L 128.98 279.50 L 126.30 276.74 L 123.65 273.98 L 121.00 271.20 L 118.34 268.37 L 115.71 265.49 L 113.16 262.60 L 110.71 259.70 L 108.37 256.78 L 106.13 253.81 L 103.95 250.73 L 101.83 247.51 L 99.75 244.13 L 97.75 240.59 L 95.84 236.89 L 94.04 233.06 L 92.38 229.11 L 90.85 225.05 L 89.47 220.91 L 88.24 216.69 L 87.18 212.42 L 86.29 208.11 L 85.56 203.76 L 85.00 199.41 L 84.62 195.05 L 84.42 190.71 L 84.38 186.39 L 84.51 182.09 L 84.81 177.84 L 85.26 173.62 L 85.88 169.43 L 86.65 165.27 L 87.59 161.14 L 88.69 157.02 L 89.96 152.93 L 91.40 148.87 L 93.00 144.84 L 94.77 140.86 L 96.70 136.94 L 98.78 133.08 L 101.01 129.31 L 103.40 125.63 L 105.92 122.04 L 108.58 118.56 L 111.37 115.19 L 114.29 111.93 L 117.34 108.79 L 120.51 105.78 L 123.80 102.88 L 127.22 100.11 L 130.75 97.47 L 134.38 94.98 L 138.11 92.62 L 141.91 90.43 L 145.77 88.39 L 149.67 86.52 L 153.56 84.82 L 157.43 83.31 L 161.21 81.98 L 164.91 80.82 L 168.52 79.84 L 172.07 79.00 L 175.58 78.30 L 179.08 77.73 L 182.58 77.27 L 186.08 76.91 L 189.58 76.67 L 193.07 76.53 L 196.55 76.50 L 200.02 76.58 L 203.50 76.77 L 206.99 77.07 L 210.52 77.50 L 214.13 78.07 L 217.85 78.79 L 221.69 79.68 L 225.63 80.74 L 229.64 81.97 L 233.66 83.37 L 237.67 84.94 L 241.62 86.66 L 245.49 88.52 L 249.24 90.48 L 252.87 92.52 L 256.41 94.56 L 259.94 96.54 L 263.57 98.39 L 267.39 99.98 L 271.46 101.20 L 275.77 101.95 L 280.27 102.17 L 284.88 101.84 L 289.55 101.02 L 294.22 99.78 L 298.87 98.24 L 303.48 96.50 L 308.02 94.66 L 312.44 92.77 L 316.70 90.88 L 320.77 89.02 L 324.69 87.17 L 328.53 85.31 L 332.40 83.39 L 336.38 81.37 L 340.49 79.27 L 344.73 77.11 L 349.05 74.96 L 353.39 72.87 L 357.68 70.92 L 361.87 69.16 L 365.91 67.62 L 369.78 66.32 L 373.48 65.24 L 377.06 64.36 L 380.58 63.65 L 384.08 63.10 L 387.61 62.69 L 391.22 62.42 L 394.94 62.30 L 398.77 62.32 L 402.67 62.50 L 406.56 62.82 L 410.37 63.28 L 414.06 63.88 L 417.67 64.63 L 421.25 65.54 L 424.86 66.62 L 428.52 67.90 L 432.23 69.36 L 435.94 71.00 L 439.61 72.82 L 443.24 74.84 L 446.87 77.09 L 450.52 79.60 L 454.18 82.39 L 457.81 85.42 L 461.33 88.67 L 464.69 92.06 L 467.83 95.55 L 470.71 99.05 L 473.29 102.49 L 475.58 105.85 L 477.60 109.11 L 479.40 112.32 L 481.00 115.51 L 482.45 118.70 L 483.77 121.92 L 484.95 125.18 L 486.01 128.47 L 486.95 131.80 L 487.76 135.17 L 488.45 138.58 L 489.02 142.02 L 489.45 145.49 L 489.76 148.97 L 489.94 152.46 L 490.00 155.94 L 489.93 159.40 L 489.73 162.84 L 489.40 166.26 L 488.94 169.64 L 488.36 173.00 L 487.65 176.33 L 486.82 179.64 L 485.87 182.91 L 484.79 186.15 L 483.60 189.37 L 482.29 192.54 L 480.85 195.68 L 479.28 198.79 L 477.56 201.88 L 475.68 204.97 L 473.61 208.07 L 471.35 211.19 L 468.92 214.27 L 466.38 217.26 L 463.77 220.10 L 461.14 222.75 L 458.48 225.21 L 455.79 227.52 L 453.03 229.70 L 450.18 231.79 L 447.20 233.83 L 444.07 235.83 L 440.79 237.82 L 437.40 239.79 L 433.96 241.72 L 430.56 243.60 L 427.22 245.41 L 423.95 247.15 L 420.72 248.85 L 417.51 250.50 L 414.30 252.14 L 411.11 253.75 L 407.92 255.35 L 404.76 256.96 L 401.62 258.60 L 398.54 260.33 L 395.54 262.18 L 392.66 264.24 L 389.96 266.53 L 387.51 269.11 L 385.37 271.98 L 383.60 275.11 L 382.20 278.45 L 381.15 281.95 L 380.37 285.56 Z" />
</symbol>
</defs>
<!-- isDone: 0 -->
<rect width="700" height="500" style="fill:#fff;stroke-width:0" />
<use class="p0 borderLine" xlink:href="#bl0"/>
<use class="p1 borderLine" xlink:href="#bl1"/>
<use class="p2 borderLine" xlink:href="#bl2"/>
<use class="p3 borderLine" xlink:href="#bl3"/>
<use class="p4 borderLine" xlink:href="#bl4"/>
<use class="q0 outLine" xlink:href="#bl0"/>
<use class="q1 outLine" xlink:href="#bl1"/>
<use class="q2 outLine" xlink:href="#bl2"/>
<use class="q3 outLine" xlink:href="#bl3"/>
<use class="q4 outLine" xlink:href="#bl4"/>
<circle onclick="fromCircle(16)" class="circle" cx="191.2090" cy="428.7908" r="26.4076" />
<text class="nLabel" x="191.21" y="423.79">2</text>
<text class="belong" x="191.21" y="433.79">(1)</text>
<circle onclick="fromCircle(28)" class="circle" cx="140.6489" cy="353.2862" r="37.3460" />
<text class="nLabel" x="140.65" y="348.29">4</text>
<text class="belong" x="140.65" y="358.29">(1, 2, 3)</text>
<circle onclick="fromCircle(31)" class="circle" cx="328.1906" cy="283.3218" r="45.7393" />
<text class="nLabel" x="328.19" y="278.32">6</text>
<text class="belong" x="328.19" y="288.32">(1, 2, 3, 4, 5)</text>
<circle onclick="fromCircle(20)" class="circle" cx="63.9718" cy="290.3885" r="49.4041" />
<text class="nLabel" x="63.97" y="285.39">7</text>
<text class="belong" x="63.97" y="295.39">(1, 3)</text>
<circle onclick="fromCircle(22)" class="circle" cx="279.0143" cy="71.3373" r="26.4076" />
<text class="nLabel" x="279.01" y="66.34">2</text>
<text class="belong" x="279.01" y="76.34">(1, 3, 4)</text>
<circle onclick="fromCircle(23)" class="circle" cx="195.2546" cy="187.4040" r="105.6305" />
<text class="nLabel" x="195.25" y="182.40">32</text>
<text class="belong" x="195.25" y="192.40">(1, 3, 4, 5)</text>
<circle onclick="fromCircle(21)" class="circle" cx="397.1515" cy="155.0072" r="87.5842" />
<text class="nLabel" x="397.15" y="150.01">22</text>
<text class="belong" x="397.15" y="160.01">(1, 3, 5)</text>
<circle onclick="fromCircle(18)" class="circle" cx="413.3288" cy="346.7000" r="32.3426" />
<text class="nLabel" x="413.33" y="341.70">3</text>
<text class="belong" x="413.33" y="351.70">(1, 4)</text>
<circle onclick="fromCircle(26)" class="circle" cx="404.5562" cy="284.6686" r="18.6730" />
<text class="nLabel" x="404.56" y="279.67">1</text>
<text class="belong" x="404.56" y="289.67">(1, 2, 4)</text>
<circle onclick="fromCircle(19)" class="circle" cx="341.8486" cy="373.5356" r="32.3426" />
<text class="nLabel" x="341.85" y="368.54">3</text>
<text class="belong" x="341.85" y="378.54">(1, 4, 5)</text>
<circle onclick="fromCircle(17)" class="circle" cx="295.3395" cy="416.3792" r="18.6730" />
<text class="nLabel" x="295.34" y="411.38">1</text>
<text class="belong" x="295.34" y="421.38">(1, 5)</text>
<circle onclick="fromCircle(29)" class="circle" cx="242.2127" cy="351.5432" r="52.8152" />
<text class="nLabel" x="242.21" y="346.54">8</text>
<text class="belong" x="242.21" y="356.54">(1, 2, 3, 5)</text>
<g id="legendBox">
<rect class="p0 borderLine" x="500.00" y="50.00" width="30.00" height="15.00" />
<rect class="q0" x="500.00" y="50.00" width="30.00" height="15.00" />
<text class="legend" x="540.00" y="65.00">All Sig Genes</text>
<rect class="p1 borderLine" x="500.00" y="90.00" width="30.00" height="15.00" />
<rect class="q1" x="500.00" y="90.00" width="30.00" height="15.00" />
<text class="legend" x="540.00" y="105.00">Multimapping Diff</text>
<rect class="p2 borderLine" x="500.00" y="130.00" width="30.00" height="15.00" />
<rect class="q2" x="500.00" y="130.00" width="30.00" height="15.00" />
<text class="legend" x="540.00" y="145.00">Build Issue</text>
<rect class="p3 borderLine" x="500.00" y="170.00" width="30.00" height="15.00" />
<rect class="q3" x="500.00" y="170.00" width="30.00" height="15.00" />
<text class="legend" x="540.00" y="185.00">Annotation Change</text>
<rect class="p4 borderLine" x="500.00" y="210.00" width="30.00" height="15.00" />
<rect class="q4" x="500.00" y="210.00" width="30.00" height="15.00" />
<text class="legend" x="540.00" y="225.00">Build Change</text>
</g>
</svg>
