<svg xmlns="http://www.w3.org/2000/svg" xmlns:xlink="http://www.w3.org/1999/xlink" width="700" height="500">
<defs>
<style type="text/css"><![CDATA[
  .borderLine {
	   stroke: none;
	   fill-opacity:  0.2 ;
  }
  .outLine {
	   stroke-width:  2 ;
	   fill: none;
  }
  .circle {
	   stroke: #888888;
	   stroke-width: 0.5;
	   fill: none;
    pointer-events: all;
  }
  .nLabel {
	   font-family: Arial;
    pointer-events: none;
	   font-size: 20px;
	   text-anchor: middle;
	   alignment-baseline: central;
  }
  .belong { 
 display: none;
	   font-family: Arial;
    pointer-events: none;
	   font-size: 10px;
	   text-anchor: middle;
	   alignment-baseline: central;
  }
  .legend {
    font-family: Arial;
    font-size: 15px;
  }
  #legendBox {
    display:  inline ;
  }
  .p0{
    stroke: none;
    fill:  #f3f3f3 ;
  }
  .q0{
    fill: none;
    stroke:  #f3f3f3 ;
  }
  .p1{
    stroke: none;
    fill:  #f4acca ;
  }
  .q1{
    fill: none;
    stroke:  #f4acca ;
  }
  .p2{
    stroke: none;
    fill:  #ffff58 ;
  }
  .q2{
    fill: none;
    stroke:  #ffff58 ;
  }
  .p3{
    stroke: none;
    fill:  #8cdab8 ;
  }
  .q3{
    fill: none;
    stroke:  #8cdab8 ;
  }
  .p4{
    stroke: none;
    fill:  #2cb3da ;
  }
  .q4{
    fill: none;
    stroke:  #2cb3da ;
  }
]]>
</style>
<symbol id="bl0">
<path d="M 449.61 327.18 L 447.91 330.30 L 446.04 333.31 L 443.96 336.16 L 441.67 338.86 L 439.19 341.40 L 436.57 343.83 L 433.85 346.18 L 431.08 348.48 L 428.28 350.75 L 425.47 353.01 L 422.65 355.26 L 419.83 357.52 L 417.01 359.77 L 414.19 362.01 L 411.37 364.26 L 408.55 366.50 L 405.73 368.74 L 402.91 370.99 L 400.08 373.23 L 397.26 375.48 L 394.44 377.73 L 391.62 379.98 L 388.80 382.23 L 385.97 384.47 L 383.15 386.71 L 380.31 388.93 L 377.46 391.13 L 374.59 393.28 L 371.68 395.35 L 368.71 397.33 L 365.69 399.19 L 362.62 400.96 L 359.50 402.66 L 356.36 404.31 L 353.21 405.93 L 350.05 407.54 L 346.88 409.14 L 343.71 410.72 L 340.53 412.28 L 337.32 413.79 L 334.08 415.22 L 330.79 416.52 L 327.44 417.62 L 324.04 418.45 L 320.58 418.97 L 317.09 419.16 L 313.57 419.05 L 310.04 418.70 L 306.51 418.17 L 302.99 417.55 L 299.48 416.85 L 295.97 416.13 L 292.47 415.40 L 288.96 414.65 L 285.46 413.91 L 281.95 413.16 L 278.45 412.41 L 274.95 411.66 L 271.45 410.91 L 267.94 410.15 L 264.44 409.40 L 260.94 408.65 L 257.44 407.90 L 253.94 407.15 L 250.44 406.40 L 246.94 405.66 L 243.44 404.91 L 239.93 404.17 L 236.43 403.42 L 232.93 402.68 L 229.43 401.93 L 225.93 401.18 L 222.43 400.42 L 218.93 399.67 L 215.43 398.91 L 211.93 398.14 L 208.43 397.36 L 204.94 396.56 L 201.46 395.73 L 198.00 394.84 L 194.55 393.89 L 191.13 392.85 L 187.74 391.71 L 184.39 390.48 L 181.08 389.15 L 177.81 387.71 L 174.59 386.16 L 171.42 384.52 L 168.30 382.78 L 165.24 380.94 L 162.24 379.01 L 159.29 376.98 L 156.42 374.87 L 153.61 372.66 L 150.86 370.38 L 148.18 368.02 L 145.55 365.59 L 142.96 363.12 L 140.41 360.61 L 137.87 358.08 L 135.34 355.55 L 132.82 353.01 L 130.30 350.46 L 127.78 347.92 L 125.26 345.37 L 122.74 342.82 L 120.22 340.27 L 117.70 337.73 L 115.18 335.18 L 112.66 332.64 L 110.14 330.09 L 107.62 327.54 L 105.11 324.99 L 102.59 322.44 L 100.07 319.89 L 97.55 317.35 L 95.03 314.81 L 92.51 312.26 L 89.99 309.71 L 87.47 307.16 L 84.95 304.61 L 82.44 302.06 L 79.92 299.52 L 77.40 296.97 L 74.88 294.43 L 72.36 291.88 L 69.85 289.33 L 67.33 286.78 L 64.81 284.23 L 62.30 281.68 L 59.78 279.14 L 57.26 276.59 L 54.75 274.05 L 52.23 271.50 L 49.72 268.95 L 47.20 266.41 L 44.68 263.86 L 42.17 261.31 L 39.65 258.76 L 37.15 256.20 L 34.65 253.64 L 32.18 251.05 L 29.74 248.43 L 27.36 245.77 L 25.06 243.03 L 22.86 240.22 L 20.80 237.31 L 18.88 234.31 L 17.13 231.22 L 15.56 228.03 L 14.17 224.75 L 12.98 221.40 L 11.98 217.99 L 11.17 214.53 L 10.58 211.03 L 10.19 207.49 L 10.00 203.94 L 10.02 200.39 L 10.25 196.84 L 10.69 193.31 L 11.33 189.81 L 12.17 186.36 L 13.21 182.96 L 14.45 179.63 L 15.88 176.37 L 17.50 173.21 L 19.30 170.14 L 21.27 167.18 L 23.41 164.33 L 25.70 161.61 L 28.13 159.00 L 30.68 156.50 L 33.33 154.10 L 36.05 151.76 L 38.81 149.48 L 41.60 147.22 L 44.41 144.99 L 47.22 142.76 L 50.04 140.54 L 52.86 138.32 L 55.68 136.10 L 58.50 133.89 L 61.33 131.67 L 64.15 129.46 L 66.97 127.24 L 69.79 125.03 L 72.62 122.81 L 75.44 120.59 L 78.26 118.38 L 81.09 116.16 L 83.91 113.94 L 86.73 111.73 L 89.56 109.51 L 92.39 107.30 L 95.23 105.10 L 98.07 102.91 L 100.94 100.76 L 103.85 98.68 L 106.81 96.72 L 109.87 94.92 L 113.02 93.35 L 116.28 92.02 L 119.64 90.93 L 123.06 90.03 L 126.54 89.29 L 130.04 88.64 L 133.56 88.05 L 137.08 87.50 L 140.60 86.97 L 144.12 86.44 L 147.64 85.92 L 151.17 85.40 L 154.69 84.87 L 158.22 84.35 L 161.74 83.83 L 165.27 83.31 L 168.79 82.79 L 172.31 82.27 L 175.84 81.75 L 179.36 81.24 L 182.89 80.75 L 186.42 80.29 L 189.95 79.89 L 193.49 79.59 L 197.03 79.42 L 200.58 79.38 L 204.13 79.47 L 207.69 79.66 L 211.25 79.92 L 214.80 80.22 L 218.36 80.54 L 221.92 80.86 L 225.48 81.19 L 229.04 81.52 L 232.60 81.86 L 236.16 82.19 L 239.72 82.52 L 243.28 82.85 L 246.84 83.19 L 250.41 83.52 L 253.97 83.86 L 257.53 84.20 L 261.09 84.53 L 264.65 84.87 L 268.21 85.20 L 271.77 85.53 L 275.33 85.86 L 278.89 86.19 L 282.45 86.53 L 286.01 86.86 L 289.57 87.20 L 293.13 87.53 L 296.69 87.87 L 300.25 88.20 L 303.81 88.54 L 307.37 88.87 L 310.93 89.21 L 314.49 89.55 L 318.05 89.88 L 321.61 90.22 L 325.16 90.56 L 328.72 90.92 L 332.27 91.30 L 335.80 91.74 L 339.32 92.26 L 342.80 92.93 L 346.23 93.76 L 349.61 94.79 L 352.93 96.00 L 356.22 97.34 L 359.48 98.77 L 362.72 100.26 L 365.95 101.78 L 369.18 103.31 L 372.41 104.84 L 375.63 106.38 L 378.85 107.92 L 382.08 109.46 L 385.30 111.00 L 388.52 112.54 L 391.75 114.08 L 394.97 115.61 L 398.19 117.15 L 401.41 118.69 L 404.63 120.23 L 407.86 121.78 L 411.08 123.32 L 414.30 124.86 L 417.52 126.40 L 420.74 127.94 L 423.96 129.48 L 427.18 131.02 L 430.40 132.57 L 433.61 134.13 L 436.81 135.71 L 439.99 137.32 L 443.15 138.98 L 446.27 140.71 L 449.35 142.52 L 452.35 144.43 L 455.28 146.45 L 458.12 148.59 L 460.87 150.84 L 463.53 153.21 L 466.08 155.69 L 468.52 158.27 L 470.85 160.96 L 473.06 163.75 L 475.15 166.62 L 477.11 169.59 L 478.94 172.64 L 480.64 175.76 L 482.21 178.96 L 483.63 182.21 L 484.91 185.53 L 486.05 188.90 L 487.04 192.31 L 487.88 195.77 L 488.58 199.26 L 489.12 202.77 L 489.52 206.30 L 489.75 209.85 L 489.84 213.41 L 489.78 216.97 L 489.55 220.52 L 489.18 224.05 L 488.66 227.57 L 487.99 231.07 L 487.18 234.53 L 486.23 237.97 L 485.17 241.37 L 484.00 244.74 L 482.77 248.09 L 481.48 251.42 L 480.15 254.74 L 478.80 258.05 L 477.44 261.35 L 476.08 264.66 L 474.71 267.96 L 473.35 271.26 L 471.97 274.56 L 470.60 277.86 L 469.23 281.16 L 467.85 284.46 L 466.48 287.76 L 465.11 291.07 L 463.73 294.37 L 462.36 297.67 L 460.99 300.97 L 459.62 304.26 L 458.25 307.56 L 456.87 310.87 L 455.49 314.16 L 454.10 317.45 L 452.67 320.73 L 451.18 323.98 Z" />
</symbol>
<symbol id="bl1">
<path d="M 436.64 343.73 L 433.86 346.15 L 431.02 348.52 L 428.15 350.85 L 425.26 353.16 L 422.37 355.47 L 419.47 357.78 L 416.57 360.08 L 413.68 362.38 L 410.78 364.68 L 407.88 366.98 L 404.98 369.27 L 402.08 371.57 L 399.18 373.87 L 396.28 376.17 L 393.38 378.47 L 390.48 380.77 L 387.58 383.06 L 384.66 385.35 L 381.74 387.61 L 378.78 389.82 L 375.78 391.93 L 372.70 393.88 L 369.54 395.58 L 366.27 396.93 L 362.90 397.83 L 359.47 398.22 L 356.05 398.07 L 352.68 397.38 L 349.45 396.16 L 346.38 394.48 L 343.46 392.42 L 340.67 390.12 L 337.92 387.70 L 335.13 385.33 L 332.23 383.15 L 329.17 381.28 L 325.93 379.82 L 322.54 378.84 L 319.02 378.35 L 315.43 378.31 L 311.80 378.65 L 308.16 379.27 L 304.53 380.09 L 300.91 381.03 L 297.29 382.03 L 293.69 383.06 L 290.09 384.10 L 286.49 385.16 L 282.89 386.21 L 279.29 387.27 L 275.70 388.32 L 272.10 389.36 L 268.50 390.41 L 264.90 391.44 L 261.29 392.45 L 257.67 393.43 L 254.04 394.33 L 250.39 395.17 L 246.73 395.91 L 243.04 396.54 L 239.34 397.07 L 235.62 397.48 L 231.90 397.77 L 228.17 397.94 L 224.43 397.98 L 220.69 397.90 L 216.96 397.70 L 213.24 397.37 L 209.53 396.92 L 205.84 396.34 L 202.17 395.64 L 198.52 394.83 L 194.90 393.89 L 191.32 392.83 L 187.77 391.67 L 184.26 390.38 L 180.80 388.98 L 177.38 387.46 L 174.02 385.83 L 170.72 384.09 L 167.47 382.25 L 164.29 380.29 L 161.17 378.24 L 158.12 376.08 L 155.14 373.83 L 152.23 371.48 L 149.38 369.05 L 146.60 366.54 L 143.87 363.98 L 141.18 361.37 L 138.51 358.74 L 135.86 356.09 L 133.22 353.43 L 130.59 350.77 L 127.95 348.11 L 125.32 345.44 L 122.69 342.77 L 120.06 340.10 L 117.43 337.44 L 114.80 334.77 L 112.16 332.11 L 109.53 329.44 L 106.90 326.77 L 104.27 324.09 L 101.64 321.43 L 99.01 318.76 L 96.38 316.09 L 93.75 313.43 L 91.11 310.76 L 88.48 308.09 L 85.85 305.41 L 83.22 302.75 L 80.59 300.08 L 77.96 297.42 L 75.33 294.75 L 72.70 292.08 L 70.07 289.41 L 67.44 286.73 L 64.81 284.06 L 62.18 281.40 L 59.55 278.73 L 56.92 276.06 L 54.29 273.40 L 51.67 270.73 L 49.04 268.06 L 46.41 265.39 L 43.78 262.72 L 41.16 260.05 L 38.53 257.38 L 35.92 254.70 L 33.32 252.01 L 30.74 249.29 L 28.22 246.53 L 25.78 243.72 L 23.44 240.82 L 21.25 237.82 L 19.22 234.71 L 17.37 231.50 L 15.71 228.19 L 14.26 224.78 L 13.01 221.29 L 11.98 217.73 L 11.16 214.12 L 10.57 210.46 L 10.21 206.77 L 10.06 203.07 L 10.14 199.36 L 10.45 195.67 L 10.98 192.00 L 11.73 188.37 L 12.70 184.80 L 13.89 181.29 L 15.28 177.85 L 16.89 174.51 L 18.69 171.28 L 20.69 168.16 L 22.87 165.16 L 25.23 162.31 L 27.75 159.60 L 30.44 157.05 L 33.28 154.67 L 36.26 152.47 L 39.37 150.45 L 42.59 148.63 L 45.92 147.00 L 49.34 145.58 L 52.84 144.37 L 56.40 143.36 L 60.03 142.57 L 63.69 141.97 L 67.38 141.55 L 71.10 141.28 L 74.83 141.14 L 78.56 141.08 L 82.30 141.08 L 86.04 141.09 L 89.78 141.13 L 93.53 141.16 L 97.27 141.20 L 101.01 141.24 L 104.76 141.27 L 108.50 141.28 L 112.24 141.25 L 115.98 141.15 L 119.72 140.93 L 123.45 140.57 L 127.17 140.04 L 130.88 139.37 L 134.58 138.59 L 138.26 137.80 L 141.95 137.07 L 145.64 136.52 L 149.34 136.25 L 153.03 136.33 L 156.68 136.81 L 160.26 137.72 L 163.75 139.05 L 167.14 140.76 L 170.45 142.75 L 173.72 144.89 L 177.00 147.04 L 180.33 149.08 L 183.74 150.96 L 187.23 152.65 L 190.79 154.16 L 194.40 155.55 L 198.04 156.84 L 201.70 158.07 L 205.36 159.28 L 209.04 160.47 L 212.72 161.66 L 216.39 162.85 L 220.07 164.03 L 223.75 165.21 L 227.43 166.40 L 231.11 167.59 L 234.79 168.77 L 238.47 169.96 L 242.16 171.14 L 245.85 172.32 L 249.54 173.47 L 253.24 174.59 L 256.93 175.62 L 260.60 176.52 L 264.23 177.22 L 267.81 177.68 L 271.34 177.85 L 274.81 177.75 L 278.23 177.37 L 281.61 176.75 L 284.94 175.94 L 288.24 174.98 L 291.51 173.91 L 294.76 172.78 L 298.00 171.61 L 301.24 170.42 L 304.47 169.22 L 307.69 168.01 L 310.92 166.80 L 314.14 165.59 L 317.37 164.39 L 320.59 163.18 L 323.82 161.97 L 327.04 160.76 L 330.27 159.56 L 333.49 158.35 L 336.71 157.13 L 339.93 155.88 L 343.14 154.59 L 346.34 153.23 L 349.51 151.74 L 352.66 150.12 L 355.80 148.36 L 358.93 146.49 L 362.07 144.60 L 365.25 142.73 L 368.48 140.96 L 371.77 139.30 L 375.12 137.79 L 378.53 136.42 L 382.00 135.21 L 385.51 134.16 L 389.07 133.26 L 392.67 132.52 L 396.29 131.94 L 399.94 131.53 L 403.60 131.28 L 407.27 131.19 L 410.94 131.27 L 414.60 131.50 L 418.25 131.90 L 421.87 132.47 L 425.47 133.19 L 429.03 134.08 L 432.54 135.12 L 436.01 136.32 L 439.43 137.67 L 442.78 139.17 L 446.05 140.81 L 449.25 142.61 L 452.37 144.54 L 455.40 146.61 L 458.33 148.82 L 461.17 151.15 L 463.89 153.61 L 466.51 156.18 L 469.01 158.87 L 471.38 161.67 L 473.63 164.57 L 475.75 167.57 L 477.73 170.66 L 479.57 173.83 L 481.27 177.08 L 482.82 180.41 L 484.22 183.80 L 485.47 187.25 L 486.57 190.75 L 487.51 194.30 L 488.29 197.89 L 488.91 201.51 L 489.36 205.15 L 489.66 208.81 L 489.80 212.48 L 489.76 216.15 L 489.57 219.81 L 489.21 223.47 L 488.70 227.11 L 488.03 230.72 L 487.21 234.30 L 486.25 237.85 L 485.16 241.36 L 483.98 244.85 L 482.70 248.30 L 481.37 251.74 L 480.00 255.16 L 478.60 258.57 L 477.19 261.98 L 475.78 265.38 L 474.37 268.79 L 472.95 272.19 L 471.53 275.59 L 470.10 279.00 L 468.68 282.40 L 467.25 285.80 L 465.83 289.21 L 464.41 292.62 L 462.98 296.02 L 461.57 299.42 L 460.15 302.82 L 458.72 306.22 L 457.30 309.63 L 455.88 313.03 L 454.43 316.42 L 452.97 319.81 L 451.45 323.16 L 449.86 326.48 L 448.14 329.71 L 446.25 332.83 L 444.15 335.79 L 441.83 338.59 L 439.31 341.22 Z" />
</symbol>
<symbol id="bl2">
<path d="M 399.16 329.16 L 398.56 331.98 L 397.69 334.80 L 396.54 337.58 L 395.13 340.27 L 393.45 342.84 L 391.53 345.24 L 389.40 347.46 L 387.06 349.46 L 384.55 351.24 L 381.88 352.78 L 379.10 354.06 L 376.22 355.08 L 373.31 355.84 L 370.39 356.35 L 367.50 356.65 L 364.66 356.79 L 361.86 356.87 L 359.06 356.99 L 356.24 357.25 L 353.37 357.70 L 350.47 358.34 L 347.53 359.17 L 344.58 360.13 L 341.64 361.17 L 338.70 362.27 L 335.77 363.40 L 332.84 364.54 L 329.91 365.68 L 326.99 366.83 L 324.06 367.98 L 321.13 369.12 L 318.21 370.27 L 315.28 371.41 L 312.36 372.56 L 309.43 373.71 L 306.51 374.86 L 303.58 376.01 L 300.66 377.16 L 297.73 378.32 L 294.81 379.47 L 291.88 380.62 L 288.96 381.77 L 286.03 382.92 L 283.11 384.07 L 280.18 385.21 L 277.25 386.35 L 274.32 387.49 L 271.39 388.61 L 268.44 389.70 L 265.49 390.77 L 262.52 391.80 L 259.54 392.76 L 256.53 393.66 L 253.50 394.48 L 250.45 395.23 L 247.39 395.89 L 244.30 396.47 L 241.21 396.96 L 238.10 397.36 L 234.98 397.68 L 231.85 397.91 L 228.72 398.05 L 225.58 398.11 L 222.45 398.08 L 219.31 397.97 L 216.18 397.77 L 213.06 397.48 L 209.95 397.11 L 206.85 396.65 L 203.76 396.11 L 200.68 395.48 L 197.63 394.76 L 194.60 393.96 L 191.59 393.08 L 188.61 392.11 L 185.65 391.06 L 182.73 389.93 L 179.84 388.72 L 176.98 387.43 L 174.16 386.06 L 171.38 384.62 L 168.64 383.09 L 165.94 381.49 L 163.28 379.82 L 160.68 378.08 L 158.13 376.26 L 155.62 374.37 L 153.17 372.42 L 150.77 370.40 L 148.43 368.31 L 146.15 366.16 L 143.93 363.94 L 141.77 361.67 L 139.68 359.34 L 137.65 356.94 L 135.69 354.50 L 133.79 352.00 L 131.97 349.45 L 130.22 346.85 L 128.54 344.20 L 126.93 341.51 L 125.40 338.77 L 123.94 336.00 L 122.57 333.18 L 121.27 330.33 L 120.05 327.44 L 118.91 324.52 L 117.85 321.56 L 116.88 318.59 L 115.98 315.58 L 115.17 312.55 L 114.45 309.50 L 113.81 306.43 L 113.26 303.34 L 112.79 300.24 L 112.40 297.13 L 112.11 294.01 L 111.89 290.88 L 111.77 287.74 L 111.73 284.61 L 111.78 281.48 L 111.92 278.34 L 112.14 275.21 L 112.45 272.09 L 112.85 268.98 L 113.33 265.88 L 113.90 262.80 L 114.55 259.73 L 115.29 256.68 L 116.11 253.66 L 117.02 250.65 L 118.03 247.67 L 119.11 244.71 L 120.29 241.75 L 121.55 238.80 L 122.88 235.84 L 124.24 232.87 L 125.59 229.88 L 126.87 226.87 L 128.05 223.86 L 129.09 220.83 L 129.98 217.78 L 130.71 214.71 L 131.27 211.62 L 131.66 208.51 L 131.89 205.38 L 131.96 202.25 L 131.87 199.11 L 131.62 195.99 L 131.21 192.88 L 130.64 189.79 L 129.92 186.73 L 129.07 183.70 L 128.12 180.70 L 127.13 177.73 L 126.18 174.79 L 125.34 171.88 L 124.70 168.99 L 124.29 166.12 L 124.16 163.28 L 124.32 160.46 L 124.75 157.70 L 125.46 154.99 L 126.44 152.37 L 127.66 149.85 L 129.11 147.44 L 130.74 145.14 L 132.53 142.93 L 134.42 140.80 L 136.37 138.71 L 138.33 136.62 L 140.27 134.51 L 142.15 132.35 L 143.97 130.13 L 145.72 127.85 L 147.41 125.53 L 149.05 123.17 L 150.66 120.80 L 152.26 118.41 L 153.84 116.02 L 155.41 113.63 L 156.99 111.23 L 158.56 108.84 L 160.14 106.44 L 161.72 104.05 L 163.32 101.68 L 164.95 99.32 L 166.62 97.00 L 168.36 94.75 L 170.20 92.58 L 172.15 90.52 L 174.23 88.60 L 176.43 86.84 L 178.75 85.24 L 181.18 83.82 L 183.72 82.58 L 186.33 81.53 L 189.02 80.69 L 191.76 80.05 L 194.55 79.61 L 197.36 79.38 L 200.18 79.35 L 203.00 79.51 L 205.81 79.86 L 208.60 80.37 L 211.37 81.01 L 214.12 81.75 L 216.85 82.56 L 219.57 83.41 L 222.29 84.29 L 225.01 85.18 L 227.73 86.07 L 230.44 86.96 L 233.16 87.85 L 235.87 88.74 L 238.59 89.64 L 241.30 90.53 L 244.02 91.42 L 246.74 92.32 L 249.45 93.21 L 252.17 94.11 L 254.88 95.00 L 257.60 95.89 L 260.31 96.79 L 263.03 97.68 L 265.75 98.58 L 268.46 99.48 L 271.17 100.38 L 273.88 101.30 L 276.58 102.24 L 279.26 103.21 L 281.92 104.25 L 284.54 105.37 L 287.10 106.60 L 289.59 107.97 L 291.99 109.49 L 294.27 111.16 L 296.42 112.99 L 298.43 114.98 L 300.29 117.11 L 301.98 119.38 L 303.50 121.78 L 304.85 124.29 L 306.02 126.90 L 307.03 129.58 L 307.89 132.30 L 308.63 135.01 L 309.27 137.70 L 309.83 140.35 L 310.34 142.97 L 310.83 145.57 L 311.30 148.16 L 311.77 150.73 L 312.23 153.31 L 312.69 155.89 L 313.15 158.46 L 313.62 161.03 L 314.08 163.61 L 314.54 166.18 L 315.00 168.76 L 315.46 171.33 L 315.93 173.90 L 316.39 176.48 L 316.85 179.05 L 317.31 181.63 L 317.77 184.20 L 318.23 186.77 L 318.69 189.35 L 319.15 191.92 L 319.61 194.50 L 320.07 197.07 L 320.53 199.64 L 320.99 202.22 L 321.45 204.79 L 321.92 207.36 L 322.38 209.94 L 322.85 212.51 L 323.31 215.08 L 323.78 217.66 L 324.25 220.23 L 324.74 222.80 L 325.25 225.38 L 325.80 227.95 L 326.41 230.54 L 327.09 233.13 L 327.86 235.74 L 328.71 238.38 L 329.64 241.02 L 330.64 243.66 L 331.70 246.28 L 332.81 248.85 L 333.98 251.36 L 335.21 253.79 L 336.51 256.14 L 337.88 258.41 L 339.32 260.62 L 340.84 262.76 L 342.42 264.85 L 344.08 266.89 L 345.79 268.87 L 347.57 270.79 L 349.41 272.66 L 351.30 274.47 L 353.26 276.22 L 355.26 277.90 L 357.32 279.51 L 359.43 281.06 L 361.59 282.55 L 363.79 283.97 L 366.04 285.32 L 368.32 286.60 L 370.64 287.82 L 372.98 289.00 L 375.34 290.14 L 377.69 291.29 L 380.02 292.49 L 382.29 293.75 L 384.50 295.13 L 386.62 296.63 L 388.62 298.26 L 390.49 300.03 L 392.23 301.93 L 393.80 303.97 L 395.20 306.12 L 396.42 308.39 L 397.44 310.76 L 398.26 313.22 L 398.88 315.74 L 399.31 318.32 L 399.56 320.96 L 399.63 323.64 L 399.51 326.37 Z" />
</symbol>
<symbol id="bl3">
<path d="M 403.08 351.31 L 400.09 351.86 L 397.08 352.42 L 394.08 352.97 L 391.08 353.52 L 388.08 354.07 L 385.07 354.60 L 382.06 355.12 L 379.03 355.61 L 375.98 356.03 L 372.89 356.38 L 369.74 356.64 L 366.54 356.81 L 363.27 356.94 L 359.97 357.12 L 356.65 357.43 L 353.34 357.94 L 350.06 358.67 L 346.81 359.59 L 343.59 360.64 L 340.39 361.78 L 337.21 362.98 L 334.03 364.19 L 330.86 365.42 L 327.69 366.65 L 324.52 367.89 L 321.36 369.12 L 318.19 370.35 L 315.02 371.58 L 311.85 372.81 L 308.69 374.05 L 305.52 375.29 L 302.35 376.53 L 299.18 377.76 L 296.02 379.00 L 292.85 380.24 L 289.69 381.47 L 286.52 382.71 L 283.35 383.94 L 280.18 385.17 L 277.01 386.40 L 273.84 387.62 L 270.67 388.82 L 267.48 390.00 L 264.28 391.14 L 261.07 392.22 L 257.83 393.23 L 254.57 394.15 L 251.28 394.98 L 247.97 395.71 L 244.64 396.35 L 241.30 396.88 L 237.94 397.32 L 234.56 397.65 L 231.18 397.89 L 227.80 398.02 L 224.41 398.05 L 221.03 397.98 L 217.64 397.81 L 214.27 397.54 L 210.90 397.17 L 207.54 396.70 L 204.21 396.13 L 200.89 395.46 L 197.59 394.69 L 194.31 393.82 L 191.06 392.85 L 187.85 391.78 L 184.67 390.62 L 181.52 389.37 L 178.41 388.02 L 175.34 386.58 L 172.32 385.05 L 169.35 383.43 L 166.42 381.72 L 163.55 379.92 L 160.73 378.04 L 157.97 376.08 L 155.27 374.03 L 152.64 371.91 L 150.07 369.70 L 147.56 367.42 L 145.13 365.07 L 142.76 362.65 L 140.47 360.15 L 138.25 357.59 L 136.12 354.96 L 134.06 352.27 L 132.08 349.52 L 130.19 346.71 L 128.38 343.84 L 126.66 340.92 L 125.03 337.96 L 123.48 334.94 L 122.03 331.88 L 120.67 328.78 L 119.40 325.63 L 118.23 322.46 L 117.15 319.24 L 116.16 316.00 L 115.28 312.73 L 114.50 309.44 L 113.81 306.12 L 113.22 302.78 L 112.74 299.43 L 112.35 296.07 L 112.06 292.69 L 111.88 289.31 L 111.79 285.92 L 111.81 282.53 L 111.93 279.15 L 112.15 275.77 L 112.48 272.39 L 112.90 269.03 L 113.42 265.68 L 114.05 262.35 L 114.77 259.04 L 115.60 255.75 L 116.52 252.49 L 117.55 249.25 L 118.67 246.04 L 119.91 242.85 L 121.25 239.69 L 122.70 236.54 L 124.24 233.43 L 125.87 230.36 L 127.57 227.35 L 129.33 224.41 L 131.17 221.57 L 133.06 218.80 L 135.03 216.11 L 137.08 213.49 L 139.20 210.93 L 141.40 208.45 L 143.67 206.04 L 146.00 203.69 L 148.41 201.42 L 150.88 199.23 L 153.40 197.12 L 155.96 195.11 L 158.54 193.19 L 161.12 191.37 L 163.68 189.64 L 166.22 187.96 L 168.74 186.31 L 171.22 184.65 L 173.69 182.97 L 176.13 181.25 L 178.57 179.51 L 180.99 177.74 L 183.41 175.97 L 185.83 174.19 L 188.26 172.41 L 190.68 170.63 L 193.09 168.85 L 195.51 167.07 L 197.93 165.29 L 200.34 163.50 L 202.76 161.72 L 205.18 159.93 L 207.60 158.15 L 210.01 156.36 L 212.42 154.57 L 214.82 152.76 L 217.19 150.92 L 219.52 149.03 L 221.79 147.08 L 223.98 145.03 L 226.05 142.87 L 227.98 140.57 L 229.76 138.15 L 231.40 135.59 L 232.91 132.91 L 234.34 130.14 L 235.74 127.34 L 237.19 124.57 L 238.74 121.88 L 240.43 119.30 L 242.28 116.88 L 244.31 114.61 L 246.51 112.53 L 248.87 110.63 L 251.38 108.92 L 254.01 107.42 L 256.75 106.11 L 259.58 104.99 L 262.48 104.04 L 265.43 103.24 L 268.42 102.56 L 271.42 101.97 L 274.44 101.43 L 277.47 100.92 L 280.50 100.43 L 283.53 99.95 L 286.56 99.48 L 289.59 99.00 L 292.63 98.52 L 295.66 98.05 L 298.69 97.57 L 301.72 97.09 L 304.76 96.62 L 307.79 96.15 L 310.82 95.67 L 313.85 95.20 L 316.88 94.73 L 319.92 94.26 L 322.95 93.81 L 325.98 93.37 L 329.02 92.99 L 332.05 92.68 L 335.08 92.50 L 338.10 92.49 L 341.11 92.69 L 344.09 93.13 L 347.02 93.79 L 349.91 94.66 L 352.77 95.70 L 355.58 96.87 L 358.38 98.11 L 361.16 99.39 L 363.93 100.70 L 366.70 102.02 L 369.47 103.35 L 372.23 104.67 L 375.00 106.00 L 377.76 107.33 L 380.53 108.66 L 383.29 109.99 L 386.06 111.32 L 388.82 112.64 L 391.59 113.97 L 394.35 115.30 L 397.11 116.62 L 399.88 117.95 L 402.64 119.28 L 405.40 120.61 L 408.17 121.94 L 410.93 123.27 L 413.69 124.59 L 416.46 125.92 L 419.22 127.25 L 421.98 128.57 L 424.74 129.90 L 427.51 131.23 L 430.27 132.56 L 433.03 133.90 L 435.79 135.24 L 438.54 136.59 L 441.28 137.96 L 444.00 139.37 L 446.68 140.84 L 449.32 142.37 L 451.91 143.99 L 454.45 145.69 L 456.92 147.48 L 459.33 149.35 L 461.67 151.32 L 463.93 153.37 L 466.12 155.50 L 468.23 157.71 L 470.25 159.99 L 472.19 162.35 L 474.04 164.78 L 475.79 167.28 L 477.46 169.84 L 479.03 172.46 L 480.50 175.13 L 481.87 177.86 L 483.13 180.64 L 484.30 183.46 L 485.37 186.32 L 486.32 189.22 L 487.17 192.15 L 487.90 195.11 L 488.53 198.10 L 489.05 201.11 L 489.45 204.13 L 489.75 207.17 L 489.93 210.22 L 490.00 213.27 L 489.96 216.33 L 489.80 219.38 L 489.53 222.42 L 489.15 225.45 L 488.66 228.47 L 488.07 231.46 L 487.36 234.44 L 486.56 237.38 L 485.66 240.31 L 484.68 243.20 L 483.63 246.08 L 482.53 248.94 L 481.40 251.78 L 480.25 254.62 L 479.09 257.45 L 477.92 260.29 L 476.76 263.12 L 475.59 265.95 L 474.42 268.78 L 473.25 271.62 L 472.07 274.45 L 470.90 277.28 L 469.72 280.11 L 468.55 282.94 L 467.37 285.77 L 466.20 288.61 L 465.02 291.44 L 463.85 294.28 L 462.68 297.11 L 461.51 299.94 L 460.34 302.77 L 459.17 305.60 L 457.99 308.43 L 456.82 311.26 L 455.64 314.09 L 454.46 316.92 L 453.26 319.74 L 452.04 322.55 L 450.77 325.34 L 449.43 328.09 L 447.98 330.77 L 446.38 333.34 L 444.59 335.76 L 442.60 338.00 L 440.40 340.00 L 438.00 341.77 L 435.42 343.29 L 432.70 344.56 L 429.87 345.63 L 426.98 346.51 L 424.03 347.26 L 421.06 347.91 L 418.07 348.52 L 415.08 349.09 L 412.08 349.65 L 409.08 350.20 L 406.08 350.76 Z" />
</symbol>
<symbol id="bl4">
<path d="M 425.32 353.71 L 424.36 354.47 L 423.41 355.24 L 422.44 356.00 L 421.48 356.77 L 420.52 357.53 L 419.56 358.29 L 418.60 359.06 L 417.64 359.82 L 416.68 360.58 L 415.72 361.35 L 414.76 362.11 L 413.81 362.88 L 412.84 363.64 L 411.88 364.40 L 410.92 365.16 L 409.96 365.92 L 409.00 366.68 L 408.04 367.44 L 407.08 368.20 L 406.12 368.96 L 405.17 369.72 L 404.21 370.48 L 403.25 371.25 L 402.29 372.01 L 401.33 372.78 L 400.36 373.54 L 399.40 374.31 L 398.44 375.07 L 397.48 375.83 L 396.53 376.59 L 395.57 377.36 L 394.61 378.12 L 393.65 378.89 L 392.69 379.65 L 391.73 380.42 L 390.77 381.18 L 389.81 381.95 L 388.85 382.71 L 387.88 383.48 L 386.93 384.24 L 385.97 385.00 L 385.01 385.77 L 384.05 386.53 L 383.09 387.29 L 382.13 388.06 L 381.17 388.81 L 380.21 389.57 L 379.25 390.33 L 378.29 391.09 L 377.33 391.85 L 376.37 392.61 L 375.40 393.37 L 374.43 394.12 L 373.45 394.86 L 372.46 395.59 L 371.46 396.29 L 370.44 396.96 L 369.39 397.60 L 368.33 398.21 L 367.26 398.80 L 366.18 399.38 L 365.09 399.95 L 364.00 400.51 L 362.91 401.07 L 361.82 401.63 L 360.72 402.19 L 359.63 402.75 L 358.54 403.30 L 357.44 403.86 L 356.35 404.42 L 355.25 404.98 L 354.16 405.54 L 353.07 406.10 L 351.98 406.66 L 350.89 407.22 L 349.79 407.78 L 348.70 408.34 L 347.61 408.90 L 346.51 409.45 L 345.41 410.01 L 344.32 410.56 L 343.23 411.12 L 342.13 411.67 L 341.04 412.22 L 339.95 412.78 L 338.86 413.33 L 337.76 413.89 L 336.67 414.44 L 335.57 415.00 L 334.48 415.56 L 333.38 416.12 L 332.29 416.67 L 331.19 417.22 L 330.08 417.75 L 328.97 418.27 L 327.85 418.75 L 326.71 419.19 L 325.56 419.58 L 324.38 419.91 L 323.20 420.19 L 322.00 420.40 L 320.79 420.55 L 319.57 420.63 L 318.36 420.65 L 317.14 420.60 L 315.93 420.48 L 314.73 420.30 L 313.54 420.05 L 312.36 419.73 L 311.20 419.36 L 310.07 418.92 L 308.96 418.41 L 307.88 417.85 L 306.84 417.23 L 305.83 416.55 L 304.85 415.82 L 303.92 415.03 L 303.04 414.20 L 302.20 413.32 L 301.42 412.39 L 300.68 411.42 L 300.00 410.41 L 299.37 409.37 L 298.80 408.30 L 298.30 407.19 L 297.86 406.06 L 297.47 404.90 L 297.15 403.73 L 296.90 402.54 L 296.71 401.34 L 296.59 400.13 L 296.53 398.91 L 296.55 397.69 L 296.63 396.48 L 296.77 395.27 L 296.99 394.07 L 297.26 392.89 L 297.60 391.72 L 297.99 390.56 L 298.43 389.42 L 298.91 388.30 L 299.43 387.19 L 299.97 386.09 L 300.52 385.00 L 301.09 383.92 L 301.66 382.83 L 302.23 381.75 L 302.81 380.66 L 303.38 379.58 L 303.96 378.49 L 304.53 377.41 L 305.11 376.32 L 305.68 375.24 L 306.26 374.15 L 306.83 373.07 L 307.41 371.99 L 307.98 370.92 L 308.55 369.84 L 309.13 368.76 L 309.70 367.68 L 310.27 366.60 L 310.85 365.51 L 311.42 364.43 L 312.00 363.34 L 312.57 362.26 L 313.15 361.17 L 313.72 360.09 L 314.30 359.00 L 314.87 357.92 L 315.45 356.83 L 316.03 355.75 L 316.60 354.66 L 317.18 353.58 L 317.75 352.50 L 318.33 351.43 L 318.90 350.35 L 319.47 349.27 L 320.05 348.19 L 320.62 347.11 L 321.20 346.02 L 321.78 344.94 L 322.35 343.85 L 322.92 342.77 L 323.50 341.68 L 324.07 340.60 L 324.64 339.51 L 325.21 338.42 L 325.77 337.34 L 326.32 336.25 L 326.87 335.15 L 327.41 334.04 L 327.93 332.94 L 328.45 331.82 L 328.95 330.70 L 329.43 329.58 L 329.91 328.44 L 330.37 327.30 L 330.82 326.17 L 331.25 325.02 L 331.67 323.86 L 332.06 322.69 L 332.44 321.50 L 332.79 320.30 L 333.14 319.07 L 333.48 317.82 L 333.82 316.56 L 334.17 315.30 L 334.52 314.06 L 334.89 312.84 L 335.27 311.65 L 335.68 310.48 L 336.14 309.33 L 336.64 308.19 L 337.19 307.08 L 337.79 305.99 L 338.43 304.93 L 339.13 303.89 L 339.86 302.88 L 340.63 301.91 L 341.44 300.95 L 342.29 300.03 L 343.17 299.15 L 344.08 298.29 L 345.02 297.48 L 345.99 296.70 L 346.99 295.95 L 348.02 295.24 L 349.07 294.57 L 350.15 293.93 L 351.24 293.33 L 352.36 292.78 L 353.50 292.27 L 354.66 291.80 L 355.83 291.37 L 357.02 290.99 L 358.22 290.65 L 359.43 290.35 L 360.65 290.10 L 361.88 289.90 L 363.12 289.74 L 364.36 289.62 L 365.61 289.56 L 366.86 289.53 L 368.10 289.56 L 369.35 289.63 L 370.59 289.74 L 371.83 289.91 L 373.06 290.11 L 374.29 290.37 L 375.50 290.66 L 376.71 290.99 L 377.91 291.35 L 379.10 291.73 L 380.29 292.12 L 381.47 292.50 L 382.66 292.88 L 383.85 293.23 L 385.04 293.58 L 386.24 293.90 L 387.44 294.21 L 388.65 294.50 L 389.86 294.77 L 391.07 295.03 L 392.29 295.26 L 393.51 295.47 L 394.73 295.68 L 395.96 295.85 L 397.19 296.02 L 398.42 296.16 L 399.65 296.29 L 400.88 296.39 L 402.12 296.49 L 403.36 296.55 L 404.59 296.60 L 405.83 296.64 L 407.07 296.65 L 408.31 296.65 L 409.55 296.63 L 410.79 296.59 L 412.02 296.52 L 413.26 296.44 L 414.49 296.33 L 415.73 296.20 L 416.96 296.05 L 418.20 295.88 L 419.44 295.71 L 420.69 295.54 L 421.93 295.38 L 423.17 295.26 L 424.41 295.20 L 425.65 295.19 L 426.87 295.24 L 428.08 295.35 L 429.29 295.53 L 430.49 295.76 L 431.67 296.04 L 432.83 296.39 L 433.99 296.80 L 435.11 297.25 L 436.22 297.76 L 437.30 298.33 L 438.35 298.93 L 439.37 299.59 L 440.36 300.30 L 441.31 301.05 L 442.23 301.85 L 443.11 302.69 L 443.95 303.57 L 444.74 304.49 L 445.50 305.45 L 446.21 306.44 L 446.87 307.46 L 447.48 308.51 L 448.03 309.59 L 448.54 310.70 L 448.99 311.83 L 449.39 312.98 L 449.74 314.15 L 450.03 315.33 L 450.27 316.53 L 450.45 317.73 L 450.57 318.95 L 450.64 320.16 L 450.64 321.38 L 450.59 322.59 L 450.48 323.81 L 450.32 325.01 L 450.09 326.20 L 449.81 327.39 L 449.48 328.56 L 449.08 329.71 L 448.64 330.84 L 448.14 331.96 L 447.59 333.05 L 446.99 334.11 L 446.35 335.14 L 445.65 336.14 L 444.91 337.11 L 444.12 338.04 L 443.30 338.94 L 442.44 339.80 L 441.54 340.63 L 440.62 341.43 L 439.69 342.22 L 438.74 343.00 L 437.79 343.77 L 436.84 344.53 L 435.88 345.30 L 434.92 346.06 L 433.96 346.83 L 433.00 347.59 L 432.04 348.35 L 431.08 349.12 L 430.12 349.88 L 429.16 350.65 L 428.19 351.41 L 427.24 352.17 L 426.28 352.94 Z" />
</symbol>
</defs>
<!-- isDone: 0 -->
<rect width="700" height="500" style="fill:#fff;stroke-width:0" />
<use class="p0 borderLine" xlink:href="#bl0"/>
<use class="p1 borderLine" xlink:href="#bl1"/>
<use class="p2 borderLine" xlink:href="#bl2"/>
<use class="p3 borderLine" xlink:href="#bl3"/>
<use class="p4 borderLine" xlink:href="#bl4"/>
<use class="q0 outLine" xlink:href="#bl0"/>
<use class="q1 outLine" xlink:href="#bl1"/>
<use class="q2 outLine" xlink:href="#bl2"/>
<use class="q3 outLine" xlink:href="#bl3"/>
<use class="q4 outLine" xlink:href="#bl4"/>
<circle onclick="fromCircle(16)" class="circle" cx="122.8619" cy="115.2812" r="19.6154" />
<text class="nLabel" x="122.86" y="110.28">3</text>
<text class="belong" x="122.86" y="120.28">(1)</text>
<circle onclick="fromCircle(24)" class="circle" cx="70.4000" cy="202.4082" r="55.4808" />
<text class="nLabel" x="70.40" y="197.41">24</text>
<text class="belong" x="70.40" y="207.41">(1, 2)</text>
<circle onclick="fromCircle(28)" class="circle" cx="151.7843" cy="163.3651" r="22.6499" />
<text class="nLabel" x="151.78" y="158.37">4</text>
<text class="belong" x="151.78" y="168.37">(1, 2, 3)</text>
<circle onclick="fromCircle(30)" class="circle" cx="224.9496" cy="284.9044" r="107.4381" />
<text class="nLabel" x="224.95" y="279.90">90</text>
<text class="belong" x="224.95" y="289.90">(1, 2, 3, 4)</text>
<circle onclick="fromCircle(31)" class="circle" cx="367.0096" cy="323.6735" r="27.7404" />
<text class="nLabel" x="367.01" y="318.67">6</text>
<text class="belong" x="367.01" y="328.67">(1, 2, 3, 4, 5)</text>
<circle onclick="fromCircle(20)" class="circle" cx="198.7455" cy="116.6726" r="32.0318" />
<text class="nLabel" x="198.75" y="111.67">8</text>
<text class="belong" x="198.75" y="121.67">(1, 3)</text>
<circle onclick="fromCircle(22)" class="circle" cx="271.0728" cy="140.5829" r="32.0318" />
<text class="nLabel" x="271.07" y="135.58">8</text>
<text class="belong" x="271.07" y="145.58">(1, 3, 4)</text>
<circle onclick="fromCircle(18)" class="circle" cx="338.3021" cy="122.9738" r="25.3234" />
<text class="nLabel" x="338.30" y="117.97">5</text>
<text class="belong" x="338.30" y="127.97">(1, 4)</text>
<circle onclick="fromCircle(26)" class="circle" cx="407.7018" cy="213.6193" r="76.8097" />
<text class="nLabel" x="407.70" y="208.62">46</text>
<text class="belong" x="407.70" y="218.62">(1, 2, 4)</text>
<circle onclick="fromCircle(27)" class="circle" cx="425.2142" cy="321.1325" r="19.6154" />
<text class="nLabel" x="425.21" y="316.13">3</text>
<text class="belong" x="425.21" y="326.13">(1, 2, 4, 5)</text>
<circle onclick="fromCircle(17)" class="circle" cx="318.8290" cy="398.8641" r="16.0159" />
<text class="nLabel" x="318.83" y="393.86">2</text>
<text class="belong" x="318.83" y="403.86">(1, 5)</text>
<circle onclick="fromCircle(25)" class="circle" cx="358.7906" cy="378.5098" r="16.0159" />
<text class="nLabel" x="358.79" y="373.51">2</text>
<text class="belong" x="358.79" y="383.51">(1, 2, 5)</text>
<g id="legendBox">
<rect class="p0 borderLine" x="500.00" y="50.00" width="30.00" height="15.00" />
<rect class="q0" x="500.00" y="50.00" width="30.00" height="15.00" />
<text class="legend" x="540.00" y="65.00">All build-dependent</text>
<rect class="p1 borderLine" x="500.00" y="90.00" width="30.00" height="15.00" />
<rect class="q1" x="500.00" y="90.00" width="30.00" height="15.00" />
<text class="legend" x="540.00" y="105.00">Overlaps known issue</text>
<rect class="p2 borderLine" x="500.00" y="130.00" width="30.00" height="15.00" />
<rect class="q2" x="500.00" y="130.00" width="30.00" height="15.00" />
<text class="legend" x="540.00" y="145.00">Update to gene model</text>
<rect class="p3 borderLine" x="500.00" y="170.00" width="30.00" height="15.00" />
<rect class="q3" x="500.00" y="170.00" width="30.00" height="15.00" />
<text class="legend" x="540.00" y="185.00">Change in assembly</text>
<rect class="p4 borderLine" x="500.00" y="210.00" width="30.00" height="15.00" />
<rect class="q4" x="500.00" y="210.00" width="30.00" height="15.00" />
<text class="legend" x="540.00" y="225.00">Multimapping rates</text>
</g>
</svg>
