<svg xmlns="http://www.w3.org/2000/svg" xmlns:xlink="http://www.w3.org/1999/xlink" width="700" height="500">
<defs>
<style type="text/css"><![CDATA[
  .borderLine {
	   stroke: none;
	   fill-opacity:  0.2 ;
  }
  .outLine {
	   stroke-width:  2 ;
	   fill: none;
  }
  .circle {
	   stroke: #888888;
	   stroke-width: 0.5;
	   fill: none;
    pointer-events: all;
  }
  .nLabel {
	   font-family: Arial;
    pointer-events: none;
	   font-size: 20px;
	   text-anchor: middle;
	   alignment-baseline: central;
  }
  .belong { 
 display: none;
	   font-family: Arial;
    pointer-events: none;
	   font-size: 10px;
	   text-anchor: middle;
	   alignment-baseline: central;
  }
  .legend {
    font-family: Arial;
    font-size: 15px;
  }
  #legendBox {
    display:  inline ;
  }
  .p0{
    stroke: none;
    fill:  #f3f3f3 ;
  }
  .q0{
    fill: none;
    stroke:  #f3f3f3 ;
  }
  .p1{
    stroke: none;
    fill:  #f4acca ;
  }
  .q1{
    fill: none;
    stroke:  #f4acca ;
  }
  .p2{
    stroke: none;
    fill:  #ffff58 ;
  }
  .q2{
    fill: none;
    stroke:  #ffff58 ;
  }
  .p3{
    stroke: none;
    fill:  #8cdab8 ;
  }
  .q3{
    fill: none;
    stroke:  #8cdab8 ;
  }
  .p4{
    stroke: none;
    fill:  #2cb3da ;
  }
  .q4{
    fill: none;
    stroke:  #2cb3da ;
  }
]]>
</style>
<symbol id="bl0">
<path d="M 469.78 328.71 L 467.57 331.87 L 465.35 335.04 L 463.14 338.20 L 460.92 341.36 L 458.69 344.52 L 456.47 347.68 L 454.24 350.84 L 452.01 353.99 L 449.76 357.13 L 447.48 360.24 L 445.16 363.32 L 442.76 366.33 L 440.27 369.24 L 437.64 372.02 L 434.86 374.62 L 431.91 377.02 L 428.80 379.19 L 425.55 381.15 L 422.17 382.93 L 418.70 384.54 L 415.16 386.03 L 411.59 387.45 L 407.99 388.83 L 404.38 390.17 L 400.77 391.51 L 397.15 392.84 L 393.53 394.17 L 389.90 395.51 L 386.28 396.84 L 382.66 398.17 L 379.02 399.49 L 375.38 400.80 L 371.72 402.08 L 368.04 403.34 L 364.31 404.53 L 360.54 405.66 L 356.72 406.69 L 352.86 407.62 L 348.99 408.44 L 345.11 409.17 L 341.23 409.81 L 337.36 410.39 L 333.50 410.93 L 329.65 411.44 L 325.80 411.94 L 321.95 412.43 L 318.10 412.92 L 314.25 413.41 L 310.40 413.90 L 306.55 414.39 L 302.71 414.87 L 298.86 415.36 L 295.01 415.85 L 291.16 416.34 L 287.31 416.82 L 283.47 417.31 L 279.62 417.79 L 275.77 418.27 L 271.92 418.75 L 268.08 419.23 L 264.23 419.72 L 260.39 420.20 L 256.54 420.69 L 252.70 421.17 L 248.85 421.66 L 245.01 422.15 L 241.16 422.63 L 237.32 423.11 L 233.47 423.59 L 229.63 424.07 L 225.78 424.55 L 221.94 425.04 L 218.10 425.52 L 214.26 426.01 L 210.42 426.50 L 206.58 426.98 L 202.73 427.46 L 198.89 427.94 L 195.05 428.41 L 191.21 428.90 L 187.37 429.38 L 183.52 429.86 L 179.68 430.35 L 175.84 430.82 L 172.00 431.30 L 168.16 431.78 L 164.32 432.25 L 160.48 432.72 L 156.64 433.17 L 152.80 433.59 L 148.96 433.97 L 145.11 434.28 L 141.26 434.50 L 137.41 434.60 L 133.56 434.58 L 129.72 434.41 L 125.89 434.09 L 122.07 433.62 L 118.28 433.00 L 114.51 432.22 L 110.78 431.28 L 107.10 430.20 L 103.45 428.97 L 99.87 427.59 L 96.33 426.07 L 92.87 424.40 L 89.48 422.60 L 86.16 420.66 L 82.92 418.58 L 79.77 416.38 L 76.71 414.04 L 73.75 411.59 L 70.89 409.02 L 68.14 406.33 L 65.50 403.53 L 62.98 400.63 L 60.58 397.63 L 58.30 394.53 L 56.14 391.35 L 54.12 388.08 L 52.22 384.73 L 50.45 381.31 L 48.81 377.83 L 47.27 374.29 L 45.82 370.70 L 44.46 367.09 L 43.16 363.45 L 41.89 359.80 L 40.66 356.14 L 39.44 352.46 L 38.23 348.79 L 37.02 345.11 L 35.82 341.44 L 34.62 337.76 L 33.42 334.08 L 32.22 330.41 L 31.02 326.74 L 29.82 323.06 L 28.62 319.38 L 27.42 315.71 L 26.22 312.03 L 25.02 308.35 L 23.82 304.68 L 22.62 301.00 L 21.42 297.32 L 20.23 293.65 L 19.03 289.97 L 17.84 286.29 L 16.66 282.61 L 15.49 278.92 L 14.37 275.23 L 13.30 271.52 L 12.32 267.79 L 11.49 264.05 L 10.85 260.28 L 10.45 256.50 L 10.31 252.70 L 10.43 248.90 L 10.80 245.12 L 11.38 241.34 L 12.12 237.59 L 12.97 233.86 L 13.90 230.13 L 14.86 226.42 L 15.86 222.71 L 16.86 219.00 L 17.87 215.30 L 18.88 211.59 L 19.89 207.89 L 20.90 204.19 L 21.92 200.48 L 22.93 196.78 L 23.96 193.08 L 25.01 189.39 L 26.10 185.70 L 27.25 182.04 L 28.49 178.42 L 29.85 174.86 L 31.39 171.39 L 33.14 168.03 L 35.12 164.82 L 37.33 161.77 L 39.77 158.89 L 42.42 156.18 L 45.23 153.61 L 48.17 151.16 L 51.19 148.78 L 54.26 146.47 L 57.36 144.19 L 60.48 141.92 L 63.61 139.67 L 66.74 137.42 L 69.87 135.17 L 73.00 132.93 L 76.13 130.68 L 79.27 128.44 L 82.40 126.19 L 85.53 123.95 L 88.67 121.70 L 91.80 119.46 L 94.93 117.21 L 98.07 114.97 L 101.20 112.72 L 104.34 110.48 L 107.47 108.23 L 110.61 105.98 L 113.74 103.74 L 116.88 101.50 L 120.01 99.25 L 123.15 97.01 L 126.29 94.77 L 129.43 92.53 L 132.58 90.31 L 135.74 88.10 L 138.92 85.92 L 142.12 83.78 L 145.36 81.69 L 148.64 79.69 L 151.97 77.78 L 155.37 75.97 L 158.82 74.29 L 162.33 72.75 L 165.89 71.34 L 169.52 70.07 L 173.18 68.95 L 176.89 67.98 L 180.64 67.16 L 184.41 66.49 L 188.21 65.96 L 192.03 65.58 L 195.87 65.34 L 199.71 65.23 L 203.55 65.23 L 207.40 65.32 L 211.24 65.49 L 215.09 65.71 L 218.93 65.97 L 222.77 66.26 L 226.61 66.56 L 230.45 66.86 L 234.29 67.17 L 238.13 67.48 L 241.97 67.79 L 245.81 68.10 L 249.65 68.41 L 253.50 68.72 L 257.34 69.03 L 261.18 69.34 L 265.02 69.66 L 268.87 69.97 L 272.71 70.28 L 276.55 70.59 L 280.40 70.91 L 284.24 71.22 L 288.08 71.53 L 291.92 71.85 L 295.76 72.16 L 299.61 72.48 L 303.45 72.79 L 307.29 73.10 L 311.14 73.42 L 314.98 73.73 L 318.82 74.04 L 322.66 74.36 L 326.51 74.68 L 330.35 74.99 L 334.19 75.31 L 338.04 75.62 L 341.88 75.94 L 345.72 76.25 L 349.56 76.57 L 353.41 76.88 L 357.25 77.20 L 361.09 77.52 L 364.94 77.85 L 368.78 78.19 L 372.62 78.55 L 376.45 78.95 L 380.27 79.41 L 384.09 79.94 L 387.88 80.57 L 391.65 81.32 L 395.38 82.22 L 399.07 83.26 L 402.71 84.47 L 406.28 85.85 L 409.79 87.38 L 413.22 89.08 L 416.57 90.95 L 419.82 92.97 L 422.97 95.14 L 426.02 97.45 L 428.96 99.91 L 431.77 102.51 L 434.46 105.23 L 437.02 108.09 L 439.43 111.05 L 441.71 114.13 L 443.84 117.32 L 445.81 120.60 L 447.64 123.97 L 449.31 127.42 L 450.84 130.94 L 452.24 134.52 L 453.52 138.14 L 454.69 141.81 L 455.80 145.50 L 456.85 149.21 L 457.86 152.93 L 458.84 156.65 L 459.82 160.38 L 460.79 164.12 L 461.75 167.85 L 462.71 171.59 L 463.67 175.32 L 464.64 179.06 L 465.59 182.79 L 466.55 186.53 L 467.51 190.27 L 468.47 194.00 L 469.43 197.74 L 470.39 201.48 L 471.36 205.22 L 472.32 208.95 L 473.28 212.69 L 474.24 216.43 L 475.21 220.16 L 476.17 223.90 L 477.13 227.64 L 478.10 231.38 L 479.06 235.12 L 480.02 238.85 L 480.98 242.59 L 481.93 246.33 L 482.88 250.07 L 483.84 253.82 L 484.78 257.56 L 485.71 261.30 L 486.60 265.06 L 487.43 268.82 L 488.17 272.60 L 488.77 276.39 L 489.19 280.20 L 489.37 284.00 L 489.27 287.80 L 488.87 291.57 L 488.16 295.28 L 487.13 298.93 L 485.81 302.49 L 484.24 305.97 L 482.46 309.37 L 480.52 312.69 L 478.48 315.95 L 476.35 319.17 L 474.19 322.37 L 471.99 325.54 Z" />
</symbol>
<symbol id="bl1">
<path d="M 348.47 389.05 L 346.18 391.30 L 343.93 393.61 L 341.69 395.92 L 339.39 398.13 L 337.00 400.16 L 334.47 401.93 L 331.77 403.42 L 328.92 404.62 L 325.94 405.58 L 322.86 406.36 L 319.73 407.02 L 316.57 407.61 L 313.40 408.15 L 310.22 408.67 L 307.04 409.18 L 303.85 409.69 L 300.67 410.19 L 297.49 410.70 L 294.31 411.21 L 291.13 411.71 L 287.94 412.22 L 284.76 412.73 L 281.58 413.23 L 278.40 413.74 L 275.22 414.25 L 272.04 414.76 L 268.86 415.26 L 265.68 415.77 L 262.49 416.27 L 259.31 416.77 L 256.13 417.27 L 252.95 417.77 L 249.76 418.28 L 246.58 418.78 L 243.40 419.29 L 240.22 419.80 L 237.03 420.31 L 233.85 420.81 L 230.67 421.32 L 227.49 421.82 L 224.31 422.32 L 221.13 422.83 L 217.95 423.33 L 214.77 423.83 L 211.59 424.34 L 208.41 424.85 L 205.23 425.36 L 202.05 425.86 L 198.87 426.36 L 195.69 426.86 L 192.51 427.36 L 189.33 427.87 L 186.16 428.37 L 182.98 428.87 L 179.80 429.38 L 176.62 429.89 L 173.44 430.39 L 170.27 430.89 L 167.09 431.38 L 163.92 431.88 L 160.74 432.37 L 157.56 432.85 L 154.38 433.30 L 151.19 433.72 L 148.00 434.10 L 144.81 434.41 L 141.61 434.64 L 138.40 434.77 L 135.20 434.81 L 132.00 434.74 L 128.80 434.57 L 125.61 434.29 L 122.43 433.90 L 119.27 433.41 L 116.12 432.80 L 113.00 432.09 L 109.90 431.27 L 106.83 430.36 L 103.79 429.34 L 100.79 428.21 L 97.83 426.99 L 94.92 425.66 L 92.05 424.24 L 89.23 422.72 L 86.46 421.11 L 83.75 419.40 L 81.10 417.61 L 78.51 415.72 L 75.98 413.75 L 73.52 411.69 L 71.14 409.55 L 68.83 407.34 L 66.59 405.04 L 64.43 402.67 L 62.35 400.23 L 60.36 397.72 L 58.46 395.15 L 56.64 392.51 L 54.90 389.81 L 53.26 387.05 L 51.72 384.25 L 50.26 381.39 L 48.89 378.49 L 47.61 375.55 L 46.40 372.58 L 45.25 369.58 L 44.16 366.55 L 43.10 363.52 L 42.06 360.47 L 41.04 357.42 L 40.03 354.36 L 39.02 351.31 L 38.01 348.25 L 37.01 345.20 L 36.00 342.14 L 35.00 339.09 L 33.99 336.03 L 32.99 332.97 L 31.98 329.92 L 30.98 326.86 L 29.97 323.81 L 28.97 320.75 L 27.96 317.69 L 26.96 314.64 L 25.96 311.58 L 24.95 308.52 L 23.95 305.47 L 22.95 302.41 L 21.94 299.35 L 20.94 296.30 L 19.94 293.24 L 18.94 290.18 L 17.93 287.13 L 16.94 284.07 L 15.94 281.01 L 14.95 277.95 L 13.98 274.89 L 13.05 271.82 L 12.18 268.73 L 11.40 265.63 L 10.75 262.51 L 10.28 259.37 L 10.02 256.22 L 10.00 253.06 L 10.25 249.93 L 10.77 246.84 L 11.58 243.81 L 12.67 240.88 L 14.04 238.07 L 15.67 235.41 L 17.55 232.92 L 19.66 230.62 L 21.99 228.54 L 24.50 226.69 L 27.18 225.10 L 30.01 223.78 L 32.95 222.74 L 35.99 221.99 L 39.09 221.53 L 42.24 221.36 L 45.41 221.47 L 48.60 221.82 L 51.80 222.36 L 54.99 223.05 L 58.17 223.82 L 61.35 224.63 L 64.52 225.43 L 67.69 226.22 L 70.85 226.99 L 74.01 227.75 L 77.16 228.50 L 80.32 229.24 L 83.48 229.99 L 86.64 230.73 L 89.80 231.47 L 92.96 232.22 L 96.11 232.96 L 99.27 233.70 L 102.43 234.45 L 105.59 235.19 L 108.75 235.93 L 111.91 236.68 L 115.07 237.42 L 118.23 238.17 L 121.39 238.91 L 124.55 239.65 L 127.72 240.39 L 130.88 241.14 L 134.04 241.88 L 137.20 242.63 L 140.36 243.38 L 143.52 244.13 L 146.68 244.89 L 149.84 245.67 L 153.01 246.48 L 156.18 247.31 L 159.37 248.18 L 162.56 249.08 L 165.77 250.00 L 168.99 250.92 L 172.22 251.81 L 175.45 252.64 L 178.69 253.38 L 181.93 254.03 L 185.19 254.56 L 188.45 254.99 L 191.72 255.29 L 195.00 255.48 L 198.29 255.56 L 201.57 255.52 L 204.86 255.37 L 208.13 255.10 L 211.40 254.72 L 214.65 254.23 L 217.88 253.63 L 221.09 252.91 L 224.27 252.09 L 227.43 251.17 L 230.55 250.14 L 233.64 249.02 L 236.71 247.82 L 239.75 246.54 L 242.76 245.20 L 245.76 243.82 L 248.74 242.41 L 251.71 240.98 L 254.68 239.54 L 257.65 238.10 L 260.63 236.66 L 263.61 235.25 L 266.60 233.86 L 269.61 232.52 L 272.65 231.24 L 275.72 230.04 L 278.82 228.94 L 281.95 227.95 L 285.12 227.08 L 288.32 226.34 L 291.54 225.73 L 294.79 225.26 L 298.05 224.92 L 301.33 224.72 L 304.61 224.66 L 307.89 224.73 L 311.16 224.94 L 314.42 225.30 L 317.66 225.80 L 320.87 226.44 L 324.04 227.22 L 327.17 228.14 L 330.25 229.19 L 333.27 230.35 L 336.24 231.62 L 339.16 232.98 L 342.04 234.41 L 344.88 235.92 L 347.71 237.48 L 350.52 239.10 L 353.32 240.75 L 356.11 242.43 L 358.91 244.12 L 361.70 245.82 L 364.49 247.52 L 367.28 249.23 L 370.06 250.93 L 372.85 252.64 L 375.64 254.35 L 378.42 256.06 L 381.21 257.77 L 384.00 259.48 L 386.78 261.19 L 389.56 262.91 L 392.32 264.66 L 395.06 266.44 L 397.75 268.30 L 400.36 270.25 L 402.84 272.34 L 405.14 274.60 L 407.20 277.05 L 408.99 279.70 L 410.51 282.53 L 411.80 285.51 L 412.93 288.59 L 413.98 291.73 L 415.05 294.88 L 416.21 297.99 L 417.53 301.04 L 419.04 303.99 L 420.77 306.83 L 422.73 309.55 L 424.89 312.14 L 427.23 314.63 L 429.68 317.05 L 432.16 319.43 L 434.58 321.82 L 436.87 324.26 L 438.97 326.78 L 440.84 329.41 L 442.46 332.16 L 443.81 335.01 L 444.90 337.96 L 445.71 341.00 L 446.25 344.09 L 446.52 347.22 L 446.51 350.36 L 446.22 353.48 L 445.65 356.57 L 444.82 359.59 L 443.73 362.53 L 442.37 365.36 L 440.78 368.06 L 438.95 370.61 L 436.90 372.99 L 434.66 375.18 L 432.22 377.16 L 429.63 378.92 L 426.89 380.45 L 424.02 381.73 L 421.05 382.75 L 418.00 383.51 L 414.89 384.00 L 411.75 384.24 L 408.60 384.23 L 405.44 383.99 L 402.29 383.54 L 399.16 382.93 L 396.05 382.19 L 392.94 381.37 L 389.84 380.50 L 386.73 379.64 L 383.59 378.85 L 380.41 378.17 L 377.18 377.70 L 373.91 377.48 L 370.64 377.59 L 367.41 378.05 L 364.28 378.86 L 361.30 380.00 L 358.47 381.42 L 355.80 383.07 L 353.26 384.91 L 350.82 386.91 Z" />
</symbol>
<symbol id="bl2">
<path d="M 357.42 368.45 L 355.42 371.91 L 353.45 375.37 L 351.49 378.83 L 349.52 382.27 L 347.50 385.66 L 345.39 388.99 L 343.11 392.19 L 340.61 395.21 L 337.82 397.98 L 334.73 400.44 L 331.36 402.55 L 327.77 404.30 L 324.02 405.73 L 320.16 406.87 L 316.26 407.81 L 312.32 408.60 L 308.38 409.30 L 304.43 409.96 L 300.48 410.60 L 296.53 411.23 L 292.58 411.85 L 288.63 412.47 L 284.68 413.10 L 280.73 413.72 L 276.78 414.34 L 272.84 414.96 L 268.89 415.58 L 264.94 416.20 L 260.99 416.82 L 257.04 417.43 L 253.10 418.05 L 249.15 418.67 L 245.20 419.29 L 241.26 419.91 L 237.31 420.53 L 233.36 421.15 L 229.41 421.77 L 225.47 422.38 L 221.52 423.00 L 217.58 423.61 L 213.63 424.23 L 209.69 424.85 L 205.74 425.47 L 201.80 426.09 L 197.85 426.70 L 193.91 427.32 L 189.96 427.93 L 186.01 428.55 L 182.07 429.17 L 178.13 429.79 L 174.18 430.40 L 170.24 431.01 L 166.29 431.61 L 162.35 432.19 L 158.40 432.75 L 154.44 433.27 L 150.49 433.73 L 146.52 434.11 L 142.55 434.39 L 138.58 434.54 L 134.61 434.55 L 130.64 434.41 L 126.68 434.12 L 122.74 433.67 L 118.82 433.05 L 114.93 432.26 L 111.08 431.32 L 107.27 430.21 L 103.51 428.94 L 99.81 427.52 L 96.17 425.94 L 92.60 424.21 L 89.10 422.33 L 85.69 420.31 L 82.36 418.15 L 79.13 415.84 L 76.00 413.41 L 72.97 410.84 L 70.05 408.15 L 67.25 405.33 L 64.57 402.41 L 62.01 399.37 L 59.58 396.23 L 57.29 392.99 L 55.14 389.66 L 53.12 386.23 L 51.25 382.73 L 49.54 379.14 L 47.97 375.50 L 46.55 371.79 L 45.30 368.02 L 44.20 364.21 L 43.26 360.34 L 42.49 356.45 L 41.88 352.52 L 41.44 348.58 L 41.16 344.61 L 41.05 340.64 L 41.10 336.67 L 41.33 332.71 L 41.71 328.75 L 42.27 324.82 L 42.98 320.91 L 43.87 317.04 L 44.91 313.21 L 46.11 309.42 L 47.48 305.70 L 49.00 302.03 L 50.67 298.44 L 52.49 294.92 L 54.45 291.50 L 56.54 288.17 L 58.73 284.94 L 60.99 281.80 L 63.28 278.73 L 65.55 275.68 L 67.75 272.62 L 69.85 269.50 L 71.82 266.30 L 73.68 263.01 L 75.43 259.65 L 77.11 256.23 L 78.75 252.78 L 80.36 249.30 L 81.95 245.82 L 83.55 242.33 L 85.14 238.84 L 86.72 235.34 L 88.31 231.85 L 89.90 228.36 L 91.49 224.87 L 93.07 221.37 L 94.65 217.88 L 96.21 214.38 L 97.74 210.87 L 99.22 207.35 L 100.60 203.80 L 101.83 200.22 L 102.87 196.60 L 103.68 192.94 L 104.24 189.23 L 104.54 185.49 L 104.63 181.72 L 104.55 177.95 L 104.38 174.17 L 104.18 170.39 L 104.02 166.62 L 103.93 162.85 L 103.95 159.08 L 104.09 155.32 L 104.38 151.57 L 104.80 147.84 L 105.38 144.13 L 106.10 140.44 L 106.96 136.79 L 107.97 133.17 L 109.12 129.59 L 110.40 126.07 L 111.83 122.60 L 113.39 119.18 L 115.09 115.84 L 116.92 112.56 L 118.87 109.35 L 120.95 106.22 L 123.15 103.18 L 125.47 100.23 L 127.90 97.37 L 130.44 94.61 L 133.09 91.96 L 135.85 89.41 L 138.70 86.97 L 141.65 84.64 L 144.68 82.43 L 147.80 80.35 L 151.00 78.38 L 154.28 76.55 L 157.62 74.84 L 161.03 73.27 L 164.50 71.84 L 168.02 70.54 L 171.60 69.39 L 175.21 68.37 L 178.86 67.50 L 182.54 66.77 L 186.25 66.18 L 189.98 65.74 L 193.72 65.43 L 197.48 65.25 L 201.24 65.19 L 205.00 65.24 L 208.76 65.36 L 212.53 65.56 L 216.29 65.80 L 220.05 66.07 L 223.81 66.36 L 227.57 66.65 L 231.32 66.96 L 235.08 67.26 L 238.84 67.56 L 242.60 67.87 L 246.35 68.17 L 250.11 68.48 L 253.86 68.78 L 257.62 69.08 L 261.38 69.39 L 265.14 69.70 L 268.90 70.00 L 272.66 70.31 L 276.43 70.61 L 280.19 70.92 L 283.94 71.23 L 287.70 71.53 L 291.46 71.84 L 295.23 72.15 L 298.99 72.46 L 302.75 72.77 L 306.51 73.07 L 310.28 73.38 L 314.04 73.69 L 317.80 73.99 L 321.56 74.30 L 325.32 74.61 L 329.09 74.93 L 332.85 75.23 L 336.61 75.54 L 340.37 75.85 L 344.14 76.16 L 347.90 76.47 L 351.67 76.78 L 355.43 77.09 L 359.19 77.40 L 362.95 77.72 L 366.71 78.04 L 370.47 78.37 L 374.23 78.73 L 377.98 79.13 L 381.72 79.58 L 385.45 80.13 L 389.15 80.78 L 392.83 81.55 L 396.47 82.47 L 400.06 83.54 L 403.61 84.76 L 407.09 86.14 L 410.51 87.68 L 413.85 89.38 L 417.11 91.23 L 420.28 93.22 L 423.35 95.37 L 426.32 97.65 L 429.18 100.07 L 431.93 102.62 L 434.55 105.29 L 437.05 108.08 L 439.42 110.98 L 441.65 113.99 L 443.74 117.11 L 445.68 120.31 L 447.47 123.60 L 449.11 126.97 L 450.59 130.41 L 451.91 133.92 L 453.07 137.49 L 454.06 141.10 L 454.90 144.76 L 455.59 148.45 L 456.14 152.17 L 456.58 155.91 L 456.91 159.66 L 457.16 163.42 L 457.36 167.18 L 457.52 170.95 L 457.66 174.72 L 457.79 178.49 L 457.91 182.26 L 458.04 186.04 L 458.16 189.81 L 458.28 193.58 L 458.40 197.36 L 458.52 201.14 L 458.62 204.91 L 458.69 208.69 L 458.71 212.47 L 458.64 216.24 L 458.41 219.99 L 457.96 223.68 L 457.18 227.28 L 456.02 230.71 L 454.41 233.94 L 452.35 236.93 L 449.90 239.71 L 447.13 242.29 L 444.15 244.74 L 441.04 247.12 L 437.90 249.47 L 434.78 251.87 L 431.73 254.35 L 428.82 256.96 L 426.07 259.72 L 423.54 262.68 L 421.26 265.81 L 419.22 269.12 L 417.40 272.58 L 415.77 276.16 L 414.23 279.82 L 412.70 283.52 L 411.07 287.21 L 409.27 290.86 L 407.28 294.43 L 405.09 297.90 L 402.73 301.28 L 400.26 304.56 L 397.70 307.77 L 395.10 310.94 L 392.49 314.09 L 389.90 317.25 L 387.37 320.45 L 384.91 323.70 L 382.56 327.02 L 380.30 330.41 L 378.14 333.85 L 376.04 337.33 L 373.98 340.82 L 371.93 344.30 L 369.87 347.77 L 367.79 351.22 L 365.70 354.65 L 363.60 358.09 L 361.52 361.54 L 359.45 364.99 Z" />
</symbol>
<symbol id="bl3">
<path d="M 440.29 370.07 L 438.40 372.15 L 436.42 374.12 L 434.33 375.96 L 432.13 377.66 L 429.82 379.21 L 427.41 380.60 L 424.91 381.83 L 422.34 382.91 L 419.70 383.86 L 417.02 384.70 L 414.32 385.45 L 411.59 386.14 L 408.85 386.79 L 406.10 387.42 L 403.35 388.03 L 400.60 388.64 L 397.84 389.25 L 395.09 389.85 L 392.34 390.46 L 389.58 391.06 L 386.83 391.64 L 384.07 392.20 L 381.31 392.71 L 378.55 393.13 L 375.79 393.40 L 373.02 393.47 L 370.25 393.27 L 367.48 392.80 L 364.73 392.07 L 362.00 391.12 L 359.29 390.04 L 356.60 388.90 L 353.93 387.76 L 351.27 386.65 L 348.62 385.60 L 345.96 384.62 L 343.29 383.69 L 340.63 382.83 L 337.95 382.06 L 335.27 381.41 L 332.56 380.93 L 329.84 380.64 L 327.10 380.56 L 324.36 380.65 L 321.61 380.88 L 318.86 381.18 L 316.12 381.49 L 313.38 381.78 L 310.64 382.01 L 307.91 382.16 L 305.17 382.23 L 302.44 382.20 L 299.71 382.08 L 296.99 381.87 L 294.28 381.56 L 291.58 381.16 L 288.89 380.66 L 286.23 380.08 L 283.58 379.41 L 280.97 378.64 L 278.38 377.78 L 275.82 376.83 L 273.29 375.79 L 270.81 374.67 L 268.36 373.46 L 265.95 372.17 L 263.60 370.79 L 261.29 369.34 L 259.03 367.80 L 256.83 366.19 L 254.69 364.50 L 252.60 362.74 L 250.58 360.91 L 248.62 359.01 L 246.73 357.04 L 244.91 355.01 L 243.16 352.91 L 241.49 350.76 L 239.89 348.55 L 238.37 346.28 L 236.93 343.97 L 235.58 341.60 L 234.32 339.18 L 233.16 336.73 L 232.09 334.25 L 231.14 331.75 L 230.27 329.22 L 229.50 326.66 L 228.81 324.05 L 228.17 321.38 L 227.59 318.64 L 227.07 315.83 L 226.61 312.96 L 226.24 310.05 L 225.98 307.12 L 225.84 304.20 L 225.82 301.29 L 225.92 298.39 L 226.13 295.51 L 226.46 292.64 L 226.90 289.80 L 227.45 286.97 L 228.10 284.16 L 228.85 281.38 L 229.70 278.63 L 230.65 275.91 L 231.70 273.23 L 232.85 270.59 L 234.09 267.99 L 235.43 265.45 L 236.86 262.95 L 238.37 260.50 L 239.97 258.10 L 241.66 255.77 L 243.41 253.48 L 245.23 251.24 L 247.10 249.04 L 249.01 246.87 L 250.95 244.73 L 252.91 242.60 L 254.87 240.48 L 256.84 238.36 L 258.82 236.25 L 260.79 234.13 L 262.76 232.01 L 264.71 229.88 L 266.66 227.74 L 268.57 225.58 L 270.46 223.39 L 272.30 221.17 L 274.09 218.90 L 275.82 216.59 L 277.48 214.23 L 279.07 211.83 L 280.59 209.38 L 282.04 206.89 L 283.41 204.35 L 284.71 201.78 L 285.92 199.16 L 287.06 196.52 L 288.12 193.83 L 289.09 191.12 L 289.98 188.38 L 290.79 185.61 L 291.52 182.82 L 292.16 180.01 L 292.70 177.17 L 293.17 174.31 L 293.55 171.43 L 293.85 168.52 L 294.09 165.59 L 294.29 162.65 L 294.47 159.71 L 294.67 156.78 L 294.90 153.89 L 295.19 151.03 L 295.56 148.20 L 296.03 145.41 L 296.59 142.65 L 297.24 139.92 L 298.00 137.21 L 298.84 134.54 L 299.78 131.89 L 300.82 129.28 L 301.94 126.71 L 303.15 124.18 L 304.45 121.70 L 305.83 119.26 L 307.30 116.87 L 308.85 114.53 L 310.48 112.24 L 312.18 110.02 L 313.97 107.85 L 315.82 105.75 L 317.75 103.72 L 319.75 101.75 L 321.82 99.85 L 323.95 98.03 L 326.14 96.28 L 328.39 94.60 L 330.69 93.00 L 333.05 91.49 L 335.46 90.06 L 337.93 88.71 L 340.43 87.45 L 342.98 86.28 L 345.56 85.19 L 348.19 84.20 L 350.84 83.29 L 353.52 82.48 L 356.23 81.76 L 358.97 81.14 L 361.72 80.61 L 364.49 80.18 L 367.27 79.84 L 370.06 79.60 L 372.86 79.45 L 375.66 79.41 L 378.46 79.46 L 381.26 79.60 L 384.05 79.84 L 386.84 80.18 L 389.61 80.62 L 392.36 81.15 L 395.09 81.77 L 397.80 82.49 L 400.48 83.30 L 403.14 84.20 L 405.75 85.20 L 408.34 86.28 L 410.88 87.46 L 413.39 88.72 L 415.84 90.06 L 418.25 91.49 L 420.61 93.01 L 422.92 94.60 L 425.16 96.27 L 427.35 98.02 L 429.48 99.85 L 431.55 101.74 L 433.55 103.71 L 435.48 105.75 L 437.34 107.84 L 439.12 110.01 L 440.83 112.23 L 442.46 114.51 L 444.01 116.85 L 445.48 119.23 L 446.86 121.67 L 448.16 124.15 L 449.38 126.68 L 450.50 129.25 L 451.54 131.85 L 452.49 134.49 L 453.34 137.16 L 454.10 139.86 L 454.76 142.58 L 455.34 145.33 L 455.81 148.09 L 456.20 150.87 L 456.48 153.66 L 456.67 156.46 L 456.76 159.26 L 456.75 162.07 L 456.65 164.87 L 456.45 167.67 L 456.16 170.46 L 455.77 173.23 L 455.28 175.99 L 454.70 178.74 L 454.02 181.46 L 453.25 184.15 L 452.38 186.82 L 451.42 189.45 L 450.38 192.05 L 449.24 194.61 L 448.02 197.13 L 446.71 199.61 L 445.32 202.05 L 443.85 204.44 L 442.32 206.79 L 440.73 209.12 L 439.11 211.44 L 437.50 213.77 L 435.97 216.14 L 434.58 218.57 L 433.42 221.07 L 432.59 223.65 L 432.15 226.26 L 432.17 228.87 L 432.66 231.41 L 433.61 233.81 L 434.99 236.01 L 436.75 237.97 L 438.81 239.67 L 441.10 241.14 L 443.56 242.40 L 446.13 243.52 L 448.76 244.53 L 451.42 245.48 L 454.10 246.39 L 456.77 247.31 L 459.43 248.24 L 462.07 249.22 L 464.68 250.26 L 467.23 251.42 L 469.71 252.69 L 472.11 254.11 L 474.40 255.67 L 476.58 257.39 L 478.62 259.26 L 480.53 261.27 L 482.29 263.42 L 483.88 265.68 L 485.30 268.06 L 486.55 270.54 L 487.61 273.10 L 488.48 275.73 L 489.16 278.42 L 489.64 281.15 L 489.92 283.90 L 490.00 286.68 L 489.88 289.44 L 489.55 292.20 L 489.04 294.92 L 488.33 297.61 L 487.44 300.24 L 486.39 302.82 L 485.19 305.34 L 483.86 307.81 L 482.44 310.23 L 480.94 312.61 L 479.40 314.96 L 477.82 317.29 L 476.22 319.61 L 474.62 321.92 L 473.01 324.23 L 471.40 326.54 L 469.78 328.85 L 468.17 331.16 L 466.56 333.47 L 464.94 335.78 L 463.33 338.09 L 461.72 340.40 L 460.10 342.71 L 458.48 345.02 L 456.86 347.32 L 455.25 349.63 L 453.64 351.95 L 452.02 354.26 L 450.40 356.56 L 448.78 358.87 L 447.14 361.16 L 445.49 363.44 L 443.81 365.70 L 442.08 367.92 Z" />
</symbol>
<symbol id="bl4">
<path d="M 398.19 307.79 L 397.21 308.88 L 396.23 309.97 L 395.26 311.07 L 394.28 312.16 L 393.31 313.25 L 392.33 314.34 L 391.36 315.43 L 390.38 316.52 L 389.41 317.61 L 388.43 318.70 L 387.46 319.79 L 386.49 320.89 L 385.53 321.99 L 384.58 323.10 L 383.65 324.23 L 382.75 325.39 L 381.87 326.56 L 381.03 327.78 L 380.23 329.03 L 379.48 330.32 L 378.76 331.65 L 378.10 333.02 L 377.48 334.41 L 376.90 335.82 L 376.39 337.23 L 375.93 338.65 L 375.54 340.07 L 375.20 341.50 L 374.94 342.93 L 374.73 344.36 L 374.58 345.80 L 374.49 347.25 L 374.46 348.69 L 374.49 350.14 L 374.58 351.58 L 374.72 353.02 L 374.92 354.45 L 375.16 355.88 L 375.46 357.30 L 375.80 358.71 L 376.16 360.11 L 376.55 361.51 L 376.93 362.90 L 377.30 364.29 L 377.63 365.69 L 377.93 367.10 L 378.19 368.52 L 378.42 369.94 L 378.62 371.37 L 378.81 372.79 L 378.99 374.23 L 379.16 375.66 L 379.32 377.09 L 379.47 378.52 L 379.59 379.95 L 379.68 381.38 L 379.70 382.81 L 379.64 384.23 L 379.48 385.63 L 379.19 387.00 L 378.76 388.32 L 378.18 389.59 L 377.47 390.79 L 376.63 391.92 L 375.70 393.00 L 374.69 394.03 L 373.64 395.03 L 372.56 396.01 L 371.46 396.98 L 370.36 397.94 L 369.25 398.89 L 368.14 399.85 L 367.02 400.81 L 365.91 401.76 L 364.79 402.70 L 363.67 403.64 L 362.54 404.56 L 361.38 405.44 L 360.21 406.28 L 358.99 407.04 L 357.73 407.70 L 356.43 408.24 L 355.08 408.65 L 353.69 408.92 L 352.28 409.06 L 350.84 409.09 L 349.40 409.04 L 347.95 408.94 L 346.50 408.79 L 345.05 408.62 L 343.60 408.44 L 342.15 408.25 L 340.70 408.06 L 339.25 407.87 L 337.79 407.68 L 336.34 407.49 L 334.89 407.29 L 333.44 407.09 L 332.00 406.88 L 330.55 406.65 L 329.11 406.39 L 327.69 406.09 L 326.28 405.74 L 324.91 405.30 L 323.57 404.77 L 322.30 404.12 L 321.09 403.37 L 319.98 402.50 L 318.96 401.52 L 318.05 400.43 L 317.27 399.26 L 316.61 398.01 L 316.10 396.69 L 315.73 395.34 L 315.51 393.94 L 315.45 392.53 L 315.53 391.12 L 315.77 389.74 L 316.16 388.38 L 316.70 387.08 L 317.37 385.84 L 318.19 384.69 L 319.12 383.63 L 320.17 382.68 L 321.33 381.84 L 322.58 381.11 L 323.89 380.47 L 325.26 379.91 L 326.68 379.39 L 328.11 378.90 L 329.56 378.41 L 331.02 377.91 L 332.48 377.38 L 333.93 376.83 L 335.37 376.24 L 336.80 375.62 L 338.21 374.97 L 339.61 374.29 L 341.00 373.59 L 342.38 372.86 L 343.74 372.10 L 345.08 371.31 L 346.41 370.50 L 347.73 369.67 L 349.02 368.81 L 350.30 367.92 L 351.57 367.00 L 352.81 366.06 L 354.04 365.09 L 355.24 364.10 L 356.43 363.09 L 357.60 362.05 L 358.74 361.00 L 359.86 359.92 L 360.97 358.82 L 362.05 357.70 L 363.11 356.55 L 364.14 355.38 L 365.16 354.20 L 366.15 352.99 L 367.11 351.77 L 368.05 350.53 L 368.97 349.27 L 369.86 347.99 L 370.73 346.69 L 371.57 345.37 L 372.38 344.04 L 373.16 342.68 L 373.92 341.29 L 374.66 339.89 L 375.37 338.45 L 376.05 336.99 L 376.72 335.51 L 377.37 334.01 L 377.99 332.51 L 378.58 331.02 L 379.13 329.53 L 379.65 328.05 L 380.14 326.57 L 380.59 325.08 L 381.01 323.60 L 381.39 322.10 L 381.74 320.60 L 382.07 319.09 L 382.36 317.58 L 382.62 316.06 L 382.85 314.54 L 383.06 313.01 L 383.23 311.48 L 383.38 309.94 L 383.49 308.40 L 383.57 306.87 L 383.63 305.33 L 383.65 303.79 L 383.64 302.25 L 383.61 300.71 L 383.54 299.17 L 383.43 297.64 L 383.30 296.11 L 383.14 294.59 L 382.95 293.08 L 382.76 291.58 L 382.57 290.09 L 382.41 288.61 L 382.31 287.14 L 382.28 285.67 L 382.35 284.21 L 382.55 282.77 L 382.86 281.34 L 383.28 279.93 L 383.81 278.56 L 384.43 277.21 L 385.12 275.89 L 385.85 274.59 L 386.62 273.32 L 387.41 272.04 L 388.21 270.78 L 389.02 269.52 L 389.83 268.26 L 390.64 267.01 L 391.45 265.75 L 392.26 264.49 L 393.08 263.24 L 393.89 261.98 L 394.70 260.72 L 395.51 259.47 L 396.33 258.21 L 397.14 256.96 L 397.95 255.70 L 398.76 254.44 L 399.57 253.19 L 400.38 251.93 L 401.19 250.67 L 402.00 249.42 L 402.81 248.16 L 403.62 246.90 L 404.43 245.65 L 405.25 244.39 L 406.06 243.14 L 406.88 241.88 L 407.71 240.64 L 408.55 239.40 L 409.42 238.19 L 410.32 237.00 L 411.26 235.85 L 412.26 234.76 L 413.32 233.72 L 414.44 232.75 L 415.62 231.83 L 416.83 230.95 L 418.06 230.10 L 419.31 229.27 L 420.55 228.43 L 421.79 227.58 L 423.02 226.72 L 424.23 225.83 L 425.43 224.93 L 426.61 224.00 L 427.78 223.04 L 428.93 222.07 L 430.07 221.07 L 431.21 220.07 L 432.36 219.06 L 433.52 218.06 L 434.72 217.10 L 435.94 216.22 L 437.22 215.42 L 438.54 214.74 L 439.91 214.18 L 441.32 213.77 L 442.76 213.50 L 444.21 213.37 L 445.67 213.40 L 447.12 213.57 L 448.55 213.89 L 449.93 214.35 L 451.27 214.95 L 452.53 215.68 L 453.71 216.53 L 454.81 217.50 L 455.80 218.57 L 456.68 219.74 L 457.43 220.99 L 458.06 222.31 L 458.55 223.69 L 458.90 225.11 L 459.10 226.55 L 459.16 228.01 L 459.07 229.47 L 458.83 230.92 L 458.45 232.33 L 457.93 233.69 L 457.28 235.00 L 456.50 236.24 L 455.61 237.41 L 454.61 238.50 L 453.53 239.51 L 452.37 240.46 L 451.17 241.35 L 449.93 242.21 L 448.66 243.03 L 447.39 243.83 L 446.10 244.62 L 444.81 245.41 L 443.53 246.19 L 442.23 246.97 L 440.94 247.75 L 439.64 248.54 L 438.35 249.32 L 437.06 250.11 L 435.77 250.90 L 434.49 251.70 L 433.21 252.52 L 431.94 253.36 L 430.69 254.23 L 429.46 255.13 L 428.27 256.05 L 427.12 257.00 L 426.01 257.98 L 424.95 259.00 L 423.93 260.05 L 422.96 261.13 L 422.02 262.26 L 421.13 263.41 L 420.29 264.60 L 419.49 265.81 L 418.74 267.06 L 418.04 268.34 L 417.39 269.64 L 416.78 270.96 L 416.22 272.31 L 415.71 273.67 L 415.26 275.06 L 414.85 276.45 L 414.48 277.86 L 414.14 279.28 L 413.83 280.71 L 413.54 282.14 L 413.26 283.58 L 412.97 285.01 L 412.65 286.43 L 412.30 287.84 L 411.90 289.23 L 411.42 290.60 L 410.86 291.92 L 410.22 293.20 L 409.48 294.44 L 408.67 295.64 L 407.80 296.80 L 406.89 297.93 L 405.95 299.04 L 404.99 300.15 L 404.02 301.24 L 403.05 302.34 L 402.08 303.43 L 401.11 304.52 L 400.13 305.61 L 399.16 306.70 Z" />
</symbol>
</defs>
<!-- isDone: 0 -->
<rect width="700" height="500" style="fill:#fff;stroke-width:0" />
<use class="p0 borderLine" xlink:href="#bl0"/>
<use class="p1 borderLine" xlink:href="#bl1"/>
<use class="p2 borderLine" xlink:href="#bl2"/>
<use class="p3 borderLine" xlink:href="#bl3"/>
<use class="p4 borderLine" xlink:href="#bl4"/>
<use class="q0 outLine" xlink:href="#bl0"/>
<use class="q1 outLine" xlink:href="#bl1"/>
<use class="q2 outLine" xlink:href="#bl2"/>
<use class="q3 outLine" xlink:href="#bl3"/>
<use class="q4 outLine" xlink:href="#bl4"/>
<circle onclick="fromCircle(16)" class="circle" cx="65.5581" cy="185.1279" r="34.1609" />
<text class="nLabel" x="65.56" y="180.13">134</text>
<text class="belong" x="65.56" y="190.13">(1)</text>
<circle onclick="fromCircle(24)" class="circle" cx="40.9731" cy="253.3523" r="28.3055" />
<text class="nLabel" x="40.97" y="248.35">92</text>
<text class="belong" x="40.97" y="258.35">(1, 2)</text>
<circle onclick="fromCircle(28)" class="circle" cx="134.7301" cy="340.1641" r="90.1882" />
<text class="nLabel" x="134.73" y="335.16">934</text>
<text class="belong" x="134.73" y="345.16">(1, 2, 3)</text>
<circle onclick="fromCircle(30)" class="circle" cx="304.5272" cy="303.3839" r="74.0707" />
<text class="nLabel" x="304.53" y="298.38">630</text>
<text class="belong" x="304.53" y="308.38">(1, 2, 3, 4)</text>
<circle onclick="fromCircle(31)" class="circle" cx="397.4501" cy="285.6715" r="10.2227" />
<text class="nLabel" x="397.45" y="280.67">12</text>
<text class="belong" x="397.45" y="290.67">(1, 2, 3, 4, 5)</text>
<circle onclick="fromCircle(20)" class="circle" cx="198.5208" cy="159.8900" r="90.6697" />
<text class="nLabel" x="198.52" y="154.89">944</text>
<text class="belong" x="198.52" y="164.89">(1, 3)</text>
<circle onclick="fromCircle(22)" class="circle" cx="375.9206" cy="160.0849" r="76.3860" />
<text class="nLabel" x="375.92" y="155.08">670</text>
<text class="belong" x="375.92" y="165.08">(1, 3, 4)</text>
<circle onclick="fromCircle(23)" class="circle" cx="422.4885" cy="243.4557" r="8.3468" />
<text class="nLabel" x="422.49" y="238.46">8</text>
<text class="belong" x="422.49" y="248.46">(1, 3, 4, 5)</text>
<circle onclick="fromCircle(21)" class="circle" cx="445.1243" cy="227.7109" r="9.7875" />
<text class="nLabel" x="445.12" y="222.71">11</text>
<text class="belong" x="445.12" y="232.71">(1, 3, 5)</text>
<circle onclick="fromCircle(18)" class="circle" cx="452.6046" cy="286.3652" r="33.5175" />
<text class="nLabel" x="452.60" y="281.37">129</text>
<text class="belong" x="452.60" y="291.37">(1, 4)</text>
<circle onclick="fromCircle(26)" class="circle" cx="411.3679" cy="348.8184" r="31.5086" />
<text class="nLabel" x="411.37" y="343.82">114</text>
<text class="belong" x="411.37" y="353.82">(1, 2, 4)</text>
<circle onclick="fromCircle(27)" class="circle" cx="367.8601" cy="367.8500" r="5.1114" />
<text class="nLabel" x="367.86" y="362.85">3</text>
<text class="belong" x="367.86" y="372.85">(1, 2, 4, 5)</text>
<circle onclick="fromCircle(19)" class="circle" cx="369.9590" cy="385.1362" r="5.1114" />
<text class="nLabel" x="369.96" y="380.14">3</text>
<text class="belong" x="369.96" y="390.14">(1, 4, 5)</text>
<circle onclick="fromCircle(17)" class="circle" cx="352.9132" cy="398.6822" r="5.9021" />
<text class="nLabel" x="352.91" y="393.68">4</text>
<text class="belong" x="352.91" y="403.68">(1, 5)</text>
<circle onclick="fromCircle(29)" class="circle" cx="328.5729" cy="392.8702" r="8.3468" />
<text class="nLabel" x="328.57" y="387.87">8</text>
<text class="belong" x="328.57" y="397.87">(1, 2, 3, 5)</text>
<g id="legendBox">
<rect class="p0 borderLine" x="500.00" y="50.00" width="30.00" height="15.00" />
<rect class="q0" x="500.00" y="50.00" width="30.00" height="15.00" />
<text class="legend" x="540.00" y="65.00">All build-dependent</text>
<rect class="p1 borderLine" x="500.00" y="90.00" width="30.00" height="15.00" />
<rect class="q1" x="500.00" y="90.00" width="30.00" height="15.00" />
<text class="legend" x="540.00" y="105.00">Overlaps known issue</text>
<rect class="p2 borderLine" x="500.00" y="130.00" width="30.00" height="15.00" />
<rect class="q2" x="500.00" y="130.00" width="30.00" height="15.00" />
<text class="legend" x="540.00" y="145.00">Update to gene model</text>
<rect class="p3 borderLine" x="500.00" y="170.00" width="30.00" height="15.00" />
<rect class="q3" x="500.00" y="170.00" width="30.00" height="15.00" />
<text class="legend" x="540.00" y="185.00">Change in assembly</text>
<rect class="p4 borderLine" x="500.00" y="210.00" width="30.00" height="15.00" />
<rect class="q4" x="500.00" y="210.00" width="30.00" height="15.00" />
<text class="legend" x="540.00" y="225.00">Multimapping rates</text>
</g>
</svg>
