<svg xmlns="http://www.w3.org/2000/svg" xmlns:xlink="http://www.w3.org/1999/xlink" width="700" height="500">
<defs>
<style type="text/css"><![CDATA[
  .borderLine {
	   stroke: none;
	   fill-opacity:  0.2 ;
  }
  .outLine {
	   stroke-width:  2 ;
	   fill: none;
  }
  .circle {
	   stroke: #888888;
	   stroke-width: 0.5;
	   fill: none;
    pointer-events: all;
  }
  .nLabel {
	   font-family: Arial;
    pointer-events: none;
	   font-size: 20px;
	   text-anchor: middle;
	   alignment-baseline: central;
  }
  .belong { 
 display: none;
	   font-family: Arial;
    pointer-events: none;
	   font-size: 10px;
	   text-anchor: middle;
	   alignment-baseline: central;
  }
  .legend {
    font-family: Arial;
    font-size: 15px;
  }
  #legendBox {
    display:  inline ;
  }
  .p0{
    stroke: none;
    fill:  grey ;
  }
  .q0{
    fill: none;
    stroke:  grey ;
  }
  .p1{
    stroke: none;
    fill:  darkorchid ;
  }
  .q1{
    fill: none;
    stroke:  darkorchid ;
  }
  .p2{
    stroke: none;
    fill:  goldenrod ;
  }
  .q2{
    fill: none;
    stroke:  goldenrod ;
  }
  .p3{
    stroke: none;
    fill:  red ;
  }
  .q3{
    fill: none;
    stroke:  red ;
  }
  .p4{
    stroke: none;
    fill:  deepskyblue ;
  }
  .q4{
    fill: none;
    stroke:  deepskyblue ;
  }
]]>
</style>
<symbol id="bl0">
<path d="M 350.88 423.81 L 348.45 426.72 L 345.96 429.60 L 343.40 432.44 L 340.78 435.23 L 338.09 437.98 L 335.34 440.68 L 332.52 443.33 L 329.63 445.91 L 326.67 448.44 L 323.65 450.90 L 320.56 453.30 L 317.43 455.64 L 314.24 457.91 L 310.99 460.12 L 307.70 462.25 L 304.37 464.32 L 300.99 466.30 L 297.58 468.21 L 294.13 470.04 L 290.64 471.80 L 287.13 473.48 L 283.58 475.08 L 280.01 476.60 L 276.40 478.04 L 272.77 479.40 L 269.10 480.69 L 265.40 481.89 L 261.68 483.00 L 257.92 484.03 L 254.13 484.98 L 250.31 485.85 L 246.47 486.64 L 242.62 487.35 L 238.74 487.98 L 234.86 488.53 L 230.98 488.99 L 227.11 489.36 L 223.24 489.65 L 219.38 489.86 L 215.54 489.97 L 211.71 490.00 L 207.89 489.95 L 204.09 489.82 L 200.30 489.61 L 196.53 489.32 L 192.76 488.96 L 189.01 488.52 L 185.26 488.00 L 181.51 487.39 L 177.77 486.70 L 174.04 485.92 L 170.33 485.07 L 166.63 484.14 L 162.96 483.13 L 159.31 482.04 L 155.68 480.87 L 152.08 479.64 L 148.49 478.33 L 144.92 476.96 L 141.38 475.51 L 137.85 473.98 L 134.35 472.37 L 130.88 470.68 L 127.46 468.90 L 124.08 467.05 L 120.74 465.13 L 117.45 463.13 L 114.21 461.07 L 111.03 458.92 L 107.90 456.71 L 104.83 454.43 L 101.82 452.08 L 98.87 449.67 L 95.98 447.22 L 93.15 444.73 L 90.38 442.20 L 87.67 439.63 L 85.02 437.00 L 82.42 434.33 L 79.87 431.59 L 77.38 428.80 L 74.95 425.94 L 72.56 423.01 L 70.22 420.02 L 67.92 416.96 L 65.68 413.83 L 63.48 410.63 L 61.34 407.36 L 59.26 404.03 L 57.25 400.64 L 55.32 397.20 L 53.46 393.71 L 51.69 390.19 L 50.01 386.63 L 48.40 383.05 L 46.87 379.43 L 45.42 375.78 L 44.04 372.10 L 42.73 368.38 L 41.50 364.61 L 40.34 360.81 L 39.26 356.96 L 38.27 353.08 L 37.37 349.18 L 36.56 345.26 L 35.84 341.32 L 35.21 337.38 L 34.68 333.44 L 34.24 329.51 L 33.88 325.58 L 33.61 321.67 L 33.41 317.75 L 33.30 313.85 L 33.27 309.95 L 33.33 306.07 L 33.47 302.19 L 33.71 298.32 L 34.03 294.47 L 34.44 290.64 L 34.94 286.84 L 35.52 283.06 L 36.18 279.30 L 36.92 275.56 L 37.73 271.85 L 38.61 268.15 L 39.58 264.46 L 40.62 260.79 L 41.74 257.12 L 42.94 253.47 L 44.21 249.85 L 45.56 246.25 L 46.98 242.70 L 48.48 239.18 L 50.06 235.70 L 51.71 232.26 L 53.45 228.85 L 55.27 225.47 L 57.18 222.11 L 59.18 218.77 L 61.25 215.45 L 63.40 212.17 L 65.62 208.94 L 67.89 205.76 L 70.23 202.63 L 72.62 199.57 L 75.06 196.58 L 77.57 193.64 L 80.14 190.76 L 82.78 187.93 L 85.49 185.15 L 88.28 182.41 L 91.14 179.72 L 94.06 177.08 L 97.06 174.51 L 100.10 172.01 L 103.19 169.59 L 106.31 167.25 L 109.46 164.98 L 112.63 162.77 L 115.80 160.62 L 118.97 158.50 L 122.13 156.40 L 125.28 154.31 L 128.42 152.23 L 131.56 150.15 L 134.69 148.06 L 137.83 145.97 L 140.99 143.88 L 144.15 141.77 L 147.33 139.67 L 150.51 137.55 L 153.69 135.44 L 156.87 133.33 L 160.06 131.24 L 163.24 129.16 L 166.41 127.10 L 169.58 125.05 L 172.73 123.02 L 175.88 120.99 L 179.01 118.95 L 182.15 116.89 L 185.30 114.83 L 188.45 112.75 L 191.61 110.66 L 194.79 108.57 L 197.96 106.48 L 201.15 104.42 L 204.36 102.42 L 207.58 100.50 L 210.86 98.73 L 214.19 97.15 L 217.61 95.80 L 221.12 94.72 L 224.74 93.90 L 228.47 93.30 L 232.31 92.88 L 236.28 92.60 L 240.34 92.41 L 244.46 92.28 L 248.60 92.19 L 252.69 92.13 L 256.72 92.09 L 260.66 92.06 L 264.52 92.02 L 268.31 91.94 L 272.05 91.78 L 275.74 91.52 L 279.40 91.15 L 283.04 90.67 L 286.67 90.12 L 290.33 89.59 L 294.06 89.13 L 297.91 88.83 L 301.91 88.73 L 306.11 88.85 L 310.48 89.15 L 315.01 89.59 L 319.61 90.07 L 324.22 90.49 L 328.71 90.73 L 333.02 90.68 L 337.06 90.26 L 340.80 89.42 L 344.20 88.14 L 347.29 86.40 L 350.09 84.24 L 352.63 81.67 L 354.97 78.73 L 357.17 75.45 L 359.32 71.89 L 361.49 68.13 L 363.74 64.29 L 366.13 60.52 L 368.70 56.98 L 371.45 53.87 L 374.38 51.32 L 377.44 49.48 L 380.56 48.41 L 383.65 48.14 L 386.63 48.68 L 389.40 49.98 L 391.88 51.98 L 394.05 54.63 L 395.88 57.86 L 397.39 61.58 L 398.61 65.70 L 399.55 70.12 L 400.23 74.74 L 400.62 79.43 L 400.68 84.11 L 400.36 88.66 L 399.62 93.00 L 398.43 97.05 L 396.79 100.74 L 394.72 104.04 L 392.26 106.92 L 389.48 109.43 L 386.45 111.61 L 383.26 113.57 L 380.02 115.43 L 376.81 117.28 L 373.71 119.26 L 370.82 121.43 L 368.20 123.86 L 365.90 126.55 L 363.99 129.51 L 362.50 132.70 L 361.46 136.06 L 360.87 139.53 L 360.74 143.06 L 361.02 146.59 L 361.65 150.09 L 362.54 153.56 L 363.58 157.01 L 364.63 160.45 L 365.56 163.91 L 366.27 167.42 L 366.72 170.98 L 366.89 174.60 L 366.85 178.27 L 366.68 181.99 L 366.52 185.76 L 366.45 189.56 L 366.56 193.37 L 366.89 197.20 L 367.44 201.02 L 368.16 204.83 L 369.04 208.61 L 370.00 212.38 L 371.04 216.10 L 372.11 219.79 L 373.20 223.44 L 374.30 227.06 L 375.41 230.67 L 376.52 234.26 L 377.62 237.85 L 378.70 241.46 L 379.75 245.08 L 380.77 248.72 L 381.75 252.38 L 382.70 256.05 L 383.61 259.73 L 384.47 263.43 L 385.30 267.13 L 386.08 270.85 L 386.82 274.59 L 387.50 278.36 L 388.13 282.14 L 388.70 285.95 L 389.19 289.76 L 389.62 293.59 L 389.96 297.42 L 390.23 301.25 L 390.42 305.09 L 390.52 308.94 L 390.54 312.79 L 390.48 316.65 L 390.34 320.51 L 390.11 324.37 L 389.80 328.24 L 389.40 332.10 L 388.92 335.96 L 388.34 339.82 L 387.67 343.67 L 386.92 347.51 L 386.09 351.35 L 385.18 355.16 L 384.18 358.96 L 383.10 362.74 L 381.94 366.47 L 380.69 370.18 L 379.37 373.84 L 377.97 377.47 L 376.50 381.06 L 374.95 384.60 L 373.32 388.12 L 371.62 391.60 L 369.84 395.05 L 367.99 398.45 L 366.08 401.82 L 364.10 405.14 L 362.05 408.40 L 359.94 411.61 L 357.77 414.75 L 355.54 417.83 L 353.24 420.85 Z" />
</symbol>
<symbol id="bl1">
<path d="M 286.58 148.43 L 285.15 147.85 L 283.75 147.27 L 282.38 146.70 L 281.03 146.15 L 279.68 145.61 L 278.34 145.08 L 276.98 144.58 L 275.60 144.09 L 274.21 143.62 L 272.81 143.16 L 271.39 142.69 L 269.95 142.23 L 268.48 141.75 L 267.00 141.27 L 265.48 140.78 L 263.95 140.28 L 262.40 139.80 L 260.84 139.33 L 259.27 138.88 L 257.71 138.45 L 256.15 138.04 L 254.60 137.65 L 253.08 137.28 L 251.60 136.92 L 250.14 136.57 L 248.70 136.24 L 247.28 135.91 L 245.86 135.59 L 244.44 135.27 L 243.00 134.97 L 241.53 134.69 L 240.03 134.44 L 238.48 134.20 L 236.87 133.98 L 235.20 133.78 L 233.49 133.59 L 231.77 133.42 L 230.03 133.28 L 228.31 133.14 L 226.60 133.01 L 224.91 132.86 L 223.24 132.67 L 221.61 132.43 L 220.01 132.10 L 218.47 131.69 L 216.98 131.18 L 215.55 130.55 L 214.18 129.82 L 212.88 128.97 L 211.63 128.02 L 210.47 126.98 L 209.40 125.85 L 208.42 124.66 L 207.55 123.41 L 206.78 122.12 L 206.12 120.79 L 205.57 119.43 L 205.11 118.03 L 204.73 116.60 L 204.43 115.14 L 204.19 113.65 L 204.00 112.12 L 203.83 110.56 L 203.68 108.96 L 203.54 107.35 L 203.39 105.72 L 203.24 104.09 L 203.08 102.48 L 202.93 100.88 L 202.77 99.30 L 202.63 97.73 L 202.49 96.16 L 202.36 94.60 L 202.25 93.03 L 202.15 91.46 L 202.06 89.90 L 201.98 88.34 L 201.89 86.79 L 201.79 85.25 L 201.69 83.72 L 201.59 82.20 L 201.50 80.68 L 201.43 79.16 L 201.39 77.65 L 201.39 76.15 L 201.44 74.65 L 201.56 73.16 L 201.76 71.69 L 202.04 70.25 L 202.42 68.82 L 202.90 67.43 L 203.47 66.08 L 204.14 64.76 L 204.88 63.47 L 205.69 62.22 L 206.55 60.99 L 207.45 59.77 L 208.37 58.57 L 209.31 57.36 L 210.27 56.16 L 211.26 54.95 L 212.30 53.73 L 213.37 52.51 L 214.47 51.29 L 215.60 50.08 L 216.73 48.87 L 217.86 47.68 L 218.98 46.50 L 220.10 45.32 L 221.21 44.15 L 222.32 42.98 L 223.44 41.82 L 224.56 40.65 L 225.70 39.48 L 226.84 38.30 L 227.98 37.12 L 229.11 35.94 L 230.24 34.78 L 231.38 33.63 L 232.52 32.50 L 233.67 31.39 L 234.81 30.31 L 235.96 29.26 L 237.10 28.22 L 238.26 27.19 L 239.43 26.14 L 240.63 25.08 L 241.86 24.01 L 243.10 22.95 L 244.35 21.91 L 245.61 20.90 L 246.89 19.93 L 248.18 19.00 L 249.50 18.12 L 250.86 17.27 L 252.24 16.45 L 253.65 15.66 L 255.09 14.90 L 256.55 14.18 L 258.00 13.51 L 259.46 12.90 L 260.91 12.35 L 262.36 11.86 L 263.83 11.44 L 265.34 11.08 L 266.87 10.77 L 268.42 10.52 L 269.97 10.33 L 271.51 10.19 L 273.04 10.11 L 274.55 10.05 L 276.04 10.03 L 277.52 10.01 L 279.00 10.00 L 280.47 10.00 L 281.93 10.00 L 283.38 10.00 L 284.84 10.00 L 286.30 10.00 L 287.77 10.01 L 289.25 10.02 L 290.75 10.06 L 292.26 10.11 L 293.79 10.19 L 295.35 10.28 L 296.93 10.39 L 298.54 10.50 L 300.17 10.62 L 301.83 10.74 L 303.49 10.87 L 305.15 10.99 L 306.79 11.11 L 308.42 11.24 L 310.03 11.39 L 311.62 11.54 L 313.20 11.72 L 314.77 11.92 L 316.35 12.12 L 317.92 12.33 L 319.49 12.53 L 321.05 12.71 L 322.59 12.87 L 324.12 13.02 L 325.63 13.15 L 327.12 13.27 L 328.61 13.39 L 330.10 13.51 L 331.57 13.63 L 333.04 13.77 L 334.49 13.91 L 335.93 14.08 L 337.34 14.27 L 338.74 14.50 L 340.12 14.78 L 341.49 15.13 L 342.86 15.55 L 344.21 16.06 L 345.56 16.68 L 346.88 17.42 L 348.16 18.30 L 349.39 19.30 L 350.53 20.44 L 351.56 21.70 L 352.47 23.07 L 353.25 24.54 L 353.89 26.07 L 354.40 27.65 L 354.79 29.24 L 355.09 30.84 L 355.31 32.43 L 355.49 34.01 L 355.64 35.57 L 355.78 37.12 L 355.91 38.65 L 356.03 40.17 L 356.15 41.67 L 356.28 43.17 L 356.40 44.66 L 356.53 46.14 L 356.67 47.60 L 356.80 49.05 L 356.93 50.48 L 357.06 51.91 L 357.19 53.34 L 357.32 54.77 L 357.46 56.21 L 357.61 57.67 L 357.76 59.15 L 357.90 60.65 L 358.04 62.16 L 358.15 63.68 L 358.24 65.20 L 358.29 66.71 L 358.29 68.20 L 358.23 69.68 L 358.11 71.15 L 357.90 72.60 L 357.62 74.05 L 357.26 75.49 L 356.84 76.93 L 356.37 78.36 L 355.87 79.79 L 355.38 81.21 L 354.92 82.64 L 354.51 84.08 L 354.16 85.55 L 353.89 87.06 L 353.70 88.62 L 353.57 90.23 L 353.51 91.89 L 353.51 93.59 L 353.59 95.30 L 353.72 97.01 L 353.91 98.69 L 354.13 100.32 L 354.37 101.89 L 354.61 103.42 L 354.82 104.90 L 354.98 106.36 L 355.07 107.80 L 355.09 109.23 L 355.03 110.67 L 354.90 112.13 L 354.71 113.60 L 354.46 115.08 L 354.16 116.58 L 353.81 118.10 L 353.42 119.65 L 353.00 121.21 L 352.54 122.79 L 352.07 124.37 L 351.59 125.94 L 351.11 127.49 L 350.65 129.00 L 350.21 130.50 L 349.79 131.97 L 349.39 133.43 L 348.99 134.90 L 348.60 136.39 L 348.21 137.89 L 347.83 139.42 L 347.43 140.95 L 347.02 142.49 L 346.59 144.03 L 346.14 145.54 L 345.64 147.02 L 345.10 148.48 L 344.50 149.90 L 343.83 151.27 L 343.09 152.58 L 342.27 153.82 L 341.38 154.99 L 340.42 156.09 L 339.39 157.12 L 338.31 158.08 L 337.17 158.96 L 335.97 159.76 L 334.73 160.47 L 333.44 161.07 L 332.10 161.55 L 330.74 161.92 L 329.34 162.16 L 327.93 162.28 L 326.51 162.28 L 325.07 162.17 L 323.62 161.96 L 322.17 161.66 L 320.70 161.28 L 319.23 160.84 L 317.76 160.35 L 316.29 159.84 L 314.83 159.29 L 313.37 158.73 L 311.92 158.15 L 310.47 157.55 L 309.04 156.95 L 307.63 156.34 L 306.24 155.73 L 304.87 155.15 L 303.51 154.59 L 302.17 154.06 L 300.82 153.55 L 299.46 153.07 L 298.08 152.59 L 296.69 152.12 L 295.29 151.64 L 293.87 151.14 L 292.43 150.64 L 290.98 150.12 L 289.51 149.57 L 288.04 149.01 Z" />
</symbol>
<symbol id="bl2">
<path d="M 426.92 146.05 L 425.16 146.83 L 423.38 147.61 L 421.61 148.41 L 419.84 149.24 L 418.09 150.11 L 416.36 151.05 L 414.67 152.06 L 413.03 153.15 L 411.44 154.33 L 409.89 155.58 L 408.36 156.88 L 406.83 158.22 L 405.30 159.55 L 403.73 160.86 L 402.11 162.10 L 400.44 163.24 L 398.70 164.28 L 396.90 165.19 L 395.04 165.98 L 393.13 166.63 L 391.20 167.14 L 389.24 167.51 L 387.27 167.74 L 385.30 167.82 L 383.34 167.77 L 381.39 167.57 L 379.47 167.23 L 377.57 166.76 L 375.70 166.15 L 373.87 165.40 L 372.09 164.51 L 370.36 163.48 L 368.70 162.31 L 367.10 161.03 L 365.56 159.65 L 364.07 158.19 L 362.60 156.68 L 361.16 155.13 L 359.72 153.56 L 358.29 151.98 L 356.85 150.38 L 355.41 148.78 L 353.97 147.18 L 352.54 145.58 L 351.13 143.97 L 349.74 142.36 L 348.36 140.76 L 346.99 139.15 L 345.59 137.57 L 344.17 136.00 L 342.71 134.48 L 341.18 133.02 L 339.59 131.66 L 337.93 130.43 L 336.18 129.35 L 334.36 128.44 L 332.46 127.73 L 330.51 127.22 L 328.51 126.91 L 326.47 126.81 L 324.42 126.91 L 322.37 127.19 L 320.32 127.64 L 318.29 128.23 L 316.29 128.91 L 314.31 129.65 L 312.34 130.39 L 310.39 131.10 L 308.45 131.74 L 306.49 132.29 L 304.53 132.72 L 302.56 133.04 L 300.58 133.24 L 298.59 133.31 L 296.59 133.29 L 294.59 133.17 L 292.58 132.98 L 290.57 132.73 L 288.56 132.43 L 286.55 132.09 L 284.54 131.70 L 282.52 131.29 L 280.49 130.84 L 278.45 130.35 L 276.40 129.82 L 274.36 129.27 L 272.32 128.68 L 270.30 128.07 L 268.28 127.43 L 266.28 126.76 L 264.30 126.08 L 262.32 125.36 L 260.36 124.61 L 258.41 123.80 L 256.51 122.92 L 254.67 121.93 L 252.92 120.83 L 251.30 119.59 L 249.82 118.20 L 248.51 116.69 L 247.36 115.05 L 246.36 113.32 L 245.48 111.53 L 244.68 109.70 L 243.91 107.88 L 243.11 106.09 L 242.24 104.37 L 241.27 102.72 L 240.19 101.17 L 238.98 99.72 L 237.64 98.40 L 236.18 97.20 L 234.60 96.14 L 232.89 95.22 L 231.06 94.44 L 229.12 93.79 L 227.08 93.27 L 224.97 92.83 L 222.82 92.46 L 220.66 92.08 L 218.52 91.66 L 216.41 91.13 L 214.37 90.47 L 212.42 89.64 L 210.60 88.65 L 208.93 87.49 L 207.42 86.17 L 206.10 84.71 L 204.96 83.13 L 204.01 81.43 L 203.26 79.65 L 202.71 77.80 L 202.36 75.90 L 202.22 73.98 L 202.28 72.06 L 202.54 70.18 L 202.99 68.33 L 203.63 66.54 L 204.42 64.81 L 205.35 63.13 L 206.39 61.50 L 207.51 59.90 L 208.69 58.32 L 209.92 56.76 L 211.17 55.21 L 212.45 53.67 L 213.74 52.15 L 215.03 50.65 L 216.33 49.16 L 217.61 47.70 L 218.88 46.27 L 220.14 44.84 L 221.39 43.44 L 222.65 42.04 L 223.94 40.66 L 225.26 39.30 L 226.62 37.95 L 228.02 36.62 L 229.47 35.29 L 230.95 33.97 L 232.45 32.65 L 233.97 31.33 L 235.50 30.00 L 237.03 28.66 L 238.57 27.32 L 240.10 25.98 L 241.63 24.64 L 243.18 23.33 L 244.73 22.04 L 246.31 20.79 L 247.90 19.58 L 249.53 18.43 L 251.20 17.35 L 252.90 16.34 L 254.63 15.40 L 256.40 14.54 L 258.19 13.76 L 260.02 13.05 L 261.87 12.43 L 263.75 11.89 L 265.65 11.43 L 267.55 11.05 L 269.46 10.77 L 271.36 10.58 L 273.26 10.48 L 275.16 10.48 L 277.05 10.56 L 278.94 10.74 L 280.83 11.01 L 282.71 11.38 L 284.57 11.83 L 286.41 12.38 L 288.21 13.01 L 289.98 13.71 L 291.70 14.49 L 293.39 15.34 L 295.04 16.27 L 296.66 17.27 L 298.25 18.34 L 299.81 19.46 L 301.35 20.63 L 302.87 21.81 L 304.37 23.00 L 305.85 24.19 L 307.32 25.37 L 308.80 26.55 L 310.27 27.74 L 311.74 28.94 L 313.22 30.15 L 314.70 31.37 L 316.19 32.59 L 317.69 33.80 L 319.20 35.01 L 320.72 36.20 L 322.24 37.39 L 323.76 38.58 L 325.27 39.75 L 326.80 40.90 L 328.35 41.99 L 329.95 43.00 L 331.61 43.89 L 333.35 44.65 L 335.17 45.25 L 337.06 45.69 L 339.03 45.99 L 341.06 46.15 L 343.14 46.20 L 345.25 46.15 L 347.38 46.04 L 349.49 45.87 L 351.59 45.68 L 353.67 45.46 L 355.72 45.24 L 357.73 45.02 L 359.72 44.81 L 361.70 44.62 L 363.67 44.45 L 365.67 44.31 L 367.72 44.19 L 369.82 44.09 L 371.98 44.03 L 374.18 44.00 L 376.41 44.01 L 378.65 44.10 L 380.89 44.27 L 383.10 44.56 L 385.28 44.98 L 387.42 45.54 L 389.52 46.25 L 391.58 47.08 L 393.61 48.02 L 395.61 49.04 L 397.59 50.09 L 399.55 51.17 L 401.50 52.25 L 403.45 53.31 L 405.40 54.37 L 407.34 55.42 L 409.28 56.46 L 411.23 57.49 L 413.17 58.52 L 415.12 59.54 L 417.07 60.55 L 419.02 61.54 L 420.97 62.51 L 422.91 63.45 L 424.84 64.37 L 426.75 65.25 L 428.66 66.10 L 430.54 66.93 L 432.40 67.73 L 434.25 68.52 L 436.08 69.29 L 437.92 70.08 L 439.75 70.88 L 441.59 71.71 L 443.43 72.58 L 445.26 73.49 L 447.07 74.44 L 448.84 75.44 L 450.56 76.51 L 452.22 77.64 L 453.82 78.84 L 455.34 80.14 L 456.79 81.52 L 458.16 82.99 L 459.45 84.55 L 460.65 86.18 L 461.76 87.87 L 462.77 89.63 L 463.68 91.45 L 464.48 93.31 L 465.16 95.21 L 465.72 97.13 L 466.16 99.07 L 466.47 101.01 L 466.66 102.96 L 466.73 104.91 L 466.67 106.86 L 466.50 108.80 L 466.22 110.74 L 465.82 112.66 L 465.31 114.57 L 464.69 116.44 L 463.97 118.28 L 463.14 120.09 L 462.21 121.86 L 461.16 123.58 L 460.01 125.24 L 458.77 126.83 L 457.44 128.34 L 456.03 129.77 L 454.55 131.10 L 453.01 132.35 L 451.41 133.50 L 449.76 134.59 L 448.07 135.60 L 446.35 136.56 L 444.60 137.48 L 442.84 138.38 L 441.07 139.26 L 439.30 140.13 L 437.52 141.01 L 435.75 141.88 L 433.98 142.76 L 432.22 143.61 L 430.45 144.45 L 428.69 145.26 Z" />
</symbol>
<symbol id="bl3">
<path d="M 398.01 209.81 L 395.66 210.56 L 393.30 211.18 L 390.93 211.64 L 388.58 211.90 L 386.26 211.98 L 384.02 211.86 L 381.87 211.55 L 379.81 211.08 L 377.86 210.46 L 376.01 209.72 L 374.24 208.88 L 372.52 207.99 L 370.83 207.05 L 369.17 206.09 L 367.51 205.12 L 365.85 204.13 L 364.21 203.13 L 362.58 202.11 L 360.96 201.08 L 359.35 200.02 L 357.76 198.95 L 356.18 197.85 L 354.63 196.74 L 353.08 195.61 L 351.54 194.48 L 350.01 193.35 L 348.47 192.23 L 346.92 191.12 L 345.37 190.02 L 343.83 188.91 L 342.32 187.78 L 340.83 186.63 L 339.37 185.44 L 337.96 184.22 L 336.57 182.96 L 335.21 181.68 L 333.86 180.38 L 332.53 179.06 L 331.20 177.73 L 329.87 176.36 L 328.53 174.96 L 327.17 173.49 L 325.78 171.95 L 324.34 170.34 L 322.85 168.64 L 321.31 166.88 L 319.72 165.07 L 318.10 163.22 L 316.45 161.37 L 314.77 159.51 L 313.06 157.66 L 311.31 155.82 L 309.54 153.99 L 307.75 152.18 L 305.96 150.40 L 304.18 148.66 L 302.45 146.97 L 300.77 145.35 L 299.16 143.80 L 297.62 142.31 L 296.13 140.85 L 294.69 139.42 L 293.29 138.00 L 291.91 136.57 L 290.55 135.12 L 289.21 133.66 L 287.88 132.18 L 286.56 130.69 L 285.27 129.18 L 284.01 127.65 L 282.80 126.09 L 281.66 124.47 L 280.61 122.77 L 279.68 120.98 L 278.85 119.08 L 278.14 117.06 L 277.54 114.94 L 277.02 112.75 L 276.54 110.51 L 276.07 108.29 L 275.54 106.13 L 274.89 104.05 L 274.09 102.09 L 273.10 100.26 L 271.89 98.54 L 270.48 96.95 L 268.87 95.49 L 267.11 94.16 L 265.23 92.95 L 263.30 91.84 L 261.36 90.81 L 259.44 89.83 L 257.57 88.87 L 255.76 87.89 L 254.01 86.88 L 252.32 85.81 L 250.68 84.68 L 249.08 83.48 L 247.52 82.18 L 246.01 80.78 L 244.53 79.26 L 243.11 77.63 L 241.75 75.88 L 240.47 74.04 L 239.30 72.14 L 238.22 70.20 L 237.27 68.25 L 236.42 66.31 L 235.68 64.38 L 235.06 62.47 L 234.54 60.56 L 234.13 58.64 L 233.82 56.70 L 233.61 54.72 L 233.50 52.72 L 233.49 50.68 L 233.58 48.62 L 233.77 46.56 L 234.07 44.50 L 234.46 42.45 L 234.96 40.41 L 235.56 38.39 L 236.26 36.40 L 237.06 34.44 L 237.95 32.54 L 238.94 30.70 L 240.01 28.92 L 241.16 27.23 L 242.38 25.61 L 243.66 24.08 L 244.99 22.63 L 246.36 21.28 L 247.78 20.01 L 249.23 18.83 L 250.74 17.74 L 252.30 16.73 L 253.91 15.80 L 255.57 14.95 L 257.29 14.17 L 259.05 13.46 L 260.86 12.82 L 262.70 12.26 L 264.58 11.77 L 266.48 11.37 L 268.41 11.04 L 270.35 10.79 L 272.30 10.63 L 274.25 10.55 L 276.18 10.57 L 278.09 10.68 L 279.98 10.90 L 281.84 11.22 L 283.67 11.64 L 285.48 12.15 L 287.26 12.75 L 289.02 13.42 L 290.75 14.17 L 292.45 14.99 L 294.12 15.87 L 295.76 16.81 L 297.37 17.81 L 298.94 18.86 L 300.48 19.95 L 302.00 21.08 L 303.51 22.25 L 305.03 23.46 L 306.56 24.70 L 308.13 25.99 L 309.72 27.31 L 311.35 28.65 L 312.98 29.99 L 314.60 31.33 L 316.21 32.64 L 317.78 33.92 L 319.32 35.17 L 320.84 36.40 L 322.36 37.63 L 323.91 38.84 L 325.50 40.05 L 327.17 41.22 L 328.92 42.36 L 330.77 43.43 L 332.72 44.42 L 334.74 45.32 L 336.81 46.17 L 338.90 46.97 L 340.98 47.76 L 343.01 48.59 L 344.96 49.47 L 346.84 50.41 L 348.64 51.44 L 350.36 52.54 L 352.01 53.70 L 353.62 54.91 L 355.19 56.15 L 356.74 57.41 L 358.28 58.68 L 359.82 59.93 L 361.36 61.17 L 362.91 62.37 L 364.48 63.53 L 366.08 64.60 L 367.72 65.56 L 369.41 66.40 L 371.15 67.10 L 372.94 67.68 L 374.77 68.15 L 376.63 68.55 L 378.51 68.89 L 380.40 69.20 L 382.29 69.49 L 384.19 69.76 L 386.09 70.02 L 387.99 70.25 L 389.88 70.45 L 391.78 70.59 L 393.66 70.68 L 395.54 70.71 L 397.41 70.68 L 399.27 70.60 L 401.11 70.50 L 402.95 70.39 L 404.79 70.28 L 406.62 70.18 L 408.45 70.11 L 410.29 70.07 L 412.12 70.07 L 413.96 70.10 L 415.81 70.16 L 417.66 70.23 L 419.54 70.32 L 421.45 70.41 L 423.39 70.51 L 425.39 70.61 L 427.42 70.73 L 429.48 70.86 L 431.53 71.01 L 433.56 71.18 L 435.54 71.41 L 437.47 71.69 L 439.35 72.04 L 441.18 72.49 L 442.98 73.02 L 444.74 73.64 L 446.46 74.35 L 448.14 75.15 L 449.78 76.03 L 451.37 76.98 L 452.90 78.02 L 454.37 79.15 L 455.78 80.37 L 457.12 81.66 L 458.38 83.04 L 459.57 84.49 L 460.68 86.01 L 461.70 87.59 L 462.63 89.22 L 463.48 90.91 L 464.22 92.65 L 464.87 94.44 L 465.41 96.30 L 465.85 98.25 L 466.17 100.30 L 466.38 102.45 L 466.45 104.72 L 466.37 107.08 L 466.15 109.51 L 465.78 111.98 L 465.26 114.45 L 464.63 116.93 L 463.91 119.39 L 463.12 121.85 L 462.31 124.30 L 461.48 126.76 L 460.67 129.22 L 459.88 131.68 L 459.12 134.15 L 458.41 136.60 L 457.76 139.03 L 457.18 141.43 L 456.69 143.78 L 456.28 146.04 L 455.92 148.22 L 455.61 150.32 L 455.30 152.33 L 454.98 154.29 L 454.63 156.20 L 454.24 158.09 L 453.83 159.95 L 453.41 161.82 L 452.98 163.67 L 452.56 165.53 L 452.14 167.39 L 451.71 169.24 L 451.27 171.09 L 450.80 172.91 L 450.29 174.72 L 449.72 176.50 L 449.08 178.25 L 448.36 179.96 L 447.53 181.62 L 446.60 183.22 L 445.54 184.74 L 444.38 186.18 L 443.10 187.54 L 441.72 188.81 L 440.25 189.98 L 438.71 191.07 L 437.11 192.07 L 435.46 193.00 L 433.79 193.86 L 432.11 194.69 L 430.42 195.49 L 428.73 196.28 L 427.04 197.08 L 425.36 197.88 L 423.68 198.69 L 421.99 199.51 L 420.30 200.32 L 418.58 201.13 L 416.83 201.93 L 415.02 202.73 L 413.14 203.54 L 411.19 204.37 L 409.15 205.24 L 407.03 206.15 L 404.85 207.08 L 402.61 208.03 L 400.33 208.95 Z" />
</symbol>
<symbol id="bl4">
<path d="M 333.42 179.52 L 335.22 181.24 L 337.06 182.87 L 338.96 184.35 L 340.92 185.65 L 342.93 186.75 L 345.00 187.62 L 347.09 188.26 L 349.19 188.65 L 351.26 188.78 L 353.27 188.67 L 355.22 188.32 L 357.10 187.75 L 358.91 186.97 L 360.62 186.00 L 362.25 184.85 L 363.80 183.55 L 365.28 182.14 L 366.71 180.65 L 368.11 179.13 L 369.53 177.63 L 370.99 176.18 L 372.51 174.83 L 374.11 173.60 L 375.79 172.51 L 377.55 171.59 L 379.39 170.84 L 381.29 170.26 L 383.25 169.88 L 385.24 169.68 L 387.25 169.67 L 389.26 169.85 L 391.24 170.22 L 393.19 170.78 L 395.08 171.54 L 396.90 172.50 L 398.63 173.63 L 400.25 174.94 L 401.75 176.41 L 403.09 178.03 L 404.28 179.81 L 405.28 181.74 L 406.09 183.84 L 406.68 186.08 L 407.02 188.47 L 407.08 190.95 L 406.85 193.49 L 406.31 196.02 L 405.47 198.50 L 404.34 200.86 L 402.94 203.06 L 401.32 205.05 L 399.53 206.80 L 397.59 208.30 L 395.53 209.52 L 393.35 210.47 L 391.07 211.15 L 388.68 211.55 L 386.21 211.67 L 383.68 211.51 L 381.14 211.08 L 378.61 210.40 L 376.11 209.50 L 373.65 208.41 L 371.22 207.18 L 368.83 205.84 L 366.46 204.41 L 364.12 202.91 L 361.80 201.38 L 359.52 199.83 L 357.26 198.28 L 355.05 196.75 L 352.88 195.25 L 350.74 193.78 L 348.66 192.33 L 346.63 190.90 L 344.68 189.48 L 342.83 188.07 L 341.06 186.64 L 339.39 185.19 L 337.79 183.71 L 336.25 182.21 L 334.76 180.69 L 333.30 179.16 L 331.88 177.63 L 330.49 176.08 L 329.12 174.51 L 327.75 172.92 L 326.38 171.30 L 324.97 169.65 L 323.51 167.96 L 321.98 166.23 L 320.40 164.45 L 318.78 162.62 L 317.17 160.72 L 315.61 158.76 L 314.17 156.72 L 312.88 154.59 L 311.80 152.39 L 310.95 150.11 L 310.37 147.77 L 310.07 145.39 L 310.07 143.00 L 310.36 140.63 L 310.92 138.31 L 311.72 136.07 L 312.70 133.90 L 313.81 131.81 L 314.99 129.79 L 316.20 127.81 L 317.39 125.85 L 318.52 123.87 L 319.55 121.83 L 320.44 119.71 L 321.18 117.50 L 321.73 115.19 L 322.09 112.81 L 322.25 110.38 L 322.21 107.92 L 321.97 105.46 L 321.56 103.01 L 320.99 100.58 L 320.29 98.14 L 319.49 95.68 L 318.60 93.17 L 317.67 90.62 L 316.72 88.05 L 315.80 85.49 L 314.93 82.99 L 314.16 80.56 L 313.50 78.21 L 313.00 75.91 L 312.67 73.65 L 312.52 71.40 L 312.55 69.15 L 312.76 66.90 L 313.10 64.66 L 313.56 62.42 L 314.09 60.19 L 314.65 57.99 L 315.23 55.81 L 315.81 53.67 L 316.38 51.57 L 316.94 49.49 L 317.48 47.46 L 318.01 45.45 L 318.54 43.46 L 319.08 41.50 L 319.64 39.54 L 320.22 37.59 L 320.82 35.63 L 321.46 33.65 L 322.15 31.67 L 322.92 29.69 L 323.80 27.72 L 324.81 25.79 L 325.98 23.94 L 327.32 22.21 L 328.84 20.64 L 330.54 19.28 L 332.38 18.16 L 334.36 17.31 L 336.44 16.75 L 338.57 16.49 L 340.71 16.53 L 342.81 16.87 L 344.81 17.51 L 346.69 18.41 L 348.40 19.58 L 349.92 20.97 L 351.25 22.57 L 352.38 24.33 L 353.32 26.24 L 354.07 28.25 L 354.66 30.33 L 355.12 32.46 L 355.47 34.62 L 355.76 36.79 L 356.00 38.96 L 356.22 41.14 L 356.43 43.33 L 356.63 45.53 L 356.81 47.76 L 356.98 50.02 L 357.14 52.29 L 357.31 54.57 L 357.46 56.87 L 357.60 59.16 L 357.72 61.47 L 357.79 63.79 L 357.80 66.13 L 357.71 68.49 L 357.51 70.86 L 357.21 73.23 L 356.81 75.58 L 356.35 77.91 L 355.86 80.21 L 355.40 82.50 L 355.01 84.78 L 354.74 87.08 L 354.64 89.39 L 354.71 91.71 L 355.00 94.03 L 355.49 96.33 L 356.18 98.56 L 357.07 100.70 L 358.13 102.71 L 359.34 104.57 L 360.69 106.27 L 362.17 107.81 L 363.76 109.18 L 365.47 110.39 L 367.29 111.44 L 369.23 112.33 L 371.27 113.05 L 373.39 113.62 L 375.58 114.06 L 377.83 114.38 L 380.13 114.62 L 382.47 114.84 L 384.84 115.09 L 387.22 115.41 L 389.59 115.84 L 391.93 116.44 L 394.20 117.22 L 396.40 118.19 L 398.50 119.35 L 400.48 120.70 L 402.32 122.20 L 404.00 123.83 L 405.52 125.57 L 406.88 127.39 L 408.05 129.28 L 409.05 131.21 L 409.86 133.18 L 410.49 135.18 L 410.94 137.22 L 411.20 139.28 L 411.28 141.38 L 411.18 143.51 L 410.89 145.68 L 410.40 147.87 L 409.72 150.04 L 408.86 152.18 L 407.82 154.25 L 406.62 156.21 L 405.27 158.04 L 403.78 159.73 L 402.16 161.27 L 400.40 162.67 L 398.51 163.91 L 396.49 164.98 L 394.38 165.89 L 392.18 166.62 L 389.92 167.15 L 387.62 167.47 L 385.30 167.59 L 383.00 167.50 L 380.73 167.21 L 378.51 166.73 L 376.37 166.07 L 374.32 165.24 L 372.36 164.26 L 370.50 163.14 L 368.73 161.89 L 367.06 160.53 L 365.47 159.06 L 363.95 157.53 L 362.47 155.93 L 361.03 154.28 L 359.60 152.59 L 358.15 150.87 L 356.66 149.12 L 355.12 147.36 L 353.54 145.58 L 351.91 143.79 L 350.26 142.00 L 348.61 140.21 L 346.98 138.46 L 345.38 136.76 L 343.79 135.14 L 342.22 133.61 L 340.63 132.20 L 338.99 130.92 L 337.30 129.78 L 335.54 128.81 L 333.69 128.03 L 331.75 127.45 L 329.73 127.08 L 327.64 126.96 L 325.50 127.08 L 323.35 127.46 L 321.24 128.10 L 319.22 129.00 L 317.34 130.14 L 315.63 131.51 L 314.11 133.12 L 312.80 134.95 L 311.72 136.98 L 310.89 139.17 L 310.34 141.47 L 310.07 143.80 L 310.08 146.09 L 310.36 148.31 L 310.89 150.43 L 311.65 152.46 L 312.61 154.40 L 313.75 156.31 L 315.03 158.19 L 316.42 160.07 L 317.88 161.95 L 319.37 163.81 L 320.88 165.62 L 322.37 167.40 L 323.85 169.12 L 325.34 170.82 L 326.85 172.52 L 328.40 174.23 L 330.01 175.98 L 331.69 177.75 Z" />
</symbol>
</defs>
<!-- isDone: 0 -->
<rect width="700" height="500" style="fill:#fff;stroke-width:0" />
<use class="p0 borderLine" xlink:href="#bl0"/>
<use class="p1 borderLine" xlink:href="#bl1"/>
<use class="p2 borderLine" xlink:href="#bl2"/>
<use class="p3 borderLine" xlink:href="#bl3"/>
<use class="p4 borderLine" xlink:href="#bl4"/>
<use class="q0 outLine" xlink:href="#bl0"/>
<use class="q1 outLine" xlink:href="#bl1"/>
<use class="q2 outLine" xlink:href="#bl2"/>
<use class="q3 outLine" xlink:href="#bl3"/>
<use class="q4 outLine" xlink:href="#bl4"/>
<circle onclick="fromCircle(16)" class="circle" cx="211.5687" cy="312.0389" r="169.3648" />
<text class="nLabel" x="211.57" y="307.04">799</text>
<text class="belong" x="211.57" y="317.04">(1)</text>
<circle onclick="fromCircle(24)" class="circle" cx="224.2880" cy="112.7473" r="10.3779" />
<text class="nLabel" x="224.29" y="107.75">3</text>
<text class="belong" x="224.29" y="117.75">(1, 2)</text>
<circle onclick="fromCircle(28)" class="circle" cx="260.3288" cy="107.8019" r="5.9917" />
<text class="nLabel" x="260.33" y="102.80">1</text>
<text class="belong" x="260.33" y="112.80">(1, 2, 3)</text>
<circle onclick="fromCircle(30)" class="circle" cx="299.8077" cy="110.4440" r="13.3978" />
<text class="nLabel" x="299.81" y="105.44">5</text>
<text class="belong" x="299.81" y="115.44">(1, 2, 3, 4)</text>
<circle onclick="fromCircle(31)" class="circle" cx="339.2781" cy="110.6303" r="5.9917" />
<text class="nLabel" x="339.28" y="105.63">1</text>
<text class="belong" x="339.28" y="115.63">(1, 2, 3, 4, 5)</text>
<circle onclick="fromCircle(12)" class="circle" cx="219.5881" cy="73.7765" r="8.4735" />
<text class="nLabel" x="219.59" y="68.78">2</text>
<text class="belong" x="219.59" y="78.78">(2, 3)</text>
<circle onclick="fromCircle(14)" class="circle" cx="274.0642" cy="51.2849" r="31.1338" />
<text class="nLabel" x="274.06" y="46.28">27</text>
<text class="belong" x="274.06" y="56.28">(2, 3, 4)</text>
<circle onclick="fromCircle(15)" class="circle" cx="334.8578" cy="69.7626" r="13.3978" />
<text class="nLabel" x="334.86" y="64.76">5</text>
<text class="belong" x="334.86" y="74.76">(2, 3, 4, 5)</text>
<circle onclick="fromCircle(9)" class="circle" cx="339.1172" cy="30.6733" r="5.9917" />
<text class="nLabel" x="339.12" y="25.67">1</text>
<text class="belong" x="339.12" y="35.67">(2, 5)</text>
<circle onclick="fromCircle(20)" class="circle" cx="382.7880" cy="59.7870" r="5.9917" />
<text class="nLabel" x="382.79" y="54.79">1</text>
<text class="belong" x="382.79" y="64.79">(1, 3)</text>
<circle onclick="fromCircle(22)" class="circle" cx="378.3167" cy="90.3151" r="14.6766" />
<text class="nLabel" x="378.32" y="85.32">6</text>
<text class="belong" x="378.32" y="95.32">(1, 3, 4)</text>
<circle onclick="fromCircle(6)" class="circle" cx="433.3009" cy="105.2530" r="23.9668" />
<text class="nLabel" x="433.30" y="100.25">16</text>
<text class="belong" x="433.30" y="110.25">(3, 4)</text>
<circle onclick="fromCircle(7)" class="circle" cx="385.2607" cy="141.5563" r="16.9471" />
<text class="nLabel" x="385.26" y="136.56">8</text>
<text class="belong" x="385.26" y="146.56">(3, 4, 5)</text>
<circle onclick="fromCircle(2)" class="circle" cx="427.3648" cy="171.2714" r="13.3978" />
<text class="nLabel" x="427.36" y="166.27">5</text>
<text class="belong" x="427.36" y="176.27">(4)</text>
<circle onclick="fromCircle(18)" class="circle" cx="350.9728" cy="171.4662" r="8.4735" />
<text class="nLabel" x="350.97" y="166.47">2</text>
<text class="belong" x="350.97" y="176.47">(1, 4)</text>
<circle onclick="fromCircle(26)" class="circle" cx="327.0923" cy="144.2493" r="8.4735" />
<text class="nLabel" x="327.09" y="139.25">2</text>
<text class="belong" x="327.09" y="149.25">(1, 2, 4)</text>
<circle onclick="fromCircle(3)" class="circle" cx="386.4970" cy="190.9347" r="11.9834" />
<text class="nLabel" x="386.50" y="185.93">4</text>
<text class="belong" x="386.50" y="195.93">(4, 5)</text>
<g id="legendBox">
<rect class="p0 borderLine" x="500.00" y="50.00" width="30.00" height="15.00" />
<rect class="q0" x="500.00" y="50.00" width="30.00" height="15.00" />
<text class="legend" x="540.00" y="65.00">All Sig Genes</text>
<rect class="p1 borderLine" x="500.00" y="90.00" width="30.00" height="15.00" />
<rect class="q1" x="500.00" y="90.00" width="30.00" height="15.00" />
<text class="legend" x="540.00" y="105.00">Annotation Change</text>
<rect class="p2 borderLine" x="500.00" y="130.00" width="30.00" height="15.00" />
<rect class="q2" x="500.00" y="130.00" width="30.00" height="15.00" />
<text class="legend" x="540.00" y="145.00">Build Change</text>
<rect class="p3 borderLine" x="500.00" y="170.00" width="30.00" height="15.00" />
<rect class="q3" x="500.00" y="170.00" width="30.00" height="15.00" />
<text class="legend" x="540.00" y="185.00">Build Issue</text>
<rect class="p4 borderLine" x="500.00" y="210.00" width="30.00" height="15.00" />
<rect class="q4" x="500.00" y="210.00" width="30.00" height="15.00" />
<text class="legend" x="540.00" y="225.00">Multimapping Diff</text>
</g>
</svg>
