<svg xmlns="http://www.w3.org/2000/svg" xmlns:xlink="http://www.w3.org/1999/xlink" width="700" height="500">
<defs>
<style type="text/css"><![CDATA[
  .borderLine {
	   stroke: none;
	   fill-opacity:  0.2 ;
  }
  .outLine {
	   stroke-width:  2 ;
	   fill: none;
  }
  .circle {
	   stroke: #888888;
	   stroke-width: 0.5;
	   fill: none;
    pointer-events: all;
  }
  .nLabel {
	   font-family: Arial;
    pointer-events: none;
	   font-size: 20px;
	   text-anchor: middle;
	   alignment-baseline: central;
  }
  .belong { 
 display: none;
	   font-family: Arial;
    pointer-events: none;
	   font-size: 10px;
	   text-anchor: middle;
	   alignment-baseline: central;
  }
  .legend {
    font-family: Arial;
    font-size: 15px;
  }
  #legendBox {
    display:  inline ;
  }
  .p0{
    stroke: none;
    fill:  #f3f3f3 ;
  }
  .q0{
    fill: none;
    stroke:  #f3f3f3 ;
  }
  .p1{
    stroke: none;
    fill:  #beca50 ;
  }
  .q1{
    fill: none;
    stroke:  #beca50 ;
  }
  .p2{
    stroke: none;
    fill:  #e8ac44 ;
  }
  .q2{
    fill: none;
    stroke:  #e8ac44 ;
  }
  .p3{
    stroke: none;
    fill:  #cc453c ;
  }
  .q3{
    fill: none;
    stroke:  #cc453c ;
  }
]]>
</style>
<symbol id="bl0">
<path d="M 440.39 305.17 L 438.09 310.54 L 435.75 315.88 L 433.39 321.22 L 431.03 326.56 L 428.65 331.89 L 426.26 337.21 L 423.81 342.52 L 421.28 347.79 L 418.58 353.00 L 415.69 358.11 L 412.56 363.06 L 409.19 367.82 L 405.58 372.37 L 401.80 376.74 L 397.90 380.99 L 393.93 385.18 L 389.94 389.34 L 385.94 393.49 L 381.94 397.65 L 377.94 401.80 L 373.93 405.96 L 369.93 410.11 L 365.93 414.26 L 361.92 418.41 L 357.91 422.55 L 353.90 426.70 L 349.90 430.84 L 345.89 434.97 L 341.88 439.11 L 337.87 443.24 L 333.84 447.34 L 329.76 451.40 L 325.60 455.37 L 321.33 459.23 L 316.94 462.94 L 312.40 466.46 L 307.71 469.78 L 302.87 472.87 L 297.89 475.72 L 292.78 478.33 L 287.54 480.68 L 282.20 482.78 L 276.76 484.62 L 271.23 486.18 L 265.64 487.48 L 259.98 488.49 L 254.29 489.24 L 248.57 489.70 L 242.83 489.88 L 237.08 489.78 L 231.36 489.41 L 225.66 488.75 L 220.00 487.82 L 214.39 486.61 L 208.86 485.13 L 203.40 483.38 L 198.03 481.37 L 192.77 479.09 L 187.62 476.56 L 182.60 473.79 L 177.72 470.77 L 173.00 467.52 L 168.42 464.06 L 163.99 460.40 L 159.69 456.57 L 155.50 452.63 L 151.40 448.59 L 147.35 444.50 L 143.33 440.37 L 139.33 436.21 L 135.33 432.05 L 131.34 427.89 L 127.35 423.72 L 123.36 419.55 L 119.37 415.38 L 115.38 411.21 L 111.39 407.03 L 107.41 402.86 L 103.42 398.68 L 99.43 394.50 L 95.44 390.32 L 91.46 386.14 L 87.48 381.95 L 83.51 377.75 L 79.56 373.52 L 75.67 369.23 L 71.90 364.85 L 68.36 360.32 L 65.20 355.57 L 62.59 350.55 L 60.60 345.26 L 59.18 339.73 L 58.18 334.06 L 57.46 328.32 L 56.90 322.56 L 56.42 316.80 L 55.98 311.04 L 55.55 305.27 L 55.13 299.51 L 54.72 293.76 L 54.30 288.00 L 53.88 282.24 L 53.46 276.49 L 53.05 270.73 L 52.63 264.98 L 52.21 259.24 L 51.79 253.49 L 51.38 247.75 L 50.99 242.00 L 50.66 236.25 L 50.43 230.49 L 50.35 224.74 L 50.51 218.99 L 50.98 213.28 L 51.81 207.62 L 53.04 202.03 L 54.65 196.54 L 56.63 191.16 L 58.90 185.89 L 61.39 180.71 L 64.04 175.61 L 66.79 170.56 L 69.58 165.54 L 72.41 160.53 L 75.24 155.54 L 78.07 150.55 L 80.91 145.56 L 83.75 140.58 L 86.59 135.60 L 89.43 130.62 L 92.27 125.64 L 95.11 120.67 L 97.95 115.69 L 100.79 110.71 L 103.63 105.74 L 106.47 100.76 L 109.30 95.78 L 112.14 90.80 L 114.98 85.83 L 117.81 80.85 L 120.65 75.86 L 123.48 70.88 L 126.31 65.89 L 129.15 60.90 L 131.98 55.92 L 134.83 50.94 L 137.71 45.97 L 140.65 41.03 L 143.71 36.17 L 146.97 31.44 L 150.53 26.95 L 154.44 22.81 L 158.77 19.17 L 163.52 16.16 L 168.64 13.85 L 174.05 12.27 L 179.67 11.38 L 185.41 11.04 L 191.22 11.07 L 197.04 11.33 L 202.87 11.70 L 208.69 12.13 L 214.51 12.59 L 220.33 13.05 L 226.15 13.52 L 231.97 13.98 L 237.79 14.45 L 243.62 14.92 L 249.44 15.39 L 255.27 15.86 L 261.10 16.32 L 266.92 16.79 L 272.75 17.25 L 278.58 17.72 L 284.42 18.18 L 290.25 18.64 L 296.07 19.11 L 301.90 19.60 L 307.73 20.13 L 313.56 20.71 L 319.37 21.40 L 325.16 22.23 L 330.92 23.25 L 336.62 24.50 L 342.26 26.01 L 347.83 27.77 L 353.30 29.80 L 358.68 32.08 L 363.94 34.62 L 369.07 37.41 L 374.06 40.43 L 378.90 43.70 L 383.58 47.19 L 388.09 50.90 L 392.41 54.82 L 396.54 58.95 L 400.47 63.27 L 404.19 67.77 L 407.69 72.45 L 410.97 77.29 L 414.01 82.28 L 416.80 87.41 L 419.35 92.67 L 421.65 98.05 L 423.69 103.53 L 425.47 109.11 L 427.00 114.75 L 428.31 120.46 L 429.44 126.22 L 430.44 132.00 L 431.35 137.80 L 432.22 143.61 L 433.07 149.42 L 433.90 155.23 L 434.73 161.04 L 435.56 166.85 L 436.38 172.67 L 437.21 178.49 L 438.04 184.30 L 438.86 190.12 L 439.69 195.94 L 440.52 201.75 L 441.34 207.57 L 442.17 213.38 L 442.99 219.20 L 443.82 225.01 L 444.64 230.83 L 445.46 236.64 L 446.28 242.45 L 447.08 248.27 L 447.84 254.08 L 448.48 259.90 L 448.89 265.72 L 448.95 271.54 L 448.56 277.34 L 447.68 283.09 L 446.35 288.76 L 444.62 294.31 L 442.60 299.78 Z" />
</symbol>
<symbol id="bl1">
<path d="M 359.27 377.14 L 358.91 382.86 L 358.28 388.54 L 357.36 394.18 L 356.18 399.76 L 354.71 405.28 L 352.99 410.73 L 350.99 416.09 L 348.74 421.35 L 346.24 426.49 L 343.48 431.50 L 340.49 436.37 L 337.26 441.10 L 333.81 445.65 L 330.14 450.03 L 326.27 454.23 L 322.20 458.23 L 317.94 462.02 L 313.50 465.60 L 308.91 468.96 L 304.15 472.09 L 299.25 474.99 L 294.22 477.64 L 289.06 480.05 L 283.79 482.21 L 278.42 484.10 L 272.96 485.74 L 267.44 487.11 L 261.85 488.21 L 256.22 489.03 L 250.55 489.59 L 244.86 489.87 L 239.16 489.87 L 233.46 489.59 L 227.80 489.04 L 222.15 488.21 L 216.56 487.12 L 211.03 485.75 L 205.56 484.11 L 200.18 482.21 L 194.90 480.05 L 189.73 477.64 L 184.68 474.98 L 179.77 472.07 L 175.00 468.93 L 170.39 465.56 L 165.95 461.97 L 161.69 458.17 L 157.62 454.16 L 153.75 449.96 L 150.08 445.57 L 146.63 441.01 L 143.41 436.28 L 140.42 431.41 L 137.67 426.40 L 135.18 421.25 L 132.93 415.99 L 130.94 410.64 L 129.21 405.19 L 127.75 399.67 L 126.54 394.08 L 125.56 388.45 L 124.78 382.78 L 124.16 377.09 L 123.64 371.38 L 123.18 365.68 L 122.75 359.96 L 122.30 354.25 L 121.77 348.54 L 121.08 342.85 L 120.11 337.23 L 118.72 331.74 L 116.76 326.47 L 114.18 321.48 L 111.06 316.75 L 107.55 312.24 L 103.80 307.88 L 99.93 303.62 L 96.00 299.42 L 92.04 295.25 L 88.08 291.08 L 84.12 286.92 L 80.19 282.73 L 76.30 278.49 L 72.51 274.18 L 68.86 269.75 L 65.41 265.17 L 62.23 260.41 L 59.38 255.46 L 56.90 250.31 L 54.81 245.01 L 53.14 239.56 L 51.89 234.00 L 51.08 228.36 L 50.70 222.68 L 50.76 216.99 L 51.26 211.32 L 52.20 205.72 L 53.55 200.19 L 55.33 194.78 L 57.49 189.51 L 60.01 184.39 L 62.85 179.43 L 65.94 174.61 L 69.22 169.91 L 72.61 165.28 L 76.06 160.68 L 79.54 156.11 L 83.02 151.54 L 86.51 146.97 L 90.00 142.41 L 93.49 137.85 L 96.99 133.28 L 100.49 128.72 L 103.99 124.15 L 107.50 119.59 L 111.02 115.03 L 114.57 110.49 L 118.18 105.99 L 121.90 101.58 L 125.80 97.34 L 129.97 93.37 L 134.45 89.83 L 139.27 86.89 L 144.44 84.69 L 149.87 83.29 L 155.47 82.68 L 161.16 82.73 L 166.86 83.16 L 172.56 83.61 L 178.20 83.77 L 183.76 83.41 L 189.17 82.39 L 194.36 80.63 L 199.28 78.11 L 203.91 74.89 L 208.26 71.08 L 212.42 66.88 L 216.53 62.52 L 220.72 58.19 L 225.05 54.00 L 229.55 50.02 L 234.23 46.26 L 239.09 42.73 L 244.12 39.45 L 249.30 36.42 L 254.63 33.65 L 260.08 31.14 L 265.65 28.91 L 271.32 26.95 L 277.07 25.27 L 282.91 23.89 L 288.80 22.79 L 294.74 21.98 L 300.71 21.46 L 306.71 21.24 L 312.71 21.31 L 318.70 21.68 L 324.67 22.34 L 330.60 23.29 L 336.47 24.53 L 342.28 26.07 L 348.01 27.88 L 353.63 29.97 L 359.14 32.34 L 364.53 34.97 L 369.78 37.87 L 374.88 41.02 L 379.82 44.41 L 384.58 48.04 L 389.17 51.91 L 393.56 56.00 L 397.74 60.30 L 401.71 64.79 L 405.45 69.48 L 408.96 74.35 L 412.23 79.39 L 415.25 84.57 L 418.00 89.91 L 420.49 95.36 L 422.71 100.93 L 424.64 106.60 L 426.31 112.36 L 427.68 118.20 L 428.76 124.09 L 429.56 130.03 L 430.06 135.99 L 430.27 141.98 L 430.18 147.96 L 429.81 153.94 L 429.13 159.88 L 428.17 165.79 L 426.92 171.65 L 425.37 177.44 L 423.55 183.15 L 421.45 188.77 L 419.07 194.28 L 416.42 199.67 L 413.50 204.92 L 410.33 210.02 L 406.91 214.95 L 403.25 219.68 L 399.37 224.20 L 395.31 228.49 L 391.13 232.55 L 386.90 236.41 L 382.72 240.17 L 378.74 243.98 L 375.12 247.99 L 371.98 252.30 L 369.41 256.90 L 367.39 261.78 L 365.90 266.86 L 364.80 272.09 L 363.95 277.40 L 363.22 282.75 L 362.56 288.11 L 361.91 293.48 L 361.27 298.86 L 360.62 304.24 L 359.97 309.62 L 359.33 314.99 L 358.70 320.37 L 358.11 325.77 L 357.64 331.20 L 357.36 336.71 L 357.37 342.34 L 357.69 348.08 L 358.20 353.91 L 358.74 359.77 L 359.15 365.60 L 359.34 371.39 Z" />
</symbol>
<symbol id="bl2">
<path d="M 449.65 272.04 L 449.49 276.04 L 449.01 280.01 L 448.18 283.92 L 447.01 287.74 L 445.48 291.43 L 443.62 294.95 L 441.43 298.29 L 438.94 301.41 L 436.16 304.28 L 433.13 306.88 L 429.86 309.18 L 426.39 311.16 L 422.75 312.80 L 418.96 314.08 L 415.04 314.98 L 411.01 315.49 L 406.85 315.59 L 402.55 315.27 L 398.14 314.54 L 393.68 313.44 L 389.24 312.03 L 384.89 310.37 L 380.62 308.55 L 376.43 306.63 L 372.27 304.65 L 368.13 302.66 L 364.00 300.66 L 359.87 298.66 L 355.74 296.66 L 351.61 294.65 L 347.48 292.65 L 343.35 290.65 L 339.22 288.64 L 335.09 286.64 L 330.96 284.63 L 326.84 282.62 L 322.71 280.62 L 318.59 278.61 L 314.46 276.61 L 310.34 274.61 L 306.21 272.62 L 302.06 270.64 L 297.88 268.70 L 293.63 266.84 L 289.28 265.09 L 284.81 263.46 L 280.21 261.94 L 275.51 260.46 L 270.77 258.98 L 266.08 257.45 L 261.55 255.85 L 257.25 254.14 L 253.16 252.31 L 249.26 250.34 L 245.49 248.23 L 241.83 245.98 L 238.26 243.60 L 234.79 241.09 L 231.41 238.46 L 228.12 235.71 L 224.94 232.85 L 221.86 229.89 L 218.89 226.82 L 216.02 223.65 L 213.27 220.39 L 210.63 217.04 L 208.10 213.60 L 205.66 210.09 L 203.32 206.52 L 201.05 202.89 L 198.83 199.23 L 196.64 195.55 L 194.44 191.86 L 192.22 188.19 L 189.94 184.56 L 187.58 180.98 L 185.10 177.49 L 182.48 174.11 L 179.70 170.87 L 176.74 167.78 L 173.62 164.87 L 170.34 162.15 L 166.90 159.61 L 163.32 157.27 L 159.59 155.14 L 155.72 153.19 L 151.75 151.41 L 147.71 149.72 L 143.71 148.01 L 139.87 146.15 L 136.29 144.03 L 133.02 141.61 L 130.10 138.86 L 127.55 135.80 L 125.38 132.47 L 123.62 128.91 L 122.29 125.17 L 121.39 121.30 L 120.93 117.34 L 120.89 113.34 L 121.23 109.34 L 121.89 105.37 L 122.79 101.44 L 123.88 97.55 L 125.06 93.69 L 126.30 89.85 L 127.56 86.01 L 128.83 82.18 L 130.10 78.35 L 131.36 74.52 L 132.63 70.68 L 133.90 66.84 L 135.17 63.00 L 136.45 59.15 L 137.72 55.30 L 139.01 51.46 L 140.31 47.61 L 141.65 43.79 L 143.08 39.99 L 144.64 36.25 L 146.39 32.60 L 148.37 29.09 L 150.63 25.76 L 153.18 22.67 L 156.04 19.86 L 159.17 17.37 L 162.55 15.23 L 166.15 13.46 L 169.91 12.07 L 173.81 11.06 L 177.80 10.40 L 181.83 10.07 L 185.88 10.00 L 189.93 10.12 L 193.98 10.36 L 198.03 10.66 L 202.07 10.98 L 206.11 11.31 L 210.15 11.64 L 214.18 11.98 L 218.22 12.32 L 222.26 12.65 L 226.30 12.99 L 230.34 13.32 L 234.39 13.66 L 238.43 13.99 L 242.47 14.34 L 246.51 14.68 L 250.55 15.03 L 254.59 15.37 L 258.63 15.72 L 262.66 16.07 L 266.70 16.41 L 270.73 16.76 L 274.77 17.11 L 278.80 17.45 L 282.84 17.80 L 286.89 18.15 L 290.93 18.50 L 294.97 18.85 L 299.02 19.19 L 303.06 19.54 L 307.10 19.90 L 311.14 20.27 L 315.18 20.67 L 319.22 21.11 L 323.25 21.61 L 327.27 22.21 L 331.26 22.92 L 335.22 23.75 L 339.16 24.71 L 343.06 25.79 L 346.92 27.01 L 350.75 28.35 L 354.52 29.82 L 358.25 31.42 L 361.93 33.13 L 365.55 34.98 L 369.11 36.94 L 372.60 39.02 L 376.02 41.21 L 379.36 43.51 L 382.63 45.92 L 385.81 48.43 L 388.91 51.05 L 391.91 53.77 L 394.83 56.59 L 397.65 59.50 L 400.37 62.50 L 402.99 65.59 L 405.50 68.76 L 407.91 72.02 L 410.21 75.35 L 412.39 78.75 L 414.46 82.22 L 416.42 85.76 L 418.26 89.36 L 419.98 93.02 L 421.57 96.74 L 423.05 100.51 L 424.40 104.32 L 425.62 108.17 L 426.72 112.06 L 427.70 115.99 L 428.56 119.93 L 429.32 123.90 L 430.01 127.88 L 430.64 131.87 L 431.23 135.87 L 431.80 139.87 L 432.37 143.87 L 432.92 147.87 L 433.48 151.88 L 434.03 155.88 L 434.59 159.88 L 435.14 163.88 L 435.69 167.87 L 436.25 171.88 L 436.80 175.87 L 437.35 179.88 L 437.91 183.88 L 438.47 187.88 L 439.02 191.89 L 439.58 195.89 L 440.15 199.90 L 440.72 203.91 L 441.29 207.91 L 441.86 211.92 L 442.44 215.92 L 443.02 219.93 L 443.60 223.93 L 444.17 227.93 L 444.75 231.94 L 445.34 235.94 L 445.92 239.95 L 446.50 243.95 L 447.07 247.96 L 447.64 251.97 L 448.20 255.99 L 448.73 260.00 L 449.19 264.02 L 449.53 268.03 Z" />
</symbol>
<symbol id="bl3">
<path d="M 445.65 236.16 L 446.38 241.33 L 447.11 246.49 L 447.80 251.66 L 448.43 256.83 L 448.93 262.01 L 449.21 267.21 L 449.18 272.41 L 448.77 277.59 L 447.91 282.70 L 446.62 287.74 L 444.98 292.71 L 443.11 297.63 L 441.11 302.53 L 439.06 307.41 L 437.00 312.30 L 434.92 317.18 L 432.83 322.07 L 430.74 326.95 L 428.65 331.83 L 426.56 336.70 L 424.42 341.57 L 422.23 346.41 L 419.89 351.19 L 417.36 355.89 L 414.57 360.47 L 411.53 364.90 L 408.27 369.17 L 404.82 373.28 L 401.26 377.27 L 397.63 381.18 L 393.95 385.04 L 390.26 388.89 L 386.57 392.73 L 382.87 396.57 L 379.18 400.41 L 375.49 404.25 L 371.79 408.08 L 368.09 411.93 L 364.39 415.76 L 360.69 419.60 L 356.98 423.43 L 353.28 427.27 L 349.57 431.10 L 345.86 434.94 L 342.14 438.77 L 338.41 442.59 L 334.67 446.41 L 330.90 450.20 L 327.09 453.94 L 323.20 457.59 L 319.21 461.13 L 315.10 464.51 L 310.85 467.72 L 306.47 470.73 L 301.96 473.55 L 297.32 476.16 L 292.58 478.55 L 287.73 480.73 L 282.78 482.69 L 277.75 484.43 L 272.64 485.93 L 267.47 487.20 L 262.24 488.24 L 256.97 489.04 L 251.68 489.60 L 246.37 489.92 L 241.05 490.00 L 235.73 489.84 L 230.43 489.44 L 225.15 488.79 L 219.90 487.91 L 214.70 486.80 L 209.57 485.45 L 204.49 483.87 L 199.50 482.07 L 194.60 480.04 L 189.79 477.79 L 185.09 475.33 L 180.51 472.66 L 176.04 469.78 L 171.72 466.70 L 167.53 463.43 L 163.50 459.97 L 159.62 456.34 L 155.92 452.53 L 152.39 448.56 L 149.04 444.43 L 145.88 440.15 L 142.92 435.73 L 140.16 431.18 L 137.61 426.51 L 135.27 421.73 L 133.15 416.85 L 131.26 411.88 L 129.59 406.83 L 128.16 401.71 L 126.96 396.54 L 125.99 391.32 L 125.26 386.06 L 124.77 380.78 L 124.52 375.48 L 124.51 370.18 L 124.74 364.87 L 125.21 359.59 L 125.92 354.32 L 126.87 349.09 L 128.05 343.90 L 129.47 338.78 L 131.12 333.72 L 132.99 328.75 L 135.09 323.86 L 137.41 319.08 L 139.94 314.40 L 142.68 309.84 L 145.63 305.41 L 148.78 301.12 L 152.12 296.97 L 155.67 292.97 L 159.40 289.12 L 163.30 285.38 L 167.31 281.73 L 171.31 278.11 L 175.19 274.46 L 178.83 270.72 L 182.19 266.85 L 185.24 262.82 L 187.98 258.61 L 190.41 254.24 L 192.53 249.72 L 194.34 245.07 L 195.83 240.31 L 196.99 235.47 L 197.83 230.55 L 198.33 225.59 L 198.51 220.61 L 198.37 215.63 L 197.93 210.66 L 197.21 205.72 L 196.27 200.81 L 195.16 195.92 L 193.95 191.06 L 192.70 186.20 L 191.47 181.34 L 190.29 176.46 L 189.19 171.57 L 188.22 166.64 L 187.41 161.70 L 186.79 156.73 L 186.37 151.74 L 186.16 146.72 L 186.19 141.69 L 186.44 136.61 L 186.92 131.49 L 187.60 126.29 L 188.48 121.03 L 189.59 115.68 L 190.95 110.26 L 192.60 104.76 L 194.55 99.23 L 196.81 93.74 L 199.36 88.33 L 202.19 83.04 L 205.27 77.91 L 208.58 72.97 L 212.06 68.25 L 215.64 63.80 L 219.30 59.64 L 223.04 55.76 L 226.87 52.13 L 230.82 48.71 L 234.91 45.48 L 239.12 42.45 L 243.46 39.61 L 247.91 36.95 L 252.47 34.49 L 257.13 32.22 L 261.88 30.15 L 266.72 28.28 L 271.65 26.62 L 276.64 25.17 L 281.69 23.93 L 286.80 22.91 L 291.95 22.11 L 297.13 21.52 L 302.34 21.16 L 307.56 21.02 L 312.78 21.10 L 318.00 21.40 L 323.20 21.93 L 328.37 22.68 L 333.51 23.65 L 338.61 24.84 L 343.64 26.25 L 348.60 27.86 L 353.49 29.69 L 358.29 31.72 L 363.00 33.96 L 367.60 36.38 L 372.10 39.01 L 376.48 41.82 L 380.73 44.82 L 384.86 47.99 L 388.84 51.34 L 392.68 54.85 L 396.37 58.52 L 399.89 62.35 L 403.25 66.32 L 406.44 70.43 L 409.45 74.68 L 412.27 79.05 L 414.91 83.53 L 417.35 88.12 L 419.60 92.81 L 421.65 97.60 L 423.49 102.47 L 425.13 107.41 L 426.57 112.42 L 427.83 117.48 L 428.92 122.58 L 429.89 127.71 L 430.76 132.86 L 431.57 138.02 L 432.35 143.18 L 433.11 148.34 L 433.85 153.50 L 434.60 158.67 L 435.34 163.84 L 436.08 169.00 L 436.83 174.17 L 437.56 179.34 L 438.30 184.51 L 439.04 189.68 L 439.78 194.85 L 440.51 200.02 L 441.25 205.18 L 441.99 210.35 L 442.72 215.52 L 443.46 220.68 L 444.19 225.84 L 444.92 231.00 Z" />
</symbol>
</defs>
<!-- isDone: 0 -->
<rect width="700" height="500" style="fill:#fff;stroke-width:0" />
<use class="p0 borderLine" xlink:href="#bl0"/>
<use class="p1 borderLine" xlink:href="#bl1"/>
<use class="p2 borderLine" xlink:href="#bl2"/>
<use class="p3 borderLine" xlink:href="#bl3"/>
<use class="q0 outLine" xlink:href="#bl0"/>
<use class="q1 outLine" xlink:href="#bl1"/>
<use class="q2 outLine" xlink:href="#bl2"/>
<use class="q3 outLine" xlink:href="#bl3"/>
<circle onclick="fromCircle(8)" class="circle" cx="89.2707" cy="338.7128" r="26.7877" />
<text class="nLabel" x="89.27" y="333.71">4</text>
<text class="belong" x="89.27" y="343.71">(1)</text>
<circle onclick="fromCircle(12)" class="circle" cx="124.1655" cy="220.5944" r="69.5966" />
<text class="nLabel" x="124.17" y="215.59">27</text>
<text class="belong" x="124.17" y="225.59">(1, 2)</text>
<circle onclick="fromCircle(14)" class="circle" cx="154.8705" cy="115.3398" r="29.9496" />
<text class="nLabel" x="154.87" y="110.34">5</text>
<text class="belong" x="154.87" y="120.34">(1, 2, 3)</text>
<circle onclick="fromCircle(15)" class="circle" cx="308.4714" cy="142.9536" r="117.5307" />
<text class="nLabel" x="308.47" y="137.95">77</text>
<text class="belong" x="308.47" y="147.95">(1, 2, 3, 4)</text>
<circle onclick="fromCircle(10)" class="circle" cx="180.4981" cy="47.0486" r="32.8081" />
<text class="nLabel" x="180.50" y="42.05">6</text>
<text class="belong" x="180.50" y="52.05">(1, 3)</text>
<circle onclick="fromCircle(11)" class="circle" cx="407.6555" cy="273.6008" r="37.8836" />
<text class="nLabel" x="407.66" y="268.60">8</text>
<text class="belong" x="407.66" y="278.60">(1, 3, 4)</text>
<circle onclick="fromCircle(9)" class="circle" cx="388.4040" cy="345.3004" r="26.7877" />
<text class="nLabel" x="388.40" y="340.30">4</text>
<text class="belong" x="388.40" y="350.30">(1, 4)</text>
<circle onclick="fromCircle(13)" class="circle" cx="242.0195" cy="372.9906" r="112.8588" />
<text class="nLabel" x="242.02" y="367.99">71</text>
<text class="belong" x="242.02" y="377.99">(1, 2, 4)</text>
<g id="legendBox">
<rect class="p0 borderLine" x="500.00" y="50.00" width="30.00" height="15.00" />
<rect class="q0" x="500.00" y="50.00" width="30.00" height="15.00" />
<text class="legend" x="540.00" y="65.00">All Sig Genes</text>
<rect class="p1 borderLine" x="500.00" y="90.00" width="30.00" height="15.00" />
<rect class="q1" x="500.00" y="90.00" width="30.00" height="15.00" />
<text class="legend" x="540.00" y="105.00">Build Issue</text>
<rect class="p2 borderLine" x="500.00" y="130.00" width="30.00" height="15.00" />
<rect class="q2" x="500.00" y="130.00" width="30.00" height="15.00" />
<text class="legend" x="540.00" y="145.00">Annotation Change</text>
<rect class="p3 borderLine" x="500.00" y="170.00" width="30.00" height="15.00" />
<rect class="q3" x="500.00" y="170.00" width="30.00" height="15.00" />
<text class="legend" x="540.00" y="185.00">Build Change</text>
</g>
</svg>
