<svg xmlns="http://www.w3.org/2000/svg" xmlns:xlink="http://www.w3.org/1999/xlink" width="700" height="500">
<defs>
<style type="text/css"><![CDATA[
  .borderLine {
	   stroke: none;
	   fill-opacity:  0.2 ;
  }
  .outLine {
	   stroke-width:  2 ;
	   fill: none;
  }
  .circle {
	   stroke: #888888;
	   stroke-width: 0.5;
	   fill: none;
    pointer-events: all;
  }
  .nLabel {
	   font-family: Arial;
    pointer-events: none;
	   font-size: 20px;
	   text-anchor: middle;
	   alignment-baseline: central;
  }
  .belong { 
 display: none;
	   font-family: Arial;
    pointer-events: none;
	   font-size: 10px;
	   text-anchor: middle;
	   alignment-baseline: central;
  }
  .legend {
    font-family: Arial;
    font-size: 15px;
  }
  #legendBox {
    display:  inline ;
  }
  .p0{
    stroke: none;
    fill:  #f3f3f3 ;
  }
  .q0{
    fill: none;
    stroke:  #f3f3f3 ;
  }
  .p1{
    stroke: none;
    fill:  #beca50 ;
  }
  .q1{
    fill: none;
    stroke:  #beca50 ;
  }
  .p2{
    stroke: none;
    fill:  #e8ac44 ;
  }
  .q2{
    fill: none;
    stroke:  #e8ac44 ;
  }
  .p3{
    stroke: none;
    fill:  #cc453c ;
  }
  .q3{
    fill: none;
    stroke:  #cc453c ;
  }
]]>
</style>
<symbol id="bl0">
<path d="M 372.48 277.97 L 370.32 282.82 L 368.16 287.69 L 365.98 292.56 L 363.77 297.44 L 361.51 302.28 L 359.15 307.08 L 356.71 311.82 L 354.19 316.51 L 351.64 321.16 L 349.09 325.78 L 346.54 330.40 L 343.99 335.01 L 341.44 339.61 L 338.88 344.21 L 336.30 348.80 L 333.71 353.40 L 331.11 358.01 L 328.49 362.63 L 325.87 367.26 L 323.24 371.89 L 320.58 376.52 L 317.86 381.11 L 315.03 385.62 L 312.04 390.01 L 308.84 394.26 L 305.45 398.35 L 301.91 402.33 L 298.27 406.21 L 294.57 410.04 L 290.83 413.83 L 287.08 417.61 L 283.32 421.39 L 279.57 425.17 L 275.84 428.97 L 272.11 432.78 L 268.38 436.60 L 264.64 440.41 L 260.91 444.23 L 257.16 448.05 L 253.42 451.87 L 249.67 455.69 L 245.92 459.49 L 242.16 463.27 L 238.38 467.00 L 234.54 470.65 L 230.61 474.16 L 226.52 477.47 L 222.24 480.46 L 217.74 483.08 L 213.03 485.25 L 208.14 486.95 L 203.11 488.14 L 198.00 488.82 L 192.84 488.98 L 187.69 488.62 L 182.60 487.74 L 177.62 486.35 L 172.82 484.46 L 168.22 482.09 L 163.89 479.26 L 159.86 476.01 L 156.16 472.37 L 152.81 468.39 L 149.81 464.12 L 147.13 459.61 L 144.71 454.94 L 142.50 450.15 L 140.43 445.29 L 138.44 440.39 L 136.51 435.46 L 134.59 430.53 L 132.68 425.59 L 130.78 420.64 L 128.88 415.68 L 127.00 410.72 L 125.13 405.75 L 123.28 400.78 L 121.45 395.80 L 119.62 390.80 L 117.80 385.79 L 115.99 380.77 L 114.17 375.74 L 112.36 370.71 L 110.53 365.67 L 108.69 360.64 L 106.84 355.61 L 104.97 350.57 L 103.10 345.53 L 101.22 340.46 L 99.35 335.39 L 97.48 330.31 L 95.60 325.22 L 93.72 320.13 L 91.83 315.04 L 89.92 309.96 L 88.00 304.88 L 86.08 299.81 L 84.16 294.75 L 82.26 289.68 L 80.43 284.60 L 78.74 279.49 L 77.26 274.32 L 76.06 269.09 L 75.19 263.79 L 74.67 258.45 L 74.52 253.09 L 74.73 247.73 L 75.28 242.39 L 76.15 237.08 L 77.26 231.80 L 78.54 226.56 L 79.92 221.34 L 81.38 216.14 L 82.87 210.95 L 84.38 205.78 L 85.92 200.63 L 87.47 195.48 L 89.03 190.34 L 90.62 185.20 L 92.23 180.07 L 93.87 174.94 L 95.55 169.82 L 97.25 164.72 L 98.98 159.63 L 100.73 154.55 L 102.49 149.48 L 104.26 144.42 L 106.05 139.38 L 107.85 134.35 L 109.71 129.35 L 111.68 124.39 L 113.81 119.50 L 116.20 114.74 L 118.93 110.19 L 122.06 105.95 L 125.63 102.05 L 129.57 98.51 L 133.77 95.24 L 138.13 92.19 L 142.59 89.27 L 147.08 86.44 L 151.58 83.65 L 156.09 80.87 L 160.59 78.11 L 165.09 75.36 L 169.58 72.62 L 174.06 69.87 L 178.53 67.11 L 182.99 64.34 L 187.42 61.55 L 191.85 58.75 L 196.28 55.93 L 200.73 53.12 L 205.19 50.32 L 209.68 47.53 L 214.19 44.73 L 218.73 41.93 L 223.27 39.13 L 227.83 36.34 L 232.40 33.58 L 237.00 30.85 L 241.64 28.19 L 246.33 25.64 L 251.09 23.21 L 255.91 20.95 L 260.79 18.88 L 265.74 17.02 L 270.74 15.37 L 275.80 13.95 L 280.90 12.76 L 286.03 11.79 L 291.20 11.04 L 296.40 10.53 L 301.61 10.25 L 306.82 10.19 L 312.03 10.37 L 317.23 10.76 L 322.42 11.38 L 327.58 12.22 L 332.70 13.28 L 337.77 14.56 L 342.78 16.05 L 347.71 17.76 L 352.56 19.69 L 357.31 21.84 L 361.97 24.18 L 366.52 26.73 L 370.95 29.46 L 375.26 32.37 L 379.44 35.47 L 383.49 38.76 L 387.38 42.22 L 391.13 45.86 L 394.72 49.67 L 398.14 53.64 L 401.40 57.75 L 404.48 61.99 L 407.39 66.37 L 410.09 70.88 L 412.60 75.50 L 414.91 80.25 L 417.02 85.10 L 418.91 90.06 L 420.59 95.11 L 422.04 100.26 L 423.27 105.47 L 424.26 110.74 L 425.01 116.05 L 425.52 121.40 L 425.80 126.77 L 425.84 132.16 L 425.64 137.54 L 425.20 142.92 L 424.51 148.27 L 423.59 153.58 L 422.43 158.84 L 421.04 164.05 L 419.44 169.20 L 417.64 174.29 L 415.68 179.34 L 413.58 184.35 L 411.40 189.33 L 409.17 194.31 L 406.92 199.27 L 404.67 204.24 L 402.44 209.20 L 400.22 214.17 L 398.03 219.14 L 395.87 224.12 L 393.73 229.09 L 391.60 234.06 L 389.49 239.00 L 387.39 243.93 L 385.28 248.84 L 383.18 253.72 L 381.06 258.60 L 378.93 263.45 L 376.79 268.30 L 374.64 273.13 Z" />
</symbol>
<symbol id="bl1">
<path d="M 320.85 369.09 L 320.14 372.46 L 319.21 375.79 L 318.06 379.08 L 316.71 382.33 L 315.16 385.50 L 313.41 388.57 L 311.47 391.52 L 309.36 394.34 L 307.09 397.01 L 304.67 399.50 L 302.11 401.82 L 299.43 403.98 L 296.62 405.95 L 293.71 407.75 L 290.68 409.36 L 287.57 410.78 L 284.38 412.01 L 281.14 413.04 L 277.85 413.86 L 274.53 414.49 L 271.19 414.91 L 267.84 415.13 L 264.48 415.13 L 261.15 414.94 L 257.85 414.54 L 254.61 413.95 L 251.43 413.17 L 248.32 412.20 L 245.27 411.03 L 242.31 409.66 L 239.41 408.09 L 236.59 406.33 L 233.83 404.39 L 231.12 402.31 L 228.45 400.15 L 225.77 398.00 L 223.05 395.96 L 220.26 394.07 L 217.39 392.39 L 214.45 390.92 L 211.44 389.67 L 208.37 388.64 L 205.25 387.81 L 202.09 387.20 L 198.89 386.79 L 195.64 386.58 L 192.36 386.58 L 189.05 386.78 L 185.73 387.19 L 182.40 387.81 L 179.10 388.64 L 175.84 389.66 L 172.62 390.80 L 169.43 391.98 L 166.25 393.09 L 163.06 394.01 L 159.83 394.68 L 156.56 395.06 L 153.24 395.11 L 149.89 394.83 L 146.57 394.20 L 143.30 393.23 L 140.15 391.94 L 137.17 390.35 L 134.40 388.49 L 131.85 386.38 L 129.55 384.05 L 127.46 381.52 L 125.58 378.81 L 123.85 375.98 L 122.25 373.04 L 120.72 370.04 L 119.25 367.01 L 117.81 363.98 L 116.37 360.96 L 114.93 357.96 L 113.49 354.98 L 112.05 352.01 L 110.60 349.03 L 109.15 346.06 L 107.69 343.10 L 106.24 340.16 L 104.79 337.24 L 103.37 334.35 L 101.96 331.49 L 100.58 328.68 L 99.23 325.89 L 97.91 323.12 L 96.59 320.34 L 95.28 317.54 L 93.97 314.72 L 92.63 311.87 L 91.29 309.00 L 89.93 306.11 L 88.56 303.21 L 87.18 300.30 L 85.80 297.40 L 84.43 294.51 L 83.07 291.60 L 81.75 288.68 L 80.49 285.71 L 79.31 282.69 L 78.21 279.62 L 77.21 276.51 L 76.33 273.34 L 75.58 270.12 L 74.97 266.88 L 74.49 263.61 L 74.15 260.34 L 73.94 257.07 L 73.87 253.82 L 73.93 250.58 L 74.13 247.37 L 74.46 244.17 L 74.93 240.97 L 75.53 237.79 L 76.25 234.62 L 77.12 231.46 L 78.12 228.34 L 79.25 225.25 L 80.52 222.21 L 81.92 219.23 L 83.44 216.30 L 85.09 213.45 L 86.87 210.66 L 88.76 207.95 L 90.78 205.31 L 92.91 202.75 L 95.15 200.27 L 97.49 197.90 L 99.94 195.64 L 102.48 193.50 L 105.10 191.46 L 107.81 189.53 L 110.60 187.70 L 113.47 186.00 L 116.41 184.44 L 119.44 183.00 L 122.52 181.70 L 125.66 180.54 L 128.86 179.50 L 132.12 178.60 L 135.43 177.83 L 138.78 177.20 L 142.14 176.72 L 145.50 176.38 L 148.84 176.19 L 152.17 176.14 L 155.47 176.24 L 158.75 176.48 L 162.02 176.86 L 165.26 177.38 L 168.48 178.04 L 171.67 178.84 L 174.84 179.78 L 177.96 180.85 L 181.04 182.06 L 184.07 183.39 L 187.03 184.84 L 189.93 186.41 L 192.76 188.11 L 195.52 189.93 L 198.19 191.87 L 200.77 193.94 L 203.27 196.15 L 205.68 198.50 L 208.01 200.98 L 210.28 203.55 L 212.49 206.16 L 214.69 208.75 L 216.89 211.31 L 219.14 213.79 L 221.48 216.21 L 223.89 218.55 L 226.38 220.81 L 228.95 223.00 L 231.57 225.11 L 234.25 227.14 L 236.98 229.09 L 239.76 230.96 L 242.58 232.76 L 245.46 234.48 L 248.38 236.13 L 251.34 237.69 L 254.33 239.15 L 257.34 240.53 L 260.39 241.84 L 263.45 243.10 L 266.49 244.38 L 269.50 245.75 L 272.41 247.26 L 275.20 248.96 L 277.82 250.88 L 280.22 253.01 L 282.39 255.36 L 284.31 257.90 L 285.95 260.62 L 287.31 263.48 L 288.36 266.45 L 289.09 269.54 L 289.51 272.75 L 289.65 276.09 L 289.58 279.55 L 289.43 283.10 L 289.36 286.65 L 289.50 290.15 L 289.91 293.58 L 290.62 296.92 L 291.63 300.18 L 292.92 303.33 L 294.47 306.34 L 296.25 309.20 L 298.24 311.92 L 300.38 314.52 L 302.63 317.05 L 304.91 319.56 L 307.16 322.12 L 309.33 324.75 L 311.36 327.49 L 313.24 330.33 L 314.95 333.27 L 316.47 336.28 L 317.81 339.37 L 318.96 342.52 L 319.91 345.73 L 320.66 348.98 L 321.21 352.27 L 321.55 355.60 L 321.69 358.96 L 321.62 362.33 L 321.35 365.72 Z" />
</symbol>
<symbol id="bl2">
<path d="M 378.81 264.90 L 376.89 269.00 L 375.00 273.09 L 373.12 277.20 L 371.24 281.38 L 369.31 285.70 L 367.26 290.19 L 365.10 294.81 L 362.82 299.37 L 360.43 303.67 L 357.89 307.60 L 355.13 311.14 L 352.08 314.30 L 348.72 317.07 L 345.06 319.43 L 341.15 321.35 L 337.03 322.81 L 332.78 323.78 L 328.46 324.24 L 324.11 324.19 L 319.78 323.62 L 315.45 322.52 L 311.09 320.90 L 306.66 318.81 L 302.18 316.41 L 297.73 313.94 L 293.39 311.63 L 289.15 309.63 L 284.96 308.01 L 280.75 306.77 L 276.47 305.91 L 272.11 305.43 L 267.67 305.28 L 263.16 305.43 L 258.59 305.81 L 253.96 306.38 L 249.25 307.18 L 244.47 308.18 L 239.63 309.38 L 234.77 310.70 L 229.91 312.08 L 225.07 313.50 L 220.24 314.93 L 215.41 316.36 L 210.58 317.78 L 205.77 319.18 L 200.97 320.54 L 196.18 321.89 L 191.42 323.21 L 186.68 324.52 L 181.94 325.79 L 177.19 326.99 L 172.42 328.09 L 167.66 329.02 L 162.94 329.74 L 158.28 330.23 L 153.69 330.47 L 149.17 330.50 L 144.68 330.30 L 140.18 329.83 L 135.59 329.05 L 130.88 327.93 L 126.09 326.45 L 121.40 324.69 L 116.95 322.70 L 112.82 320.55 L 108.98 318.24 L 105.39 315.76 L 102.00 313.12 L 98.79 310.30 L 95.74 307.30 L 92.86 304.11 L 90.12 300.71 L 87.54 297.06 L 85.08 293.10 L 82.75 288.79 L 80.61 284.18 L 78.74 279.40 L 77.21 274.56 L 76.02 269.63 L 75.17 264.46 L 74.66 259.00 L 74.51 253.33 L 74.71 247.67 L 75.26 242.26 L 76.10 237.24 L 77.19 232.59 L 78.55 228.22 L 80.21 223.95 L 82.23 219.66 L 84.68 215.23 L 87.61 210.69 L 90.96 206.14 L 94.61 201.80 L 98.43 197.81 L 102.34 194.24 L 106.37 191.02 L 110.58 188.02 L 114.96 185.18 L 119.36 182.50 L 123.64 180.00 L 127.72 177.65 L 131.65 175.41 L 135.50 173.23 L 139.33 171.08 L 143.17 168.94 L 147.04 166.80 L 150.92 164.65 L 154.80 162.50 L 158.62 160.29 L 162.35 157.97 L 165.93 155.46 L 169.29 152.71 L 172.37 149.69 L 175.10 146.40 L 177.43 142.85 L 179.37 139.07 L 180.94 135.12 L 182.21 131.03 L 183.24 126.86 L 184.16 122.62 L 185.04 118.36 L 185.92 114.09 L 186.84 109.82 L 187.80 105.56 L 188.84 101.33 L 189.99 97.13 L 191.26 92.99 L 192.67 88.90 L 194.23 84.86 L 195.94 80.86 L 197.79 76.91 L 199.79 73.04 L 201.93 69.23 L 204.21 65.51 L 206.64 61.86 L 209.22 58.30 L 211.94 54.82 L 214.79 51.42 L 217.78 48.12 L 220.89 44.93 L 224.10 41.86 L 227.41 38.92 L 230.80 36.12 L 234.28 33.45 L 237.85 30.91 L 241.49 28.50 L 245.21 26.24 L 248.99 24.13 L 252.83 22.16 L 256.74 20.34 L 260.73 18.66 L 264.78 17.13 L 268.88 15.74 L 273.01 14.49 L 277.18 13.39 L 281.39 12.44 L 285.65 11.64 L 289.96 11.00 L 294.31 10.51 L 298.70 10.18 L 303.11 10.01 L 307.52 10.00 L 311.92 10.15 L 316.30 10.47 L 320.66 10.95 L 325.01 11.59 L 329.35 12.39 L 333.69 13.36 L 338.07 14.51 L 342.56 15.89 L 347.20 17.52 L 351.93 19.37 L 356.58 21.41 L 360.99 23.54 L 365.11 25.73 L 368.98 28.00 L 372.66 30.35 L 376.22 32.82 L 379.67 35.42 L 383.05 38.17 L 386.34 41.05 L 389.55 44.06 L 392.67 47.21 L 395.69 50.47 L 398.58 53.84 L 401.35 57.30 L 403.99 60.87 L 406.49 64.52 L 408.85 68.28 L 411.08 72.13 L 413.16 76.08 L 415.10 80.11 L 416.89 84.21 L 418.51 88.36 L 419.98 92.55 L 421.28 96.76 L 422.44 101.00 L 423.43 105.27 L 424.28 109.59 L 424.98 113.94 L 425.52 118.34 L 425.89 122.76 L 426.10 127.19 L 426.13 131.61 L 426.00 136.01 L 425.71 140.38 L 425.25 144.72 L 424.64 149.04 L 423.87 153.35 L 422.95 157.64 L 421.88 161.93 L 420.67 166.18 L 419.33 170.41 L 417.89 174.61 L 416.37 178.77 L 414.77 182.89 L 413.11 186.99 L 411.41 191.08 L 409.66 195.18 L 407.89 199.27 L 406.10 203.38 L 404.31 207.49 L 402.52 211.61 L 400.74 215.72 L 398.97 219.83 L 397.21 223.93 L 395.46 228.03 L 393.69 232.12 L 391.92 236.20 L 390.13 240.29 L 388.32 244.38 L 386.48 248.49 L 384.60 252.59 L 382.69 256.70 L 380.74 260.80 Z" />
</symbol>
<symbol id="bl3">
<path d="M 329.51 361.65 L 327.95 364.46 L 326.41 367.28 L 324.88 370.11 L 323.36 372.92 L 321.82 375.72 L 320.25 378.48 L 318.63 381.18 L 316.98 383.83 L 315.31 386.43 L 313.61 388.97 L 311.88 391.45 L 310.11 393.87 L 308.29 396.22 L 306.42 398.52 L 304.51 400.79 L 302.57 403.03 L 300.59 405.27 L 298.58 407.50 L 296.54 409.71 L 294.49 411.92 L 292.42 414.13 L 290.36 416.34 L 288.30 418.57 L 286.26 420.79 L 284.23 423.01 L 282.21 425.24 L 280.20 427.47 L 278.20 429.71 L 276.18 431.94 L 274.14 434.15 L 272.07 436.34 L 269.97 438.50 L 267.85 440.65 L 265.72 442.79 L 263.58 444.92 L 261.43 447.05 L 259.29 449.17 L 257.14 451.27 L 255.01 453.37 L 252.89 455.48 L 250.76 457.59 L 248.62 459.69 L 246.45 461.80 L 244.25 463.89 L 242.02 465.97 L 239.75 468.03 L 237.44 470.07 L 235.08 472.08 L 232.68 474.05 L 230.23 475.97 L 227.73 477.84 L 225.19 479.65 L 222.60 481.37 L 219.94 482.97 L 217.22 484.43 L 214.43 485.73 L 211.58 486.85 L 208.68 487.81 L 205.72 488.59 L 202.71 489.21 L 199.66 489.65 L 196.59 489.92 L 193.51 490.00 L 190.45 489.90 L 187.42 489.62 L 184.42 489.17 L 181.48 488.55 L 178.60 487.76 L 175.79 486.83 L 173.05 485.73 L 170.37 484.48 L 167.77 483.07 L 165.25 481.52 L 162.82 479.81 L 160.50 477.98 L 158.28 476.01 L 156.18 473.91 L 154.19 471.69 L 152.34 469.36 L 150.61 466.93 L 149.03 464.40 L 147.59 461.79 L 146.31 459.12 L 145.19 456.38 L 144.23 453.60 L 143.43 450.77 L 142.79 447.91 L 142.33 445.00 L 142.02 442.06 L 141.88 439.11 L 141.91 436.15 L 142.11 433.19 L 142.47 430.26 L 143.01 427.35 L 143.73 424.48 L 144.61 421.63 L 145.66 418.83 L 146.86 416.08 L 148.20 413.42 L 149.69 410.87 L 151.31 408.41 L 153.06 406.06 L 154.97 403.80 L 157.02 401.64 L 159.20 399.58 L 161.51 397.63 L 163.92 395.77 L 166.41 394.00 L 168.94 392.28 L 171.45 390.54 L 173.87 388.72 L 176.15 386.77 L 178.24 384.66 L 180.15 382.39 L 181.86 379.99 L 183.40 377.46 L 184.79 374.85 L 186.04 372.18 L 187.22 369.47 L 188.34 366.72 L 189.46 363.93 L 190.58 361.13 L 191.70 358.32 L 192.83 355.50 L 193.98 352.70 L 195.14 349.91 L 196.32 347.14 L 197.51 344.38 L 198.68 341.63 L 199.85 338.89 L 201.01 336.14 L 202.17 333.41 L 203.33 330.69 L 204.50 327.99 L 205.67 325.32 L 206.85 322.66 L 208.03 320.00 L 209.22 317.32 L 210.39 314.63 L 211.55 311.90 L 212.71 309.16 L 213.86 306.40 L 215.01 303.64 L 216.18 300.88 L 217.36 298.11 L 218.55 295.34 L 219.73 292.55 L 220.90 289.74 L 222.04 286.90 L 223.12 284.02 L 224.13 281.12 L 225.05 278.20 L 225.88 275.29 L 226.65 272.40 L 227.39 269.56 L 228.19 266.76 L 229.13 264.03 L 230.31 261.34 L 231.79 258.71 L 233.62 256.13 L 235.77 253.66 L 238.18 251.39 L 240.79 249.41 L 243.57 247.74 L 246.55 246.36 L 249.70 245.28 L 252.94 244.52 L 256.21 244.12 L 259.52 244.06 L 262.97 244.34 L 266.60 244.91 L 270.42 245.71 L 274.38 246.62 L 278.40 247.53 L 282.43 248.37 L 286.42 249.09 L 290.28 249.67 L 293.94 250.12 L 297.34 250.44 L 300.52 250.66 L 303.54 250.77 L 306.48 250.79 L 309.39 250.73 L 312.29 250.58 L 315.21 250.38 L 318.17 250.15 L 321.17 249.95 L 324.23 249.82 L 327.33 249.82 L 330.44 250.01 L 333.51 250.43 L 336.54 251.09 L 339.48 252.00 L 342.33 253.14 L 345.07 254.51 L 347.67 256.08 L 350.13 257.84 L 352.43 259.79 L 354.55 261.91 L 356.50 264.18 L 358.25 266.59 L 359.80 269.13 L 361.13 271.78 L 362.25 274.53 L 363.15 277.37 L 363.83 280.28 L 364.27 283.26 L 364.48 286.28 L 364.43 289.33 L 364.14 292.38 L 363.61 295.41 L 362.85 298.39 L 361.88 301.31 L 360.74 304.16 L 359.46 306.94 L 358.08 309.66 L 356.64 312.34 L 355.16 314.99 L 353.68 317.64 L 352.18 320.30 L 350.69 322.97 L 349.20 325.66 L 347.70 328.36 L 346.19 331.09 L 344.68 333.82 L 343.18 336.57 L 341.69 339.33 L 340.21 342.10 L 338.74 344.88 L 337.25 347.68 L 335.75 350.47 L 334.22 353.27 L 332.66 356.07 L 331.09 358.86 Z" />
</symbol>
</defs>
<!-- isDone: 0 -->
<rect width="700" height="500" style="fill:#fff;stroke-width:0" />
<use class="p0 borderLine" xlink:href="#bl0"/>
<use class="p1 borderLine" xlink:href="#bl1"/>
<use class="p2 borderLine" xlink:href="#bl2"/>
<use class="p3 borderLine" xlink:href="#bl3"/>
<use class="q0 outLine" xlink:href="#bl0"/>
<use class="q1 outLine" xlink:href="#bl1"/>
<use class="q2 outLine" xlink:href="#bl2"/>
<use class="q3 outLine" xlink:href="#bl3"/>
<circle onclick="fromCircle(8)" class="circle" cx="147.6217" cy="126.3873" r="29.6808" />
<text class="nLabel" x="147.62" y="121.39">44</text>
<text class="belong" x="147.62" y="131.39">(1)</text>
<circle onclick="fromCircle(12)" class="circle" cx="153.9603" cy="362.8716" r="27.9435" />
<text class="nLabel" x="153.96" y="357.87">39</text>
<text class="belong" x="153.96" y="367.87">(1, 2)</text>
<circle onclick="fromCircle(14)" class="circle" cx="151.2850" cy="253.6085" r="72.5649" />
<text class="nLabel" x="151.29" y="248.61">263</text>
<text class="belong" x="151.29" y="258.61">(1, 2, 3)</text>
<circle onclick="fromCircle(15)" class="circle" cx="258.3929" cy="275.4727" r="26.8473" />
<text class="nLabel" x="258.39" y="270.47">36</text>
<text class="belong" x="258.39" y="280.47">(1, 2, 3, 4)</text>
<circle onclick="fromCircle(10)" class="circle" cx="305.9809" cy="129.7847" r="115.5611" />
<text class="nLabel" x="305.98" y="124.78">667</text>
<text class="belong" x="305.98" y="134.78">(1, 3)</text>
<circle onclick="fromCircle(11)" class="circle" cx="326.9899" cy="287.4159" r="32.8811" />
<text class="nLabel" x="326.99" y="282.42">54</text>
<text class="belong" x="326.99" y="292.42">(1, 3, 4)</text>
<circle onclick="fromCircle(9)" class="circle" cx="193.6959" cy="438.5814" r="46.9294" />
<text class="nLabel" x="193.70" y="433.58">110</text>
<text class="belong" x="193.70" y="443.58">(1, 4)</text>
<circle onclick="fromCircle(13)" class="circle" cx="266.2047" cy="359.7745" r="50.6237" />
<text class="nLabel" x="266.20" y="354.77">128</text>
<text class="belong" x="266.20" y="364.77">(1, 2, 4)</text>
<g id="legendBox">
<rect class="p0 borderLine" x="500.00" y="50.00" width="30.00" height="15.00" />
<rect class="q0" x="500.00" y="50.00" width="30.00" height="15.00" />
<text class="legend" x="540.00" y="65.00">All Sig Genes</text>
<rect class="p1 borderLine" x="500.00" y="90.00" width="30.00" height="15.00" />
<rect class="q1" x="500.00" y="90.00" width="30.00" height="15.00" />
<text class="legend" x="540.00" y="105.00">Build Issue</text>
<rect class="p2 borderLine" x="500.00" y="130.00" width="30.00" height="15.00" />
<rect class="q2" x="500.00" y="130.00" width="30.00" height="15.00" />
<text class="legend" x="540.00" y="145.00">Annotation Change</text>
<rect class="p3 borderLine" x="500.00" y="170.00" width="30.00" height="15.00" />
<rect class="q3" x="500.00" y="170.00" width="30.00" height="15.00" />
<text class="legend" x="540.00" y="185.00">Build Change</text>
</g>
</svg>
