<svg xmlns="http://www.w3.org/2000/svg" xmlns:xlink="http://www.w3.org/1999/xlink" width="700" height="500">
<defs>
<style type="text/css"><![CDATA[
  .borderLine {
	   stroke: none;
	   fill-opacity:  0.2 ;
  }
  .outLine {
	   stroke-width:  2 ;
	   fill: none;
  }
  .circle {
	   stroke: #888888;
	   stroke-width: 0.5;
	   fill: none;
    pointer-events: all;
  }
  .nLabel {
	   font-family: Arial;
    pointer-events: none;
	   font-size: 20px;
	   text-anchor: middle;
	   alignment-baseline: central;
  }
  .belong { 
 display: none;
	   font-family: Arial;
    pointer-events: none;
	   font-size: 10px;
	   text-anchor: middle;
	   alignment-baseline: central;
  }
  .legend {
    font-family: Arial;
    font-size: 15px;
  }
  #legendBox {
    display:  inline ;
  }
  .p0{
    stroke: none;
    fill:  #f3f3f3 ;
  }
  .q0{
    fill: none;
    stroke:  #f3f3f3 ;
  }
  .p1{
    stroke: none;
    fill:  #f4acca ;
  }
  .q1{
    fill: none;
    stroke:  #f4acca ;
  }
  .p2{
    stroke: none;
    fill:  #ffff58 ;
  }
  .q2{
    fill: none;
    stroke:  #ffff58 ;
  }
  .p3{
    stroke: none;
    fill:  #8cdab8 ;
  }
  .q3{
    fill: none;
    stroke:  #8cdab8 ;
  }
  .p4{
    stroke: none;
    fill:  #2cb3da ;
  }
  .q4{
    fill: none;
    stroke:  #2cb3da ;
  }
]]>
</style>
<symbol id="bl0">
<path d="M 448.49 321.95 L 445.67 323.99 L 442.82 326.00 L 439.97 327.99 L 437.10 329.96 L 434.23 331.93 L 431.35 333.89 L 428.48 335.85 L 425.60 337.82 L 422.72 339.78 L 419.84 341.74 L 416.96 343.70 L 414.09 345.66 L 411.21 347.62 L 408.33 349.58 L 405.45 351.54 L 402.57 353.49 L 399.69 355.45 L 396.82 357.42 L 393.94 359.38 L 391.06 361.34 L 388.18 363.31 L 385.30 365.27 L 382.41 367.23 L 379.53 369.19 L 376.65 371.14 L 373.76 373.10 L 370.87 375.05 L 367.97 376.99 L 365.05 378.92 L 362.11 380.82 L 359.14 382.67 L 356.14 384.48 L 353.12 386.24 L 350.08 387.93 L 347.03 389.59 L 343.96 391.20 L 340.89 392.78 L 337.80 394.33 L 334.69 395.83 L 331.52 397.24 L 328.29 398.50 L 324.97 399.58 L 321.56 400.42 L 318.08 401.01 L 314.56 401.34 L 311.03 401.45 L 307.52 401.39 L 304.02 401.21 L 300.53 400.95 L 297.05 400.66 L 293.57 400.34 L 290.10 400.02 L 286.62 399.69 L 283.15 399.37 L 279.68 399.04 L 276.20 398.71 L 272.73 398.38 L 269.26 398.04 L 265.79 397.71 L 262.31 397.38 L 258.84 397.05 L 255.37 396.72 L 251.89 396.39 L 248.42 396.06 L 244.95 395.73 L 241.48 395.40 L 238.00 395.07 L 234.53 394.73 L 231.06 394.39 L 227.59 394.04 L 224.13 393.66 L 220.67 393.25 L 217.21 392.79 L 213.77 392.25 L 210.35 391.62 L 206.95 390.88 L 203.57 390.03 L 200.24 389.05 L 196.93 387.96 L 193.66 386.77 L 190.42 385.49 L 187.21 384.14 L 184.03 382.73 L 180.85 381.29 L 177.69 379.83 L 174.53 378.36 L 171.37 376.88 L 168.21 375.40 L 165.06 373.92 L 161.90 372.44 L 158.75 370.96 L 155.59 369.47 L 152.44 367.98 L 149.28 366.50 L 146.13 365.01 L 142.97 363.53 L 139.82 362.05 L 136.67 360.57 L 133.51 359.09 L 130.36 357.61 L 127.20 356.13 L 124.05 354.64 L 120.89 353.16 L 117.74 351.67 L 114.59 350.18 L 111.43 348.70 L 108.28 347.22 L 105.13 345.73 L 101.97 344.25 L 98.82 342.77 L 95.67 341.29 L 92.51 339.81 L 89.36 338.33 L 86.21 336.84 L 83.06 335.36 L 79.90 333.87 L 76.75 332.39 L 73.60 330.90 L 70.45 329.41 L 67.30 327.92 L 64.15 326.44 L 61.01 324.94 L 57.87 323.44 L 54.74 321.91 L 51.63 320.34 L 48.56 318.71 L 45.54 317.00 L 42.57 315.19 L 39.69 313.27 L 36.89 311.22 L 34.19 309.04 L 31.61 306.74 L 29.14 304.30 L 26.81 301.75 L 24.60 299.08 L 22.53 296.30 L 20.60 293.42 L 18.82 290.45 L 17.20 287.39 L 15.73 284.25 L 14.42 281.05 L 13.28 277.78 L 12.30 274.45 L 11.50 271.08 L 10.86 267.68 L 10.40 264.24 L 10.11 260.79 L 10.00 257.33 L 10.06 253.86 L 10.30 250.40 L 10.72 246.96 L 11.30 243.55 L 12.06 240.16 L 12.98 236.82 L 14.06 233.52 L 15.29 230.28 L 16.65 227.08 L 18.11 223.92 L 19.65 220.79 L 21.24 217.69 L 22.87 214.60 L 24.52 211.53 L 26.17 208.46 L 27.83 205.39 L 29.50 202.32 L 31.16 199.25 L 32.83 196.19 L 34.50 193.12 L 36.16 190.05 L 37.83 186.99 L 39.49 183.92 L 41.16 180.85 L 42.83 177.79 L 44.49 174.72 L 46.16 171.66 L 47.83 168.59 L 49.50 165.52 L 51.16 162.46 L 52.83 159.39 L 54.50 156.32 L 56.17 153.26 L 57.83 150.19 L 59.50 147.13 L 61.17 144.06 L 62.84 140.99 L 64.51 137.93 L 66.19 134.87 L 67.88 131.81 L 69.58 128.77 L 71.34 125.76 L 73.16 122.80 L 75.07 119.91 L 77.12 117.11 L 79.31 114.43 L 81.66 111.90 L 84.16 109.53 L 86.82 107.34 L 89.63 105.34 L 92.57 103.55 L 95.63 101.97 L 98.80 100.62 L 102.06 99.49 L 105.38 98.60 L 108.76 97.93 L 112.19 97.49 L 115.64 97.26 L 119.10 97.22 L 122.56 97.34 L 126.03 97.57 L 129.50 97.89 L 132.96 98.26 L 136.42 98.66 L 139.89 99.07 L 143.35 99.48 L 146.81 99.90 L 150.27 100.32 L 153.74 100.74 L 157.20 101.15 L 160.67 101.57 L 164.13 101.99 L 167.59 102.41 L 171.06 102.83 L 174.52 103.25 L 177.99 103.67 L 181.45 104.09 L 184.91 104.50 L 188.38 104.92 L 191.84 105.34 L 195.31 105.76 L 198.77 106.18 L 202.24 106.60 L 205.70 107.02 L 209.17 107.44 L 212.63 107.86 L 216.10 108.28 L 219.56 108.70 L 223.03 109.12 L 226.49 109.54 L 229.96 109.96 L 233.42 110.38 L 236.89 110.80 L 240.35 111.22 L 243.82 111.64 L 247.29 112.06 L 250.75 112.48 L 254.22 112.90 L 257.68 113.32 L 261.15 113.74 L 264.61 114.16 L 268.08 114.59 L 271.55 115.01 L 275.01 115.43 L 278.48 115.86 L 281.94 116.28 L 285.41 116.70 L 288.87 117.12 L 292.34 117.54 L 295.80 117.96 L 299.27 118.39 L 302.73 118.82 L 306.20 119.27 L 309.66 119.74 L 313.12 120.25 L 316.57 120.82 L 320.01 121.47 L 323.43 122.20 L 326.83 123.02 L 330.20 123.92 L 333.55 124.89 L 336.88 125.90 L 340.21 126.95 L 343.52 128.01 L 346.84 129.09 L 350.15 130.16 L 353.47 131.24 L 356.78 132.32 L 360.09 133.39 L 363.40 134.47 L 366.71 135.54 L 370.02 136.62 L 373.34 137.69 L 376.65 138.77 L 379.96 139.85 L 383.27 140.93 L 386.58 142.01 L 389.89 143.09 L 393.20 144.16 L 396.51 145.24 L 399.82 146.32 L 403.13 147.40 L 406.44 148.47 L 409.75 149.55 L 413.05 150.64 L 416.36 151.73 L 419.66 152.85 L 422.94 154.00 L 426.21 155.19 L 429.45 156.46 L 432.65 157.80 L 435.81 159.23 L 438.93 160.77 L 441.98 162.42 L 444.97 164.17 L 447.90 166.03 L 450.76 168.00 L 453.54 170.07 L 456.24 172.24 L 458.87 174.52 L 461.40 176.88 L 463.84 179.34 L 466.19 181.90 L 468.45 184.53 L 470.61 187.25 L 472.66 190.05 L 474.61 192.92 L 476.46 195.86 L 478.19 198.87 L 479.81 201.94 L 481.31 205.07 L 482.70 208.25 L 483.96 211.48 L 485.11 214.75 L 486.13 218.07 L 487.03 221.42 L 487.81 224.80 L 488.46 228.21 L 488.99 231.64 L 489.38 235.09 L 489.65 238.55 L 489.79 242.02 L 489.80 245.49 L 489.68 248.96 L 489.43 252.42 L 489.05 255.87 L 488.55 259.31 L 487.92 262.72 L 487.16 266.11 L 486.28 269.46 L 485.28 272.78 L 484.14 276.07 L 482.90 279.30 L 481.53 282.49 L 480.04 285.63 L 478.44 288.71 L 476.73 291.72 L 474.90 294.67 L 472.97 297.56 L 470.93 300.37 L 468.79 303.10 L 466.55 305.75 L 464.21 308.31 L 461.79 310.79 L 459.27 313.18 L 456.67 315.49 L 454.00 317.71 L 451.27 319.86 Z" />
</symbol>
<symbol id="bl1">
<path d="M 458.49 313.88 L 455.82 316.20 L 453.07 318.44 L 450.27 320.61 L 447.42 322.72 L 444.54 324.78 L 441.63 326.81 L 438.71 328.83 L 435.78 330.83 L 432.85 332.83 L 429.92 334.83 L 426.99 336.83 L 424.05 338.82 L 421.12 340.82 L 418.19 342.82 L 415.25 344.82 L 412.32 346.81 L 409.38 348.80 L 406.45 350.80 L 403.51 352.79 L 400.57 354.79 L 397.64 356.78 L 394.70 358.78 L 391.77 360.78 L 388.83 362.78 L 385.89 364.78 L 382.96 366.77 L 380.02 368.76 L 377.08 370.75 L 374.14 372.74 L 371.18 374.71 L 368.22 376.65 L 365.22 378.52 L 362.19 380.26 L 359.09 381.76 L 355.93 382.92 L 352.70 383.64 L 349.41 383.87 L 346.09 383.64 L 342.76 383.03 L 339.43 382.17 L 336.13 381.16 L 332.83 380.11 L 329.51 379.12 L 326.14 378.28 L 322.70 377.68 L 319.20 377.35 L 315.65 377.31 L 312.08 377.52 L 308.52 377.93 L 304.98 378.50 L 301.46 379.16 L 297.96 379.88 L 294.47 380.63 L 290.99 381.39 L 287.50 382.16 L 284.02 382.93 L 280.54 383.70 L 277.06 384.48 L 273.58 385.25 L 270.10 386.02 L 266.62 386.79 L 263.14 387.56 L 259.66 388.32 L 256.18 389.08 L 252.70 389.81 L 249.21 390.52 L 245.71 391.18 L 242.20 391.78 L 238.68 392.28 L 235.14 392.67 L 231.60 392.93 L 228.06 393.05 L 224.51 393.04 L 220.96 392.88 L 217.43 392.58 L 213.91 392.14 L 210.41 391.56 L 206.94 390.83 L 203.50 389.97 L 200.09 388.97 L 196.72 387.86 L 193.39 386.63 L 190.08 385.31 L 186.81 383.92 L 183.55 382.48 L 180.31 381.00 L 177.08 379.51 L 173.85 378.01 L 170.62 376.50 L 167.40 374.99 L 164.18 373.47 L 160.96 371.96 L 157.73 370.44 L 154.51 368.92 L 151.29 367.41 L 148.07 365.89 L 144.85 364.37 L 141.62 362.86 L 138.40 361.35 L 135.18 359.84 L 131.96 358.32 L 128.74 356.81 L 125.51 355.29 L 122.29 353.77 L 119.07 352.26 L 115.85 350.74 L 112.63 349.22 L 109.41 347.71 L 106.19 346.19 L 102.97 344.68 L 99.75 343.17 L 96.53 341.66 L 93.31 340.14 L 90.09 338.63 L 86.87 337.11 L 83.65 335.59 L 80.43 334.07 L 77.21 332.56 L 74.00 331.04 L 70.78 329.52 L 67.56 328.00 L 64.35 326.48 L 61.13 324.95 L 57.93 323.41 L 54.73 321.85 L 51.56 320.24 L 48.43 318.58 L 45.34 316.83 L 42.32 314.98 L 39.38 313.01 L 36.53 310.90 L 33.80 308.66 L 31.18 306.29 L 28.69 303.78 L 26.33 301.15 L 24.11 298.39 L 22.03 295.53 L 20.11 292.57 L 18.34 289.51 L 16.73 286.36 L 15.29 283.14 L 14.01 279.84 L 12.91 276.48 L 11.98 273.07 L 11.23 269.61 L 10.66 266.12 L 10.27 262.61 L 10.07 259.08 L 10.04 255.54 L 10.20 252.01 L 10.54 248.49 L 11.06 244.99 L 11.76 241.53 L 12.65 238.10 L 13.70 234.73 L 14.93 231.41 L 16.33 228.16 L 17.90 224.99 L 19.62 221.91 L 21.51 218.92 L 23.54 216.03 L 25.73 213.25 L 28.05 210.59 L 30.51 208.05 L 33.10 205.64 L 35.80 203.37 L 38.63 201.24 L 41.55 199.26 L 44.58 197.43 L 47.69 195.76 L 50.89 194.26 L 54.16 192.93 L 57.50 191.77 L 60.89 190.78 L 64.33 189.96 L 67.81 189.33 L 71.31 188.88 L 74.83 188.61 L 78.37 188.52 L 81.90 188.62 L 85.43 188.88 L 88.94 189.31 L 92.43 189.88 L 95.91 190.54 L 99.37 191.25 L 102.83 191.92 L 106.28 192.51 L 109.75 192.96 L 113.21 193.22 L 116.68 193.28 L 120.14 193.11 L 123.58 192.72 L 127.00 192.14 L 130.40 191.38 L 133.77 190.50 L 137.12 189.53 L 140.46 188.50 L 143.79 187.47 L 147.13 186.48 L 150.50 185.58 L 153.89 184.83 L 157.31 184.30 L 160.74 184.06 L 164.17 184.15 L 167.57 184.60 L 170.93 185.43 L 174.22 186.59 L 177.45 188.02 L 180.62 189.62 L 183.76 191.28 L 186.90 192.92 L 190.04 194.49 L 193.19 195.99 L 196.34 197.45 L 199.50 198.87 L 202.66 200.28 L 205.82 201.68 L 208.98 203.08 L 212.15 204.48 L 215.31 205.87 L 218.47 207.27 L 221.64 208.66 L 224.80 210.06 L 227.97 211.46 L 231.13 212.85 L 234.30 214.24 L 237.48 215.63 L 240.67 217.00 L 243.88 218.34 L 247.14 219.63 L 250.46 220.83 L 253.84 221.89 L 257.29 222.75 L 260.80 223.36 L 264.34 223.65 L 267.89 223.61 L 271.41 223.20 L 274.88 222.43 L 278.25 221.31 L 281.51 219.86 L 284.65 218.12 L 287.66 216.15 L 290.56 213.98 L 293.37 211.69 L 296.12 209.31 L 298.81 206.87 L 301.49 204.40 L 304.15 201.92 L 306.80 199.43 L 309.44 196.94 L 312.09 194.45 L 314.75 191.96 L 317.40 189.47 L 320.06 186.97 L 322.73 184.48 L 325.42 181.98 L 328.16 179.49 L 330.94 177.02 L 333.77 174.57 L 336.66 172.19 L 339.58 169.90 L 342.54 167.72 L 345.54 165.68 L 348.57 163.77 L 351.66 161.99 L 354.80 160.34 L 358.00 158.82 L 361.25 157.42 L 364.55 156.15 L 367.90 155.01 L 371.28 153.99 L 374.71 153.10 L 378.16 152.35 L 381.64 151.72 L 385.14 151.23 L 388.66 150.87 L 392.18 150.65 L 395.72 150.55 L 399.25 150.59 L 402.79 150.77 L 406.31 151.08 L 409.81 151.52 L 413.30 152.10 L 416.76 152.80 L 420.20 153.64 L 423.60 154.61 L 426.96 155.70 L 430.27 156.92 L 433.54 158.27 L 436.76 159.74 L 439.92 161.32 L 443.01 163.03 L 446.04 164.86 L 449.00 166.79 L 451.88 168.84 L 454.68 170.99 L 457.40 173.25 L 460.03 175.61 L 462.57 178.07 L 465.01 180.62 L 467.36 183.26 L 469.61 185.99 L 471.75 188.81 L 473.78 191.70 L 475.70 194.67 L 477.51 197.71 L 479.21 200.81 L 480.78 203.98 L 482.23 207.20 L 483.56 210.48 L 484.77 213.80 L 485.85 217.17 L 486.80 220.57 L 487.62 224.01 L 488.31 227.48 L 488.87 230.97 L 489.29 234.48 L 489.59 238.01 L 489.75 241.54 L 489.77 245.08 L 489.67 248.61 L 489.43 252.14 L 489.06 255.66 L 488.55 259.15 L 487.92 262.63 L 487.15 266.08 L 486.25 269.50 L 485.22 272.89 L 484.07 276.23 L 482.79 279.53 L 481.38 282.77 L 479.86 285.96 L 478.21 289.09 L 476.45 292.16 L 474.57 295.16 L 472.58 298.08 L 470.48 300.92 L 468.28 303.69 L 465.97 306.37 L 463.57 308.96 L 461.08 311.46 Z" />
</symbol>
<symbol id="bl2">
<path d="M 337.14 366.79 L 335.64 368.49 L 333.96 370.01 L 332.10 371.32 L 330.10 372.43 L 327.99 373.33 L 325.79 374.04 L 323.53 374.60 L 321.22 375.05 L 318.88 375.47 L 316.53 375.89 L 314.16 376.33 L 311.79 376.81 L 309.42 377.31 L 307.05 377.82 L 304.68 378.34 L 302.31 378.86 L 299.94 379.39 L 297.57 379.92 L 295.20 380.45 L 292.83 380.98 L 290.46 381.51 L 288.09 382.04 L 285.72 382.57 L 283.35 383.10 L 280.98 383.62 L 278.61 384.15 L 276.24 384.68 L 273.86 385.21 L 271.49 385.74 L 269.12 386.27 L 266.75 386.80 L 264.38 387.33 L 262.01 387.86 L 259.64 388.39 L 257.27 388.91 L 254.90 389.43 L 252.53 389.95 L 250.15 390.46 L 247.78 390.95 L 245.40 391.43 L 243.01 391.86 L 240.62 392.26 L 238.22 392.60 L 235.81 392.88 L 233.40 393.10 L 230.98 393.25 L 228.56 393.34 L 226.13 393.36 L 223.71 393.31 L 221.29 393.20 L 218.87 393.02 L 216.47 392.78 L 214.06 392.47 L 211.67 392.09 L 209.29 391.65 L 206.92 391.14 L 204.57 390.57 L 202.23 389.92 L 199.91 389.22 L 197.62 388.45 L 195.34 387.61 L 193.09 386.71 L 190.87 385.76 L 188.67 384.74 L 186.50 383.66 L 184.36 382.53 L 182.25 381.33 L 180.18 380.07 L 178.15 378.76 L 176.15 377.39 L 174.19 375.97 L 172.26 374.50 L 170.39 372.96 L 168.55 371.38 L 166.76 369.76 L 165.01 368.08 L 163.31 366.35 L 161.66 364.57 L 160.06 362.76 L 158.51 360.90 L 157.02 358.99 L 155.57 357.05 L 154.18 355.07 L 152.85 353.05 L 151.57 350.98 L 150.35 348.89 L 149.19 346.77 L 148.08 344.61 L 147.04 342.42 L 146.06 340.21 L 145.14 337.96 L 144.28 335.70 L 143.48 333.41 L 142.75 331.10 L 142.09 328.77 L 141.48 326.43 L 140.94 324.07 L 140.47 321.69 L 140.06 319.30 L 139.72 316.90 L 139.45 314.49 L 139.25 312.08 L 139.11 309.66 L 139.04 307.24 L 139.03 304.82 L 139.10 302.39 L 139.22 299.97 L 139.42 297.56 L 139.69 295.15 L 140.03 292.74 L 140.44 290.34 L 140.93 287.93 L 141.48 285.53 L 142.09 283.11 L 142.75 280.68 L 143.43 278.26 L 144.09 275.85 L 144.71 273.47 L 145.27 271.10 L 145.75 268.74 L 146.15 266.38 L 146.46 264.03 L 146.67 261.67 L 146.81 259.30 L 146.85 256.93 L 146.82 254.57 L 146.70 252.20 L 146.50 249.84 L 146.22 247.49 L 145.86 245.15 L 145.42 242.82 L 144.90 240.51 L 144.29 238.22 L 143.61 235.95 L 142.85 233.70 L 142.01 231.46 L 141.10 229.22 L 140.14 226.99 L 139.17 224.75 L 138.24 222.48 L 137.39 220.20 L 136.68 217.89 L 136.14 215.55 L 135.79 213.19 L 135.65 210.83 L 135.71 208.46 L 135.98 206.12 L 136.45 203.80 L 137.11 201.53 L 137.95 199.31 L 138.95 197.16 L 140.09 195.07 L 141.34 193.03 L 142.67 191.04 L 144.05 189.08 L 145.48 187.15 L 146.92 185.24 L 148.37 183.32 L 149.82 181.41 L 151.26 179.49 L 152.68 177.56 L 154.07 175.60 L 155.41 173.62 L 156.70 171.60 L 157.92 169.54 L 159.04 167.43 L 160.08 165.28 L 161.01 163.08 L 161.84 160.83 L 162.57 158.56 L 163.22 156.26 L 163.83 153.95 L 164.41 151.64 L 165.02 149.37 L 165.69 147.13 L 166.45 144.94 L 167.32 142.82 L 168.31 140.76 L 169.41 138.77 L 170.64 136.85 L 171.97 135.01 L 173.42 133.25 L 174.96 131.58 L 176.61 130.01 L 178.34 128.54 L 180.17 127.17 L 182.07 125.92 L 184.04 124.79 L 186.07 123.77 L 188.17 122.88 L 190.31 122.11 L 192.49 121.48 L 194.71 120.97 L 196.96 120.60 L 199.22 120.37 L 201.49 120.27 L 203.77 120.31 L 206.03 120.48 L 208.29 120.79 L 210.52 121.23 L 212.72 121.80 L 214.89 122.50 L 217.02 123.31 L 219.11 124.22 L 221.17 125.21 L 223.20 126.28 L 225.21 127.38 L 227.20 128.51 L 229.19 129.66 L 231.18 130.81 L 233.16 131.97 L 235.15 133.13 L 237.13 134.29 L 239.11 135.45 L 241.10 136.61 L 243.08 137.77 L 245.06 138.93 L 247.05 140.09 L 249.03 141.25 L 251.02 142.41 L 253.00 143.56 L 254.98 144.72 L 256.97 145.88 L 258.95 147.04 L 260.93 148.20 L 262.91 149.36 L 264.90 150.52 L 266.88 151.68 L 268.86 152.84 L 270.85 154.00 L 272.83 155.16 L 274.81 156.33 L 276.79 157.50 L 278.75 158.68 L 280.71 159.90 L 282.63 161.16 L 284.51 162.49 L 286.34 163.90 L 288.11 165.43 L 289.80 167.07 L 291.40 168.83 L 292.89 170.69 L 294.25 172.64 L 295.47 174.65 L 296.54 176.71 L 297.46 178.83 L 298.22 180.99 L 298.83 183.19 L 299.32 185.42 L 299.68 187.68 L 299.95 189.96 L 300.15 192.25 L 300.30 194.55 L 300.43 196.85 L 300.54 199.15 L 300.64 201.45 L 300.73 203.75 L 300.83 206.05 L 300.92 208.35 L 301.01 210.66 L 301.11 212.96 L 301.20 215.26 L 301.30 217.57 L 301.39 219.87 L 301.49 222.17 L 301.58 224.47 L 301.68 226.78 L 301.77 229.08 L 301.86 231.38 L 301.96 233.68 L 302.05 235.98 L 302.15 238.29 L 302.25 240.59 L 302.36 242.89 L 302.48 245.19 L 302.62 247.49 L 302.79 249.79 L 302.99 252.09 L 303.24 254.38 L 303.54 256.66 L 303.90 258.95 L 304.33 261.24 L 304.83 263.54 L 305.42 265.87 L 306.08 268.21 L 306.80 270.56 L 307.57 272.89 L 308.37 275.17 L 309.16 277.38 L 309.96 279.52 L 310.77 281.61 L 311.59 283.66 L 312.45 285.71 L 313.34 287.76 L 314.25 289.81 L 315.18 291.87 L 316.12 293.93 L 317.06 296.00 L 318.00 298.07 L 318.95 300.13 L 319.90 302.19 L 320.84 304.25 L 321.79 306.31 L 322.73 308.38 L 323.68 310.45 L 324.63 312.51 L 325.57 314.58 L 326.52 316.64 L 327.47 318.70 L 328.41 320.76 L 329.35 322.83 L 330.30 324.89 L 331.25 326.96 L 332.19 329.03 L 333.14 331.10 L 334.08 333.16 L 335.02 335.23 L 335.95 337.29 L 336.87 339.36 L 337.76 341.43 L 338.60 343.51 L 339.36 345.60 L 340.03 347.71 L 340.57 349.85 L 340.95 352.01 L 341.14 354.21 L 341.10 356.42 L 340.81 358.63 L 340.27 360.81 L 339.47 362.92 L 338.42 364.92 Z" />
</symbol>
<symbol id="bl3">
<path d="M 410.67 339.69 L 408.18 340.71 L 405.68 341.73 L 403.18 342.75 L 400.69 343.77 L 398.20 344.79 L 395.70 345.81 L 393.21 346.82 L 390.71 347.84 L 388.22 348.86 L 385.72 349.88 L 383.23 350.90 L 380.73 351.92 L 378.24 352.94 L 375.74 353.95 L 373.24 354.96 L 370.75 355.96 L 368.25 356.93 L 365.74 357.84 L 363.23 358.65 L 360.72 359.32 L 358.19 359.81 L 355.67 360.15 L 353.16 360.43 L 350.70 360.76 L 348.30 361.28 L 345.96 362.08 L 343.67 363.18 L 341.40 364.55 L 339.10 366.12 L 336.72 367.79 L 334.23 369.46 L 331.60 371.01 L 328.82 372.36 L 325.92 373.48 L 322.92 374.38 L 319.86 375.10 L 316.78 375.72 L 313.70 376.29 L 310.64 376.86 L 307.59 377.46 L 304.56 378.09 L 301.54 378.75 L 298.53 379.42 L 295.52 380.10 L 292.50 380.78 L 289.49 381.46 L 286.48 382.14 L 283.47 382.83 L 280.46 383.51 L 277.45 384.20 L 274.44 384.88 L 271.43 385.57 L 268.42 386.25 L 265.41 386.93 L 262.40 387.62 L 259.39 388.29 L 256.38 388.97 L 253.37 389.64 L 250.35 390.29 L 247.34 390.91 L 244.31 391.49 L 241.27 392.01 L 238.23 392.45 L 235.17 392.79 L 232.11 393.04 L 229.03 393.18 L 225.96 393.21 L 222.89 393.13 L 219.82 392.95 L 216.76 392.66 L 213.72 392.26 L 210.69 391.75 L 207.67 391.14 L 204.68 390.42 L 201.72 389.60 L 198.79 388.67 L 195.89 387.65 L 193.04 386.52 L 190.22 385.29 L 187.45 383.96 L 184.72 382.54 L 182.05 381.02 L 179.44 379.41 L 176.88 377.71 L 174.38 375.92 L 171.95 374.04 L 169.59 372.08 L 167.30 370.03 L 165.07 367.91 L 162.93 365.71 L 160.86 363.43 L 158.88 361.09 L 156.98 358.68 L 155.16 356.20 L 153.43 353.65 L 151.80 351.05 L 150.25 348.40 L 148.80 345.69 L 147.45 342.93 L 146.19 340.12 L 145.04 337.28 L 143.98 334.39 L 143.03 331.47 L 142.18 328.51 L 141.43 325.53 L 140.80 322.53 L 140.26 319.50 L 139.84 316.45 L 139.52 313.39 L 139.30 310.33 L 139.20 307.26 L 139.20 304.18 L 139.32 301.11 L 139.55 298.04 L 139.88 294.98 L 140.34 291.92 L 140.91 288.87 L 141.59 285.81 L 142.39 282.75 L 143.30 279.69 L 144.32 276.65 L 145.43 273.65 L 146.65 270.70 L 147.96 267.81 L 149.37 264.98 L 150.88 262.22 L 152.49 259.53 L 154.19 256.89 L 155.99 254.33 L 157.88 251.83 L 159.86 249.40 L 161.93 247.05 L 164.07 244.79 L 166.28 242.61 L 168.55 240.53 L 170.84 238.56 L 173.15 236.69 L 175.44 234.90 L 177.72 233.15 L 179.97 231.41 L 182.19 229.63 L 184.39 227.78 L 186.57 225.86 L 188.74 223.88 L 190.90 221.86 L 193.06 219.81 L 195.21 217.76 L 197.37 215.70 L 199.52 213.64 L 201.68 211.58 L 203.83 209.52 L 205.98 207.46 L 208.13 205.40 L 210.29 203.34 L 212.44 201.28 L 214.59 199.21 L 216.74 197.15 L 218.89 195.08 L 221.02 193.00 L 223.14 190.90 L 225.23 188.76 L 227.28 186.57 L 229.26 184.31 L 231.16 181.95 L 232.99 179.51 L 234.75 177.02 L 236.47 174.54 L 238.19 172.12 L 239.96 169.83 L 241.79 167.70 L 243.71 165.74 L 245.72 163.91 L 247.80 162.18 L 249.93 160.54 L 252.10 158.93 L 254.29 157.36 L 256.49 155.79 L 258.69 154.22 L 260.90 152.66 L 263.10 151.10 L 265.31 149.54 L 267.51 147.98 L 269.72 146.42 L 271.92 144.86 L 274.13 143.30 L 276.33 141.74 L 278.53 140.18 L 280.74 138.62 L 282.95 137.06 L 285.15 135.51 L 287.36 133.95 L 289.57 132.40 L 291.79 130.87 L 294.03 129.36 L 296.30 127.90 L 298.60 126.51 L 300.95 125.22 L 303.36 124.08 L 305.84 123.12 L 308.38 122.35 L 310.97 121.81 L 313.60 121.48 L 316.25 121.38 L 318.91 121.50 L 321.56 121.80 L 324.19 122.27 L 326.81 122.87 L 329.41 123.57 L 331.99 124.32 L 334.57 125.11 L 337.13 125.93 L 339.70 126.75 L 342.26 127.58 L 344.83 128.41 L 347.39 129.25 L 349.95 130.08 L 352.51 130.91 L 355.08 131.75 L 357.64 132.58 L 360.20 133.42 L 362.76 134.25 L 365.32 135.08 L 367.89 135.91 L 370.45 136.74 L 373.01 137.58 L 375.57 138.41 L 378.13 139.25 L 380.69 140.08 L 383.25 140.92 L 385.81 141.75 L 388.37 142.59 L 390.93 143.42 L 393.49 144.25 L 396.05 145.09 L 398.62 145.92 L 401.18 146.75 L 403.73 147.59 L 406.29 148.42 L 408.86 149.25 L 411.42 150.09 L 413.98 150.92 L 416.54 151.76 L 419.09 152.61 L 421.64 153.47 L 424.18 154.35 L 426.72 155.27 L 429.23 156.22 L 431.72 157.23 L 434.19 158.29 L 436.63 159.42 L 439.04 160.62 L 441.41 161.87 L 443.75 163.20 L 446.05 164.60 L 448.31 166.05 L 450.52 167.58 L 452.69 169.16 L 454.81 170.81 L 456.88 172.52 L 458.91 174.28 L 460.88 176.11 L 462.80 177.99 L 464.67 179.92 L 466.48 181.91 L 468.23 183.95 L 469.92 186.03 L 471.56 188.17 L 473.13 190.35 L 474.63 192.58 L 476.08 194.84 L 477.46 197.15 L 478.76 199.50 L 480.00 201.88 L 481.18 204.30 L 482.28 206.75 L 483.32 209.23 L 484.28 211.74 L 485.16 214.28 L 485.98 216.84 L 486.73 219.42 L 487.40 222.03 L 487.99 224.65 L 488.51 227.29 L 488.95 229.94 L 489.31 232.60 L 489.60 235.27 L 489.81 237.95 L 489.94 240.64 L 490.00 243.32 L 489.98 246.01 L 489.89 248.70 L 489.72 251.38 L 489.47 254.06 L 489.15 256.73 L 488.75 259.38 L 488.27 262.03 L 487.71 264.66 L 487.08 267.27 L 486.37 269.87 L 485.60 272.44 L 484.75 274.99 L 483.82 277.51 L 482.83 280.01 L 481.76 282.48 L 480.62 284.91 L 479.41 287.32 L 478.14 289.68 L 476.80 292.01 L 475.39 294.30 L 473.91 296.54 L 472.38 298.75 L 470.78 300.91 L 469.11 303.02 L 467.39 305.09 L 465.61 307.10 L 463.78 309.06 L 461.88 310.97 L 459.93 312.82 L 457.94 314.62 L 455.89 316.36 L 453.79 318.04 L 451.64 319.65 L 449.45 321.21 L 447.22 322.71 L 444.94 324.14 L 442.62 325.50 L 440.27 326.80 L 437.89 328.04 L 435.47 329.23 L 433.03 330.36 L 430.57 331.46 L 428.10 332.52 L 425.62 333.56 L 423.13 334.59 L 420.64 335.61 L 418.15 336.63 L 415.65 337.65 L 413.16 338.67 Z" />
</symbol>
<symbol id="bl4">
<path d="M 366.11 369.17 L 365.96 369.80 L 365.81 370.43 L 365.66 371.07 L 365.51 371.70 L 365.37 372.32 L 365.22 372.95 L 365.07 373.58 L 364.92 374.20 L 364.76 374.82 L 364.60 375.45 L 364.43 376.07 L 364.25 376.69 L 364.04 377.29 L 363.81 377.89 L 363.56 378.48 L 363.28 379.06 L 362.97 379.63 L 362.64 380.18 L 362.28 380.71 L 361.90 381.23 L 361.50 381.72 L 361.08 382.20 L 360.63 382.66 L 360.16 383.11 L 359.67 383.52 L 359.16 383.92 L 358.64 384.29 L 358.10 384.64 L 357.55 384.97 L 356.99 385.29 L 356.42 385.60 L 355.85 385.90 L 355.27 386.19 L 354.70 386.48 L 354.12 386.77 L 353.54 387.06 L 352.97 387.34 L 352.39 387.63 L 351.81 387.91 L 351.23 388.20 L 350.65 388.49 L 350.07 388.77 L 349.49 389.06 L 348.92 389.35 L 348.34 389.63 L 347.76 389.92 L 347.18 390.21 L 346.60 390.49 L 346.02 390.78 L 345.44 391.06 L 344.87 391.34 L 344.29 391.63 L 343.71 391.92 L 343.14 392.20 L 342.56 392.49 L 341.98 392.77 L 341.40 393.06 L 340.82 393.34 L 340.24 393.63 L 339.66 393.91 L 339.08 394.20 L 338.50 394.48 L 337.92 394.76 L 337.34 395.04 L 336.77 395.33 L 336.19 395.61 L 335.61 395.89 L 335.04 396.18 L 334.46 396.46 L 333.88 396.75 L 333.30 397.03 L 332.72 397.32 L 332.14 397.61 L 331.56 397.89 L 330.99 398.18 L 330.41 398.46 L 329.83 398.75 L 329.25 399.03 L 328.67 399.32 L 328.09 399.61 L 327.51 399.89 L 326.93 400.18 L 326.35 400.46 L 325.77 400.75 L 325.19 401.02 L 324.61 401.29 L 324.02 401.55 L 323.42 401.79 L 322.81 402.01 L 322.20 402.20 L 321.58 402.37 L 320.95 402.51 L 320.32 402.62 L 319.69 402.70 L 319.05 402.76 L 318.40 402.78 L 317.76 402.77 L 317.12 402.74 L 316.49 402.68 L 315.85 402.59 L 315.22 402.47 L 314.60 402.31 L 313.99 402.13 L 313.38 401.92 L 312.78 401.68 L 312.20 401.41 L 311.63 401.12 L 311.07 400.80 L 310.53 400.45 L 310.01 400.08 L 309.50 399.69 L 309.02 399.27 L 308.55 398.84 L 308.11 398.38 L 307.68 397.90 L 307.28 397.39 L 306.90 396.87 L 306.55 396.34 L 306.22 395.79 L 305.92 395.23 L 305.64 394.65 L 305.39 394.05 L 305.17 393.45 L 304.98 392.84 L 304.82 392.22 L 304.68 391.60 L 304.57 390.96 L 304.47 390.32 L 304.40 389.68 L 304.33 389.04 L 304.28 388.40 L 304.22 387.76 L 304.18 387.12 L 304.13 386.48 L 304.09 385.84 L 304.04 385.20 L 304.00 384.55 L 303.95 383.91 L 303.91 383.26 L 303.86 382.62 L 303.82 381.98 L 303.77 381.33 L 303.73 380.69 L 303.68 380.04 L 303.64 379.40 L 303.59 378.75 L 303.55 378.11 L 303.50 377.46 L 303.46 376.82 L 303.41 376.18 L 303.37 375.54 L 303.32 374.89 L 303.27 374.26 L 303.23 373.62 L 303.19 372.98 L 303.14 372.34 L 303.10 371.69 L 303.05 371.05 L 303.00 370.41 L 302.96 369.76 L 302.91 369.12 L 302.87 368.47 L 302.82 367.83 L 302.78 367.18 L 302.73 366.54 L 302.69 365.89 L 302.64 365.25 L 302.60 364.60 L 302.55 363.96 L 302.51 363.31 L 302.46 362.67 L 302.42 362.03 L 302.37 361.38 L 302.33 360.74 L 302.29 360.10 L 302.24 359.46 L 302.20 358.82 L 302.16 358.18 L 302.12 357.54 L 302.09 356.90 L 302.07 356.26 L 302.05 355.61 L 302.06 354.97 L 302.07 354.32 L 302.11 353.67 L 302.17 353.03 L 302.25 352.39 L 302.35 351.75 L 302.48 351.11 L 302.63 350.48 L 302.81 349.86 L 303.02 349.22 L 303.26 348.58 L 303.53 347.94 L 303.82 347.29 L 304.14 346.64 L 304.47 345.99 L 304.80 345.35 L 305.15 344.72 L 305.51 344.10 L 305.88 343.51 L 306.26 342.94 L 306.65 342.40 L 307.06 341.89 L 307.49 341.39 L 307.94 340.92 L 308.40 340.47 L 308.88 340.04 L 309.36 339.62 L 309.86 339.22 L 310.38 338.83 L 310.91 338.46 L 311.45 338.11 L 312.00 337.77 L 312.56 337.46 L 313.12 337.16 L 313.70 336.88 L 314.29 336.62 L 314.89 336.38 L 315.49 336.15 L 316.10 335.95 L 316.72 335.76 L 317.34 335.60 L 317.96 335.45 L 318.59 335.32 L 319.22 335.20 L 319.85 335.08 L 320.49 334.98 L 321.13 334.88 L 321.76 334.79 L 322.40 334.69 L 323.04 334.60 L 323.68 334.50 L 324.31 334.41 L 324.95 334.31 L 325.58 334.22 L 326.22 334.12 L 326.86 334.03 L 327.49 333.93 L 328.13 333.84 L 328.77 333.74 L 329.41 333.64 L 330.04 333.55 L 330.68 333.45 L 331.32 333.36 L 331.96 333.26 L 332.60 333.17 L 333.23 333.07 L 333.87 332.97 L 334.50 332.88 L 335.14 332.78 L 335.77 332.69 L 336.41 332.59 L 337.05 332.50 L 337.69 332.40 L 338.33 332.31 L 338.96 332.21 L 339.60 332.12 L 340.24 332.02 L 340.88 331.93 L 341.51 331.83 L 342.15 331.74 L 342.79 331.64 L 343.42 331.54 L 344.06 331.45 L 344.69 331.35 L 345.33 331.26 L 345.97 331.16 L 346.60 331.07 L 347.24 330.97 L 347.88 330.87 L 348.51 330.78 L 349.15 330.68 L 349.79 330.59 L 350.43 330.50 L 351.07 330.40 L 351.71 330.31 L 352.34 330.22 L 352.98 330.14 L 353.62 330.07 L 354.26 330.02 L 354.90 329.99 L 355.54 329.99 L 356.18 330.01 L 356.83 330.05 L 357.47 330.12 L 358.11 330.22 L 358.75 330.36 L 359.39 330.52 L 360.04 330.73 L 360.69 330.95 L 361.33 331.20 L 361.97 331.46 L 362.59 331.75 L 363.19 332.05 L 363.77 332.38 L 364.33 332.73 L 364.86 333.10 L 365.37 333.50 L 365.87 333.91 L 366.34 334.35 L 366.80 334.80 L 367.24 335.27 L 367.65 335.76 L 368.04 336.26 L 368.42 336.78 L 368.77 337.32 L 369.10 337.87 L 369.41 338.44 L 369.69 339.02 L 369.95 339.60 L 370.19 340.20 L 370.40 340.80 L 370.59 341.41 L 370.75 342.03 L 370.89 342.66 L 371.00 343.30 L 371.08 343.94 L 371.14 344.58 L 371.17 345.22 L 371.18 345.86 L 371.16 346.50 L 371.11 347.14 L 371.04 347.78 L 370.95 348.42 L 370.84 349.06 L 370.71 349.69 L 370.57 350.32 L 370.43 350.95 L 370.28 351.57 L 370.13 352.20 L 369.98 352.83 L 369.83 353.46 L 369.69 354.09 L 369.54 354.72 L 369.39 355.35 L 369.24 355.98 L 369.09 356.61 L 368.94 357.24 L 368.79 357.87 L 368.64 358.49 L 368.49 359.12 L 368.34 359.74 L 368.20 360.37 L 368.05 360.99 L 367.90 361.62 L 367.75 362.25 L 367.60 362.88 L 367.45 363.51 L 367.30 364.14 L 367.15 364.77 L 367.01 365.40 L 366.86 366.02 L 366.71 366.65 L 366.56 367.28 L 366.41 367.91 L 366.26 368.54 Z" />
</symbol>
</defs>
<!-- isDone: 0 -->
<rect width="700" height="500" style="fill:#fff;stroke-width:0" />
<use class="p0 borderLine" xlink:href="#bl0"/>
<use class="p1 borderLine" xlink:href="#bl1"/>
<use class="p2 borderLine" xlink:href="#bl2"/>
<use class="p3 borderLine" xlink:href="#bl3"/>
<use class="p4 borderLine" xlink:href="#bl4"/>
<use class="q0 outLine" xlink:href="#bl0"/>
<use class="q1 outLine" xlink:href="#bl1"/>
<use class="q2 outLine" xlink:href="#bl2"/>
<use class="q3 outLine" xlink:href="#bl3"/>
<use class="q4 outLine" xlink:href="#bl4"/>
<circle onclick="fromCircle(16)" class="circle" cx="115.5905" cy="145.0207" r="43.7092" />
<text class="nLabel" x="115.59" y="140.02">52</text>
<text class="belong" x="115.59" y="150.02">(1)</text>
<circle onclick="fromCircle(24)" class="circle" cx="77.7644" cy="256.7793" r="63.8605" />
<text class="nLabel" x="77.76" y="251.78">111</text>
<text class="belong" x="77.76" y="261.78">(1, 2)</text>
<circle onclick="fromCircle(28)" class="circle" cx="162.5620" cy="210.2743" r="22.6796" />
<text class="nLabel" x="162.56" y="205.27">14</text>
<text class="belong" x="162.56" y="215.27">(1, 2, 3)</text>
<circle onclick="fromCircle(30)" class="circle" cx="226.5181" cy="305.8884" r="82.6661" />
<text class="nLabel" x="226.52" y="300.89">186</text>
<text class="belong" x="226.52" y="310.89">(1, 2, 3, 4)</text>
<circle onclick="fromCircle(31)" class="circle" cx="322.2698" cy="355.2729" r="14.8473" />
<text class="nLabel" x="322.27" y="350.27">6</text>
<text class="belong" x="322.27" y="360.27">(1, 2, 3, 4, 5)</text>
<circle onclick="fromCircle(20)" class="circle" cx="201.8147" cy="157.9524" r="33.1995" />
<text class="nLabel" x="201.81" y="152.95">30</text>
<text class="belong" x="201.81" y="162.95">(1, 3)</text>
<circle onclick="fromCircle(22)" class="circle" cx="265.9573" cy="190.7214" r="29.0693" />
<text class="nLabel" x="265.96" y="185.72">23</text>
<text class="belong" x="265.96" y="195.72">(1, 3, 4)</text>
<circle onclick="fromCircle(18)" class="circle" cx="315.9018" cy="150.5000" r="24.9917" />
<text class="nLabel" x="315.90" y="145.50">17</text>
<text class="belong" x="315.90" y="155.50">(1, 4)</text>
<circle onclick="fromCircle(26)" class="circle" cx="396.7311" cy="243.9988" r="88.8771" />
<text class="nLabel" x="396.73" y="239.00">215</text>
<text class="belong" x="396.73" y="249.00">(1, 2, 4)</text>
<circle onclick="fromCircle(27)" class="circle" cx="355.6921" cy="345.8654" r="10.4986" />
<text class="nLabel" x="355.69" y="340.87">3</text>
<text class="belong" x="355.69" y="350.87">(1, 2, 4, 5)</text>
<circle onclick="fromCircle(17)" class="circle" cx="318.3637" cy="389.2995" r="8.5721" />
<text class="nLabel" x="318.36" y="384.30">2</text>
<text class="belong" x="318.36" y="394.30">(1, 5)</text>
<circle onclick="fromCircle(25)" class="circle" cx="351.2305" cy="373.0794" r="8.5721" />
<text class="nLabel" x="351.23" y="368.08">2</text>
<text class="belong" x="351.23" y="378.08">(1, 2, 5)</text>
<g id="legendBox">
<rect class="p0 borderLine" x="500.00" y="50.00" width="30.00" height="15.00" />
<rect class="q0" x="500.00" y="50.00" width="30.00" height="15.00" />
<text class="legend" x="540.00" y="65.00">All build-dependent</text>
<rect class="p1 borderLine" x="500.00" y="90.00" width="30.00" height="15.00" />
<rect class="q1" x="500.00" y="90.00" width="30.00" height="15.00" />
<text class="legend" x="540.00" y="105.00">Overlaps known issue</text>
<rect class="p2 borderLine" x="500.00" y="130.00" width="30.00" height="15.00" />
<rect class="q2" x="500.00" y="130.00" width="30.00" height="15.00" />
<text class="legend" x="540.00" y="145.00">Update to gene model</text>
<rect class="p3 borderLine" x="500.00" y="170.00" width="30.00" height="15.00" />
<rect class="q3" x="500.00" y="170.00" width="30.00" height="15.00" />
<text class="legend" x="540.00" y="185.00">Change in assembly</text>
<rect class="p4 borderLine" x="500.00" y="210.00" width="30.00" height="15.00" />
<rect class="q4" x="500.00" y="210.00" width="30.00" height="15.00" />
<text class="legend" x="540.00" y="225.00">Multimapping rates</text>
</g>
</svg>
