<svg xmlns="http://www.w3.org/2000/svg" xmlns:xlink="http://www.w3.org/1999/xlink" width="700" height="500">
<defs>
<style type="text/css"><![CDATA[
  .borderLine {
	   stroke: none;
	   fill-opacity:  0.2 ;
  }
  .outLine {
	   stroke-width:  2 ;
	   fill: none;
  }
  .circle {
	   stroke: #888888;
	   stroke-width: 0.5;
	   fill: none;
    pointer-events: all;
  }
  .nLabel {
	   font-family: Arial;
    pointer-events: none;
	   font-size: 20px;
	   text-anchor: middle;
	   alignment-baseline: central;
  }
  .belong { 
 display: none;
	   font-family: Arial;
    pointer-events: none;
	   font-size: 10px;
	   text-anchor: middle;
	   alignment-baseline: central;
  }
  .legend {
    font-family: Arial;
    font-size: 15px;
  }
  #legendBox {
    display:  inline ;
  }
  .p0{
    stroke: none;
    fill:  #f3f3f3 ;
  }
  .q0{
    fill: none;
    stroke:  #f3f3f3 ;
  }
  .p1{
    stroke: none;
    fill:  #f4acca ;
  }
  .q1{
    fill: none;
    stroke:  #f4acca ;
  }
  .p2{
    stroke: none;
    fill:  #ffff58 ;
  }
  .q2{
    fill: none;
    stroke:  #ffff58 ;
  }
  .p3{
    stroke: none;
    fill:  #8cdab8 ;
  }
  .q3{
    fill: none;
    stroke:  #8cdab8 ;
  }
  .p4{
    stroke: none;
    fill:  #2cb3da ;
  }
  .q4{
    fill: none;
    stroke:  #2cb3da ;
  }
]]>
</style>
<symbol id="bl0">
<path d="M 475.25 357.08 L 472.81 360.40 L 470.21 363.62 L 467.50 366.77 L 464.72 369.85 L 461.90 372.91 L 459.06 375.95 L 456.21 378.99 L 453.35 382.01 L 450.49 385.04 L 447.63 388.06 L 444.78 391.08 L 441.92 394.11 L 439.06 397.13 L 436.20 400.16 L 433.34 403.19 L 430.48 406.21 L 427.62 409.23 L 424.76 412.25 L 421.90 415.27 L 419.03 418.30 L 416.17 421.32 L 413.30 424.34 L 410.42 427.34 L 407.51 430.33 L 404.57 433.27 L 401.57 436.12 L 398.48 438.84 L 395.27 441.36 L 391.92 443.59 L 388.42 445.49 L 384.77 447.04 L 380.99 448.26 L 377.11 449.21 L 373.16 449.98 L 369.16 450.62 L 365.12 451.17 L 361.07 451.66 L 357.00 452.09 L 352.92 452.44 L 348.81 452.72 L 344.70 452.92 L 340.58 453.05 L 336.46 453.11 L 332.34 453.12 L 328.22 453.09 L 324.11 453.04 L 320.00 452.98 L 315.89 452.91 L 311.78 452.83 L 307.67 452.76 L 303.56 452.68 L 299.46 452.61 L 295.35 452.53 L 291.24 452.45 L 287.13 452.38 L 283.03 452.30 L 278.92 452.23 L 274.82 452.15 L 270.71 452.07 L 266.61 452.00 L 262.50 451.92 L 258.39 451.84 L 254.29 451.77 L 250.18 451.69 L 246.08 451.62 L 241.97 451.54 L 237.87 451.47 L 233.76 451.39 L 229.66 451.32 L 225.55 451.24 L 221.45 451.16 L 217.34 451.09 L 213.24 451.00 L 209.14 450.92 L 205.04 450.83 L 200.94 450.72 L 196.84 450.58 L 192.75 450.37 L 188.67 450.07 L 184.60 449.61 L 180.56 448.97 L 176.56 448.11 L 172.61 447.03 L 168.71 445.74 L 164.86 444.28 L 161.07 442.68 L 157.32 440.99 L 153.59 439.24 L 149.88 437.46 L 146.18 435.66 L 142.48 433.85 L 138.79 432.03 L 135.10 430.22 L 131.41 428.41 L 127.72 426.59 L 124.02 424.78 L 120.33 422.97 L 116.64 421.16 L 112.95 419.34 L 109.26 417.52 L 105.58 415.70 L 101.89 413.88 L 98.20 412.06 L 94.51 410.25 L 90.83 408.43 L 87.15 406.60 L 83.48 404.76 L 79.82 402.88 L 76.20 400.96 L 72.63 398.96 L 69.12 396.86 L 65.71 394.62 L 62.40 392.24 L 59.22 389.71 L 56.17 387.01 L 53.28 384.16 L 50.55 381.15 L 47.98 377.99 L 45.60 374.70 L 43.40 371.28 L 41.38 367.75 L 39.56 364.11 L 37.91 360.38 L 36.43 356.57 L 35.11 352.70 L 33.91 348.79 L 32.82 344.84 L 31.80 340.87 L 30.83 336.88 L 29.90 332.89 L 28.99 328.89 L 28.08 324.89 L 27.18 320.89 L 26.28 316.88 L 25.39 312.88 L 24.49 308.87 L 23.60 304.87 L 22.70 300.87 L 21.81 296.86 L 20.91 292.86 L 20.01 288.85 L 19.12 284.85 L 18.22 280.85 L 17.33 276.84 L 16.44 272.84 L 15.55 268.83 L 14.66 264.83 L 13.78 260.82 L 12.93 256.81 L 12.11 252.79 L 11.36 248.77 L 10.72 244.73 L 10.25 240.68 L 10.00 236.62 L 10.03 232.57 L 10.38 228.55 L 11.05 224.57 L 12.04 220.64 L 13.29 216.77 L 14.75 212.95 L 16.36 209.18 L 18.07 205.45 L 19.84 201.74 L 21.64 198.05 L 23.46 194.37 L 25.29 190.69 L 27.12 187.01 L 28.95 183.33 L 30.78 179.65 L 32.61 175.98 L 34.45 172.30 L 36.28 168.62 L 38.11 164.95 L 39.95 161.27 L 41.78 157.59 L 43.61 153.92 L 45.45 150.24 L 47.28 146.57 L 49.12 142.89 L 50.95 139.22 L 52.78 135.54 L 54.62 131.87 L 56.46 128.20 L 58.30 124.53 L 60.15 120.86 L 62.02 117.20 L 63.91 113.56 L 65.84 109.94 L 67.84 106.36 L 69.90 102.82 L 72.06 99.33 L 74.32 95.92 L 76.68 92.58 L 79.16 89.32 L 81.75 86.15 L 84.45 83.08 L 87.26 80.11 L 90.18 77.25 L 93.19 74.49 L 96.31 71.84 L 99.53 69.31 L 102.83 66.90 L 106.22 64.61 L 109.69 62.45 L 113.24 60.42 L 116.85 58.52 L 120.54 56.75 L 124.29 55.12 L 128.10 53.62 L 131.96 52.27 L 135.86 51.06 L 139.81 49.99 L 143.79 49.07 L 147.80 48.29 L 151.84 47.66 L 155.90 47.18 L 159.97 46.84 L 164.06 46.63 L 168.15 46.56 L 172.25 46.60 L 176.34 46.74 L 180.44 46.95 L 184.53 47.22 L 188.62 47.52 L 192.71 47.86 L 196.81 48.20 L 200.90 48.55 L 204.99 48.91 L 209.08 49.27 L 213.17 49.63 L 217.26 49.99 L 221.35 50.35 L 225.44 50.71 L 229.53 51.07 L 233.62 51.43 L 237.71 51.79 L 241.80 52.15 L 245.89 52.52 L 249.98 52.88 L 254.08 53.24 L 258.17 53.60 L 262.26 53.96 L 266.35 54.32 L 270.44 54.69 L 274.54 55.05 L 278.63 55.41 L 282.72 55.77 L 286.81 56.14 L 290.91 56.50 L 295.00 56.86 L 299.09 57.23 L 303.18 57.59 L 307.28 57.95 L 311.37 58.31 L 315.46 58.68 L 319.56 59.04 L 323.65 59.41 L 327.74 59.77 L 331.84 60.14 L 335.93 60.50 L 340.02 60.86 L 344.12 61.23 L 348.21 61.59 L 352.30 61.96 L 356.40 62.32 L 360.49 62.69 L 364.58 63.06 L 368.67 63.43 L 372.76 63.81 L 376.85 64.19 L 380.94 64.60 L 385.03 65.04 L 389.11 65.53 L 393.18 66.08 L 397.23 66.73 L 401.26 67.48 L 405.26 68.35 L 409.22 69.37 L 413.15 70.53 L 417.02 71.83 L 420.84 73.29 L 424.61 74.90 L 428.30 76.65 L 431.93 78.55 L 435.47 80.59 L 438.93 82.76 L 442.30 85.07 L 445.58 87.52 L 448.77 90.09 L 451.84 92.78 L 454.81 95.60 L 457.67 98.52 L 460.40 101.56 L 463.02 104.71 L 465.51 107.95 L 467.86 111.29 L 470.09 114.72 L 472.17 118.24 L 474.12 121.84 L 475.92 125.51 L 477.57 129.25 L 479.08 133.05 L 480.44 136.91 L 481.65 140.81 L 482.70 144.77 L 483.61 148.76 L 484.36 152.78 L 484.99 156.83 L 485.49 160.89 L 485.89 164.98 L 486.20 169.07 L 486.46 173.17 L 486.68 177.27 L 486.88 181.38 L 487.06 185.49 L 487.24 189.59 L 487.41 193.70 L 487.58 197.81 L 487.75 201.92 L 487.91 206.03 L 488.09 210.14 L 488.26 214.25 L 488.43 218.36 L 488.60 222.47 L 488.78 226.58 L 488.95 230.70 L 489.12 234.81 L 489.28 238.92 L 489.44 243.04 L 489.57 247.16 L 489.68 251.28 L 489.74 255.42 L 489.75 259.56 L 489.69 263.71 L 489.58 267.88 L 489.41 272.04 L 489.19 276.21 L 488.95 280.37 L 488.69 284.54 L 488.41 288.70 L 488.13 292.87 L 487.84 297.03 L 487.55 301.19 L 487.25 305.35 L 486.96 309.52 L 486.66 313.68 L 486.34 317.84 L 485.98 322.00 L 485.57 326.15 L 485.06 330.28 L 484.41 334.38 L 483.57 338.43 L 482.48 342.41 L 481.11 346.28 L 479.44 350.02 L 477.47 353.62 Z" />
</symbol>
<symbol id="bl1">
<path d="M 362.97 442.62 L 361.35 444.86 L 359.49 446.87 L 357.39 448.62 L 355.08 450.07 L 352.59 451.23 L 349.96 452.10 L 347.22 452.71 L 344.41 453.09 L 341.56 453.31 L 338.67 453.42 L 335.77 453.44 L 332.86 453.42 L 329.96 453.38 L 327.05 453.33 L 324.14 453.27 L 321.23 453.21 L 318.32 453.15 L 315.41 453.09 L 312.50 453.03 L 309.59 452.97 L 306.68 452.91 L 303.77 452.85 L 300.86 452.79 L 297.95 452.73 L 295.04 452.67 L 292.13 452.61 L 289.22 452.55 L 286.31 452.49 L 283.40 452.43 L 280.49 452.37 L 277.58 452.31 L 274.67 452.25 L 271.76 452.19 L 268.85 452.13 L 265.94 452.07 L 263.03 452.01 L 260.13 451.95 L 257.22 451.89 L 254.31 451.83 L 251.40 451.77 L 248.49 451.71 L 245.58 451.65 L 242.67 451.59 L 239.77 451.53 L 236.86 451.47 L 233.95 451.41 L 231.04 451.35 L 228.13 451.30 L 225.23 451.24 L 222.32 451.17 L 219.41 451.11 L 216.50 451.05 L 213.60 450.99 L 210.69 450.93 L 207.78 450.87 L 204.87 450.81 L 201.97 450.74 L 199.06 450.67 L 196.15 450.59 L 193.25 450.50 L 190.34 450.39 L 187.44 450.23 L 184.55 450.00 L 181.68 449.68 L 178.83 449.22 L 176.02 448.61 L 173.24 447.84 L 170.51 446.92 L 167.81 445.88 L 165.13 444.74 L 162.48 443.54 L 159.85 442.31 L 157.22 441.06 L 154.60 439.79 L 151.98 438.51 L 149.36 437.24 L 146.74 435.96 L 144.13 434.68 L 141.51 433.40 L 138.90 432.11 L 136.28 430.84 L 133.67 429.56 L 131.05 428.28 L 128.44 427.01 L 125.82 425.73 L 123.21 424.46 L 120.59 423.18 L 117.98 421.90 L 115.36 420.63 L 112.75 419.34 L 110.13 418.06 L 107.52 416.78 L 104.90 415.50 L 102.29 414.22 L 99.68 412.94 L 97.06 411.66 L 94.45 410.38 L 91.84 409.10 L 89.22 407.82 L 86.61 406.54 L 84.01 405.26 L 81.40 403.96 L 78.81 402.65 L 76.22 401.31 L 73.66 399.94 L 71.13 398.52 L 68.63 397.04 L 66.18 395.49 L 63.79 393.86 L 61.45 392.14 L 59.18 390.34 L 56.98 388.46 L 54.86 386.49 L 52.81 384.44 L 50.85 382.31 L 48.97 380.10 L 47.18 377.83 L 45.48 375.48 L 43.88 373.06 L 42.37 370.59 L 40.96 368.06 L 39.65 365.47 L 38.45 362.84 L 37.35 360.16 L 36.35 357.44 L 35.46 354.68 L 34.69 351.89 L 34.02 349.07 L 33.46 346.22 L 33.02 343.36 L 32.69 340.48 L 32.47 337.59 L 32.37 334.69 L 32.38 331.79 L 32.51 328.90 L 32.74 326.01 L 33.09 323.13 L 33.56 320.27 L 34.14 317.43 L 34.83 314.61 L 35.63 311.83 L 36.53 309.07 L 37.55 306.36 L 38.67 303.69 L 39.90 301.06 L 41.22 298.49 L 42.65 295.96 L 44.18 293.50 L 45.80 291.10 L 47.51 288.76 L 49.32 286.50 L 51.21 284.31 L 53.19 282.19 L 55.26 280.16 L 57.40 278.20 L 59.61 276.34 L 61.90 274.56 L 64.25 272.87 L 66.67 271.28 L 69.15 269.78 L 71.69 268.39 L 74.28 267.09 L 76.92 265.90 L 79.60 264.81 L 82.32 263.83 L 85.09 262.96 L 87.88 262.20 L 90.70 261.55 L 93.55 261.01 L 96.41 260.58 L 99.29 260.27 L 102.17 260.07 L 105.07 259.98 L 107.97 260.02 L 110.86 260.17 L 113.75 260.45 L 116.65 260.84 L 119.54 261.35 L 122.44 261.96 L 125.35 262.67 L 128.26 263.45 L 131.17 264.27 L 134.07 265.09 L 136.96 265.88 L 139.83 266.63 L 142.69 267.30 L 145.54 267.90 L 148.40 268.43 L 151.27 268.87 L 154.14 269.23 L 157.02 269.51 L 159.90 269.73 L 162.79 269.86 L 165.68 269.92 L 168.57 269.91 L 171.46 269.82 L 174.35 269.65 L 177.24 269.41 L 180.12 269.10 L 182.98 268.71 L 185.84 268.25 L 188.68 267.71 L 191.51 267.10 L 194.32 266.42 L 197.12 265.67 L 199.89 264.85 L 202.65 263.96 L 205.39 263.01 L 208.10 262.00 L 210.80 260.94 L 213.48 259.84 L 216.16 258.71 L 218.82 257.56 L 221.47 256.39 L 224.13 255.22 L 226.79 254.06 L 229.45 252.90 L 232.12 251.76 L 234.79 250.64 L 237.48 249.55 L 240.19 248.51 L 242.92 247.53 L 245.66 246.62 L 248.44 245.78 L 251.23 245.02 L 254.04 244.34 L 256.88 243.74 L 259.72 243.22 L 262.58 242.79 L 265.46 242.45 L 268.34 242.19 L 271.23 242.02 L 274.12 241.94 L 277.02 241.94 L 279.91 242.03 L 282.80 242.21 L 285.68 242.47 L 288.55 242.82 L 291.41 243.25 L 294.26 243.77 L 297.09 244.37 L 299.90 245.07 L 302.69 245.84 L 305.46 246.71 L 308.21 247.67 L 310.93 248.72 L 313.64 249.88 L 316.34 251.15 L 319.04 252.51 L 321.75 253.97 L 324.45 255.49 L 327.16 257.06 L 329.86 258.62 L 332.57 260.16 L 335.28 261.64 L 337.99 263.04 L 340.71 264.38 L 343.43 265.64 L 346.17 266.85 L 348.92 268.02 L 351.67 269.16 L 354.43 270.29 L 357.19 271.40 L 359.95 272.51 L 362.71 273.62 L 365.47 274.72 L 368.24 275.83 L 371.00 276.94 L 373.76 278.05 L 376.52 279.15 L 379.28 280.26 L 382.05 281.36 L 384.81 282.47 L 387.57 283.59 L 390.32 284.71 L 393.06 285.86 L 395.78 287.05 L 398.45 288.30 L 401.07 289.64 L 403.58 291.09 L 405.95 292.67 L 408.16 294.42 L 410.17 296.33 L 411.96 298.41 L 413.51 300.67 L 414.82 303.10 L 415.89 305.68 L 416.72 308.39 L 417.32 311.20 L 417.72 314.09 L 417.96 317.03 L 418.09 319.99 L 418.15 322.96 L 418.19 325.94 L 418.24 328.92 L 418.35 331.88 L 418.55 334.83 L 418.88 337.73 L 419.37 340.59 L 420.02 343.39 L 420.81 346.12 L 421.71 348.78 L 422.66 351.42 L 423.57 354.05 L 424.39 356.71 L 425.03 359.43 L 425.44 362.20 L 425.58 365.01 L 425.45 367.83 L 425.01 370.63 L 424.28 373.37 L 423.26 376.02 L 421.97 378.54 L 420.41 380.92 L 418.61 383.12 L 416.58 385.12 L 414.36 386.91 L 411.97 388.49 L 409.45 389.88 L 406.83 391.11 L 404.16 392.27 L 401.50 393.43 L 398.90 394.70 L 396.43 396.15 L 394.12 397.84 L 391.98 399.75 L 389.99 401.87 L 388.10 404.11 L 386.23 406.40 L 384.34 408.68 L 382.39 410.90 L 380.37 413.07 L 378.33 415.20 L 376.32 417.33 L 374.40 419.53 L 372.63 421.83 L 371.07 424.25 L 369.72 426.80 L 368.56 429.45 L 367.53 432.17 L 366.55 434.90 L 365.52 437.59 L 364.34 440.18 Z" />
</symbol>
<symbol id="bl2">
<path d="M 424.97 315.12 L 421.67 318.09 L 418.40 321.09 L 415.12 324.05 L 411.77 326.89 L 408.31 329.55 L 404.71 332.01 L 400.98 334.26 L 397.17 336.40 L 393.33 338.51 L 389.56 340.73 L 385.95 343.17 L 382.59 345.89 L 379.53 348.92 L 376.79 352.27 L 374.39 355.88 L 372.27 359.70 L 370.40 363.68 L 368.71 367.76 L 367.16 371.91 L 365.72 376.12 L 364.42 380.38 L 363.27 384.71 L 362.34 389.11 L 361.69 393.61 L 361.35 398.18 L 361.34 402.80 L 361.62 407.43 L 362.12 412.04 L 362.74 416.59 L 363.34 421.09 L 363.76 425.50 L 363.84 429.79 L 363.43 433.92 L 362.44 437.79 L 360.79 441.31 L 358.52 444.39 L 355.66 446.91 L 352.32 448.83 L 348.60 450.13 L 344.62 450.82 L 340.46 451.00 L 336.21 450.78 L 331.90 450.26 L 327.58 449.55 L 323.26 448.72 L 318.94 447.84 L 314.62 446.91 L 310.31 445.98 L 306.00 445.04 L 301.69 444.09 L 297.38 443.14 L 293.07 442.19 L 288.76 441.24 L 284.45 440.29 L 280.15 439.34 L 275.84 438.38 L 271.53 437.42 L 267.23 436.43 L 262.94 435.42 L 258.66 434.35 L 254.40 433.22 L 250.18 432.00 L 245.99 430.65 L 241.85 429.16 L 237.78 427.53 L 233.77 425.74 L 229.82 423.81 L 225.94 421.75 L 222.10 419.58 L 218.32 417.34 L 214.55 415.04 L 210.80 412.73 L 207.04 410.45 L 203.23 408.25 L 199.36 406.20 L 195.41 404.38 L 191.36 402.86 L 187.22 401.70 L 182.99 400.92 L 178.69 400.50 L 174.34 400.39 L 169.96 400.53 L 165.58 400.82 L 161.19 401.23 L 156.81 401.70 L 152.43 402.20 L 148.05 402.71 L 143.67 403.23 L 139.30 403.76 L 134.92 404.28 L 130.55 404.79 L 126.18 405.28 L 121.80 405.72 L 117.42 406.10 L 113.05 406.37 L 108.67 406.49 L 104.31 406.43 L 99.96 406.16 L 95.64 405.66 L 91.35 404.91 L 87.12 403.92 L 82.96 402.67 L 78.88 401.19 L 74.90 399.46 L 71.02 397.49 L 67.27 395.30 L 63.66 392.89 L 60.19 390.27 L 56.89 387.44 L 53.77 384.42 L 50.82 381.23 L 48.08 377.86 L 45.54 374.33 L 43.21 370.66 L 41.11 366.85 L 39.24 362.92 L 37.61 358.89 L 36.22 354.77 L 35.07 350.58 L 34.18 346.32 L 33.55 342.02 L 33.17 337.68 L 33.05 333.33 L 33.18 328.99 L 33.57 324.65 L 34.21 320.34 L 35.08 316.07 L 36.17 311.84 L 37.45 307.66 L 38.90 303.53 L 40.47 299.44 L 42.14 295.37 L 43.86 291.32 L 45.62 287.29 L 47.41 283.26 L 49.19 279.23 L 50.98 275.21 L 52.77 271.18 L 54.56 267.15 L 56.32 263.12 L 58.05 259.06 L 59.71 254.99 L 61.26 250.87 L 62.64 246.71 L 63.78 242.50 L 64.64 238.24 L 65.15 233.93 L 65.33 229.58 L 65.18 225.22 L 64.76 220.85 L 64.14 216.47 L 63.40 212.11 L 62.56 207.74 L 61.69 203.39 L 60.80 199.04 L 59.91 194.68 L 59.05 190.33 L 58.23 185.97 L 57.48 181.59 L 56.81 177.21 L 56.25 172.81 L 55.83 168.41 L 55.55 163.99 L 55.42 159.57 L 55.47 155.14 L 55.68 150.73 L 56.07 146.32 L 56.64 141.94 L 57.37 137.58 L 58.28 133.25 L 59.36 128.96 L 60.61 124.72 L 62.02 120.53 L 63.60 116.40 L 65.35 112.33 L 67.25 108.34 L 69.31 104.42 L 71.52 100.60 L 73.88 96.86 L 76.39 93.22 L 79.05 89.68 L 81.83 86.25 L 84.76 82.93 L 87.81 79.73 L 90.99 76.65 L 94.29 73.70 L 97.70 70.89 L 101.22 68.21 L 104.84 65.67 L 108.56 63.28 L 112.38 61.04 L 116.27 58.95 L 120.25 57.02 L 124.30 55.24 L 128.42 53.63 L 132.60 52.19 L 136.83 50.91 L 141.11 49.79 L 145.43 48.85 L 149.79 48.08 L 154.17 47.48 L 158.57 47.05 L 162.99 46.78 L 167.41 46.66 L 171.84 46.68 L 176.28 46.80 L 180.71 47.02 L 185.14 47.30 L 189.57 47.63 L 194.00 47.99 L 198.42 48.36 L 202.85 48.74 L 207.28 49.12 L 211.70 49.51 L 216.13 49.90 L 220.56 50.29 L 224.99 50.68 L 229.42 51.07 L 233.85 51.46 L 238.28 51.85 L 242.71 52.25 L 247.14 52.64 L 251.56 53.03 L 255.99 53.42 L 260.42 53.81 L 264.85 54.20 L 269.28 54.59 L 273.71 54.99 L 278.14 55.38 L 282.57 55.77 L 287.00 56.16 L 291.43 56.55 L 295.86 56.95 L 300.29 57.34 L 304.72 57.74 L 309.15 58.13 L 313.58 58.52 L 318.01 58.91 L 322.44 59.31 L 326.87 59.70 L 331.30 60.10 L 335.73 60.49 L 340.16 60.88 L 344.59 61.28 L 349.03 61.67 L 353.46 62.07 L 357.88 62.46 L 362.31 62.86 L 366.74 63.26 L 371.17 63.67 L 375.60 64.09 L 380.03 64.53 L 384.45 65.00 L 388.86 65.54 L 393.25 66.15 L 397.63 66.88 L 401.99 67.73 L 406.30 68.72 L 410.58 69.88 L 414.80 71.20 L 418.97 72.69 L 423.06 74.36 L 427.09 76.20 L 431.03 78.21 L 434.88 80.38 L 438.64 82.72 L 442.29 85.22 L 445.83 87.87 L 449.26 90.67 L 452.55 93.61 L 455.72 96.69 L 458.76 99.91 L 461.66 103.25 L 464.41 106.71 L 467.01 110.29 L 469.46 113.97 L 471.74 117.76 L 473.86 121.64 L 475.82 125.61 L 477.60 129.65 L 479.21 133.77 L 480.65 137.96 L 481.90 142.20 L 482.98 146.49 L 483.89 150.82 L 484.64 155.19 L 485.25 159.58 L 485.73 163.99 L 486.10 168.42 L 486.39 172.85 L 486.63 177.29 L 486.83 181.73 L 487.02 186.17 L 487.19 190.62 L 487.35 195.06 L 487.51 199.51 L 487.67 203.95 L 487.83 208.40 L 487.99 212.85 L 488.15 217.29 L 488.31 221.74 L 488.46 226.19 L 488.62 230.64 L 488.78 235.08 L 488.92 239.53 L 489.05 243.97 L 489.14 248.41 L 489.14 252.83 L 489.01 257.20 L 488.65 261.51 L 487.96 265.69 L 486.85 269.70 L 485.26 273.47 L 483.14 276.95 L 480.53 280.11 L 477.48 282.94 L 474.08 285.49 L 470.43 287.81 L 466.61 289.96 L 462.70 292.02 L 458.73 294.03 L 454.75 296.02 L 450.78 298.03 L 446.83 300.08 L 442.94 302.22 L 439.12 304.48 L 435.41 306.90 L 431.81 309.48 L 428.34 312.23 Z" />
</symbol>
<symbol id="bl3">
<path d="M 415.19 415.83 L 412.28 417.78 L 409.40 419.29 L 406.52 420.32 L 403.62 420.84 L 400.67 420.88 L 397.64 420.49 L 394.51 419.78 L 391.22 418.88 L 387.74 417.94 L 384.05 417.05 L 380.16 416.28 L 376.10 415.62 L 371.93 415.04 L 367.69 414.53 L 363.42 414.08 L 359.16 413.70 L 354.93 413.47 L 350.78 413.45 L 346.74 413.72 L 342.86 414.33 L 339.18 415.29 L 335.70 416.55 L 332.41 418.05 L 329.25 419.68 L 326.17 421.36 L 323.12 423.03 L 320.07 424.63 L 316.98 426.15 L 313.85 427.56 L 310.68 428.87 L 307.47 430.06 L 304.22 431.14 L 300.93 432.09 L 297.61 432.94 L 294.27 433.66 L 290.90 434.28 L 287.51 434.76 L 284.11 435.13 L 280.69 435.38 L 277.27 435.51 L 273.84 435.51 L 270.42 435.39 L 267.01 435.15 L 263.60 434.79 L 260.21 434.31 L 256.84 433.71 L 253.49 432.98 L 250.17 432.15 L 246.89 431.19 L 243.63 430.12 L 240.42 428.94 L 237.26 427.64 L 234.14 426.23 L 231.07 424.71 L 228.05 423.09 L 225.10 421.35 L 222.21 419.52 L 219.39 417.58 L 216.64 415.54 L 213.96 413.41 L 211.36 411.18 L 208.84 408.86 L 206.40 406.46 L 204.05 403.97 L 201.79 401.40 L 199.62 398.75 L 197.54 396.03 L 195.57 393.23 L 193.69 390.36 L 191.92 387.43 L 190.25 384.44 L 188.69 381.39 L 187.24 378.29 L 185.90 375.13 L 184.67 371.94 L 183.56 368.70 L 182.57 365.43 L 181.70 362.12 L 180.95 358.78 L 180.34 355.41 L 179.86 352.02 L 179.51 348.62 L 179.29 345.20 L 179.17 341.78 L 179.16 338.36 L 179.24 334.93 L 179.42 331.49 L 179.71 328.04 L 180.12 324.59 L 180.64 321.13 L 181.31 317.67 L 182.10 314.24 L 183.04 310.83 L 184.11 307.45 L 185.31 304.12 L 186.64 300.83 L 188.09 297.60 L 189.66 294.42 L 191.34 291.30 L 193.14 288.25 L 195.05 285.26 L 197.06 282.34 L 199.18 279.50 L 201.41 276.74 L 203.73 274.06 L 206.14 271.45 L 208.63 268.93 L 211.20 266.48 L 213.84 264.10 L 216.53 261.77 L 219.26 259.49 L 222.01 257.23 L 224.78 255.00 L 227.55 252.77 L 230.32 250.53 L 233.07 248.28 L 235.80 246.00 L 238.49 243.68 L 241.14 241.30 L 243.72 238.87 L 246.24 236.36 L 248.68 233.78 L 251.04 231.14 L 253.32 228.42 L 255.51 225.63 L 257.62 222.77 L 259.63 219.85 L 261.55 216.87 L 263.38 213.82 L 265.10 210.73 L 266.73 207.57 L 268.25 204.37 L 269.68 201.12 L 271.00 197.83 L 272.21 194.49 L 273.31 191.12 L 274.31 187.71 L 275.19 184.26 L 275.96 180.78 L 276.63 177.24 L 277.20 173.67 L 277.69 170.05 L 278.12 166.41 L 278.53 162.76 L 278.96 159.13 L 279.42 155.54 L 279.96 152.00 L 280.59 148.51 L 281.33 145.08 L 282.18 141.69 L 283.15 138.34 L 284.23 135.03 L 285.43 131.76 L 286.74 128.54 L 288.15 125.36 L 289.68 122.23 L 291.30 119.16 L 293.03 116.14 L 294.86 113.18 L 296.79 110.29 L 298.82 107.46 L 300.94 104.70 L 303.15 102.02 L 305.45 99.41 L 307.83 96.88 L 310.30 94.43 L 312.85 92.06 L 315.48 89.78 L 318.18 87.59 L 320.95 85.49 L 323.80 83.49 L 326.71 81.58 L 329.68 79.78 L 332.71 78.07 L 335.79 76.46 L 338.93 74.96 L 342.12 73.57 L 345.35 72.28 L 348.62 71.10 L 351.93 70.04 L 355.28 69.08 L 358.65 68.24 L 362.06 67.51 L 365.48 66.89 L 368.92 66.39 L 372.38 66.01 L 375.85 65.75 L 379.33 65.59 L 382.80 65.56 L 386.28 65.64 L 389.76 65.84 L 393.22 66.16 L 396.67 66.59 L 400.11 67.13 L 403.52 67.79 L 406.91 68.57 L 410.28 69.46 L 413.61 70.46 L 416.91 71.57 L 420.17 72.80 L 423.38 74.13 L 426.55 75.56 L 429.67 77.11 L 432.73 78.75 L 435.74 80.50 L 438.69 82.35 L 441.57 84.30 L 444.39 86.34 L 447.13 88.47 L 449.81 90.70 L 452.41 93.01 L 454.92 95.41 L 457.36 97.90 L 459.72 100.46 L 461.98 103.10 L 464.16 105.81 L 466.24 108.60 L 468.23 111.46 L 470.12 114.38 L 471.91 117.36 L 473.60 120.40 L 475.19 123.49 L 476.67 126.64 L 478.05 129.83 L 479.32 133.07 L 480.48 136.35 L 481.53 139.67 L 482.47 143.02 L 483.29 146.39 L 484.00 149.80 L 484.59 153.23 L 485.07 156.67 L 485.43 160.13 L 485.68 163.60 L 485.82 167.08 L 485.83 170.55 L 485.73 174.03 L 485.51 177.50 L 485.17 180.97 L 484.72 184.41 L 484.15 187.85 L 483.47 191.26 L 482.68 194.64 L 481.77 198.00 L 480.75 201.33 L 479.61 204.61 L 478.37 207.86 L 477.02 211.07 L 475.56 214.23 L 474.00 217.33 L 472.33 220.39 L 470.56 223.38 L 468.69 226.32 L 466.73 229.19 L 464.68 232.00 L 462.54 234.75 L 460.33 237.45 L 458.09 240.10 L 455.83 242.74 L 453.63 245.40 L 451.54 248.11 L 449.66 250.93 L 448.06 253.87 L 446.82 256.95 L 445.99 260.15 L 445.63 263.46 L 445.76 266.85 L 446.39 270.28 L 447.50 273.72 L 449.05 277.17 L 450.98 280.60 L 453.22 284.00 L 455.70 287.40 L 458.34 290.77 L 461.08 294.14 L 463.87 297.51 L 466.66 300.90 L 469.42 304.31 L 472.10 307.77 L 474.63 311.31 L 476.96 314.96 L 478.99 318.74 L 480.66 322.64 L 481.90 326.67 L 482.66 330.79 L 482.90 334.95 L 482.62 339.11 L 481.81 343.21 L 480.49 347.19 L 478.72 351.02 L 476.55 354.69 L 474.04 358.20 L 471.28 361.57 L 468.35 364.83 L 465.30 368.02 L 462.19 371.17 L 459.04 374.29 L 455.88 377.40 L 452.71 380.50 L 449.54 383.60 L 446.37 386.70 L 443.19 389.80 L 440.02 392.90 L 436.85 395.99 L 433.68 399.08 L 430.52 402.14 L 427.37 405.16 L 424.25 408.11 L 421.18 410.91 L 418.15 413.52 Z" />
</symbol>
<symbol id="bl4">
<path d="M 404.43 393.94 L 406.50 394.63 L 408.52 395.57 L 410.42 396.80 L 412.14 398.31 L 413.62 400.09 L 414.81 402.09 L 415.65 404.26 L 416.14 406.56 L 416.26 408.92 L 416.02 411.30 L 415.46 413.66 L 414.62 415.97 L 413.56 418.23 L 412.34 420.43 L 411.00 422.59 L 409.60 424.73 L 408.15 426.85 L 406.69 428.96 L 405.20 431.06 L 403.71 433.15 L 402.19 435.21 L 400.63 437.24 L 399.02 439.21 L 397.32 441.09 L 395.51 442.83 L 393.57 444.39 L 391.49 445.75 L 389.29 446.89 L 386.97 447.83 L 384.56 448.57 L 382.09 449.17 L 379.59 449.67 L 377.06 450.09 L 374.51 450.47 L 371.97 450.83 L 369.41 451.17 L 366.86 451.51 L 364.31 451.85 L 361.76 452.18 L 359.20 452.50 L 356.65 452.79 L 354.10 453.03 L 351.55 453.21 L 349.00 453.27 L 346.48 453.19 L 343.99 452.91 L 341.55 452.40 L 339.20 451.66 L 336.95 450.66 L 334.84 449.40 L 332.90 447.91 L 331.16 446.19 L 329.64 444.28 L 328.37 442.19 L 327.36 439.96 L 326.63 437.63 L 326.19 435.22 L 326.05 432.79 L 326.21 430.37 L 326.65 427.99 L 327.38 425.70 L 328.35 423.55 L 329.53 421.55 L 330.86 419.73 L 332.31 418.09 L 333.81 416.59 L 335.33 415.22 L 336.84 413.92 L 338.32 412.67 L 339.76 411.44 L 341.16 410.21 L 342.52 408.97 L 343.84 407.71 L 345.13 406.43 L 346.38 405.11 L 347.61 403.77 L 348.82 402.41 L 350.00 401.02 L 351.15 399.62 L 352.27 398.19 L 353.37 396.75 L 354.44 395.28 L 355.48 393.80 L 356.49 392.29 L 357.48 390.76 L 358.44 389.21 L 359.36 387.65 L 360.26 386.07 L 361.13 384.48 L 361.97 382.87 L 362.78 381.25 L 363.56 379.60 L 364.31 377.94 L 365.02 376.27 L 365.70 374.59 L 366.36 372.90 L 366.98 371.19 L 367.57 369.48 L 368.13 367.75 L 368.65 366.01 L 369.15 364.26 L 369.61 362.50 L 370.04 360.73 L 370.43 358.96 L 370.79 357.19 L 371.12 355.40 L 371.41 353.60 L 371.67 351.80 L 371.89 349.99 L 372.08 348.19 L 372.24 346.38 L 372.36 344.57 L 372.46 342.76 L 372.51 340.94 L 372.54 339.13 L 372.53 337.31 L 372.48 335.49 L 372.40 333.67 L 372.28 331.86 L 372.13 330.04 L 371.93 328.21 L 371.70 326.37 L 371.43 324.51 L 371.13 322.61 L 370.82 320.67 L 370.52 318.71 L 370.27 316.73 L 370.08 314.76 L 370.00 312.81 L 370.03 310.91 L 370.21 309.05 L 370.52 307.24 L 370.97 305.47 L 371.56 303.76 L 372.28 302.10 L 373.12 300.50 L 374.08 298.97 L 375.15 297.51 L 376.32 296.13 L 377.58 294.82 L 378.92 293.59 L 380.32 292.42 L 381.77 291.30 L 383.25 290.22 L 384.75 289.16 L 386.27 288.12 L 387.79 287.10 L 389.32 286.08 L 390.85 285.06 L 392.38 284.04 L 393.91 283.02 L 395.45 282.01 L 396.98 281.00 L 398.51 279.98 L 400.05 278.97 L 401.58 277.96 L 403.11 276.94 L 404.64 275.92 L 406.17 274.91 L 407.71 273.90 L 409.24 272.88 L 410.79 271.88 L 412.34 270.87 L 413.91 269.88 L 415.50 268.91 L 417.14 267.97 L 418.81 267.05 L 420.54 266.17 L 422.29 265.31 L 424.07 264.47 L 425.84 263.62 L 427.61 262.77 L 429.37 261.90 L 431.10 260.99 L 432.82 260.06 L 434.51 259.10 L 436.18 258.10 L 437.84 257.07 L 439.48 256.02 L 441.10 254.93 L 442.69 253.81 L 444.28 252.65 L 445.85 251.46 L 447.42 250.25 L 449.01 249.03 L 450.61 247.82 L 452.24 246.65 L 453.91 245.55 L 455.62 244.55 L 457.38 243.68 L 459.18 242.95 L 461.03 242.38 L 462.91 241.96 L 464.82 241.70 L 466.74 241.60 L 468.66 241.67 L 470.57 241.89 L 472.45 242.28 L 474.29 242.81 L 476.09 243.50 L 477.81 244.34 L 479.47 245.32 L 481.03 246.43 L 482.50 247.67 L 483.86 249.02 L 485.11 250.49 L 486.22 252.06 L 487.21 253.71 L 488.05 255.43 L 488.75 257.22 L 489.30 259.07 L 489.69 260.95 L 489.93 262.86 L 490.00 264.78 L 489.91 266.70 L 489.66 268.60 L 489.26 270.48 L 488.70 272.32 L 487.99 274.11 L 487.14 275.83 L 486.15 277.47 L 485.03 279.03 L 483.78 280.50 L 482.41 281.86 L 480.95 283.12 L 479.40 284.29 L 477.78 285.36 L 476.10 286.35 L 474.38 287.28 L 472.63 288.16 L 470.87 289.02 L 469.10 289.86 L 467.32 290.69 L 465.53 291.51 L 463.75 292.33 L 461.96 293.15 L 460.18 293.97 L 458.40 294.78 L 456.61 295.60 L 454.82 296.42 L 453.03 297.24 L 451.24 298.06 L 449.45 298.88 L 447.66 299.71 L 445.87 300.54 L 444.07 301.38 L 442.26 302.23 L 440.45 303.10 L 438.65 304.00 L 436.88 304.93 L 435.14 305.92 L 433.46 306.96 L 431.85 308.07 L 430.31 309.24 L 428.83 310.47 L 427.42 311.76 L 426.05 313.10 L 424.73 314.48 L 423.43 315.89 L 422.15 317.31 L 420.89 318.75 L 419.62 320.19 L 418.37 321.64 L 417.11 323.08 L 415.84 324.51 L 414.56 325.93 L 413.25 327.32 L 411.90 328.66 L 410.51 329.95 L 409.05 331.15 L 407.53 332.26 L 405.93 333.26 L 404.28 334.15 L 402.56 334.94 L 400.80 335.62 L 399.00 336.23 L 397.18 336.78 L 395.35 337.31 L 393.52 337.84 L 391.70 338.41 L 389.91 339.05 L 388.16 339.78 L 386.45 340.60 L 384.81 341.52 L 383.23 342.55 L 381.72 343.69 L 380.29 344.92 L 378.95 346.24 L 377.71 347.66 L 376.56 349.16 L 375.52 350.73 L 374.59 352.37 L 373.77 354.07 L 373.07 355.83 L 372.50 357.63 L 372.05 359.46 L 371.72 361.32 L 371.53 363.19 L 371.46 365.07 L 371.52 366.95 L 371.71 368.83 L 372.02 370.69 L 372.47 372.52 L 373.04 374.32 L 373.73 376.08 L 374.54 377.78 L 375.48 379.43 L 376.52 381.01 L 377.69 382.52 L 378.98 383.95 L 380.39 385.31 L 381.93 386.59 L 383.60 387.78 L 385.42 388.87 L 387.36 389.85 L 389.42 390.71 L 391.55 391.42 L 393.73 391.99 L 395.91 392.43 L 398.07 392.78 L 400.21 393.10 L 402.33 393.46 Z" />
</symbol>
</defs>
<!-- isDone: 0 -->
<rect width="700" height="500" style="fill:#fff;stroke-width:0" />
<use class="p0 borderLine" xlink:href="#bl0"/>
<use class="p1 borderLine" xlink:href="#bl1"/>
<use class="p2 borderLine" xlink:href="#bl2"/>
<use class="p3 borderLine" xlink:href="#bl3"/>
<use class="p4 borderLine" xlink:href="#bl4"/>
<use class="q0 outLine" xlink:href="#bl0"/>
<use class="q1 outLine" xlink:href="#bl1"/>
<use class="q2 outLine" xlink:href="#bl2"/>
<use class="q3 outLine" xlink:href="#bl3"/>
<use class="q4 outLine" xlink:href="#bl4"/>
<circle onclick="fromCircle(16)" class="circle" cx="36.7119" cy="231.7272" r="23.6435" />
<text class="nLabel" x="36.71" y="226.73">20</text>
<text class="belong" x="36.71" y="236.73">(1)</text>
<circle onclick="fromCircle(24)" class="circle" cx="181.6407" cy="424.6504" r="19.7816" />
<text class="nLabel" x="181.64" y="419.65">14</text>
<text class="belong" x="181.64" y="429.65">(1, 2)</text>
<circle onclick="fromCircle(28)" class="circle" cx="105.0347" cy="333.5074" r="67.9109" />
<text class="nLabel" x="105.03" y="328.51">165</text>
<text class="belong" x="105.03" y="338.51">(1, 2, 3)</text>
<circle onclick="fromCircle(30)" class="circle" cx="275.3819" cy="338.8311" r="91.1120" />
<text class="nLabel" x="275.38" y="333.83">297</text>
<text class="belong" x="275.38" y="343.83">(1, 2, 3, 4)</text>
<circle onclick="fromCircle(31)" class="circle" cx="394.0792" cy="312.5307" r="18.3142" />
<text class="nLabel" x="394.08" y="307.53">12</text>
<text class="belong" x="394.08" y="317.53">(1, 2, 3, 4, 5)</text>
<circle onclick="fromCircle(20)" class="circle" cx="166.1739" cy="157.4856" r="106.2644" />
<text class="nLabel" x="166.17" y="152.49">404</text>
<text class="belong" x="166.17" y="162.49">(1, 3)</text>
<circle onclick="fromCircle(22)" class="circle" cx="382.3530" cy="168.7177" r="98.1989" />
<text class="nLabel" x="382.35" y="163.72">345</text>
<text class="belong" x="382.35" y="173.72">(1, 3, 4)</text>
<circle onclick="fromCircle(23)" class="circle" cx="429.1253" cy="285.1782" r="14.9535" />
<text class="nLabel" x="429.13" y="280.18">8</text>
<text class="belong" x="429.13" y="290.18">(1, 3, 4, 5)</text>
<circle onclick="fromCircle(21)" class="circle" cx="467.3380" cy="264.5629" r="17.5345" />
<text class="nLabel" x="467.34" y="259.56">11</text>
<text class="belong" x="467.34" y="269.56">(1, 3, 5)</text>
<circle onclick="fromCircle(18)" class="circle" cx="451.8712" cy="334.9153" r="27.4713" />
<text class="nLabel" x="451.87" y="329.92">27</text>
<text class="belong" x="451.87" y="339.92">(1, 4)</text>
<circle onclick="fromCircle(26)" class="circle" cx="399.1747" cy="365.2060" r="21.7983" />
<text class="nLabel" x="399.17" y="360.21">17</text>
<text class="belong" x="399.17" y="370.21">(1, 2, 4)</text>
<circle onclick="fromCircle(27)" class="circle" cx="373.5862" cy="399.9279" r="9.1571" />
<text class="nLabel" x="373.59" y="394.93">3</text>
<text class="belong" x="373.59" y="404.93">(1, 2, 4, 5)</text>
<circle onclick="fromCircle(19)" class="circle" cx="402.6920" cy="408.3281" r="9.1571" />
<text class="nLabel" x="402.69" y="403.33">3</text>
<text class="belong" x="402.69" y="413.33">(1, 4, 5)</text>
<circle onclick="fromCircle(17)" class="circle" cx="383.9309" cy="432.5139" r="10.5737" />
<text class="nLabel" x="383.93" y="427.51">4</text>
<text class="belong" x="383.93" y="437.51">(1, 5)</text>
<circle onclick="fromCircle(29)" class="circle" cx="346.1434" cy="433.0506" r="14.9535" />
<text class="nLabel" x="346.14" y="428.05">8</text>
<text class="belong" x="346.14" y="438.05">(1, 2, 3, 5)</text>
<g id="legendBox">
<rect class="p0 borderLine" x="500.00" y="50.00" width="30.00" height="15.00" />
<rect class="q0" x="500.00" y="50.00" width="30.00" height="15.00" />
<text class="legend" x="540.00" y="65.00">All build-dependent</text>
<rect class="p1 borderLine" x="500.00" y="90.00" width="30.00" height="15.00" />
<rect class="q1" x="500.00" y="90.00" width="30.00" height="15.00" />
<text class="legend" x="540.00" y="105.00">Overlaps known issue</text>
<rect class="p2 borderLine" x="500.00" y="130.00" width="30.00" height="15.00" />
<rect class="q2" x="500.00" y="130.00" width="30.00" height="15.00" />
<text class="legend" x="540.00" y="145.00">Update to gene model</text>
<rect class="p3 borderLine" x="500.00" y="170.00" width="30.00" height="15.00" />
<rect class="q3" x="500.00" y="170.00" width="30.00" height="15.00" />
<text class="legend" x="540.00" y="185.00">Change in assembly</text>
<rect class="p4 borderLine" x="500.00" y="210.00" width="30.00" height="15.00" />
<rect class="q4" x="500.00" y="210.00" width="30.00" height="15.00" />
<text class="legend" x="540.00" y="225.00">Multimapping rates</text>
</g>
</svg>
