<svg xmlns="http://www.w3.org/2000/svg" xmlns:xlink="http://www.w3.org/1999/xlink" width="700" height="500">
<defs>
<style type="text/css"><![CDATA[
  .borderLine {
	   stroke: none;
	   fill-opacity:  0.2 ;
  }
  .outLine {
	   stroke-width:  2 ;
	   fill: none;
  }
  .circle {
	   stroke: #888888;
	   stroke-width: 0.5;
	   fill: none;
    pointer-events: all;
  }
  .nLabel {
	   font-family: Arial;
    pointer-events: none;
	   font-size: 20px;
	   text-anchor: middle;
	   alignment-baseline: central;
  }
  .belong { 
 display: none;
	   font-family: Arial;
    pointer-events: none;
	   font-size: 10px;
	   text-anchor: middle;
	   alignment-baseline: central;
  }
  .legend {
    font-family: Arial;
    font-size: 15px;
  }
  #legendBox {
    display:  inline ;
  }
  .p0{
    stroke: none;
    fill:  grey ;
  }
  .q0{
    fill: none;
    stroke:  grey ;
  }
  .p1{
    stroke: none;
    fill:  darkorchid ;
  }
  .q1{
    fill: none;
    stroke:  darkorchid ;
  }
  .p2{
    stroke: none;
    fill:  goldenrod ;
  }
  .q2{
    fill: none;
    stroke:  goldenrod ;
  }
  .p3{
    stroke: none;
    fill:  red ;
  }
  .q3{
    fill: none;
    stroke:  red ;
  }
  .p4{
    stroke: none;
    fill:  deepskyblue ;
  }
  .q4{
    fill: none;
    stroke:  deepskyblue ;
  }
]]>
</style>
<symbol id="bl0">
<path d="M 453.91 353.32 L 452.59 357.15 L 451.01 360.86 L 449.13 364.37 L 446.92 367.66 L 444.37 370.70 L 441.50 373.46 L 438.35 375.96 L 434.99 378.24 L 431.47 380.34 L 427.85 382.32 L 424.16 384.21 L 420.45 386.07 L 416.71 387.91 L 412.98 389.74 L 409.24 391.56 L 405.50 393.36 L 401.76 395.16 L 398.02 396.96 L 394.29 398.74 L 390.54 400.52 L 386.80 402.29 L 383.05 404.05 L 379.30 405.79 L 375.55 407.53 L 371.81 409.27 L 368.07 411.01 L 364.34 412.75 L 360.61 414.48 L 356.90 416.21 L 353.19 417.94 L 349.48 419.66 L 345.78 421.37 L 342.09 423.09 L 338.41 424.81 L 334.74 426.55 L 331.08 428.31 L 327.42 430.09 L 323.77 431.88 L 320.12 433.68 L 316.47 435.48 L 312.82 437.29 L 309.17 439.09 L 305.51 440.91 L 301.87 442.73 L 298.22 444.57 L 294.58 446.42 L 290.93 448.28 L 287.29 450.14 L 283.64 452.01 L 280.00 453.87 L 276.36 455.73 L 272.72 457.59 L 269.08 459.44 L 265.44 461.28 L 261.79 463.11 L 258.15 464.93 L 254.50 466.73 L 250.85 468.52 L 247.19 470.29 L 243.53 472.03 L 239.85 473.74 L 236.16 475.41 L 232.44 477.02 L 228.70 478.57 L 224.93 480.05 L 221.12 481.43 L 217.29 482.73 L 213.43 483.93 L 209.54 485.02 L 205.63 486.01 L 201.69 486.89 L 197.73 487.67 L 193.76 488.32 L 189.77 488.86 L 185.78 489.29 L 181.77 489.60 L 177.77 489.81 L 173.76 489.92 L 169.74 489.92 L 165.72 489.81 L 161.70 489.58 L 157.68 489.23 L 153.66 488.76 L 149.65 488.17 L 145.65 487.48 L 141.67 486.68 L 137.71 485.77 L 133.77 484.74 L 129.86 483.61 L 125.97 482.36 L 122.12 481.01 L 118.30 479.55 L 114.53 477.99 L 110.80 476.33 L 107.11 474.58 L 103.48 472.72 L 99.90 470.76 L 96.38 468.70 L 92.91 466.55 L 89.51 464.30 L 86.17 461.95 L 82.91 459.51 L 79.72 456.97 L 76.60 454.34 L 73.56 451.62 L 70.60 448.82 L 67.70 445.94 L 64.89 443.00 L 62.15 439.98 L 59.50 436.90 L 56.94 433.74 L 54.48 430.50 L 52.11 427.18 L 49.84 423.79 L 47.66 420.35 L 45.58 416.84 L 43.60 413.27 L 41.72 409.64 L 39.94 405.96 L 38.27 402.22 L 36.70 398.44 L 35.22 394.62 L 33.85 390.75 L 32.59 386.84 L 31.44 382.89 L 30.40 378.90 L 29.49 374.88 L 28.69 370.82 L 28.01 366.74 L 27.44 362.64 L 26.98 358.53 L 26.62 354.41 L 26.38 350.27 L 26.24 346.14 L 26.21 342.00 L 26.29 337.87 L 26.47 333.74 L 26.75 329.61 L 27.12 325.50 L 27.57 321.39 L 28.07 317.28 L 28.61 313.18 L 29.19 309.08 L 29.79 304.98 L 30.41 300.88 L 31.04 296.79 L 31.69 292.70 L 32.34 288.61 L 33.01 284.53 L 33.68 280.45 L 34.36 276.37 L 35.04 272.29 L 35.73 268.21 L 36.43 264.14 L 37.15 260.07 L 37.87 256.00 L 38.61 251.93 L 39.36 247.86 L 40.11 243.80 L 40.86 239.73 L 41.61 235.66 L 42.35 231.59 L 43.07 227.52 L 43.78 223.44 L 44.46 219.36 L 45.14 215.28 L 45.80 211.18 L 46.47 207.09 L 47.14 203.00 L 47.82 198.91 L 48.51 194.82 L 49.19 190.73 L 49.86 186.63 L 50.52 182.53 L 51.16 178.43 L 51.79 174.32 L 52.41 170.21 L 53.02 166.10 L 53.65 162.00 L 54.30 157.90 L 54.98 153.81 L 55.70 149.73 L 56.49 145.67 L 57.38 141.63 L 58.42 137.64 L 59.62 133.71 L 61.02 129.85 L 62.60 126.05 L 64.34 122.31 L 66.20 118.64 L 68.14 115.00 L 70.13 111.40 L 72.15 107.82 L 74.18 104.25 L 76.22 100.68 L 78.27 97.12 L 80.32 93.56 L 82.39 90.00 L 84.45 86.45 L 86.53 82.90 L 88.61 79.35 L 90.70 75.81 L 92.79 72.27 L 94.88 68.73 L 96.98 65.19 L 99.08 61.66 L 101.18 58.12 L 103.29 54.59 L 105.42 51.06 L 107.57 47.55 L 109.75 44.06 L 111.99 40.62 L 114.32 37.23 L 116.76 33.94 L 119.34 30.76 L 122.08 27.74 L 125.00 24.91 L 128.11 22.28 L 131.39 19.90 L 134.84 17.78 L 138.45 15.93 L 142.18 14.36 L 146.02 13.09 L 149.95 12.09 L 153.95 11.37 L 158.00 10.89 L 162.08 10.62 L 166.18 10.53 L 170.30 10.58 L 174.42 10.74 L 178.55 10.96 L 182.69 11.24 L 186.83 11.56 L 190.98 11.90 L 195.14 12.25 L 199.30 12.62 L 203.47 12.99 L 207.64 13.37 L 211.81 13.76 L 215.97 14.14 L 220.12 14.53 L 224.26 14.92 L 228.39 15.30 L 232.52 15.68 L 236.64 16.04 L 240.76 16.40 L 244.88 16.75 L 248.99 17.10 L 253.11 17.46 L 257.22 17.83 L 261.33 18.24 L 265.44 18.70 L 269.53 19.23 L 273.59 19.89 L 277.62 20.70 L 281.60 21.69 L 285.52 22.90 L 289.37 24.32 L 293.13 25.96 L 296.81 27.79 L 300.40 29.78 L 303.92 31.90 L 307.39 34.12 L 310.80 36.42 L 314.16 38.77 L 317.50 41.16 L 320.81 43.59 L 324.11 46.04 L 327.38 48.50 L 330.65 50.98 L 333.90 53.47 L 337.14 55.97 L 340.37 58.47 L 343.59 60.98 L 346.80 63.50 L 349.98 66.05 L 353.13 68.64 L 356.23 71.29 L 359.28 74.01 L 362.26 76.81 L 365.16 79.70 L 368.00 82.65 L 370.77 85.66 L 373.50 88.70 L 376.20 91.76 L 378.88 94.84 L 381.55 97.92 L 384.23 101.01 L 386.91 104.11 L 389.59 107.21 L 392.27 110.31 L 394.95 113.41 L 397.64 116.52 L 400.33 119.62 L 403.03 122.73 L 405.74 125.85 L 408.45 128.97 L 411.16 132.09 L 413.87 135.22 L 416.58 138.34 L 419.30 141.46 L 422.02 144.58 L 424.75 147.70 L 427.48 150.82 L 430.20 153.94 L 432.92 157.06 L 435.64 160.18 L 438.36 163.30 L 441.07 166.43 L 443.78 169.56 L 446.47 172.70 L 449.12 175.88 L 451.71 179.09 L 454.23 182.37 L 456.64 185.71 L 458.93 189.13 L 461.07 192.64 L 463.07 196.23 L 464.91 199.90 L 466.58 203.65 L 468.08 207.47 L 469.41 211.34 L 470.55 215.27 L 471.51 219.25 L 472.29 223.26 L 472.89 227.31 L 473.29 231.39 L 473.52 235.49 L 473.57 239.60 L 473.46 243.71 L 473.20 247.82 L 472.81 251.94 L 472.33 256.05 L 471.77 260.15 L 471.15 264.25 L 470.49 268.34 L 469.78 272.43 L 469.04 276.50 L 468.29 280.56 L 467.52 284.63 L 466.74 288.69 L 465.96 292.75 L 465.19 296.81 L 464.42 300.86 L 463.66 304.91 L 462.90 308.96 L 462.14 313.01 L 461.39 317.05 L 460.65 321.10 L 459.92 325.16 L 459.18 329.22 L 458.44 333.28 L 457.68 337.34 L 456.88 341.38 L 456.00 345.41 L 455.03 349.39 Z" />
</symbol>
<symbol id="bl1">
<path d="M 334.16 359.31 L 331.62 361.97 L 329.23 364.75 L 326.99 367.64 L 324.91 370.63 L 322.95 373.70 L 321.09 376.81 L 319.30 379.97 L 317.54 383.14 L 315.79 386.34 L 314.06 389.55 L 312.32 392.78 L 310.59 396.01 L 308.85 399.26 L 307.10 402.50 L 305.33 405.73 L 303.54 408.96 L 301.71 412.16 L 299.84 415.33 L 297.92 418.47 L 295.96 421.57 L 293.94 424.63 L 291.86 427.65 L 289.71 430.62 L 287.50 433.55 L 285.21 436.44 L 282.85 439.27 L 280.42 442.04 L 277.91 444.75 L 275.33 447.39 L 272.68 449.96 L 269.96 452.46 L 267.18 454.88 L 264.34 457.23 L 261.45 459.51 L 258.51 461.71 L 255.53 463.84 L 252.51 465.88 L 249.46 467.84 L 246.39 469.72 L 243.28 471.50 L 240.14 473.21 L 236.96 474.83 L 233.76 476.37 L 230.52 477.83 L 227.24 479.21 L 223.91 480.51 L 220.55 481.74 L 217.14 482.89 L 213.69 483.96 L 210.20 484.95 L 206.66 485.86 L 203.08 486.68 L 199.46 487.42 L 195.82 488.06 L 192.15 488.61 L 188.46 489.08 L 184.76 489.46 L 181.06 489.73 L 177.36 489.92 L 173.67 490.00 L 169.99 489.99 L 166.33 489.90 L 162.69 489.72 L 159.05 489.46 L 155.42 489.11 L 151.80 488.66 L 148.19 488.12 L 144.58 487.47 L 141.00 486.73 L 137.44 485.90 L 133.92 484.97 L 130.42 483.96 L 126.96 482.86 L 123.54 481.68 L 120.13 480.42 L 116.76 479.08 L 113.41 477.65 L 110.09 476.14 L 106.80 474.54 L 103.55 472.86 L 100.34 471.10 L 97.18 469.27 L 94.07 467.36 L 91.01 465.39 L 88.01 463.35 L 85.08 461.25 L 82.21 459.07 L 79.40 456.83 L 76.65 454.52 L 73.97 452.14 L 71.35 449.69 L 68.79 447.19 L 66.30 444.63 L 63.87 442.01 L 61.51 439.34 L 59.22 436.60 L 57.00 433.81 L 54.84 430.95 L 52.75 428.04 L 50.73 425.07 L 48.77 422.06 L 46.89 419.01 L 45.09 415.92 L 43.37 412.80 L 41.73 409.65 L 40.16 406.47 L 38.67 403.23 L 37.25 399.95 L 35.90 396.62 L 34.63 393.25 L 33.44 389.83 L 32.34 386.39 L 31.32 382.91 L 30.39 379.43 L 29.54 375.93 L 28.78 372.43 L 28.12 368.92 L 27.55 365.40 L 27.07 361.87 L 26.68 358.35 L 26.39 354.81 L 26.18 351.27 L 26.06 347.72 L 26.02 344.15 L 26.06 340.56 L 26.18 336.95 L 26.40 333.33 L 26.71 329.69 L 27.12 326.05 L 27.62 322.42 L 28.20 318.81 L 28.88 315.21 L 29.65 311.64 L 30.51 308.09 L 31.45 304.57 L 32.47 301.06 L 33.58 297.57 L 34.77 294.10 L 36.05 290.64 L 37.42 287.21 L 38.89 283.79 L 40.45 280.40 L 42.11 277.05 L 43.87 273.72 L 45.71 270.43 L 47.63 267.17 L 49.61 263.92 L 51.66 260.70 L 53.74 257.49 L 55.86 254.29 L 58.00 251.10 L 60.15 247.92 L 62.29 244.75 L 64.42 241.59 L 66.54 238.42 L 68.64 235.26 L 70.73 232.08 L 72.82 228.89 L 74.89 225.68 L 76.95 222.45 L 79.02 219.20 L 81.08 215.94 L 83.14 212.68 L 85.20 209.42 L 87.26 206.17 L 89.31 202.93 L 91.36 199.70 L 93.41 196.48 L 95.46 193.26 L 97.51 190.04 L 99.56 186.82 L 101.61 183.59 L 103.66 180.36 L 105.71 177.11 L 107.74 173.86 L 109.76 170.61 L 111.74 167.34 L 113.68 164.04 L 115.55 160.70 L 117.35 157.31 L 119.09 153.87 L 120.78 150.38 L 122.47 146.88 L 124.21 143.39 L 126.06 139.97 L 128.05 136.65 L 130.25 133.47 L 132.65 130.49 L 135.29 127.72 L 138.14 125.20 L 141.20 122.98 L 144.45 121.05 L 147.86 119.45 L 151.41 118.18 L 155.07 117.22 L 158.83 116.55 L 162.68 116.16 L 166.60 115.99 L 170.61 116.03 L 174.69 116.24 L 178.83 116.58 L 183.01 117.04 L 187.20 117.57 L 191.39 118.16 L 195.58 118.78 L 199.76 119.42 L 203.94 120.06 L 208.10 120.70 L 212.26 121.32 L 216.42 121.93 L 220.57 122.52 L 224.71 123.11 L 228.84 123.71 L 232.95 124.32 L 237.02 124.98 L 241.03 125.71 L 244.99 126.52 L 248.87 127.46 L 252.67 128.55 L 256.41 129.81 L 260.09 131.24 L 263.72 132.85 L 267.31 134.62 L 270.88 136.51 L 274.42 138.50 L 277.94 140.55 L 281.42 142.64 L 284.88 144.77 L 288.31 146.93 L 291.71 149.11 L 295.13 151.31 L 298.56 153.50 L 302.06 155.63 L 305.63 157.62 L 309.30 159.40 L 313.05 160.84 L 316.88 161.87 L 320.76 162.42 L 324.66 162.49 L 328.55 162.10 L 332.41 161.32 L 336.23 160.23 L 340.00 158.92 L 343.74 157.50 L 347.46 156.06 L 351.18 154.65 L 354.93 153.35 L 358.71 152.17 L 362.52 151.15 L 366.36 150.30 L 370.23 149.61 L 374.11 149.09 L 378.02 148.75 L 381.93 148.57 L 385.87 148.57 L 389.81 148.74 L 393.75 149.09 L 397.69 149.61 L 401.61 150.30 L 405.49 151.16 L 409.34 152.19 L 413.12 153.39 L 416.84 154.75 L 420.48 156.27 L 424.04 157.95 L 427.51 159.78 L 430.89 161.76 L 434.17 163.87 L 437.36 166.12 L 440.45 168.52 L 443.45 171.06 L 446.34 173.74 L 449.12 176.57 L 451.79 179.54 L 454.32 182.61 L 456.72 185.78 L 458.96 189.04 L 461.05 192.37 L 462.98 195.78 L 464.74 199.25 L 466.35 202.79 L 467.79 206.38 L 469.08 210.01 L 470.21 213.69 L 471.17 217.40 L 471.97 221.14 L 472.61 224.94 L 473.09 228.79 L 473.41 232.68 L 473.56 236.62 L 473.54 240.57 L 473.34 244.53 L 472.99 248.47 L 472.46 252.37 L 471.77 256.22 L 470.92 260.02 L 469.89 263.77 L 468.69 267.48 L 467.32 271.13 L 465.79 274.73 L 464.11 278.27 L 462.29 281.74 L 460.32 285.11 L 458.21 288.39 L 455.97 291.56 L 453.60 294.62 L 451.11 297.56 L 448.51 300.38 L 445.79 303.09 L 442.98 305.66 L 440.07 308.11 L 437.07 310.41 L 433.97 312.58 L 430.80 314.59 L 427.57 316.45 L 424.28 318.17 L 420.93 319.73 L 417.50 321.16 L 413.98 322.47 L 410.35 323.67 L 406.60 324.75 L 402.77 325.71 L 398.92 326.52 L 395.08 327.18 L 391.31 327.68 L 387.60 328.06 L 383.96 328.36 L 380.38 328.64 L 376.84 329.00 L 373.37 329.52 L 370.00 330.29 L 366.74 331.38 L 363.65 332.82 L 360.72 334.60 L 357.95 336.69 L 355.31 339.02 L 352.74 341.52 L 350.19 344.09 L 347.61 346.68 L 344.96 349.23 L 342.26 351.75 L 339.52 354.24 L 336.81 356.74 Z" />
</symbol>
<symbol id="bl2">
<path d="M 333.25 163.44 L 331.45 164.77 L 329.67 166.12 L 327.92 167.49 L 326.21 168.90 L 324.54 170.34 L 322.89 171.82 L 321.27 173.34 L 319.66 174.90 L 318.07 176.50 L 316.48 178.12 L 314.88 179.75 L 313.27 181.35 L 311.61 182.90 L 309.89 184.36 L 308.09 185.70 L 306.20 186.88 L 304.20 187.90 L 302.11 188.76 L 299.93 189.45 L 297.69 190.01 L 295.41 190.46 L 293.11 190.83 L 290.80 191.14 L 288.49 191.41 L 286.19 191.64 L 283.88 191.87 L 281.57 192.09 L 279.26 192.34 L 276.96 192.64 L 274.69 193.04 L 272.45 193.55 L 270.28 194.20 L 268.15 194.98 L 266.08 195.87 L 264.05 196.83 L 262.04 197.80 L 260.04 198.75 L 258.03 199.63 L 256.00 200.42 L 253.93 201.10 L 251.83 201.67 L 249.71 202.12 L 247.56 202.46 L 245.41 202.68 L 243.25 202.79 L 241.09 202.80 L 238.92 202.72 L 236.76 202.56 L 234.60 202.35 L 232.44 202.12 L 230.29 201.88 L 228.15 201.67 L 226.01 201.49 L 223.87 201.35 L 221.74 201.25 L 219.60 201.16 L 217.46 201.09 L 215.32 200.99 L 213.18 200.88 L 211.04 200.73 L 208.91 200.55 L 206.78 200.33 L 204.67 200.08 L 202.57 199.81 L 200.47 199.54 L 198.36 199.27 L 196.24 199.01 L 194.10 198.78 L 191.95 198.56 L 189.78 198.38 L 187.61 198.21 L 185.44 198.07 L 183.26 197.95 L 181.09 197.85 L 178.90 197.78 L 176.72 197.75 L 174.53 197.75 L 172.33 197.78 L 170.13 197.83 L 167.91 197.87 L 165.69 197.90 L 163.46 197.89 L 161.23 197.81 L 159.01 197.64 L 156.82 197.38 L 154.66 197.00 L 152.53 196.51 L 150.43 195.89 L 148.37 195.16 L 146.35 194.32 L 144.38 193.36 L 142.45 192.29 L 140.58 191.11 L 138.77 189.82 L 137.03 188.44 L 135.35 186.95 L 133.75 185.36 L 132.22 183.67 L 130.77 181.90 L 129.41 180.05 L 128.16 178.13 L 127.01 176.15 L 125.97 174.13 L 125.06 172.08 L 124.26 169.99 L 123.60 167.87 L 123.05 165.72 L 122.63 163.55 L 122.32 161.36 L 122.11 159.17 L 121.99 156.97 L 121.95 154.76 L 121.95 152.56 L 121.98 150.36 L 122.02 148.15 L 122.03 145.94 L 122.00 143.71 L 121.91 141.49 L 121.76 139.26 L 121.53 137.04 L 121.23 134.83 L 120.85 132.64 L 120.42 130.47 L 119.93 128.32 L 119.41 126.17 L 118.87 124.05 L 118.32 121.92 L 117.76 119.79 L 117.19 117.66 L 116.63 115.52 L 116.08 113.35 L 115.54 111.16 L 115.01 108.94 L 114.51 106.71 L 114.02 104.45 L 113.55 102.19 L 113.09 99.93 L 112.62 97.68 L 112.16 95.43 L 111.69 93.18 L 111.24 90.93 L 110.80 88.68 L 110.37 86.43 L 109.96 84.17 L 109.56 81.91 L 109.17 79.64 L 108.79 77.38 L 108.44 75.12 L 108.10 72.86 L 107.81 70.61 L 107.57 68.37 L 107.40 66.13 L 107.32 63.91 L 107.32 61.70 L 107.42 59.48 L 107.63 57.27 L 107.93 55.05 L 108.34 52.83 L 108.85 50.62 L 109.45 48.40 L 110.15 46.20 L 110.95 44.02 L 111.84 41.88 L 112.81 39.77 L 113.87 37.71 L 115.00 35.71 L 116.22 33.76 L 117.50 31.88 L 118.86 30.05 L 120.29 28.30 L 121.79 26.62 L 123.36 25.02 L 125.00 23.49 L 126.72 22.05 L 128.51 20.68 L 130.36 19.38 L 132.27 18.16 L 134.22 17.01 L 136.23 15.94 L 138.26 14.96 L 140.33 14.06 L 142.41 13.25 L 144.52 12.53 L 146.65 11.90 L 148.79 11.36 L 150.96 10.91 L 153.15 10.56 L 155.36 10.29 L 157.59 10.11 L 159.84 10.01 L 162.10 10.00 L 164.39 10.06 L 166.67 10.17 L 168.96 10.33 L 171.25 10.52 L 173.53 10.73 L 175.82 10.94 L 178.10 11.15 L 180.40 11.37 L 182.69 11.59 L 184.98 11.81 L 187.28 12.03 L 189.57 12.25 L 191.86 12.47 L 194.15 12.68 L 196.44 12.87 L 198.73 13.07 L 201.03 13.26 L 203.34 13.45 L 205.66 13.65 L 207.99 13.87 L 210.32 14.10 L 212.66 14.34 L 215.00 14.58 L 217.34 14.82 L 219.68 15.05 L 222.03 15.27 L 224.38 15.49 L 226.75 15.70 L 229.12 15.90 L 231.50 16.11 L 233.89 16.32 L 236.29 16.53 L 238.68 16.72 L 241.07 16.91 L 243.45 17.09 L 245.82 17.25 L 248.19 17.41 L 250.55 17.57 L 252.91 17.73 L 255.28 17.89 L 257.65 18.04 L 260.02 18.19 L 262.39 18.34 L 264.75 18.51 L 267.11 18.70 L 269.45 18.91 L 271.79 19.16 L 274.11 19.45 L 276.43 19.80 L 278.73 20.23 L 281.02 20.73 L 283.28 21.31 L 285.51 21.99 L 287.71 22.76 L 289.87 23.63 L 292.01 24.59 L 294.11 25.66 L 296.18 26.81 L 298.22 28.04 L 300.24 29.33 L 302.22 30.68 L 304.17 32.05 L 306.09 33.45 L 307.99 34.85 L 309.88 36.25 L 311.77 37.64 L 313.65 39.02 L 315.54 40.40 L 317.42 41.78 L 319.29 43.15 L 321.16 44.54 L 323.02 45.92 L 324.87 47.32 L 326.72 48.71 L 328.56 50.11 L 330.38 51.53 L 332.21 52.95 L 334.02 54.37 L 335.82 55.79 L 337.63 57.22 L 339.43 58.63 L 341.24 60.04 L 343.06 61.43 L 344.89 62.81 L 346.72 64.18 L 348.55 65.55 L 350.38 66.91 L 352.20 68.26 L 354.02 69.60 L 355.81 70.95 L 357.59 72.32 L 359.32 73.73 L 360.99 75.20 L 362.57 76.76 L 364.05 78.41 L 365.39 80.17 L 366.58 82.01 L 367.59 83.94 L 368.42 85.94 L 369.07 88.00 L 369.52 90.11 L 369.77 92.26 L 369.83 94.42 L 369.71 96.60 L 369.42 98.79 L 368.96 100.98 L 368.38 103.15 L 367.68 105.31 L 366.90 107.45 L 366.05 109.56 L 365.15 111.64 L 364.20 113.69 L 363.22 115.72 L 362.19 117.73 L 361.15 119.74 L 360.09 121.74 L 359.04 123.75 L 358.00 125.77 L 356.99 127.79 L 356.02 129.80 L 355.08 131.81 L 354.18 133.81 L 353.30 135.81 L 352.43 137.80 L 351.58 139.80 L 350.71 141.79 L 349.83 143.76 L 348.91 145.72 L 347.93 147.65 L 346.88 149.53 L 345.75 151.35 L 344.52 153.10 L 343.18 154.78 L 341.73 156.38 L 340.18 157.90 L 338.54 159.35 L 336.82 160.75 L 335.05 162.10 Z" />
</symbol>
<symbol id="bl3">
<path d="M 456.73 343.80 L 456.22 346.50 L 455.66 349.17 L 455.05 351.82 L 454.38 354.44 L 453.61 357.03 L 452.74 359.57 L 451.72 362.06 L 450.53 364.46 L 449.16 366.77 L 447.62 368.94 L 445.89 370.98 L 443.98 372.85 L 441.91 374.54 L 439.68 376.04 L 437.32 377.34 L 434.84 378.43 L 432.25 379.30 L 429.58 379.94 L 426.84 380.35 L 424.05 380.53 L 421.24 380.50 L 418.40 380.28 L 415.56 379.92 L 412.73 379.45 L 409.90 378.93 L 407.08 378.37 L 404.27 377.80 L 401.46 377.21 L 398.65 376.62 L 395.85 376.02 L 393.04 375.40 L 390.23 374.78 L 387.41 374.13 L 384.59 373.47 L 381.77 372.78 L 378.94 372.07 L 376.12 371.31 L 373.32 370.48 L 370.56 369.53 L 367.88 368.43 L 365.31 367.13 L 362.90 365.59 L 360.68 363.82 L 358.69 361.80 L 356.97 359.56 L 355.52 357.13 L 354.37 354.54 L 353.51 351.81 L 352.89 348.98 L 352.46 346.07 L 352.14 343.13 L 351.84 340.17 L 351.45 337.24 L 350.88 334.39 L 350.08 331.64 L 349.00 329.03 L 347.63 326.58 L 345.98 324.30 L 344.10 322.16 L 342.02 320.15 L 339.79 318.22 L 337.46 316.34 L 335.06 314.47 L 332.62 312.59 L 330.17 310.68 L 327.75 308.70 L 325.37 306.67 L 323.04 304.57 L 320.80 302.42 L 318.64 300.21 L 316.56 297.94 L 314.57 295.61 L 312.66 293.22 L 310.83 290.75 L 309.06 288.21 L 307.36 285.61 L 305.72 282.95 L 304.12 280.27 L 302.56 277.58 L 301.01 274.89 L 299.46 272.20 L 297.88 269.52 L 296.26 266.86 L 294.58 264.22 L 292.82 261.59 L 291.00 258.99 L 289.10 256.42 L 287.14 253.89 L 285.13 251.40 L 283.07 248.96 L 280.97 246.57 L 278.82 244.23 L 276.63 241.94 L 274.40 239.69 L 272.11 237.48 L 269.77 235.32 L 267.37 233.19 L 264.93 231.11 L 262.44 229.06 L 259.93 227.04 L 257.39 225.04 L 254.86 223.05 L 252.32 221.07 L 249.79 219.11 L 247.27 217.14 L 244.75 215.17 L 242.24 213.20 L 239.72 211.21 L 237.19 209.22 L 234.67 207.21 L 232.15 205.20 L 229.64 203.17 L 227.15 201.13 L 224.70 199.07 L 222.29 196.98 L 219.95 194.83 L 217.70 192.62 L 215.57 190.31 L 213.60 187.91 L 211.81 185.40 L 210.22 182.79 L 208.84 180.10 L 207.69 177.35 L 206.77 174.55 L 206.07 171.73 L 205.59 168.91 L 205.30 166.09 L 205.19 163.28 L 205.22 160.48 L 205.34 157.66 L 205.53 154.82 L 205.75 151.95 L 206.00 149.04 L 206.25 146.10 L 206.50 143.15 L 206.75 140.18 L 207.01 137.21 L 207.27 134.23 L 207.54 131.25 L 207.81 128.28 L 208.07 125.30 L 208.33 122.33 L 208.58 119.35 L 208.82 116.38 L 209.06 113.39 L 209.30 110.39 L 209.56 107.37 L 209.82 104.33 L 210.09 101.29 L 210.35 98.24 L 210.61 95.20 L 210.86 92.17 L 211.10 89.14 L 211.34 86.11 L 211.58 83.08 L 211.83 80.01 L 212.12 76.92 L 212.44 73.81 L 212.82 70.69 L 213.26 67.60 L 213.80 64.57 L 214.44 61.64 L 215.19 58.82 L 216.06 56.11 L 217.06 53.48 L 218.19 50.94 L 219.45 48.47 L 220.84 46.06 L 222.35 43.72 L 224.00 41.44 L 225.77 39.23 L 227.66 37.10 L 229.68 35.04 L 231.82 33.08 L 234.07 31.23 L 236.44 29.48 L 238.91 27.86 L 241.48 26.37 L 244.12 25.01 L 246.83 23.80 L 249.58 22.74 L 252.36 21.82 L 255.17 21.06 L 257.99 20.45 L 260.83 19.99 L 263.69 19.67 L 266.58 19.51 L 269.48 19.51 L 272.41 19.66 L 275.34 19.98 L 278.28 20.45 L 281.20 21.08 L 284.08 21.88 L 286.92 22.82 L 289.70 23.91 L 292.40 25.14 L 295.02 26.50 L 297.56 28.00 L 300.01 29.63 L 302.38 31.39 L 304.64 33.27 L 306.79 35.26 L 308.83 37.35 L 310.75 39.54 L 312.54 41.82 L 314.20 44.18 L 315.73 46.61 L 317.13 49.12 L 318.40 51.68 L 319.53 54.30 L 320.53 56.97 L 321.38 59.68 L 322.10 62.43 L 322.67 65.22 L 323.09 68.04 L 323.38 70.88 L 323.55 73.74 L 323.60 76.63 L 323.56 79.53 L 323.47 82.44 L 323.38 85.35 L 323.33 88.27 L 323.40 91.18 L 323.65 94.08 L 324.14 96.95 L 324.90 99.76 L 325.99 102.47 L 327.39 105.04 L 329.11 107.45 L 331.11 109.66 L 333.36 111.68 L 335.80 113.52 L 338.36 115.20 L 340.99 116.75 L 343.65 118.20 L 346.31 119.58 L 348.97 120.91 L 351.60 122.19 L 354.22 123.45 L 356.81 124.68 L 359.38 125.90 L 361.92 127.11 L 364.45 128.32 L 366.96 129.53 L 369.46 130.74 L 371.97 131.95 L 374.49 133.16 L 377.03 134.36 L 379.58 135.56 L 382.13 136.75 L 384.67 137.94 L 387.20 139.13 L 389.72 140.32 L 392.21 141.52 L 394.69 142.72 L 397.16 143.91 L 399.64 145.11 L 402.12 146.30 L 404.60 147.49 L 407.09 148.69 L 409.59 149.90 L 412.08 151.13 L 414.57 152.36 L 417.06 153.62 L 419.56 154.90 L 422.05 156.21 L 424.53 157.56 L 427.01 158.96 L 429.46 160.42 L 431.88 161.94 L 434.27 163.53 L 436.62 165.18 L 438.92 166.89 L 441.16 168.67 L 443.34 170.52 L 445.46 172.43 L 447.52 174.40 L 449.51 176.44 L 451.43 178.54 L 453.30 180.71 L 455.10 182.95 L 456.83 185.26 L 458.49 187.64 L 460.08 190.10 L 461.60 192.62 L 463.04 195.19 L 464.39 197.81 L 465.67 200.47 L 466.86 203.16 L 467.96 205.89 L 468.97 208.64 L 469.89 211.42 L 470.72 214.23 L 471.46 217.08 L 472.10 219.95 L 472.64 222.84 L 473.09 225.76 L 473.44 228.68 L 473.70 231.60 L 473.88 234.51 L 473.98 237.41 L 473.98 240.29 L 473.89 243.16 L 473.72 246.01 L 473.46 248.83 L 473.13 251.64 L 472.74 254.42 L 472.33 257.18 L 471.90 259.92 L 471.47 262.65 L 471.03 265.37 L 470.58 268.10 L 470.14 270.84 L 469.67 273.59 L 469.21 276.35 L 468.74 279.13 L 468.25 281.93 L 467.75 284.73 L 467.23 287.54 L 466.70 290.34 L 466.14 293.14 L 465.59 295.93 L 465.03 298.71 L 464.46 301.50 L 463.90 304.30 L 463.32 307.11 L 462.75 309.93 L 462.19 312.77 L 461.64 315.61 L 461.10 318.48 L 460.56 321.35 L 460.04 324.22 L 459.53 327.09 L 459.05 329.93 L 458.59 332.76 L 458.13 335.56 L 457.68 338.33 L 457.22 341.08 Z" />
</symbol>
<symbol id="bl4">
<path d="M 371.98 328.04 L 374.87 328.79 L 377.70 329.70 L 380.42 330.80 L 382.95 332.13 L 385.25 333.70 L 387.28 335.48 L 388.99 337.43 L 390.38 339.52 L 391.46 341.71 L 392.23 343.97 L 392.70 346.28 L 392.90 348.62 L 392.84 350.96 L 392.53 353.26 L 391.98 355.48 L 391.19 357.62 L 390.16 359.65 L 388.88 361.60 L 387.36 363.47 L 385.60 365.30 L 383.63 367.11 L 381.48 368.92 L 379.21 370.75 L 376.87 372.61 L 374.50 374.50 L 372.13 376.42 L 369.76 378.37 L 367.39 380.33 L 365.02 382.27 L 362.62 384.19 L 360.18 386.04 L 357.68 387.76 L 355.12 389.31 L 352.47 390.60 L 349.76 391.58 L 346.98 392.20 L 344.19 392.43 L 341.42 392.25 L 338.73 391.68 L 336.18 390.72 L 333.84 389.42 L 331.74 387.81 L 329.92 385.93 L 328.37 383.82 L 327.09 381.52 L 326.03 379.07 L 325.16 376.50 L 324.44 373.83 L 323.81 371.08 L 323.25 368.27 L 322.72 365.41 L 322.21 362.50 L 321.71 359.56 L 321.22 356.59 L 320.74 353.62 L 320.27 350.67 L 319.82 347.73 L 319.40 344.82 L 319.00 341.91 L 318.65 339.01 L 318.32 336.09 L 318.01 333.14 L 317.70 330.17 L 317.36 327.20 L 316.98 324.23 L 316.56 321.31 L 316.10 318.45 L 315.60 315.69 L 315.07 313.06 L 314.51 310.54 L 313.92 308.12 L 313.29 305.76 L 312.63 303.43 L 311.92 301.11 L 311.17 298.76 L 310.36 296.36 L 309.49 293.93 L 308.58 291.48 L 307.61 289.04 L 306.60 286.63 L 305.56 284.26 L 304.48 281.92 L 303.36 279.59 L 302.20 277.25 L 300.99 274.89 L 299.74 272.54 L 298.46 270.21 L 297.16 267.94 L 295.84 265.76 L 294.50 263.66 L 293.14 261.64 L 291.75 259.69 L 290.33 257.79 L 288.90 255.93 L 287.46 254.09 L 286.01 252.28 L 284.54 250.50 L 283.04 248.74 L 281.53 247.00 L 279.99 245.28 L 278.44 243.59 L 276.85 241.92 L 275.24 240.28 L 273.60 238.66 L 271.93 237.07 L 270.22 235.49 L 268.48 233.90 L 266.72 232.27 L 264.97 230.55 L 263.26 228.71 L 261.65 226.69 L 260.18 224.46 L 258.93 222.04 L 257.97 219.44 L 257.35 216.70 L 257.09 213.90 L 257.19 211.12 L 257.65 208.43 L 258.42 205.88 L 259.47 203.53 L 260.76 201.38 L 262.24 199.39 L 263.90 197.52 L 265.69 195.69 L 267.55 193.84 L 269.45 191.89 L 271.31 189.82 L 273.08 187.63 L 274.72 185.32 L 276.18 182.95 L 277.46 180.53 L 278.55 178.11 L 279.48 175.69 L 280.28 173.26 L 281.02 170.83 L 281.72 168.40 L 282.43 165.99 L 283.18 163.62 L 283.96 161.28 L 284.77 158.99 L 285.60 156.73 L 286.44 154.49 L 287.29 152.24 L 288.13 149.99 L 288.96 147.73 L 289.78 145.47 L 290.59 143.22 L 291.40 140.99 L 292.21 138.79 L 293.03 136.62 L 293.87 134.49 L 294.74 132.40 L 295.64 130.33 L 296.60 128.30 L 297.65 126.30 L 298.79 124.35 L 300.05 122.46 L 301.43 120.64 L 302.90 118.88 L 304.45 117.15 L 306.05 115.45 L 307.67 113.72 L 309.27 111.95 L 310.84 110.10 L 312.36 108.17 L 313.83 106.17 L 315.22 104.10 L 316.52 102.01 L 317.72 99.92 L 318.83 97.83 L 319.85 95.76 L 320.82 93.68 L 321.75 91.59 L 322.69 89.49 L 323.69 87.36 L 324.78 85.23 L 326.00 83.13 L 327.38 81.08 L 328.91 79.14 L 330.60 77.35 L 332.44 75.75 L 334.44 74.35 L 336.58 73.19 L 338.87 72.27 L 341.27 71.59 L 343.78 71.19 L 346.37 71.06 L 348.98 71.24 L 351.60 71.71 L 354.16 72.48 L 356.63 73.54 L 358.97 74.88 L 361.13 76.47 L 363.08 78.26 L 364.78 80.23 L 366.23 82.32 L 367.40 84.49 L 368.31 86.72 L 368.95 88.98 L 369.35 91.26 L 369.52 93.53 L 369.47 95.80 L 369.22 98.05 L 368.79 100.28 L 368.19 102.48 L 367.44 104.65 L 366.57 106.81 L 365.60 108.97 L 364.57 111.16 L 363.49 113.38 L 362.39 115.63 L 361.29 117.89 L 360.21 120.16 L 359.14 122.42 L 358.09 124.67 L 357.05 126.91 L 356.02 129.16 L 355.00 131.42 L 354.00 133.70 L 353.00 135.98 L 352.00 138.28 L 350.99 140.56 L 349.97 142.84 L 348.90 145.09 L 347.77 147.31 L 346.55 149.48 L 345.21 151.59 L 343.73 153.62 L 342.09 155.57 L 340.30 157.44 L 338.37 159.22 L 336.33 160.95 L 334.23 162.64 L 332.11 164.30 L 330.02 165.94 L 327.99 167.57 L 326.03 169.20 L 324.13 170.84 L 322.29 172.52 L 320.48 174.27 L 318.70 176.09 L 316.93 178.01 L 315.20 180.00 L 313.51 182.05 L 311.90 184.13 L 310.38 186.22 L 308.94 188.30 L 307.60 190.36 L 306.35 192.41 L 305.16 194.45 L 304.04 196.49 L 302.98 198.56 L 301.98 200.66 L 301.05 202.80 L 300.17 204.97 L 299.37 207.18 L 298.62 209.43 L 297.94 211.70 L 297.31 213.99 L 296.73 216.30 L 296.18 218.61 L 295.68 220.93 L 295.20 223.27 L 294.78 225.64 L 294.40 228.06 L 294.10 230.54 L 293.89 233.07 L 293.77 235.65 L 293.75 238.28 L 293.81 240.97 L 293.97 243.73 L 294.22 246.58 L 294.57 249.51 L 295.01 252.50 L 295.56 255.51 L 296.20 258.52 L 296.94 261.49 L 297.77 264.42 L 298.69 267.30 L 299.71 270.13 L 300.83 272.93 L 302.06 275.70 L 303.39 278.44 L 304.82 281.17 L 306.35 283.88 L 307.99 286.55 L 309.74 289.18 L 311.59 291.76 L 313.53 294.28 L 315.56 296.73 L 317.67 299.11 L 319.85 301.41 L 322.09 303.62 L 324.38 305.73 L 326.71 307.74 L 329.09 309.67 L 331.49 311.51 L 333.91 313.24 L 336.31 314.87 L 338.69 316.37 L 341.03 317.73 L 343.34 318.96 L 345.62 320.07 L 347.92 321.08 L 350.26 322.03 L 352.69 322.92 L 355.22 323.78 L 357.84 324.58 L 360.56 325.34 L 363.35 326.05 L 366.19 326.71 L 369.08 327.36 Z" />
</symbol>
</defs>
<!-- isDone: 0 -->
<rect width="700" height="500" style="fill:#fff;stroke-width:0" />
<use class="p0 borderLine" xlink:href="#bl0"/>
<use class="p1 borderLine" xlink:href="#bl1"/>
<use class="p2 borderLine" xlink:href="#bl2"/>
<use class="p3 borderLine" xlink:href="#bl3"/>
<use class="p4 borderLine" xlink:href="#bl4"/>
<use class="q0 outLine" xlink:href="#bl0"/>
<use class="q1 outLine" xlink:href="#bl1"/>
<use class="q2 outLine" xlink:href="#bl2"/>
<use class="q3 outLine" xlink:href="#bl3"/>
<use class="q4 outLine" xlink:href="#bl4"/>
<circle onclick="fromCircle(16)" class="circle" cx="89.3556" cy="141.6039" r="24.3497" />
<text class="nLabel" x="89.36" y="136.60">14</text>
<text class="belong" x="89.36" y="146.60">(1)</text>
<circle onclick="fromCircle(24)" class="circle" cx="171.8031" cy="344.3536" r="138.5091" />
<text class="nLabel" x="171.80" y="339.35">453</text>
<text class="belong" x="171.80" y="349.35">(1, 2)</text>
<circle onclick="fromCircle(28)" class="circle" cx="163.3610" cy="156.3691" r="33.8151" />
<text class="nLabel" x="163.36" y="151.37">27</text>
<text class="belong" x="163.36" y="161.37">(1, 2, 3)</text>
<circle onclick="fromCircle(30)" class="circle" cx="242.9691" cy="164.3540" r="30.5239" />
<text class="nLabel" x="242.97" y="159.35">22</text>
<text class="belong" x="242.97" y="169.35">(1, 2, 3, 4)</text>
<circle onclick="fromCircle(31)" class="circle" cx="298.0403" cy="172.7061" r="9.2033" />
<text class="nLabel" x="298.04" y="167.71">2</text>
<text class="belong" x="298.04" y="177.71">(1, 2, 3, 4, 5)</text>
<circle onclick="fromCircle(20)" class="circle" cx="159.9468" cy="62.5636" r="45.0869" />
<text class="nLabel" x="159.95" y="57.56">48</text>
<text class="belong" x="159.95" y="67.56">(1, 3)</text>
<circle onclick="fromCircle(22)" class="circle" cx="268.0877" cy="74.5239" r="47.8218" />
<text class="nLabel" x="268.09" y="69.52">54</text>
<text class="belong" x="268.09" y="79.52">(1, 3, 4)</text>
<circle onclick="fromCircle(23)" class="circle" cx="322.4111" cy="137.3378" r="19.5232" />
<text class="nLabel" x="322.41" y="132.34">9</text>
<text class="belong" x="322.41" y="142.34">(1, 3, 4, 5)</text>
<circle onclick="fromCircle(21)" class="circle" cx="346.6709" cy="93.5759" r="15.9406" />
<text class="nLabel" x="346.67" y="88.58">6</text>
<text class="belong" x="346.67" y="98.58">(1, 3, 5)</text>
<circle onclick="fromCircle(18)" class="circle" cx="424.4022" cy="351.1891" r="22.5434" />
<text class="nLabel" x="424.40" y="346.19">12</text>
<text class="belong" x="424.40" y="356.19">(1, 4)</text>
<circle onclick="fromCircle(26)" class="circle" cx="384.1238" cy="238.2418" r="82.3170" />
<text class="nLabel" x="384.12" y="233.24">160</text>
<text class="belong" x="384.12" y="243.24">(1, 2, 4)</text>
<circle onclick="fromCircle(27)" class="circle" cx="276.5922" cy="213.5179" r="13.0155" />
<text class="nLabel" x="276.59" y="208.52">4</text>
<text class="belong" x="276.59" y="218.52">(1, 2, 4, 5)</text>
<circle onclick="fromCircle(19)" class="circle" cx="373.1885" cy="349.4299" r="13.0155" />
<text class="nLabel" x="373.19" y="344.43">4</text>
<text class="belong" x="373.19" y="354.43">(1, 4, 5)</text>
<circle onclick="fromCircle(17)" class="circle" cx="344.1778" cy="375.0612" r="11.2717" />
<text class="nLabel" x="344.18" y="370.06">3</text>
<text class="belong" x="344.18" y="380.06">(1, 5)</text>
<circle onclick="fromCircle(25)" class="circle" cx="335.4308" cy="336.6317" r="9.2033" />
<text class="nLabel" x="335.43" y="331.63">2</text>
<text class="belong" x="335.43" y="341.63">(1, 2, 5)</text>
<g id="legendBox">
<rect class="p0 borderLine" x="500.00" y="50.00" width="30.00" height="15.00" />
<rect class="q0" x="500.00" y="50.00" width="30.00" height="15.00" />
<text class="legend" x="540.00" y="65.00">All Sig Genes</text>
<rect class="p1 borderLine" x="500.00" y="90.00" width="30.00" height="15.00" />
<rect class="q1" x="500.00" y="90.00" width="30.00" height="15.00" />
<text class="legend" x="540.00" y="105.00">Annotation Change</text>
<rect class="p2 borderLine" x="500.00" y="130.00" width="30.00" height="15.00" />
<rect class="q2" x="500.00" y="130.00" width="30.00" height="15.00" />
<text class="legend" x="540.00" y="145.00">Build Change</text>
<rect class="p3 borderLine" x="500.00" y="170.00" width="30.00" height="15.00" />
<rect class="q3" x="500.00" y="170.00" width="30.00" height="15.00" />
<text class="legend" x="540.00" y="185.00">Build Issue</text>
<rect class="p4 borderLine" x="500.00" y="210.00" width="30.00" height="15.00" />
<rect class="q4" x="500.00" y="210.00" width="30.00" height="15.00" />
<text class="legend" x="540.00" y="225.00">Multimapping Diff</text>
</g>
</svg>
